<svg width="16" height="16" viewBox="0 0 16 16" fill="none" xmlns="http://www.w3.org/2000/svg">
<path fill-rule="evenodd" clip-rule="evenodd" d="M5 1H6V2H5C4.44772 2 4 2.44772 4 3V13C4 13.5523 4.44772 14 5 14H11C11.5523 14 12 13.5523 12 13V10H13V13C13 14.1046 12.1046 15 11 15H5C3.89543 15 3 14.1046 3 13V3C3 1.89543 3.89543 1 5 1ZM8 11C7.44772 11 7 11.4477 7 12C7 12.5523 7.44772 13 8 13C8.55228 13 9 12.5523 9 12C9 11.4477 8.55228 11 8 11ZM8 2H14V4.02386C12.8442 4.13302 11.7985 4.59788 10.8381 5.02482L10.7969 5.04309C9.82584 5.47469 8.93691 5.86417 8 5.97111V2ZM11.2031 5.95691C12.1742 5.52531 13.0631 5.13583 14 5.02889V8H8V6.97614C9.1558 6.86698 10.2015 6.40212 11.1619 5.97518L11.2031 5.95691ZM7 2V6.5V8C7 8.55228 7.44772 9 8 9H14C14.5523 9 15 8.55228 15 8V4.5V2C15 1.44772 14.5523 1 14 1H8C7.44772 1 7 1.44772 7 2ZM10 5C10.5523 5 11 4.55228 11 4C11 3.44772 10.5523 3 10 3C9.44772 3 9 3.44772 9 4C9 4.55228 9.44772 5 10 5Z" fill="#F08F35"/>
</svg>
