<svg width="41" height="40" viewBox="0 0 41 40" fill="none" xmlns="http://www.w3.org/2000/svg">
<path fill-rule="evenodd" clip-rule="evenodd" d="M11.3876 21.3431V33.6923C11.3876 33.7499 11.3969 33.7879 11.4033 33.8066C12.9718 35.0448 16.5108 37.326 21.1152 37.326C22.6147 37.326 24.0012 37.0841 25.2434 36.715L26.1754 39.0449C24.6717 39.5128 22.9717 39.826 21.1152 39.826C15.6743 39.826 11.5784 37.1359 9.82503 35.7458C9.20156 35.2515 8.88765 34.488 8.88765 33.6923V21.3431C8.88765 20.6974 8.4745 20.1242 7.86199 19.92L2.80735 18.2352C2.08968 17.9959 1.66246 17.2598 1.81082 16.518L3.42113 8.4664C3.78425 6.65081 4.96526 5.10457 6.62133 4.27654L11.6078 1.78328C12.6052 1.2846 13.9395 2.03921 14.566 2.96166C15.4354 4.24188 17.2651 5.58889 21.1152 5.58889C24.9653 5.58889 26.7949 4.24188 27.6644 2.96166C28.2909 2.03921 29.6252 1.2846 30.6225 1.78328L35.609 4.27654C37.2651 5.10457 38.4461 6.65082 38.8092 8.4664L40.4196 16.518C40.5679 17.2598 40.1407 17.9959 39.423 18.2352L34.3684 19.92C33.7559 20.1242 33.3427 20.6974 33.3427 21.3431V23.5003L31.5636 19.0524C32.0446 18.3639 32.7415 17.8271 33.5778 17.5483L37.795 16.1426L36.3578 8.95669C36.146 7.8976 35.4571 6.99563 34.491 6.5126L29.8861 4.21013C29.8778 4.21659 29.8695 4.22336 29.8611 4.23045C29.7932 4.28763 29.7505 4.33975 29.7325 4.36623C28.308 6.4638 25.6199 8.08889 21.1152 8.08889C16.6104 8.08889 13.9224 6.4638 12.4978 4.36623C12.4799 4.33975 12.4372 4.28762 12.3693 4.23045C12.3609 4.22336 12.3525 4.21659 12.3443 4.21013L7.73937 6.5126C6.77332 6.99563 6.0844 7.8976 5.87258 8.95669L4.4354 16.1426L8.65256 17.5483C10.2859 18.0928 11.3876 19.6214 11.3876 21.3431ZM28.507 38.1425L27.577 35.8174C29.0071 35.1387 30.1183 34.3661 30.8271 33.8066C30.8334 33.7879 30.8427 33.7499 30.8427 33.6923V23.9818L32.1072 27.1429L33.3427 27.6371V32.3629L32.1072 32.8572L30.3954 37.1365C29.8359 37.4743 29.2043 37.8184 28.507 38.1425ZM12.1784 4.11064C12.1784 4.11061 12.1793 4.11087 12.181 4.11149L12.1784 4.11064ZM29.4998 14.6722H21.1152V17.4671H29.4998V14.6722Z" fill="url(#paint0_linear_299_35888)"/>
<path d="M29.25 20L32.1071 27.1429L39.25 30L32.1071 32.8571L29.25 40L26.3929 32.8571L19.25 30L26.3929 27.1429L29.25 20Z" fill="white"/>
<defs>
<linearGradient id="paint0_linear_299_35888" x1="40.4489" y1="19.6017" x2="1.78149" y2="19.6017" gradientUnits="userSpaceOnUse">
<stop stop-color="#E48DC2"/>
<stop offset="0.333333" stop-color="#FFB36C"/>
<stop offset="0.666667" stop-color="#FCE94E"/>
<stop offset="1" stop-color="#B8F3E0"/>
</linearGradient>
</defs>
</svg>
