<svg width="28" height="42" viewBox="0 0 28 42" fill="none" xmlns="http://www.w3.org/2000/svg">
<g clip-path="url(#clip0_6_2325)">
<path d="M14 21C14 17.1734 17.1021 14.0713 20.9287 14.0713C24.7553 14.0713 27.8575 17.1734 27.8575 21C27.8575 24.8267 24.7553 27.9287 20.9287 27.9287C17.1021 27.9287 14 24.8267 14 21Z" fill="#1ABCFE"/>
<path d="M0.142532 34.8575C0.142532 31.0309 3.24463 27.9287 7.07127 27.9287H14V34.8575C14 38.6841 10.8979 41.7862 7.07127 41.7862C3.24463 41.7862 0.142532 38.6841 0.142532 34.8575Z" fill="#0ACF83"/>
<path d="M14 0.213837V14.0713H20.9287C24.7554 14.0713 27.8575 10.9692 27.8575 7.14257C27.8575 3.31594 24.7554 0.213837 20.9287 0.213837H14Z" fill="#FF7262"/>
<path d="M0.142532 7.14257C0.142532 10.9692 3.24463 14.0713 7.07127 14.0713H14V0.213837H7.07127C3.24463 0.213837 0.142532 3.31593 0.142532 7.14257Z" fill="#F24E1E"/>
<path d="M0.142532 21C0.142532 24.8267 3.24463 27.9287 7.07127 27.9287H14V14.0713H7.07127C3.24463 14.0713 0.142532 17.1734 0.142532 21Z" fill="#A259FF"/>
</g>
<defs>
<clipPath id="clip0_6_2325">
<rect width="28" height="42" fill="white"/>
</clipPath>
</defs>
</svg>
