<svg width="86" height="69" viewBox="0 0 86 69" fill="none" xmlns="http://www.w3.org/2000/svg">
<g filter="url(#filter0_i_602_33394)">
<path fill-rule="evenodd" clip-rule="evenodd" d="M43.2641 5.13759C37.7831 1.94485 30.9043 5.89866 30.9043 12.2418V13.5628C30.9043 22.2776 35.7361 30.2575 43.2638 34.5492L44.8479 35.4417C50.2188 38.4675 56.8597 34.5865 56.8597 28.4219C56.8597 18.7815 51.6633 9.86944 43.2641 5.13759Z" fill="url(#paint0_radial_602_33394)"/>
</g>
<g filter="url(#filter1_i_602_33394)">
<path fill-rule="evenodd" clip-rule="evenodd" d="M55.6229 13.5625C47.984 9.11263 38.5427 9.11263 30.9038 13.5625L30.9039 13.5625L29.6406 14.2803C24.148 17.4011 24.1633 25.322 29.6679 28.4216L29.6679 28.4216C38.0861 33.259 48.4407 33.259 56.8589 28.4215V28.4216C62.3282 25.3033 62.3416 17.4233 56.8829 14.2865L55.6229 13.5625Z" fill="url(#paint1_radial_602_33394)"/>
</g>
<g filter="url(#filter2_i_602_33394)">
<path fill-rule="evenodd" clip-rule="evenodd" d="M55.6234 12.3186C55.6234 5.97549 48.774 1.99613 43.2635 5.13775V5.13794C34.8644 9.86976 29.668 18.7817 29.668 28.422C29.668 34.5866 36.3088 38.4676 41.6798 35.4418L43.2638 34.5495V34.5493L43.5133 34.407C51.0007 30.1383 55.6234 22.1817 55.6234 13.563V12.3186Z" fill="url(#paint2_radial_602_33394)"/>
</g>
<g filter="url(#filter3_i_602_33394)">
<path d="M43.2635 20.7627L56.859 28.422C48.4407 33.2594 38.0862 33.2594 29.668 28.422L43.2635 20.7627Z" fill="url(#paint3_radial_602_33394)"/>
</g>
<path d="M43.2637 5.1377C51.663 9.8695 56.8595 18.7815 56.8595 28.422L43.2637 20.7627V5.1377Z" fill="url(#paint4_linear_602_33394)"/>
<path d="M10.1396 60.8984C10.1396 63.5713 8.56055 65.1641 5.8877 65.1641C3.06445 65.1641 1.28711 63.1885 1.28711 60.0234C1.28711 56.9131 3.05762 54.9717 5.86719 54.9717C8.06152 54.9717 9.72266 56.2705 10.0645 58.2393H8.49219C8.12305 57.0156 7.15918 56.3115 5.87402 56.3115C3.9873 56.3115 2.85254 57.6924 2.85254 60.0098C2.85254 62.3682 4.02148 63.8242 5.90137 63.8242C7.50098 63.8242 8.6084 62.7988 8.62891 61.3018V61.1309H6.0791V59.8936H10.1396V60.8984ZM14.4668 58.8682C13.4346 58.8682 12.71 59.6543 12.6348 60.7412H16.2305C16.1963 59.6406 15.499 58.8682 14.4668 58.8682ZM16.2236 62.8877H17.625C17.4199 64.2002 16.1758 65.1367 14.5283 65.1367C12.416 65.1367 11.1377 63.708 11.1377 61.4385C11.1377 59.1826 12.4365 57.6787 14.4668 57.6787C16.4629 57.6787 17.707 59.0869 17.707 61.2676V61.7734H12.6279V61.8623C12.6279 63.1133 13.3799 63.9404 14.5625 63.9404C15.4033 63.9404 16.0254 63.5166 16.2236 62.8877ZM18.8555 65V57.8086H20.2637V59.0117H20.2979C20.6875 58.1914 21.4531 57.6855 22.5605 57.6855C24.1465 57.6855 25.0557 58.6973 25.0557 60.3447V65H23.5723V60.6318C23.5723 59.5518 23.0664 58.957 22.041 58.957C21.002 58.957 20.332 59.6953 20.332 60.8096V65H18.8555ZM29.4922 58.8682C28.46 58.8682 27.7354 59.6543 27.6602 60.7412H31.2559C31.2217 59.6406 30.5244 58.8682 29.4922 58.8682ZM31.249 62.8877H32.6504C32.4453 64.2002 31.2012 65.1367 29.5537 65.1367C27.4414 65.1367 26.1631 63.708 26.1631 61.4385C26.1631 59.1826 27.4619 57.6787 29.4922 57.6787C31.4883 57.6787 32.7324 59.0869 32.7324 61.2676V61.7734H27.6533V61.8623C27.6533 63.1133 28.4053 63.9404 29.5879 63.9404C30.4287 63.9404 31.0508 63.5166 31.249 62.8877ZM33.8809 65V57.8086H35.2891V59.0322H35.3232C35.5625 58.1914 36.2051 57.6924 37.0527 57.6924C37.2646 57.6924 37.4492 57.7266 37.5586 57.7471V59.1211C37.4424 59.0732 37.1826 59.0391 36.8955 59.0391C35.9453 59.0391 35.3574 59.6748 35.3574 60.6934V65H33.8809ZM40.8398 63.9541C41.8721 63.9541 42.6787 63.2432 42.6787 62.3066V61.7393L40.9082 61.8486C40.0264 61.9102 39.5273 62.2998 39.5273 62.915C39.5273 63.5439 40.0469 63.9541 40.8398 63.9541ZM40.4297 65.123C39.0215 65.123 38.0371 64.248 38.0371 62.9561C38.0371 61.6982 39.001 60.9258 40.71 60.8301L42.6787 60.7139V60.1602C42.6787 59.3604 42.1387 58.8818 41.2363 58.8818C40.3818 58.8818 39.8486 59.292 39.7188 59.9346H38.3242C38.4062 58.6357 39.5137 57.6787 41.291 57.6787C43.0342 57.6787 44.1484 58.6016 44.1484 60.0439V65H42.7334V63.8174H42.6992C42.2822 64.6172 41.373 65.123 40.4297 65.123ZM46.0146 56.1064H47.498V57.8086H48.8652V58.9775H47.498V62.9424C47.498 63.5645 47.7715 63.8447 48.373 63.8447C48.5234 63.8447 48.7627 63.8311 48.8584 63.8105V64.9795C48.6943 65.0205 48.3662 65.0479 48.0381 65.0479C46.582 65.0479 46.0146 64.4941 46.0146 63.1064V58.9775H44.9688V57.8086H46.0146V56.1064ZM52.9121 58.8682C51.8799 58.8682 51.1553 59.6543 51.0801 60.7412H54.6758C54.6416 59.6406 53.9443 58.8682 52.9121 58.8682ZM54.6689 62.8877H56.0703C55.8652 64.2002 54.6211 65.1367 52.9736 65.1367C50.8613 65.1367 49.583 63.708 49.583 61.4385C49.583 59.1826 50.8818 57.6787 52.9121 57.6787C54.9082 57.6787 56.1523 59.0869 56.1523 61.2676V61.7734H51.0732V61.8623C51.0732 63.1133 51.8252 63.9404 53.0078 63.9404C53.8486 63.9404 54.4707 63.5166 54.6689 62.8877ZM61.8535 65H60.3223V55.1357H61.8535V65ZM69.667 60.2832H68.2588C68.1084 59.5176 67.5342 58.9092 66.5703 58.9092C65.4287 58.9092 64.6768 59.8594 64.6768 61.4043C64.6768 62.9834 65.4355 63.8994 66.584 63.8994C67.4932 63.8994 68.0879 63.4004 68.2588 62.5664H69.6807C69.5234 64.0977 68.2998 65.1367 66.5703 65.1367C64.5127 65.1367 63.1729 63.7285 63.1729 61.4043C63.1729 59.1211 64.5127 57.6787 66.5566 57.6787C68.4092 57.6787 69.5371 58.8682 69.667 60.2832ZM73.8164 65.1367C71.7588 65.1367 70.4053 63.7217 70.4053 61.4043C70.4053 59.0938 71.7656 57.6787 73.8164 57.6787C75.8672 57.6787 77.2275 59.0938 77.2275 61.4043C77.2275 63.7217 75.874 65.1367 73.8164 65.1367ZM73.8164 63.9199C74.9785 63.9199 75.7236 63.0039 75.7236 61.4043C75.7236 59.8115 74.9717 58.8955 73.8164 58.8955C72.6611 58.8955 71.9092 59.8115 71.9092 61.4043C71.9092 63.0039 72.6611 63.9199 73.8164 63.9199ZM78.3691 65V57.8086H79.7773V59.0117H79.8115C80.2012 58.1914 80.9668 57.6855 82.0742 57.6855C83.6602 57.6855 84.5693 58.6973 84.5693 60.3447V65H83.0859V60.6318C83.0859 59.5518 82.5801 58.957 81.5547 58.957C80.5156 58.957 79.8457 59.6953 79.8457 60.8096V65H78.3691Z" fill="url(#paint5_linear_602_33394)"/>
<defs>
<filter id="filter0_i_602_33394" x="30.9043" y="4.00781" width="25.9551" height="32.8626" filterUnits="userSpaceOnUse" color-interpolation-filters="sRGB">
<feFlood flood-opacity="0" result="BackgroundImageFix"/>
<feBlend mode="normal" in="SourceGraphic" in2="BackgroundImageFix" result="shape"/>
<feColorMatrix in="SourceAlpha" type="matrix" values="0 0 0 0 0 0 0 0 0 0 0 0 0 0 0 0 0 0 127 0" result="hardAlpha"/>
<feOffset dy="0.734062"/>
<feGaussianBlur stdDeviation="0.189844"/>
<feComposite in2="hardAlpha" operator="arithmetic" k2="-1" k3="1"/>
<feColorMatrix type="matrix" values="0 0 0 0 1 0 0 0 0 1 0 0 0 0 1 0 0 0 0.15 0"/>
<feBlend mode="normal" in2="shape" result="effect1_innerShadow_602_33394"/>
</filter>
<filter id="filter1_i_602_33394" x="25.5303" y="9.85596" width="35.4385" height="22.1938" filterUnits="userSpaceOnUse" color-interpolation-filters="sRGB">
<feFlood flood-opacity="0" result="BackgroundImageFix"/>
<feBlend mode="normal" in="SourceGraphic" in2="BackgroundImageFix" result="shape"/>
<feColorMatrix in="SourceAlpha" type="matrix" values="0 0 0 0 0 0 0 0 0 0 0 0 0 0 0 0 0 0 127 0" result="hardAlpha"/>
<feOffset dy="-0.369141"/>
<feGaussianBlur stdDeviation="0.369141"/>
<feComposite in2="hardAlpha" operator="arithmetic" k2="-1" k3="1"/>
<feColorMatrix type="matrix" values="0 0 0 0 1 0 0 0 0 1 0 0 0 0 1 0 0 0 0.3 0"/>
<feBlend mode="normal" in2="shape" result="effect1_innerShadow_602_33394"/>
</filter>
<filter id="filter2_i_602_33394" x="29.668" y="4.04053" width="25.9551" height="32.8193" filterUnits="userSpaceOnUse" color-interpolation-filters="sRGB">
<feFlood flood-opacity="0" result="BackgroundImageFix"/>
<feBlend mode="normal" in="SourceGraphic" in2="BackgroundImageFix" result="shape"/>
<feColorMatrix in="SourceAlpha" type="matrix" values="0 0 0 0 0 0 0 0 0 0 0 0 0 0 0 0 0 0 127 0" result="hardAlpha"/>
<feOffset dy="0.738281"/>
<feGaussianBlur stdDeviation="0.18457"/>
<feComposite in2="hardAlpha" operator="arithmetic" k2="-1" k3="1"/>
<feColorMatrix type="matrix" values="0 0 0 0 1 0 0 0 0 1 0 0 0 0 1 0 0 0 0.1 0"/>
<feBlend mode="normal" in2="shape" result="effect1_innerShadow_602_33394"/>
</filter>
<filter id="filter3_i_602_33394" x="29.668" y="20.3936" width="27.1914" height="11.6567" filterUnits="userSpaceOnUse" color-interpolation-filters="sRGB">
<feFlood flood-opacity="0" result="BackgroundImageFix"/>
<feBlend mode="normal" in="SourceGraphic" in2="BackgroundImageFix" result="shape"/>
<feColorMatrix in="SourceAlpha" type="matrix" values="0 0 0 0 0 0 0 0 0 0 0 0 0 0 0 0 0 0 127 0" result="hardAlpha"/>
<feOffset dy="-0.369141"/>
<feGaussianBlur stdDeviation="0.369141"/>
<feComposite in2="hardAlpha" operator="arithmetic" k2="-1" k3="1"/>
<feColorMatrix type="matrix" values="0 0 0 0 1 0 0 0 0 1 0 0 0 0 1 0 0 0 0.3 0"/>
<feBlend mode="normal" in2="shape" result="effect1_innerShadow_602_33394"/>
</filter>
<radialGradient id="paint0_radial_602_33394" cx="0" cy="0" r="1" gradientUnits="userSpaceOnUse" gradientTransform="translate(40.7194 10.1252) rotate(80.2531) scale(26.916 40.4588)">
<stop stop-color="#CB38FF"/>
<stop offset="1" stop-color="#37FFB7" stop-opacity="0.53"/>
</radialGradient>
<radialGradient id="paint1_radial_602_33394" cx="0" cy="0" r="1" gradientUnits="userSpaceOnUse" gradientTransform="translate(43.2501 25.3125) rotate(-90) scale(17.7187 97.1667)">
<stop stop-color="#FFFB01"/>
<stop offset="1" stop-color="#FFF969" stop-opacity="0.27"/>
</radialGradient>
<radialGradient id="paint2_radial_602_33394" cx="0" cy="0" r="1" gradientUnits="userSpaceOnUse" gradientTransform="translate(29.3287 21.5158) rotate(-12.3122) scale(26.7939 32.0949)">
<stop stop-color="#FFEA2B"/>
<stop offset="1" stop-color="#FF6969" stop-opacity="0.5"/>
</radialGradient>
<radialGradient id="paint3_radial_602_33394" cx="0" cy="0" r="1" gradientUnits="userSpaceOnUse" gradientTransform="translate(43.1557 32.1436) rotate(-89.4903) scale(10.628 27.3441)">
<stop stop-color="#FFFB01"/>
<stop offset="1" stop-color="#FFF969" stop-opacity="0.74"/>
</radialGradient>
<linearGradient id="paint4_linear_602_33394" x1="53.3755" y1="24.0473" x2="50.8442" y2="8.85979" gradientUnits="userSpaceOnUse">
<stop stop-color="#88EAC6"/>
<stop offset="1" stop-color="#8E7BFF" stop-opacity="0.33"/>
</linearGradient>
<linearGradient id="paint5_linear_602_33394" x1="85.5" y1="60" x2="0.5" y2="60" gradientUnits="userSpaceOnUse">
<stop stop-color="#E48DC2"/>
<stop offset="0.333333" stop-color="#FFB36C"/>
<stop offset="0.666667" stop-color="#FCE94E"/>
<stop offset="1" stop-color="#B8F3E0"/>
</linearGradient>
</defs>
</svg>
