<svg width="17" height="16" viewBox="0 0 17 16" fill="none" xmlns="http://www.w3.org/2000/svg">
<path d="M8.5 1C12.366 1 15.5 4.13401 15.5 8C15.5 11.866 12.366 15 8.5 15C4.63401 15 1.5 11.866 1.5 8C1.5 4.13401 4.63401 1 8.5 1ZM8.5 2C5.18629 2 2.5 4.68629 2.5 8C2.5 11.3137 5.18629 14 8.5 14C11.8137 14 14.5 11.3137 14.5 8C14.5 4.68629 11.8137 2 8.5 2ZM8.5 10C9.05228 10 9.5 10.4477 9.5 11C9.5 11.5523 9.05228 12 8.5 12C7.94772 12 7.5 11.5523 7.5 11C7.5 10.4477 7.94772 10 8.5 10ZM8.5 4C9.03541 4 9.45367 4.46236 9.40039 4.99512L9.0498 8.50293C9.02136 8.78515 8.7837 9 8.5 9C8.2163 9 7.97864 8.78515 7.9502 8.50293L7.59961 4.99512C7.54633 4.46236 7.96459 4 8.5 4Z" fill="white"/>
</svg>
