<svg width="16" height="16" viewBox="0 0 16 16" fill="none" xmlns="http://www.w3.org/2000/svg">
<path d="M3 1.5H4.22559C4.871 1.50019 5.44427 1.9131 5.64844 2.52539L7.47266 8L5.64844 13.4746C5.44427 14.0869 4.871 14.4998 4.22559 14.5H3C2.17157 14.5 1.5 13.8284 1.5 13V3C1.5 2.17157 2.17157 1.5 3 1.5Z" fill="white" stroke="white"/>
<path d="M15 3L15 13C15 14.1046 14.1046 15 13 15L11.7749 15C10.914 15 10.1497 14.4491 9.87748 13.6325L8 8L9.87749 2.36754C10.1497 1.55086 10.914 1 11.7749 1L13 1C14.1046 1 15 1.89543 15 3Z" fill="white"/>
</svg>
