<svg width="40" height="32" viewBox="0 0 40 32" fill="none" xmlns="http://www.w3.org/2000/svg">
<path d="M0 4C0 1.79086 1.79086 0 4 0H36C38.2091 0 40 1.79086 40 4V28C40 30.2091 38.2091 32 36 32H4C1.79086 32 0 30.2091 0 28V4Z" fill="#EA5563"/>
<path fill-rule="evenodd" clip-rule="evenodd" d="M20 17L23.5 20.5C23.7761 20.7761 24.2239 20.7761 24.5 20.5C24.7761 20.2239 24.7761 19.7761 24.5 19.5L21 16L24.5 12.5C24.7761 12.2239 24.7761 11.7761 24.5 11.5C24.2239 11.2239 23.7761 11.2239 23.5 11.5L20 15L16.5 11.5C16.2239 11.2239 15.7761 11.2239 15.5 11.5C15.2239 11.7761 15.2239 12.2239 15.5 12.5L19 16L15.5 19.5C15.2239 19.7761 15.2239 20.2239 15.5 20.5C15.7761 20.7761 16.2239 20.7761 16.5 20.5L20 17Z" fill="#C3D2DF"/>
</svg>
