<svg width="110" height="160" viewBox="0 0 110 160" fill="none" xmlns="http://www.w3.org/2000/svg">
<g clip-path="url(#clip0_1596_11272)">
<rect width="110" height="160" rx="6" fill="#282C32"/>
    <rect x="0.75" y="0.75" width="108.5" height="158.5" rx="5.25" stroke="#EA5563" stroke-width="1.5"/>
</g>
<path d="M41.2578 84H39.9453V75.5449H45.2246V76.6758H41.2578V79.3535H44.8906V80.4609H41.2578V84ZM48.0078 83.1035C48.8926 83.1035 49.584 82.4941 49.584 81.6914V81.2051L48.0664 81.2988C47.3105 81.3516 46.8828 81.6855 46.8828 82.2129C46.8828 82.752 47.3281 83.1035 48.0078 83.1035ZM47.6562 84.1055C46.4492 84.1055 45.6055 83.3555 45.6055 82.248C45.6055 81.1699 46.4316 80.5078 47.8965 80.4258L49.584 80.3262V79.8516C49.584 79.166 49.1211 78.7559 48.3477 78.7559C47.6152 78.7559 47.1582 79.1074 47.0469 79.6582H45.8516C45.9219 78.5449 46.8711 77.7246 48.3945 77.7246C49.8887 77.7246 50.8438 78.5156 50.8438 79.752V84H49.6309V82.9863H49.6016C49.2441 83.6719 48.4648 84.1055 47.6562 84.1055ZM52.1152 84V77.8359H53.3809V84H52.1152ZM52.748 76.8398C52.3438 76.8398 52.0156 76.5117 52.0156 76.1133C52.0156 75.709 52.3438 75.3867 52.748 75.3867C53.1523 75.3867 53.4746 75.709 53.4746 76.1133C53.4746 76.5117 53.1523 76.8398 52.748 76.8398ZM54.7227 84V75.5449H55.9883V84H54.7227ZM59.8672 78.7441C58.9824 78.7441 58.3613 79.418 58.2969 80.3496H61.3789C61.3496 79.4062 60.752 78.7441 59.8672 78.7441ZM61.373 82.1895H62.5742C62.3984 83.3145 61.332 84.1172 59.9199 84.1172C58.1094 84.1172 57.0137 82.8926 57.0137 80.9473C57.0137 79.0137 58.127 77.7246 59.8672 77.7246C61.5781 77.7246 62.6445 78.9316 62.6445 80.8008V81.2344H58.291V81.3105C58.291 82.3828 58.9355 83.0918 59.9492 83.0918C60.6699 83.0918 61.2031 82.7285 61.373 82.1895ZM65.9434 84.1055C64.3848 84.1055 63.3535 82.8633 63.3535 80.918C63.3535 78.9727 64.3848 77.7363 65.9316 77.7363C66.8164 77.7363 67.5195 78.1816 67.8652 78.8613H67.8887V75.5449H69.1602V84H67.9297V82.9512H67.9062C67.543 83.6543 66.8398 84.1055 65.9434 84.1055ZM66.2773 78.8027C65.2754 78.8027 64.6484 79.623 64.6484 80.918C64.6484 82.2188 65.2754 83.0332 66.2773 83.0332C67.25 83.0332 67.9004 82.207 67.9004 80.918C67.9004 79.6406 67.25 78.8027 66.2773 78.8027Z" fill="#C3D2DF"/>
<path d="M16.0061 147.336C16.3728 147.336 16.6728 147.036 16.6728 146.669V143.997C16.6728 143.631 16.3728 143.331 16.0061 143.331C15.6395 143.331 15.3395 143.631 15.3395 143.997V146.669C15.3395 147.036 15.6395 147.336 16.0061 147.336Z" fill="#EA5563"/>
<path d="M22.9996 148.635C22.0063 146.83 20.0129 143.504 18.6929 141.306L18.3063 140.659C17.8063 139.833 16.9529 139.333 16.0063 139.333C15.0663 139.333 14.2063 139.826 13.7063 140.659L13.4463 141.092C12.1729 143.218 10.0329 146.77 9.00626 148.642C8.5396 149.495 8.55293 150.501 9.05293 151.334C9.54626 152.167 10.4196 152.667 11.3863 152.667H20.6196C21.5863 152.667 22.4596 152.167 22.9529 151.334C23.4463 150.501 23.4663 149.488 22.9996 148.642V148.635ZM21.8129 150.648C21.5596 151.074 21.1196 151.327 20.6263 151.327H11.3929C10.8996 151.327 10.4596 151.074 10.2063 150.648C9.95293 150.221 9.94626 149.708 10.1863 149.275C11.1996 147.429 13.3263 143.891 14.5996 141.772L14.8596 141.339C15.1196 140.906 15.5396 140.659 16.0129 140.659C16.4863 140.659 16.9063 140.906 17.1663 141.332L17.5529 141.979C18.8663 144.171 20.8529 147.483 21.8329 149.262C22.0729 149.695 22.0663 150.221 21.8129 150.648Z" fill="#EA5563"/>
<path d="M16.0063 149.655C16.4665 149.655 16.8396 149.282 16.8396 148.822C16.8396 148.362 16.4665 147.989 16.0063 147.989C15.546 147.989 15.1729 148.362 15.1729 148.822C15.1729 149.282 15.546 149.655 16.0063 149.655Z" fill="#EA5563"/>
<defs>
<clipPath id="clip0_1596_11272">
<rect width="110" height="160" rx="6" fill="white"/>
</clipPath>
</defs>
</svg>
