<svg width="16" height="16" viewBox="0 0 16 16" fill="none" xmlns="http://www.w3.org/2000/svg">
<path d="M7.78027 3.96387C7.86321 3.81223 8.06424 3.79363 8.17676 3.90723L8.21973 3.96387L9.32324 5.98145C9.4638 6.23842 9.66594 6.45548 9.91113 6.61328L10.0186 6.67676L12.0361 7.78027C12.1878 7.86321 12.2064 8.06424 12.0928 8.17676L12.0361 8.21973L10.0186 9.32324C9.76158 9.4638 9.54452 9.66594 9.38672 9.91113L9.32324 10.0186L8.21973 12.0361C8.13679 12.1878 7.93576 12.2064 7.82324 12.0928L7.78027 12.0361L6.67676 10.0186C6.5362 9.76158 6.33406 9.54452 6.08887 9.38672L5.98145 9.32324L3.96387 8.21973C3.81223 8.13679 3.79363 7.93576 3.90723 7.82324L3.96387 7.78027L5.98145 6.67676C6.23842 6.5362 6.45548 6.33406 6.61328 6.08887L6.67676 5.98145L7.78027 3.96387Z" stroke="#C3D2DF" stroke-width="1.5" stroke-linejoin="round"/>
</svg>
