<svg width="135" height="135" viewBox="0 0 135 135" fill="none" xmlns="http://www.w3.org/2000/svg">
<rect width="135" height="135" rx="6" fill="#3D434D"/>
<path d="M67 71C68.2426 71 69.25 69.9926 69.25 68.75V55.6436L69.9326 56.3018C70.6255 56.9705 71.7241 56.9704 72.417 56.3018C73.1455 55.5986 73.1455 54.4307 72.417 53.7275L68.5625 50.0078C67.6908 49.1666 66.3092 49.1666 65.4375 50.0078L61.583 53.7275C60.8545 54.4307 60.8545 55.5986 61.583 56.3018C62.2759 56.9704 63.3745 56.9705 64.0674 56.3018L64.75 55.6436V68.75C64.75 69.9926 65.7574 71 67 71ZM74.875 75.5C77.9816 75.5 80.5 72.9816 80.5 69.875V65.375C80.5 62.2684 77.9816 59.75 74.875 59.75H73.75V62H74.875C76.739 62 78.25 63.511 78.25 65.375V69.875C78.25 71.739 76.739 73.25 74.875 73.25H59.125C57.261 73.25 55.75 71.739 55.75 69.875V65.375C55.75 63.511 57.261 62 59.125 62H60.25V59.75H59.125C56.0184 59.75 53.5 62.2684 53.5 65.375V69.875C53.5 72.9816 56.0184 75.5 59.125 75.5H74.875Z" fill="#C3D2DF"/>
<path d="M51.8887 85.0449V90.418C51.8887 91.625 52.6504 92.4746 53.998 92.4746C55.3457 92.4746 56.1133 91.625 56.1133 90.418V85.0449H57.4199V90.5293C57.4199 92.3516 56.1191 93.6406 53.998 93.6406C51.877 93.6406 50.5762 92.3516 50.5762 90.5293V85.0449H51.8887ZM62.0371 87.2363C63.6016 87.2363 64.6328 88.4668 64.6328 90.418C64.6328 92.3691 63.6074 93.6055 62.0605 93.6055C61.1758 93.6055 60.4727 93.1719 60.1211 92.4863H60.0918V95.5391H58.8262V87.3359H60.0508V88.3965H60.0742C60.4375 87.6875 61.1465 87.2363 62.0371 87.2363ZM61.7031 92.5332C62.7051 92.5332 63.332 91.7129 63.332 90.418C63.332 89.1289 62.7051 88.3027 61.7031 88.3027C60.7363 88.3027 60.0859 89.1465 60.0859 90.418C60.0859 91.7012 60.7305 92.5332 61.7031 92.5332ZM65.6582 93.5V85.0449H66.9238V93.5H65.6582ZM70.873 93.6172C69.1094 93.6172 67.9492 92.4043 67.9492 90.418C67.9492 88.4375 69.1152 87.2246 70.873 87.2246C72.6309 87.2246 73.7969 88.4375 73.7969 90.418C73.7969 92.4043 72.6367 93.6172 70.873 93.6172ZM70.873 92.5742C71.8691 92.5742 72.5078 91.7891 72.5078 90.418C72.5078 89.0527 71.8633 88.2676 70.873 88.2676C69.8828 88.2676 69.2383 89.0527 69.2383 90.418C69.2383 91.7891 69.8828 92.5742 70.873 92.5742ZM76.9316 92.6035C77.8164 92.6035 78.5078 91.9941 78.5078 91.1914V90.7051L76.9902 90.7988C76.2344 90.8516 75.8066 91.1855 75.8066 91.7129C75.8066 92.252 76.252 92.6035 76.9316 92.6035ZM76.5801 93.6055C75.373 93.6055 74.5293 92.8555 74.5293 91.748C74.5293 90.6699 75.3555 90.0078 76.8203 89.9258L78.5078 89.8262V89.3516C78.5078 88.666 78.0449 88.2559 77.2715 88.2559C76.5391 88.2559 76.082 88.6074 75.9707 89.1582H74.7754C74.8457 88.0449 75.7949 87.2246 77.3184 87.2246C78.8125 87.2246 79.7676 88.0156 79.7676 89.252V93.5H78.5547V92.4863H78.5254C78.168 93.1719 77.3887 93.6055 76.5801 93.6055ZM83.3125 93.6055C81.7539 93.6055 80.7227 92.3633 80.7227 90.418C80.7227 88.4727 81.7539 87.2363 83.3008 87.2363C84.1855 87.2363 84.8887 87.6816 85.2344 88.3613H85.2578V85.0449H86.5293V93.5H85.2988V92.4512H85.2754C84.9121 93.1543 84.209 93.6055 83.3125 93.6055ZM83.6465 88.3027C82.6445 88.3027 82.0176 89.123 82.0176 90.418C82.0176 91.7188 82.6445 92.5332 83.6465 92.5332C84.6191 92.5332 85.2695 91.707 85.2695 90.418C85.2695 89.1406 84.6191 88.3027 83.6465 88.3027ZM48.4668 107.5L47.6934 105.215H44.4707L43.6973 107.5H42.332L45.3848 99.0449H46.8027L49.8555 107.5H48.4668ZM46.0645 100.451L44.8047 104.16H47.3594L46.0996 100.451H46.0645ZM50.6348 107.5V101.336H51.8418V102.367H51.8711C52.2051 101.664 52.8613 101.23 53.8105 101.23C55.1699 101.23 55.9492 102.098 55.9492 103.51V107.5H54.6777V103.756C54.6777 102.83 54.2441 102.32 53.3652 102.32C52.4746 102.32 51.9004 102.953 51.9004 103.908V107.5H50.6348ZM57.2148 107.5V101.336H58.4805V107.5H57.2148ZM57.8477 100.34C57.4434 100.34 57.1152 100.012 57.1152 99.6133C57.1152 99.209 57.4434 98.8867 57.8477 98.8867C58.252 98.8867 58.5742 99.209 58.5742 99.6133C58.5742 100.012 58.252 100.34 57.8477 100.34ZM59.7754 107.5V101.336H60.9824V102.373H61.0117C61.2871 101.688 61.9316 101.23 62.7637 101.23C63.6191 101.23 64.2402 101.67 64.4863 102.438H64.5156C64.832 101.688 65.5586 101.23 66.4375 101.23C67.6562 101.23 68.4531 102.039 68.4531 103.264V107.5H67.1816V103.568C67.1816 102.771 66.7539 102.314 66.0039 102.314C65.2539 102.314 64.7324 102.871 64.7324 103.65V107.5H63.4902V103.475C63.4902 102.766 63.0391 102.314 62.3242 102.314C61.5742 102.314 61.041 102.9 61.041 103.691V107.5H59.7754ZM71.834 106.604C72.7188 106.604 73.4102 105.994 73.4102 105.191V104.705L71.8926 104.799C71.1367 104.852 70.709 105.186 70.709 105.713C70.709 106.252 71.1543 106.604 71.834 106.604ZM71.4824 107.605C70.2754 107.605 69.4316 106.855 69.4316 105.748C69.4316 104.67 70.2578 104.008 71.7227 103.926L73.4102 103.826V103.352C73.4102 102.666 72.9473 102.256 72.1738 102.256C71.4414 102.256 70.9844 102.607 70.873 103.158H69.6777C69.748 102.045 70.6973 101.225 72.2207 101.225C73.7148 101.225 74.6699 102.016 74.6699 103.252V107.5H73.457V106.486H73.4277C73.0703 107.172 72.291 107.605 71.4824 107.605ZM76.2695 99.877H77.541V101.336H78.7129V102.338H77.541V105.736C77.541 106.27 77.7754 106.51 78.291 106.51C78.4199 106.51 78.625 106.498 78.707 106.48V107.482C78.5664 107.518 78.2852 107.541 78.0039 107.541C76.7559 107.541 76.2695 107.066 76.2695 105.877V102.338H75.373V101.336H76.2695V99.877ZM79.7969 107.5V101.336H81.0625V107.5H79.7969ZM80.4297 100.34C80.0254 100.34 79.6973 100.012 79.6973 99.6133C79.6973 99.209 80.0254 98.8867 80.4297 98.8867C80.834 98.8867 81.1562 99.209 81.1562 99.6133C81.1562 100.012 80.834 100.34 80.4297 100.34ZM85.0059 107.617C83.2422 107.617 82.082 106.404 82.082 104.418C82.082 102.438 83.248 101.225 85.0059 101.225C86.7637 101.225 87.9297 102.438 87.9297 104.418C87.9297 106.404 86.7695 107.617 85.0059 107.617ZM85.0059 106.574C86.002 106.574 86.6406 105.789 86.6406 104.418C86.6406 103.053 85.9961 102.268 85.0059 102.268C84.0156 102.268 83.3711 103.053 83.3711 104.418C83.3711 105.789 84.0156 106.574 85.0059 106.574ZM88.9082 107.5V101.336H90.1152V102.367H90.1445C90.4785 101.664 91.1348 101.23 92.084 101.23C93.4434 101.23 94.2227 102.098 94.2227 103.51V107.5H92.9512V103.756C92.9512 102.83 92.5176 102.32 91.6387 102.32C90.748 102.32 90.1738 102.953 90.1738 103.908V107.5H88.9082Z" fill="#C3D2DF"/>
</svg>
