<svg width="16" height="16" viewBox="0 0 16 16" fill="none" xmlns="http://www.w3.org/2000/svg">
<path fill-rule="evenodd" clip-rule="evenodd" d="M12 5.08535V5.17689C12.2717 4.86809 12.6226 4.66069 13 4.56346V4.05021V3.4C13 3.13595 12.9493 2.87189 12.7865 2.66401C12.3403 2.09432 11.0821 1 8 1C4.91791 1 3.65968 2.09431 3.21348 2.66401C3.05066 2.87189 3 3.13595 3 3.4V4.05021V5.08535C2.84361 5.03008 2.67532 5 2.5 5C2.32468 5 2.15639 5.03008 2 5.08535C1.4174 5.29127 1 5.84689 1 6.5V8C1 9.10457 1.89543 10 3 10V10.7889C3 11.5786 3.22553 12.3608 3.7727 12.9302C4.10147 13.2724 4.52766 13.661 5.03665 14.0083C5.0125 13.8424 5 13.6726 5 13.5C5 13.2538 5.02542 13.0135 5.07379 12.7817C4.86027 12.6019 4.66613 12.4167 4.49375 12.2373C4.17546 11.9061 4 11.4026 4 10.7889V10V9H3C2.44772 9 2 8.55228 2 8V6.5C2 6.22386 2.22386 6 2.5 6C2.56023 6 2.61591 6.01022 2.66675 6.02819L4 6.49943V5.08535V3.4C4 3.3289 4.00716 3.28665 4.01253 3.26632L4.01274 3.26551C4.26648 2.94984 5.23284 2 8 2C10.7672 2 11.7335 2.94984 11.9873 3.26551L11.9875 3.26632C11.9928 3.28665 12 3.3289 12 3.4V5.08535ZM7.20937 6.09313C7.43408 5.93263 7.74636 5.98468 7.90686 6.20938L12.0846 12.0583C12.2165 12.0203 12.3559 12 12.5 12C13.3284 12 14 12.6716 14 13.5C14 14.3284 13.3284 15 12.5 15C11.6716 15 11 14.3284 11 13.5C11 13.1799 11.1002 12.8833 11.2711 12.6397L10.5 11.5602L9.72894 12.6397C9.89975 12.8833 10 13.1799 10 13.5C10 14.3284 9.32843 15 8.5 15C7.67157 15 7 14.3284 7 13.5C7 12.6716 7.67157 12 8.5 12C8.6441 12 8.78346 12.0203 8.91536 12.0583L9.88554 10.7L7.09313 6.79062C6.93262 6.56591 6.98467 6.25364 7.20937 6.09313ZM12.5 14C12.7761 14 13 13.7761 13 13.5C13 13.2239 12.7761 13 12.5 13C12.2239 13 12 13.2239 12 13.5C12 13.7761 12.2239 14 12.5 14ZM13.9069 6.79062C14.0674 6.56591 14.0153 6.25364 13.7906 6.09313C13.5659 5.93263 13.2536 5.98468 13.0931 6.20938L11 9.13977L11.6144 10L13.9069 6.79062ZM8.5 14C8.77614 14 9 13.7761 9 13.5C9 13.2239 8.77614 13 8.5 13C8.22386 13 8 13.2239 8 13.5C8 13.7761 8.22386 14 8.5 14Z" fill="#E48DC2"/>
</svg>
