<svg width="16" height="16" viewBox="0 0 16 16" fill="none" xmlns="http://www.w3.org/2000/svg">
<path fill-rule="evenodd" clip-rule="evenodd" d="M2 8C2 4.68629 4.68629 2 8 2C11.3137 2 14 4.68629 14 8C14 11.3137 11.3137 14 8 14C4.68629 14 2 11.3137 2 8ZM1 8C1 4.13401 4.13401 1 8 1C11.866 1 15 4.13401 15 8C15 11.866 11.866 15 8 15C4.13401 15 1 11.866 1 8ZM6.83408 12C8.00021 11.8505 9.0376 11.3754 9.72128 10.6777L9.42798 10.3075C9.14432 10.5589 8.7747 10.7525 8.35559 10.8694C8.2456 10.8694 8.2456 10.6976 8.35559 10.4C8.47179 10.0555 8.61426 9.64675 8.75832 9.23345C8.92109 8.76652 9.08589 8.29372 9.21717 7.90092C9.57463 6.79682 9.44631 6.42658 8.8872 6.42658C7.7727 6.5731 6.75718 6.98238 6 7.59019L6.24748 7.97365C6.50198 7.78946 6.81747 7.65519 7.16405 7.58358C7.26487 7.58358 7.2832 7.68936 7.16405 8.03315C7.0095 8.59052 6.77806 9.2621 6.5428 9.94473C6.44319 10.2338 6.3429 10.5248 6.24748 10.8099C5.99083 11.643 6.28414 12 6.83408 12ZM9.91485 5.07614C9.97348 4.96489 10.0011 4.84641 9.99626 4.72745V4.72084C10.0079 4.62802 9.99225 4.53447 9.95027 4.44633C9.90829 4.35819 9.84096 4.27745 9.75268 4.2094C9.66439 4.14135 9.55717 4.08754 9.43802 4.05148C9.31888 4.01543 9.19052 3.99795 9.06135 4.00019C8.72175 4.00017 8.39578 4.09656 8.15393 4.26854C7.91209 4.44051 7.7738 4.67424 7.76898 4.91918C7.75156 5.01826 7.76548 5.11891 7.80971 5.21355C7.85394 5.3082 7.92732 5.39439 8.02434 5.46565C8.12137 5.5369 8.23951 5.59138 8.36991 5.62498C8.5003 5.65858 8.63956 5.67044 8.77722 5.65966C8.94214 5.65623 9.10451 5.6294 9.25505 5.58069C9.40559 5.53198 9.54134 5.46235 9.65455 5.37577C9.76777 5.2892 9.85622 5.18738 9.91485 5.07614Z" fill="#C3D2DF"/>
</svg>