<svg width="16" height="16" viewBox="0 0 16 16" fill="none" xmlns="http://www.w3.org/2000/svg">
<path fill-rule="evenodd" clip-rule="evenodd" d="M12 3.4V5H13V4.05021V3.4C13 3.13595 12.9493 2.87189 12.7865 2.66401C12.3403 2.09432 11.0821 1 8 1C4.91791 1 3.65968 2.09431 3.21348 2.66401C3.05066 2.87189 3 3.13595 3 3.4V4.05021V5.08535C2.84361 5.03008 2.67532 5 2.5 5C2.32468 5 2.15639 5.03008 2 5.08535C1.4174 5.29127 1 5.84689 1 6.5V8C1 9.10457 1.89543 10 3 10V10.7889C3 11.5786 3.22553 12.3608 3.7727 12.9302C4.09355 13.2641 4.50718 13.6423 5 13.9831V12.7187C4.81536 12.5588 4.64606 12.3958 4.49375 12.2373C4.17546 11.9061 4 11.4026 4 10.7889V10V9H3C2.44772 9 2 8.55228 2 8V6.5C2 6.22386 2.22386 6 2.5 6C2.56023 6 2.61591 6.01022 2.66675 6.02819L4 6.49943V5.08535V3.4C4 3.3289 4.00716 3.28665 4.01253 3.26632L4.01274 3.26551C4.26648 2.94984 5.23284 2 8 2C10.7672 2 11.7335 2.94984 11.9873 3.26551L11.9875 3.26632C11.9928 3.28665 12 3.3289 12 3.4ZM6 7C6 7 8 6 10.5 6C13 6 15 7 15 7V11C15 13.2091 13.2091 15 11 15H10C7.79086 15 6 13.2091 6 11V7ZM14 11V7.66277C13.8304 7.59887 13.6263 7.52745 13.3934 7.45578C12.6444 7.22531 11.6217 7 10.5 7C9.37825 7 8.35563 7.22531 7.60659 7.45578C7.37366 7.52745 7.16959 7.59887 7 7.66277V11C7 12.6569 8.34315 14 10 14H11C12.6569 14 14 12.6569 14 11ZM8 9.5C8 9.22386 8.22386 9 8.5 9H9.5C9.77614 9 10 9.22386 10 9.5C10 9.77614 9.77614 10 9.5 10H8.5C8.22386 10 8 9.77614 8 9.5ZM12 11.5V11H9V11.5C9 12.3284 9.67157 13 10.5 13C11.3284 13 12 12.3284 12 11.5ZM11 9.5C11 9.22386 11.2239 9 11.5 9H12.5C12.7761 9 13 9.22386 13 9.5C13 9.77614 12.7761 10 12.5 10H11.5C11.2239 10 11 9.77614 11 9.5Z" fill="#E48DC2"/>
</svg>
