<svg width="16" height="16" viewBox="0 0 16 16" fill="none" xmlns="http://www.w3.org/2000/svg">
<path fill-rule="evenodd" clip-rule="evenodd" d="M8.40147 3.29925L2.60843 2.01191L1.84143 1.84146L2.01188 2.60847L4.01188 11.6085L4.0809 11.9191L4.3915 11.9881L13.3915 13.9881L14.1585 14.1585L13.9881 13.3915L12.6758 7.48628L11.9075 8.63872L12.6394 11.9323L9.62021 8.91313L9.91802 8.37707L9.29404 7.44111L8.88481 8.17773L4.06765 3.36057L6.98308 4.00844L8.40147 3.29925ZM4.84274 10.7376L3.36054 4.06768L8.1777 8.88484L4.84274 10.7376ZM8.9131 9.62024L11.9323 12.6394L5.89391 11.2976L8.9131 9.62024Z" fill="url(#paint0_linear_1463_830)"/>
<path d="M11 0.999985L12.1429 3.85713L15 4.99998L12.1429 6.14284L11 8.99999L9.85714 6.14284L7 4.99998L9.85714 3.85713L11 0.999985Z" fill="white"/>
<defs>
<linearGradient id="paint0_linear_1463_830" x1="14.1585" y1="7.63774" x2="1.84143" y2="7.63774" gradientUnits="userSpaceOnUse">
<stop stop-color="#E48DC2"/>
<stop offset="0.333333" stop-color="#FFB36C"/>
<stop offset="0.666667" stop-color="#FCE94E"/>
<stop offset="1" stop-color="#B8F3E0"/>
</linearGradient>
</defs>
</svg>
