<svg width="16" height="16" viewBox="0 0 16 16" fill="none" xmlns="http://www.w3.org/2000/svg">
<path fill-rule="evenodd" clip-rule="evenodd" d="M4.5 2C4.22386 2 4 2.22386 4 2.5V4L2.5 4C2.22386 4 2 4.22386 2 4.5C2 4.77615 2.22386 5 2.5 5L4 5.00001V11C4 11.5523 4.44772 12 5 12H11V13.5C11 13.7761 11.2239 14 11.5 14C11.7761 14 12 13.7761 12 13.5V12H13.5C13.7761 12 14 11.7761 14 11.5C14 11.2239 13.7761 11 13.5 11H12L12 5.00001C12 4.44772 11.5523 4 11 4L5 4V2.5C5 2.22386 4.77614 2 4.5 2ZM11 5.00001L5 5.00001V11H11L11 5.00001Z" fill="#C3D2DF"/>
</svg>
