<svg width="16" height="16" viewBox="0 0 16 16" fill="none" xmlns="http://www.w3.org/2000/svg">
<path fill-rule="evenodd" clip-rule="evenodd" d="M12 3.4V4H13V3.4C13 3.13595 12.9493 2.87189 12.7865 2.66401C12.3403 2.09432 11.0821 1 8 1C4.91791 1 3.65968 2.09431 3.21348 2.66401C3.05066 2.87189 3 3.13595 3 3.4V4.05021V5.08535C2.84361 5.03008 2.67532 5 2.5 5C2.32468 5 2.15639 5.03008 2 5.08535C1.4174 5.29127 1 5.84689 1 6.5V8C1 9.10457 1.89543 10 3 10V10.7889C3 11.5786 3.22553 12.3608 3.7727 12.9302C4.46355 13.6492 5.58452 14.5732 7 14.8887V13.857C5.96623 13.5629 5.09683 12.8649 4.49375 12.2373C4.17546 11.9061 4 11.4026 4 10.7889V10V9H3C2.44772 9 2 8.55228 2 8V6.5C2 6.22386 2.22386 6 2.5 6C2.56023 6 2.61591 6.01022 2.66675 6.02819L4 6.49943V5.08535V3.4C4 3.3289 4.00716 3.28665 4.01253 3.26632L4.01274 3.26551C4.26648 2.94984 5.23284 2 8 2C10.7672 2 11.7335 2.94984 11.9873 3.26551L11.9875 3.26632C11.9928 3.28665 12 3.3289 12 3.4ZM12 6C12 6 12.2509 6.34129 12.6076 6.86881C13.4843 8.16533 15 10.5868 15 11.8309C15 13.5811 13.6569 15 12 15C10.3431 15 9 13.5811 9 11.8309C9 10.5868 10.5157 8.16533 11.3924 6.86881C11.7491 6.34129 12 6 12 6ZM11.3555 8.77694C11.5766 8.41157 11.7984 8.06495 12 7.75946C12.2016 8.06495 12.4234 8.41157 12.6445 8.77694C13.0088 9.37874 13.3607 10.0137 13.6184 10.5897C13.8917 11.2005 14 11.6187 14 11.8309C14 13.0812 13.0536 14 12 14C10.9464 14 10 13.0812 10 11.8309C10 11.6187 10.1083 11.2005 10.3816 10.5897C10.6393 10.0137 10.9912 9.37874 11.3555 8.77694Z" fill="#E48DC2"/>
</svg>
