<svg width="16" height="16" viewBox="0 0 16 16" fill="none" xmlns="http://www.w3.org/2000/svg">
<path fill-rule="evenodd" clip-rule="evenodd" d="M12 10C11.4477 10 11 10.4477 11 11V12.8372C11 12.9271 10.9271 13 10.8372 13H7.77215C5.13657 13 3 10.8634 3 8.22785V7.5157C3 5.02175 5.02175 3 7.5157 3H8C9.65685 3 11 4.34315 11 6C11 6.15525 11.0361 6.30836 11.1056 6.44721L12.882 10L12 10ZM12 12.8372V12V11H12.882C13.6253 11 14.1088 10.2177 13.7764 9.55278L12 6C12 3.79086 10.2091 2 8 2H7.5157C4.46946 2 2 4.46946 2 7.5157V8.22785C2 11.4157 4.58428 14 7.77215 14H10.8372C11.4794 14 12 13.4794 12 12.8372ZM6 8.73244V9C6 9.55228 6.44772 10 7 10V9V8C6.44772 8 6 7.55228 6 7C6 6.44772 6.44772 6 7 6V5C5.89543 5 5 5.89543 5 7C5 7.74028 5.4022 8.38663 6 8.73244Z" fill="#3BB3F7"/>
</svg>
