<svg width="16" height="16" viewBox="0 0 30 30" fill="none" xmlns="http://www.w3.org/2000/svg">
<path d="M21.7246 0C25.2592 0 28.125 2.86577 28.125 6.40039V17.9746C28.125 21.5092 25.2592 24.375 21.7246 24.375H16.875L11.25 30V24.375H8.27539C4.74077 24.375 1.875 21.5092 1.875 17.9746V6.40039C1.875 2.86577 4.74077 0 8.27539 0H21.7246ZM7.52832 13.125C7.50956 13.3239 7.50001 13.5252 7.5 13.7285C7.5 17.5372 10.8579 20.625 15 20.625C19.1421 20.625 22.5 17.5372 22.5 13.7285C22.5 13.5282 22.4909 13.3298 22.4727 13.1338C15.0002 13.1448 13.2729 13.125 7.52832 13.125ZM10.3125 5.625C8.7592 5.625 7.5 7.30393 7.5 9.375H13.125C13.125 7.30393 11.8658 5.625 10.3125 5.625ZM19.6875 3.75C18.1342 3.75 16.875 5.0092 16.875 6.5625C16.875 8.1158 18.1342 9.375 19.6875 9.375C21.2408 9.375 22.5 8.1158 22.5 6.5625C22.5 5.0092 21.2408 3.75 19.6875 3.75Z" fill="#DEE6ED"/>
</svg>
