<svg width="16" height="16" viewBox="0 0 16 16" fill="none" xmlns="http://www.w3.org/2000/svg">
<path fill-rule="evenodd" clip-rule="evenodd" d="M11 2H5C4.44772 2 4 2.44772 4 3H3C3 1.89543 3.89543 1 5 1H11C12.1046 1 13 1.89543 13 3H12C12 2.44772 11.5523 2 11 2ZM3 13H4C4 13.5523 4.44772 14 5 14H11C11.5523 14 12 13.5523 12 13H13C13 14.1046 12.1046 15 11 15H5C3.89543 15 3 14.1046 3 13ZM14 11.2338V4.76619L11 6.56619V9.43381L14 11.2338ZM9 4C9.91256 4 10.6824 4.61118 10.9224 5.44654L13.4855 3.9087C14.152 3.50879 15 3.9889 15 4.76619V11.2338C15 12.0111 14.152 12.4912 13.4855 12.0913L10.9224 10.5535C10.6824 11.3888 9.91256 12 9 12H3C1.89543 12 1 11.1046 1 10V6C1 4.89543 1.89543 4 3 4H9ZM10 10V6C10 5.44772 9.55229 5 9 5H3C2.44772 5 2 5.44772 2 6V10C2 10.5523 2.44772 11 3 11H9C9.55228 11 10 10.5523 10 10Z" fill="#F08F35"/>
</svg>
