<svg width="17" height="16" viewBox="0 0 17 16" fill="none" xmlns="http://www.w3.org/2000/svg">
<path fill-rule="evenodd" clip-rule="evenodd" d="M13.9142 2.4144C13.1332 1.63335 11.8668 1.63335 11.0858 2.4144L10.5 3.00019L13.5 6.00019L14.0858 5.4144C14.8668 4.63335 14.8668 3.36702 14.0858 2.58597L13.9142 2.4144ZM9.5 5.4144L11.0858 7.00019L5.98875 12.0972L3.87437 12.6258L4.40296 10.5114L9.5 5.4144ZM3.5995 13.7253L6.5 13.0002L11.7929 7.70729L12.5 7.00019L11.7929 6.29308L10.2071 4.70729L9.5 4.00019L8.79289 4.70729L3.5 10.0002L2.77487 12.9007L2.5 14.0002L3.5995 13.7253Z" fill="#C3D2DF"/>
</svg>
