<svg width="16" height="16" viewBox="0 0 16 16" fill="none" xmlns="http://www.w3.org/2000/svg">
<path fill-rule="evenodd" clip-rule="evenodd" d="M5.41421 3L3 5.41421L3 10.5858L5.41421 13H10.5858L13 10.5858V5.41421L10.5858 3L5.41421 3ZM2.29289 4.70711L4.70711 2.29289C4.89464 2.10536 5.149 2 5.41421 2H10.5858C10.851 2 11.1054 2.10536 11.2929 2.29289L13.7071 4.70711C13.8946 4.89464 14 5.149 14 5.41421V10.5858C14 10.851 13.8946 11.1054 13.7071 11.2929L11.2929 13.7071C11.1054 13.8946 10.851 14 10.5858 14H5.41421C5.149 14 4.89464 13.8946 4.70711 13.7071L2.29289 11.2929C2.10536 11.1054 2 10.851 2 10.5858V5.41421C2 5.149 2.10536 4.89464 2.29289 4.70711ZM7.1644 5.98639C7.07834 5.47004 7.47653 5 8 5C8.52347 5 8.92166 5.47004 8.8356 5.98639L8.5822 7.5068C8.53477 7.79141 8.28853 8 8 8C7.71147 8 7.46523 7.7914 7.4178 7.5068L7.1644 5.98639ZM8 11C8.55228 11 9 10.5523 9 10C9 9.44772 8.55228 9 8 9C7.44772 9 7 9.44772 7 10C7 10.5523 7.44772 11 8 11Z" fill="#EA5563"/>
</svg>
