<svg width="122" height="184" viewBox="0 0 122 184" fill="none" xmlns="http://www.w3.org/2000/svg">
<rect width="122" height="184" rx="8" fill="#282C32"/>
<g transform="translate(0, 1)">
<path d="M15.3398 161C16.2864 161 17.1397 161.5 17.6396 162.326L18.0264 162.973C19.3463 165.172 21.3397 168.496 22.333 170.302V170.309C22.7997 171.155 22.7795 172.168 22.2861 173.001C21.7928 173.834 20.9196 174.333 19.9531 174.333H10.7197C9.75307 174.333 8.87908 173.834 8.38574 173.001C7.88574 172.168 7.87318 171.162 8.33984 170.309C9.36655 168.436 11.506 164.884 12.7793 162.759L13.0391 162.326C13.5391 161.493 14.3998 161 15.3398 161ZM15.3457 162.326C14.8726 162.326 14.4523 162.573 14.1924 163.006L13.9326 163.438C12.6593 165.557 10.5329 169.096 9.51953 170.941C9.27955 171.374 9.2858 171.888 9.53906 172.314C9.7924 172.741 10.2332 172.994 10.7266 172.994H19.96C20.4531 172.994 20.8932 172.741 21.1465 172.314C21.3997 171.888 21.4059 171.362 21.166 170.929C20.186 169.15 18.1991 165.838 16.8857 163.646L16.5 162.999C16.24 162.573 15.819 162.326 15.3457 162.326ZM15.3398 169.655C15.7998 169.655 16.1727 170.029 16.1729 170.488C16.1729 170.948 15.7999 171.321 15.3398 171.321C14.8796 171.321 14.5059 170.948 14.5059 170.488C14.506 170.028 14.8797 169.655 15.3398 169.655ZM15.3398 164.998C15.7062 164.998 16.0058 165.298 16.0059 165.664V168.336C16.0059 168.702 15.7063 169.003 15.3398 169.003C14.9732 169.003 14.6729 168.702 14.6729 168.336V165.664C14.6729 165.298 14.9732 164.998 15.3398 164.998Z" fill="#EA5563"/>
</g>
<g transform="translate(6, 1)">
<path d="M39.4258 95V86.5449H44.5586V87.4941H40.4805V90.4004H44.2246V91.3379H40.4805V95H39.4258ZM47.4883 95.1113C47.0898 95.1113 46.7305 95.0352 46.4102 94.8828C46.0938 94.7305 45.8418 94.5137 45.6543 94.2324C45.4707 93.9512 45.3789 93.6191 45.3789 93.2363V93.2246C45.3789 92.8496 45.4688 92.5293 45.6484 92.2637C45.8281 91.9941 46.0898 91.7832 46.4336 91.6309C46.7773 91.4785 47.1934 91.3887 47.6816 91.3613L50.002 91.2207V92.0352L47.8047 92.1758C47.3242 92.2031 46.9727 92.3027 46.75 92.4746C46.5312 92.6465 46.4219 92.8887 46.4219 93.2012V93.2129C46.4219 93.5332 46.543 93.7832 46.7852 93.9629C47.0273 94.1387 47.332 94.2266 47.6992 94.2266C48.0469 94.2266 48.3555 94.1582 48.625 94.0215C48.8945 93.8809 49.1055 93.6914 49.2578 93.4531C49.4141 93.2148 49.4922 92.9453 49.4922 92.6445V90.6758C49.4922 90.2852 49.373 89.9883 49.1348 89.7852C48.9004 89.5781 48.5469 89.4746 48.0742 89.4746C47.6953 89.4746 47.3848 89.543 47.1426 89.6797C46.9004 89.8125 46.7383 90.002 46.6562 90.248L46.6504 90.2656H45.6309L45.6367 90.2305C45.6914 89.8984 45.8281 89.6094 46.0469 89.3633C46.2695 89.1133 46.5566 88.9199 46.9082 88.7832C47.2598 88.6426 47.6602 88.5723 48.1094 88.5723C48.625 88.5723 49.0605 88.6562 49.416 88.8242C49.7754 88.9922 50.0469 89.2344 50.2305 89.5508C50.418 89.8633 50.5117 90.2383 50.5117 90.6758V95H49.4922V94.0684H49.3984C49.2656 94.291 49.1035 94.4805 48.9121 94.6367C48.7246 94.793 48.5117 94.9121 48.2734 94.9941C48.0352 95.0723 47.7734 95.1113 47.4883 95.1113ZM52.3984 95V88.6836H53.418V95H52.3984ZM52.9141 87.4648C52.7227 87.4648 52.5566 87.3965 52.416 87.2598C52.2793 87.1191 52.2109 86.9531 52.2109 86.7617C52.2109 86.5664 52.2793 86.4004 52.416 86.2637C52.5566 86.127 52.7227 86.0586 52.9141 86.0586C53.1094 86.0586 53.2754 86.127 53.4121 86.2637C53.5488 86.4004 53.6172 86.5664 53.6172 86.7617C53.6172 86.9531 53.5488 87.1191 53.4121 87.2598C53.2754 87.3965 53.1094 87.4648 52.9141 87.4648ZM55.3984 95V86.1758H56.418V95H55.3984ZM60.9531 95.1113C60.3516 95.1113 59.834 94.9785 59.4004 94.7129C58.9707 94.4473 58.6387 94.0723 58.4043 93.5879C58.1738 93.0996 58.0586 92.5254 58.0586 91.8652V91.8594C58.0586 91.207 58.1738 90.6348 58.4043 90.1426C58.6387 89.6504 58.9688 89.2656 59.3945 88.9883C59.8203 88.7109 60.3184 88.5723 60.8887 88.5723C61.4629 88.5723 61.9551 88.7051 62.3652 88.9707C62.7793 89.2363 63.0957 89.6074 63.3145 90.084C63.5371 90.5566 63.6484 91.1074 63.6484 91.7363V92.1348H58.5859V91.3203H63.127L62.623 92.0645V91.6602C62.623 91.1641 62.5488 90.7559 62.4004 90.4355C62.252 90.1152 62.0469 89.877 61.7852 89.7207C61.5234 89.5605 61.2227 89.4805 60.8828 89.4805C60.543 89.4805 60.2383 89.5645 59.9688 89.7324C59.7031 89.8965 59.4922 90.1406 59.3359 90.4648C59.1797 90.7891 59.1016 91.1875 59.1016 91.6602V92.0645C59.1016 92.5137 59.1777 92.8984 59.3301 93.2188C59.4824 93.5352 59.6992 93.7793 59.9805 93.9512C60.2617 94.1191 60.5938 94.2031 60.9766 94.2031C61.2617 94.2031 61.5098 94.1641 61.7207 94.0859C61.9316 94.0078 62.1055 93.9082 62.2422 93.7871C62.3789 93.666 62.4746 93.543 62.5293 93.418L62.5527 93.3652H63.5723L63.5605 93.4121C63.5059 93.627 63.4082 93.8359 63.2676 94.0391C63.1309 94.2383 62.9531 94.4199 62.7344 94.584C62.5156 94.7441 62.2559 94.873 61.9551 94.9707C61.6582 95.0645 61.3242 95.1113 60.9531 95.1113ZM67.5625 95.1113C67.0312 95.1113 66.5664 94.9766 66.168 94.707C65.7695 94.4375 65.4609 94.0586 65.2422 93.5703C65.0234 93.0781 64.9141 92.5039 64.9141 91.8477V91.8359C64.9141 91.1758 65.0234 90.6016 65.2422 90.1133C65.4609 89.625 65.7676 89.2461 66.1621 88.9766C66.5605 88.707 67.0273 88.5723 67.5625 88.5723C67.8516 88.5723 68.123 88.6191 68.377 88.7129C68.6348 88.8027 68.8633 88.9297 69.0625 89.0938C69.2617 89.2578 69.418 89.4531 69.5312 89.6797H69.625V86.1758H70.6445V95H69.625V93.9922H69.5312C69.4023 94.2266 69.2402 94.4277 69.0449 94.5957C68.8496 94.7598 68.627 94.8867 68.377 94.9766C68.127 95.0664 67.8555 95.1113 67.5625 95.1113ZM67.7969 94.209C68.1797 94.209 68.5098 94.1133 68.7871 93.9219C69.0645 93.7305 69.2773 93.459 69.4258 93.1074C69.5742 92.752 69.6484 92.332 69.6484 91.8477V91.8359C69.6484 91.3477 69.5742 90.9277 69.4258 90.5762C69.2773 90.2246 69.0645 89.9531 68.7871 89.7617C68.5098 89.5703 68.1797 89.4746 67.7969 89.4746C67.4141 89.4746 67.084 89.5703 66.8066 89.7617C66.5332 89.9492 66.3223 90.2188 66.1738 90.5703C66.0293 90.9219 65.957 91.3438 65.957 91.8359V91.8477C65.957 92.3359 66.0293 92.7578 66.1738 93.1133C66.3223 93.4648 66.5332 93.7363 66.8066 93.9277C67.084 94.1152 67.4141 94.209 67.7969 94.209Z" fill="#C3D2DF"/>
</g>
</svg>
