<svg width="16" height="16" viewBox="0 0 16 16" fill="none" xmlns="http://www.w3.org/2000/svg">
<g filter="url(#filter0_i_3242_737)">
<path fill-rule="evenodd" clip-rule="evenodd" d="M3.54386 4.13286C2.4944 5.06799 1.99687 6.95422 3.20583 8.89099L3.22044 8.91439L3.23238 8.93926C3.58596 9.67538 4.35134 10.5348 5.24654 11.3621C6.12976 12.1784 7.09264 12.9216 7.7888 13.4276C7.85893 13.4785 7.93175 13.5001 8.00002 13.5001C8.06766 13.5001 8.14019 13.4786 8.20981 13.4286C8.89516 12.9204 9.85754 12.1774 10.7437 11.3615C11.6434 10.5332 12.4145 9.67428 12.7676 8.93926L12.7794 8.9146L12.7939 8.89139C14.0011 6.95338 13.5076 5.06681 12.4619 4.1324C11.938 3.66428 11.2773 3.43115 10.5909 3.51802C9.906 3.60472 9.12848 4.01936 8.39715 4.97539L7.99862 5.49636L7.60186 4.97405C6.87627 4.01884 6.10156 3.60464 5.41763 3.51802C4.73189 3.43116 4.06976 3.66426 3.54386 4.13286ZM8.00117 3.89531C7.2441 3.07893 6.39633 2.63399 5.54328 2.52594C4.53949 2.3988 3.59552 2.74744 2.87859 3.38626C1.44718 4.66173 0.910931 7.0812 2.34315 9.39737C2.78744 10.3065 3.66573 11.2628 4.56781 12.0965C5.49017 12.949 6.48694 13.7176 7.20084 14.2365C7.43337 14.4052 7.7108 14.5001 8.00002 14.5001C8.28927 14.5001 8.56622 14.4054 8.79871 14.2368L8.80295 14.2337C9.49974 13.7171 10.4958 12.9491 11.421 12.0972C12.3256 11.2644 13.212 10.3074 13.6569 9.39717C15.0856 7.08218 14.5564 4.66294 13.1282 3.38672C12.4127 2.74742 11.4697 2.39881 10.4654 2.52594C9.61181 2.63397 8.76221 3.0789 8.00117 3.89531Z" fill="white"/>
</g>
<defs>
<filter id="filter0_i_3242_737" x="0" y="0" width="16" height="16" filterUnits="userSpaceOnUse" color-interpolation-filters="sRGB">
<feFlood flood-opacity="0" result="BackgroundImageFix"/>
<feBlend mode="normal" in="SourceGraphic" in2="BackgroundImageFix" result="shape"/>
<feColorMatrix in="SourceAlpha" type="matrix" values="0 0 0 0 0 0 0 0 0 0 0 0 0 0 0 0 0 0 127 0" result="hardAlpha"/>
<feOffset/>
<feGaussianBlur stdDeviation="0.5"/>
<feComposite in2="hardAlpha" operator="arithmetic" k2="-1" k3="1"/>
<feColorMatrix type="matrix" values="0 0 0 0 0 0 0 0 0 0 0 0 0 0 0 0 0 0 0.35 0"/>
<feBlend mode="multiply" in2="shape" result="effect1_innerShadow_3242_737"/>
</filter>
</defs>
</svg>
