<svg width="36" height="36" viewBox="0 0 36 36" fill="none" xmlns="http://www.w3.org/2000/svg">
<path d="M0 18C0 8.05888 8.05888 0 18 0C27.9411 0 36 8.05888 36 18C36 27.9411 27.9411 36 18 36C8.05888 36 0 27.9411 0 18Z" fill="black" fill-opacity="0.25"/>
<path d="M18 0.25C27.8031 0.25 35.75 8.19695 35.75 18C35.75 27.8031 27.8031 35.75 18 35.75C8.19695 35.75 0.25 27.8031 0.25 18C0.25 8.19695 8.19695 0.25 18 0.25Z" stroke="white" stroke-opacity="0.125" stroke-width="0.5"/>
<path d="M19.6168 10.8667C20.1084 10.375 20.9 10.3751 21.3834 10.8667C21.8667 11.3584 21.875 12.15 21.3834 12.6333L16.1666 17.8501C16.0834 17.9334 16.0833 18.0671 16.1666 18.1421L21.3248 23.3003C21.7997 23.7752 21.8917 24.5498 21.4586 25.0581C21.2087 25.3497 20.8587 25.5004 20.5006 25.5005C20.1839 25.5005 19.8584 25.375 19.6168 25.1333L13.3668 18.8833C12.8752 18.3916 12.8751 17.6 13.3668 17.1167L19.6168 10.8667Z" fill="white"/>
</svg>
