<svg width="36" height="36" viewBox="0 0 36 36" fill="none" xmlns="http://www.w3.org/2000/svg">
<g clip-path="url(#clip0_49_6256)">
<path d="M16.3832 10.8667C15.8916 10.3751 15.1 10.3751 14.6166 10.8667C14.1333 11.3584 14.125 12.15 14.6166 12.6333L19.8334 17.8501C19.9166 17.9335 19.9167 18.0671 19.8334 18.1421L14.6752 23.3003C14.2003 23.7752 14.1083 24.5498 14.5414 25.0581C14.7913 25.3497 15.1413 25.5004 15.4994 25.5005C15.8161 25.5005 16.1416 25.375 16.3832 25.1333L22.6332 18.8833C23.1248 18.3916 23.1249 17.6 22.6332 17.1167L16.3832 10.8667Z" fill="white"/>
</g>
<defs>
<clipPath id="clip0_49_6256">
<rect width="36" height="36" fill="white" transform="matrix(-1 0 0 1 36 0)"/>
</clipPath>
</defs>
</svg>
