<svg width="16" height="16" viewBox="0 0 16 16" fill="none" xmlns="http://www.w3.org/2000/svg">
<path fill-rule="evenodd" clip-rule="evenodd" d="M14 4.76619V11.2338L11 9.43381V6.56619L14 4.76619ZM10.9224 5.44654C10.6824 4.61118 9.91256 4 9 4H3C1.89543 4 1 4.89543 1 6V10C1 11.1046 1.89543 12 3 12H9C9.91256 12 10.6824 11.3888 10.9224 10.5535L13.4855 12.0913C14.152 12.4912 15 12.0111 15 11.2338V4.76619C15 3.9889 14.152 3.50879 13.4855 3.9087L10.9224 5.44654ZM10 6V10C10 10.5523 9.55228 11 9 11H3C2.44772 11 2 10.5523 2 10V6C2 5.44772 2.44772 5 3 5H9C9.55229 5 10 5.44772 10 6Z" fill="#F08F35"/>
</svg>
