<svg width="108" height="123" viewBox="0 0 108 123" fill="none" xmlns="http://www.w3.org/2000/svg">
<path d="M84.5195 0C97.2501 0 107.57 10.3202 107.57 23.0508V76.8359C107.57 89.5666 97.2502 99.8867 84.5195 99.8867H71.7139C70.0514 99.8867 68.4335 100.426 67.1035 101.424L38.418 122.938V107.57C38.4178 103.327 34.9778 99.8867 30.7344 99.8867H23.0508C10.3202 99.8867 0 89.5665 0 76.8359V23.0508C3.47708e-05 10.3202 10.3202 3.55652e-05 23.0508 0H84.5195ZM23.167 53.7852C23.0901 54.6002 23.0508 55.4254 23.0508 56.2588C23.0508 71.8667 36.8111 84.5195 53.7852 84.5195C70.7593 84.5195 84.5195 71.8667 84.5195 56.2588C84.5195 55.4376 84.4819 54.6247 84.4072 53.8213C65.9298 53.8485 56.0245 53.8297 45.9023 53.8105C39.2496 53.798 32.503 53.7852 23.167 53.7852ZM34.5762 23.0508C28.211 23.0508 23.051 28.4619 23.0508 35.1367C23.0508 39.3854 25.1414 38.6709 28.3027 37.5898C30.108 36.9725 32.2625 36.2354 34.5762 36.2354C36.8898 36.2354 39.0443 36.9725 40.8496 37.5898C44.011 38.6709 46.1016 39.3855 46.1016 35.1367C46.1014 28.4618 40.9414 23.0508 34.5762 23.0508ZM72.9941 15.3672C66.6289 15.3673 61.4688 20.5274 61.4688 26.8926C61.4688 33.2578 66.6289 38.4179 72.9941 38.418C79.3595 38.418 84.5195 33.2579 84.5195 26.8926C84.5195 20.5273 79.3594 15.3672 72.9941 15.3672Z" fill="#D5DFEA"/>
</svg>
