<svg width="35" height="34" viewBox="0 0 35 34" fill="none" xmlns="http://www.w3.org/2000/svg">
<g clip-path="url(#clip0_1003_6803)">
<path d="M9.28162 28.6875L7.56635 28.9994C5.27792 29.4154 3.35063 30.9514 2.43439 33.0893" stroke="white" stroke-width="1.21429" stroke-linecap="round" stroke-linejoin="round"/>
<path d="M33.08 20.799C32.8459 20.6969 32.4788 20.4533 32.0633 20.3838C31.6482 20.3141 31.3792 20.4198 31.1367 20.5927C30.8011 20.8694 30.4313 21.6353 30.5257 22.4501C30.6804 23.7859 31.309 25.7191 30.8306 26.0828C30.3523 26.4465 29.192 25.5081 27.583 26.505C26.3006 27.2994 25.8875 28.1442 25.2209 29.3041C24.7285 30.1604 24.3713 30.7601 23.4127 30.987C22.1855 31.2776 21.5239 31.1305 21.0979 30.9986C20.6718 30.8665 21.1891 31.8979 22.2188 32.1857C22.2188 32.1857 23.8584 32.7637 26.5552 32.2702C26.5775 32.8479 26.7229 33.4175 27.1862 33.5453C27.5589 33.6389 28.2569 32.6826 28.6092 31.7273C29.5501 31.4044 30.5726 30.9515 31.6619 30.3259C31.9831 31.6194 32.9206 31.7269 33.0514 31.5264C33.6822 30.4057 33.6351 29.1158 33.3008 28.2842C34.0516 25.5575 31.6619 23.3133 31.8918 22.1194C31.9679 21.7228 32.6466 21.4735 32.9287 21.4016C33.2108 21.3295 33.314 20.9012 33.08 20.799Z" fill="black"/>
<path d="M33.08 20.799C32.8459 20.6969 32.4788 20.4533 32.0633 20.3838C31.6482 20.3141 31.3792 20.4198 31.1367 20.5927C30.8011 20.8694 30.4313 21.6353 30.5257 22.4501C30.6804 23.7859 31.309 25.7191 30.8306 26.0828C30.3523 26.4465 29.192 25.5081 27.583 26.505C26.3006 27.2994 25.8875 28.1442 25.2209 29.3041C24.7285 30.1604 24.3713 30.7601 23.4127 30.987C22.1855 31.2776 21.5239 31.1305 21.0979 30.9986C20.6718 30.8665 21.1891 31.8979 22.2188 32.1857C22.2188 32.1857 23.8584 32.7637 26.5552 32.2702C26.5775 32.8479 26.7229 33.4175 27.1862 33.5453C27.5589 33.6389 28.2569 32.6826 28.6092 31.7273C29.5501 31.4044 30.5726 30.9515 31.6619 30.3259C31.9831 31.6194 32.9206 31.7269 33.0514 31.5264C33.6822 30.4057 33.6351 29.1158 33.3008 28.2842C34.0516 25.5575 31.6619 23.3133 31.8918 22.1194C31.9679 21.7228 32.6466 21.4735 32.9287 21.4016C33.2108 21.3295 33.314 20.9012 33.08 20.799Z" fill="url(#paint0_linear_1003_6803)"/>
<path d="M16.143 2.42871H16.201C16.689 2.42871 16.9427 2.63433 17.1943 2.83826C17.4668 3.05912 17.7368 3.278 18.2993 3.23162C18.8763 3.18404 19.2295 2.95884 19.543 2.75901C19.8172 2.58415 20.061 2.42871 20.3976 2.42871C21.0473 2.42871 21.6481 2.75728 21.944 3.30809C22.244 3.86649 22.6405 4.6522 23.0205 5.55114C23.5225 6.73904 24.0536 8.52009 24.3525 9.57795C24.4948 10.0814 24.2146 10.603 23.713 10.8118L23.6668 10.831C22.3184 11.3925 21.3349 11.802 18.037 11.796C15.3652 11.7911 13.3334 11.1938 12.2812 10.7989C11.8034 10.6196 11.5828 10.1239 11.7379 9.6576C12.0579 8.69548 12.6439 7.02581 13.3159 5.55114C13.8083 4.47057 14.2545 3.70412 14.5838 3.20106C14.9172 2.69164 15.5127 2.42871 16.143 2.42871Z" fill="url(#paint1_linear_1003_6803)"/>
<path d="M10.8269 10.1266C10.9891 9.59682 11.1901 8.96099 11.4194 8.27727C8.79939 9.16458 7.10846 10.566 7.10846 12.143C7.10846 14.8255 12.0013 17.0001 18.037 17.0001C24.0727 17.0001 28.9656 14.8255 28.9656 12.143C28.9656 10.6019 27.3507 9.22843 24.832 8.33862C24.9947 8.91537 25.1438 9.47226 25.2704 9.95853C25.5218 10.9238 25.008 11.9324 24.0625 12.3544C22.7246 12.9515 21.4319 13.364 18.037 13.3572C15.3293 13.3517 13.185 12.7667 11.8638 12.2776C10.9615 11.9436 10.5559 11.0117 10.8269 10.1266Z" fill="url(#paint2_linear_1003_6803)"/>
<path d="M6.8437 14.0947C6.98137 14.2932 7.13716 14.4824 7.30751 14.6614C7.41949 14.7791 7.53877 14.8935 7.66474 15.0048C7.50604 15.2159 7.41201 15.4785 7.41201 15.7629V18.0884C7.41209 19.2742 8.35685 20.2398 9.53434 20.273L10.7144 20.3064V22.6995C10.7144 23.8353 11.0405 24.8293 11.6988 25.5027C13.0321 26.8665 15.1746 28.4767 17.7561 28.4767C20.3376 28.4767 22.4799 26.8665 23.8133 25.5027C24.451 24.8504 24.777 23.8971 24.7968 22.8055L24.7977 22.6995V20.3064L25.9777 20.273C27.1552 20.2398 28.0998 19.2742 28.0999 18.0884V15.7629C28.0999 15.6079 28.0717 15.4595 28.0206 15.3224C28.2949 15.1145 28.5449 14.8942 28.7665 14.6614C28.8283 14.5965 28.8879 14.5301 28.9457 14.4626C29.1793 14.8406 29.3142 15.286 29.3142 15.7629V18.0884C29.3141 19.9335 27.8445 21.4352 26.012 21.4869V22.6995C26.0119 24.0489 25.6249 25.3867 24.6816 26.3516C23.2749 27.7905 20.8342 29.691 17.7561 29.691C14.678 29.691 12.2372 27.7905 10.8304 26.3516C9.88714 25.3867 9.50014 24.0489 9.5001 22.6995V21.4869C7.66753 21.4352 6.1978 19.9335 6.19772 18.0884V15.7629C6.19772 15.1203 6.44243 14.5349 6.8437 14.0947Z" fill="white"/>
<path d="M6.27319 33.0894C6.39889 33.0894 6.50163 33.1912 6.50171 33.3169C6.50171 33.4426 6.39894 33.5444 6.27319 33.5444C6.14764 33.5442 6.04565 33.4425 6.04565 33.3169C6.04573 33.1914 6.14769 33.0896 6.27319 33.0894ZM3.23804 29.1431C3.53137 29.1431 3.76929 29.381 3.76929 29.6743C3.76921 29.9676 3.53133 30.2055 3.23804 30.2056C2.94468 30.2056 2.70686 29.9677 2.70679 29.6743C2.70679 29.3809 2.94464 29.1431 3.23804 29.1431ZM2.17554 28.688C2.385 28.6881 2.55437 28.8574 2.55444 29.0669C2.55444 29.2764 2.38505 29.4467 2.17554 29.4468C1.96596 29.4468 1.79565 29.2765 1.79565 29.0669C1.79573 28.8574 1.96601 28.688 2.17554 28.688ZM2.55444 26.7144C2.88976 26.7144 3.16187 26.9865 3.16187 27.3218C3.16171 27.657 2.88967 27.9282 2.55444 27.9282C2.21941 27.928 1.94815 27.6568 1.948 27.3218C1.948 26.9866 2.21932 26.7146 2.55444 26.7144ZM1.72046 24.5894C1.92984 24.5896 2.09937 24.7598 2.09937 24.9692C2.09914 25.1785 1.9297 25.3479 1.72046 25.3481C1.51103 25.3481 1.3408 25.1786 1.34058 24.9692C1.34058 24.7597 1.51089 24.5894 1.72046 24.5894Z" fill="url(#paint3_linear_1003_6803)"/>
</g>
<path d="M6.22662 21.2959C6.67966 21.1868 7.14569 21.1955 7.54303 21.3496C8.4489 21.7016 8.65456 22.672 8.00201 23.5166C7.42099 24.2684 6.35634 24.6655 5.4903 24.4961C5.42382 25.0759 5.11707 25.6391 4.65631 25.9355C3.98947 26.3642 3.25326 26.0727 3.01276 25.2842C2.93073 25.0151 2.91722 24.7228 2.961 24.4375C3.41389 24.1989 4.12094 23.7726 4.78229 23.1455C5.49555 22.4691 5.97784 21.7268 6.22662 21.2959ZM2.66412 17.8613C3.65205 17.3859 4.98865 18.1125 5.64948 19.4844C5.91526 20.0364 6.02816 20.6089 6.0069 21.127C5.55827 21.3584 4.81612 21.7949 4.12408 22.4512C3.47023 23.0712 3.01005 23.7465 2.74615 24.1865C2.30693 24.139 1.82278 23.9745 1.36334 23.6875C0.261237 22.9988 -0.282872 21.8822 0.147522 21.1934C0.445067 20.7174 1.12999 20.5701 1.88873 20.752C1.47944 19.5181 1.78461 18.2849 2.66412 17.8613Z" fill="#D9D9D9"/>
<path d="M6.22662 21.2959C6.67966 21.1868 7.14569 21.1955 7.54303 21.3496C8.4489 21.7016 8.65456 22.672 8.00201 23.5166C7.42099 24.2684 6.35634 24.6655 5.4903 24.4961C5.42382 25.0759 5.11707 25.6391 4.65631 25.9355C3.98947 26.3642 3.25326 26.0727 3.01276 25.2842C2.93073 25.0151 2.91722 24.7228 2.961 24.4375C3.41389 24.1989 4.12094 23.7726 4.78229 23.1455C5.49555 22.4691 5.97784 21.7268 6.22662 21.2959ZM2.66412 17.8613C3.65205 17.3859 4.98865 18.1125 5.64948 19.4844C5.91526 20.0364 6.02816 20.6089 6.0069 21.127C5.55827 21.3584 4.81612 21.7949 4.12408 22.4512C3.47023 23.0712 3.01005 23.7465 2.74615 24.1865C2.30693 24.139 1.82278 23.9745 1.36334 23.6875C0.261237 22.9988 -0.282872 21.8822 0.147522 21.1934C0.445067 20.7174 1.12999 20.5701 1.88873 20.752C1.47944 19.5181 1.78461 18.2849 2.66412 17.8613Z" fill="url(#paint4_linear_1003_6803)"/>
<defs>
<linearGradient id="paint0_linear_1003_6803" x1="32.8361" y1="29.5223" x2="22.7424" y2="29.5981" gradientUnits="userSpaceOnUse">
<stop stop-color="#E48DC2"/>
<stop offset="0.333333" stop-color="#FFB36C"/>
<stop offset="0.666667" stop-color="#FCE94E"/>
<stop offset="1" stop-color="#B8F3E0"/>
</linearGradient>
<linearGradient id="paint1_linear_1003_6803" x1="28.9656" y1="9.28586" x2="7.10846" y2="9.28586" gradientUnits="userSpaceOnUse">
<stop stop-color="#E48DC2"/>
<stop offset="0.333333" stop-color="#FFB36C"/>
<stop offset="0.666667" stop-color="#FCE94E"/>
<stop offset="1" stop-color="#B8F3E0"/>
</linearGradient>
<linearGradient id="paint2_linear_1003_6803" x1="28.9656" y1="9.28586" x2="7.10846" y2="9.28586" gradientUnits="userSpaceOnUse">
<stop stop-color="#E48DC2"/>
<stop offset="0.333333" stop-color="#FFB36C"/>
<stop offset="0.666667" stop-color="#FCE94E"/>
<stop offset="1" stop-color="#B8F3E0"/>
</linearGradient>
<linearGradient id="paint3_linear_1003_6803" x1="9.38593" y1="36.3523" x2="3.9221" y2="27.0932" gradientUnits="userSpaceOnUse">
<stop stop-color="#E48DC2"/>
<stop offset="0.333333" stop-color="#FFB36C"/>
<stop offset="0.666667" stop-color="#FCE94E"/>
<stop offset="1" stop-color="#B8F3E0"/>
</linearGradient>
<linearGradient id="paint4_linear_1003_6803" x1="4.22467" y1="14.7234" x2="-0.0256672" y2="27.8524" gradientUnits="userSpaceOnUse">
<stop stop-color="#E48DC2"/>
<stop offset="0.333333" stop-color="#FFB36C"/>
<stop offset="0.666667" stop-color="#FCE94E"/>
<stop offset="1" stop-color="#B8F3E0"/>
</linearGradient>
<clipPath id="clip0_1003_6803">
<rect width="34" height="34" fill="white" transform="translate(0.733459)"/>
</clipPath>
</defs>
</svg>
