<svg width="16" height="16" viewBox="0 0 16 16" fill="none" xmlns="http://www.w3.org/2000/svg">
<path d="M8.27731 2.0835L14.9013 6.49951L13 7.76709V11.6177L12.9472 11.7231L12.5 11.4995C12.9146 11.7068 12.9451 11.7227 12.9472 11.7241H12.9463L12.9453 11.7261C12.9448 11.727 12.9448 11.7288 12.9443 11.73C12.943 11.7324 12.9412 11.7355 12.9394 11.7388C12.9357 11.7459 12.9307 11.7554 12.9248 11.7661C12.9128 11.7876 12.8954 11.8158 12.874 11.8501C12.8308 11.9192 12.7671 12.0133 12.6806 12.1226C12.5075 12.3412 12.2409 12.6241 11.8564 12.9038C11.0808 13.4679 9.85228 13.9995 7.99997 13.9995C6.14767 13.9995 4.91913 13.4679 4.14352 12.9038C3.75903 12.6241 3.49247 12.3412 3.31931 12.1226C3.23283 12.0133 3.16915 11.9192 3.12595 11.8501C3.1045 11.8158 3.08714 11.7876 3.07516 11.7661C3.06922 11.7555 3.06426 11.7459 3.06052 11.7388C3.05877 11.7355 3.0569 11.7324 3.05563 11.73C3.05517 11.7288 3.05512 11.727 3.05466 11.7261L3.05368 11.7241H3.0527C3.05458 11.7228 3.08357 11.7077 3.49997 11.4995L3.0527 11.7231L2.99997 11.6177V7.76709L1.0986 6.49951L7.72263 2.0835L7.99997 1.89893L8.27731 2.0835ZM11 9.09912V11.4995C11 11.7757 10.7761 11.9995 10.5 11.9995C10.2238 11.9995 9.99997 11.7756 9.99997 11.4995V9.76611L8.27731 10.9155L7.99997 11.1001L7.72263 10.9155L3.99997 8.43311V11.3569C4.02507 11.3947 4.05769 11.4448 4.10251 11.5015C4.22617 11.6577 4.42883 11.8751 4.73141 12.0952C5.33081 12.5311 6.35234 12.9995 7.99997 12.9995C9.64761 12.9995 10.6691 12.5311 11.2685 12.0952C11.5711 11.8751 11.7738 11.6577 11.8974 11.5015C11.9423 11.4448 11.9749 11.3947 12 11.3569V8.43311L11 9.09912ZM2.90134 6.49951L7.99997 9.89795L9.87985 8.64404L7.68747 6.89014C7.472 6.7176 7.43689 6.40258 7.60934 6.18701C7.78184 5.97162 8.09691 5.9366 8.31247 6.10889L10.7539 8.06201L13.0986 6.49951L7.99997 3.1001L2.90134 6.49951Z" fill="#C3D2DF"/>
</svg>
