<svg width="16" height="16" viewBox="0 0 16 16" fill="none" xmlns="http://www.w3.org/2000/svg">
<path fill-rule="evenodd" clip-rule="evenodd" d="M12 6.49943V5.08535V3.4C12 3.3289 11.9928 3.28665 11.9875 3.26632C11.9874 3.26604 11.9873 3.26577 11.9873 3.26551C11.7335 2.94984 10.7672 2 8 2C5.23284 2 4.26648 2.94984 4.01274 3.26551C4.01267 3.26577 4.0126 3.26604 4.01253 3.26632C4.00716 3.28665 4 3.3289 4 3.4V5.08535V6.49943L2.66675 6.02819C2.61591 6.01022 2.56023 6 2.5 6C2.22386 6 2 6.22386 2 6.5V8C2 8.55228 2.44772 9 3 9H4V10V10.7889C4 11.4026 4.17546 11.9061 4.49375 12.2373C5.28276 13.0584 6.52762 14 8 14C9.47238 14 10.7172 13.0584 11.5063 12.2373C11.8245 11.9061 12 11.4026 12 10.7889V10V9H13C13.5523 9 14 8.55228 14 8V6.5C14 6.22386 13.7761 6 13.5 6C13.4398 6 13.3841 6.01022 13.3332 6.02819L12 6.49943ZM13 4.05021V3.4C13 3.13595 12.9493 2.87189 12.7865 2.66401C12.3403 2.09432 11.0821 1 8 1C4.91791 1 3.65968 2.09431 3.21348 2.66401C3.05066 2.87189 3 3.13595 3 3.4V4.05021V5.08535C2.84361 5.03008 2.67532 5 2.5 5C2.32468 5 2.15639 5.03008 2 5.08535C1.4174 5.29127 1 5.84689 1 6.5V8C1 9.10457 1.89543 10 3 10V10.7889C3 11.5786 3.22553 12.3608 3.7727 12.9302C4.61919 13.8111 6.11145 15 8 15C9.88855 15 11.3808 13.8111 12.2273 12.9302C12.7745 12.3608 13 11.5786 13 10.7889V10C14.1046 10 15 9.10457 15 8V6.5C15 5.84689 14.5826 5.29127 14 5.08535C13.8436 5.03008 13.6753 5 13.5 5C13.3247 5 13.1564 5.03008 13 5.08535V4.05021Z" fill="#DEE6ED"/>
</svg>
