<svg width="20" height="20" viewBox="0 0 20 20" fill="none" xmlns="http://www.w3.org/2000/svg">
<path d="M5.00016 3.3335C2.69898 3.3335 0.833496 5.19898 0.833496 7.50016V12.5002C0.833496 14.8013 2.69898 16.6668 5.00016 16.6668H9.16683C11.468 16.6668 13.3335 14.8013 13.3335 12.5002V7.50016C13.3335 5.19898 11.468 3.3335 9.16683 3.3335H5.00016Z" fill="white"/>
<path d="M16.7502 5.34183L15.4418 6.4335C15.1585 6.66683 14.9918 7.02516 14.9918 7.39183V12.6085C14.9918 12.9752 15.1585 13.3335 15.4418 13.5668L16.7502 14.6585C17.7085 15.4585 19.1668 14.7752 19.1668 13.5252V6.47516C19.1668 5.22516 17.7085 4.55016 16.7502 5.34183Z" fill="white"/>
</svg>
