<svg width="278" height="135" viewBox="0 0 278 135" fill="none" xmlns="http://www.w3.org/2000/svg">
<rect width="278" height="135" rx="6" fill="#667380"/>
<path d="M129 49.625H135.283L139.454 53.7959C139.665 54.0069 139.952 54.125 140.25 54.125H147C148.864 54.125 150.375 55.636 150.375 57.5V71C150.375 72.864 148.864 74.375 147 74.375H129C127.136 74.375 125.625 72.864 125.625 71V53C125.625 51.136 127.136 49.625 129 49.625Z" stroke="#C3D2DF" stroke-width="2.25" stroke-linejoin="round"/>
<path d="M119.467 93.5L118.693 91.2148H115.471L114.697 93.5H113.332L116.385 85.0449H117.803L120.855 93.5H119.467ZM117.064 86.4512L115.805 90.1602H118.359L117.1 86.4512H117.064ZM121.635 93.5V87.3359H122.842V88.3672H122.871C123.205 87.6641 123.861 87.2305 124.811 87.2305C126.17 87.2305 126.949 88.0977 126.949 89.5098V93.5H125.678V89.7559C125.678 88.8301 125.244 88.3203 124.365 88.3203C123.475 88.3203 122.9 88.9531 122.9 89.9082V93.5H121.635ZM128.215 93.5V87.3359H129.48V93.5H128.215ZM128.848 86.3398C128.443 86.3398 128.115 86.0117 128.115 85.6133C128.115 85.209 128.443 84.8867 128.848 84.8867C129.252 84.8867 129.574 85.209 129.574 85.6133C129.574 86.0117 129.252 86.3398 128.848 86.3398ZM130.775 93.5V87.3359H131.982V88.373H132.012C132.287 87.6875 132.932 87.2305 133.764 87.2305C134.619 87.2305 135.24 87.6699 135.486 88.4375H135.516C135.832 87.6875 136.559 87.2305 137.438 87.2305C138.656 87.2305 139.453 88.0391 139.453 89.2637V93.5H138.182V89.5684C138.182 88.7715 137.754 88.3145 137.004 88.3145C136.254 88.3145 135.732 88.8711 135.732 89.6504V93.5H134.49V89.4746C134.49 88.7656 134.039 88.3145 133.324 88.3145C132.574 88.3145 132.041 88.9004 132.041 89.6914V93.5H130.775ZM142.834 92.6035C143.719 92.6035 144.41 91.9941 144.41 91.1914V90.7051L142.893 90.7988C142.137 90.8516 141.709 91.1855 141.709 91.7129C141.709 92.252 142.154 92.6035 142.834 92.6035ZM142.482 93.6055C141.275 93.6055 140.432 92.8555 140.432 91.748C140.432 90.6699 141.258 90.0078 142.723 89.9258L144.41 89.8262V89.3516C144.41 88.666 143.947 88.2559 143.174 88.2559C142.441 88.2559 141.984 88.6074 141.873 89.1582H140.678C140.748 88.0449 141.697 87.2246 143.221 87.2246C144.715 87.2246 145.67 88.0156 145.67 89.252V93.5H144.457V92.4863H144.428C144.07 93.1719 143.291 93.6055 142.482 93.6055ZM147.27 85.877H148.541V87.3359H149.713V88.3379H148.541V91.7363C148.541 92.2695 148.775 92.5098 149.291 92.5098C149.42 92.5098 149.625 92.498 149.707 92.4805V93.4824C149.566 93.5176 149.285 93.541 149.004 93.541C147.756 93.541 147.27 93.0664 147.27 91.877V88.3379H146.373V87.3359H147.27V85.877ZM150.797 93.5V87.3359H152.062V93.5H150.797ZM151.43 86.3398C151.025 86.3398 150.697 86.0117 150.697 85.6133C150.697 85.209 151.025 84.8867 151.43 84.8867C151.834 84.8867 152.156 85.209 152.156 85.6133C152.156 86.0117 151.834 86.3398 151.43 86.3398ZM156.006 93.6172C154.242 93.6172 153.082 92.4043 153.082 90.418C153.082 88.4375 154.248 87.2246 156.006 87.2246C157.764 87.2246 158.93 88.4375 158.93 90.418C158.93 92.4043 157.77 93.6172 156.006 93.6172ZM156.006 92.5742C157.002 92.5742 157.641 91.7891 157.641 90.418C157.641 89.0527 156.996 88.2676 156.006 88.2676C155.016 88.2676 154.371 89.0527 154.371 90.418C154.371 91.7891 155.016 92.5742 156.006 92.5742ZM159.908 93.5V87.3359H161.115V88.3672H161.145C161.479 87.6641 162.135 87.2305 163.084 87.2305C164.443 87.2305 165.223 88.0977 165.223 89.5098V93.5H163.951V89.7559C163.951 88.8301 163.518 88.3203 162.639 88.3203C161.748 88.3203 161.174 88.9531 161.174 89.9082V93.5H159.908ZM127.594 106.363V107.5H122.344V99.0449H123.656V106.363H127.594ZM128.607 107.5V101.336H129.873V107.5H128.607ZM129.24 100.34C128.836 100.34 128.508 100.012 128.508 99.6133C128.508 99.209 128.836 98.8867 129.24 98.8867C129.645 98.8867 129.967 99.209 129.967 99.6133C129.967 100.012 129.645 100.34 129.24 100.34ZM134.449 107.605C133.547 107.605 132.85 107.166 132.469 106.451H132.445V107.5H131.215V99.0449H132.48V102.385H132.51C132.879 101.67 133.582 101.236 134.455 101.236C136.008 101.236 137.021 102.467 137.021 104.418C137.021 106.375 136.014 107.605 134.449 107.605ZM134.109 102.303C133.148 102.303 132.475 103.146 132.475 104.418C132.475 105.701 133.148 106.533 134.109 106.533C135.105 106.533 135.721 105.725 135.721 104.418C135.721 103.123 135.105 102.303 134.109 102.303ZM138.012 107.5V101.336H139.219V102.385H139.248C139.453 101.664 140.004 101.236 140.73 101.236C140.912 101.236 141.07 101.266 141.164 101.283V102.461C141.064 102.42 140.842 102.391 140.596 102.391C139.781 102.391 139.277 102.936 139.277 103.809V107.5H138.012ZM143.977 106.604C144.861 106.604 145.553 105.994 145.553 105.191V104.705L144.035 104.799C143.279 104.852 142.852 105.186 142.852 105.713C142.852 106.252 143.297 106.604 143.977 106.604ZM143.625 107.605C142.418 107.605 141.574 106.855 141.574 105.748C141.574 104.67 142.4 104.008 143.865 103.926L145.553 103.826V103.352C145.553 102.666 145.09 102.256 144.316 102.256C143.584 102.256 143.127 102.607 143.016 103.158H141.82C141.891 102.045 142.84 101.225 144.363 101.225C145.857 101.225 146.812 102.016 146.812 103.252V107.5H145.6V106.486H145.57C145.213 107.172 144.434 107.605 143.625 107.605ZM148.043 107.5V101.336H149.25V102.385H149.279C149.484 101.664 150.035 101.236 150.762 101.236C150.943 101.236 151.102 101.266 151.195 101.283V102.461C151.096 102.42 150.873 102.391 150.627 102.391C149.812 102.391 149.309 102.936 149.309 103.809V107.5H148.043ZM152.596 109.797C152.49 109.797 152.174 109.785 152.08 109.768V108.742C152.174 108.766 152.385 108.766 152.49 108.766C153.076 108.766 153.393 108.52 153.586 107.887C153.586 107.875 153.697 107.512 153.697 107.506L151.471 101.336H152.842L154.4 106.352H154.424L155.982 101.336H157.318L155.01 107.822C154.482 109.316 153.873 109.797 152.596 109.797Z" fill="#C3D2DF"/>
</svg>
