<svg width="135" height="135" viewBox="0 0 135 135" fill="none" xmlns="http://www.w3.org/2000/svg">
<rect width="135" height="135" rx="6" fill="#667380"/>
<path d="M76 73.25V75.5H58V73.25H76ZM53.5 71V53C53.5 50.5923 55.3908 48.6263 57.7686 48.5059L58 48.5H64.75L69.25 53H76C78.4853 53 80.5 55.0147 80.5 57.5V71C80.5 73.4853 78.4853 75.5 76 75.5V73.25C77.2426 73.25 78.25 72.2426 78.25 71V57.5C78.25 56.2574 77.2426 55.25 76 55.25H69.25C68.6533 55.25 68.0811 55.0128 67.6592 54.5908L63.8184 50.75H58C56.7574 50.75 55.75 51.7574 55.75 53V71C55.75 72.2426 56.7574 73.25 58 73.25V75.5C55.5147 75.5 53.5 73.4853 53.5 71Z" fill="#C3D2DF"/>
<path d="M48.4668 93.5L47.6934 91.2148H44.4707L43.6973 93.5H42.332L45.3848 85.0449H46.8027L49.8555 93.5H48.4668ZM46.0645 86.4512L44.8047 90.1602H47.3594L46.0996 86.4512H46.0645ZM50.6348 93.5V87.3359H51.8418V88.3672H51.8711C52.2051 87.6641 52.8613 87.2305 53.8105 87.2305C55.1699 87.2305 55.9492 88.0977 55.9492 89.5098V93.5H54.6777V89.7559C54.6777 88.8301 54.2441 88.3203 53.3652 88.3203C52.4746 88.3203 51.9004 88.9531 51.9004 89.9082V93.5H50.6348ZM57.2148 93.5V87.3359H58.4805V93.5H57.2148ZM57.8477 86.3398C57.4434 86.3398 57.1152 86.0117 57.1152 85.6133C57.1152 85.209 57.4434 84.8867 57.8477 84.8867C58.252 84.8867 58.5742 85.209 58.5742 85.6133C58.5742 86.0117 58.252 86.3398 57.8477 86.3398ZM59.7754 93.5V87.3359H60.9824V88.373H61.0117C61.2871 87.6875 61.9316 87.2305 62.7637 87.2305C63.6191 87.2305 64.2402 87.6699 64.4863 88.4375H64.5156C64.832 87.6875 65.5586 87.2305 66.4375 87.2305C67.6562 87.2305 68.4531 88.0391 68.4531 89.2637V93.5H67.1816V89.5684C67.1816 88.7715 66.7539 88.3145 66.0039 88.3145C65.2539 88.3145 64.7324 88.8711 64.7324 89.6504V93.5H63.4902V89.4746C63.4902 88.7656 63.0391 88.3145 62.3242 88.3145C61.5742 88.3145 61.041 88.9004 61.041 89.6914V93.5H59.7754ZM71.834 92.6035C72.7188 92.6035 73.4102 91.9941 73.4102 91.1914V90.7051L71.8926 90.7988C71.1367 90.8516 70.709 91.1855 70.709 91.7129C70.709 92.252 71.1543 92.6035 71.834 92.6035ZM71.4824 93.6055C70.2754 93.6055 69.4316 92.8555 69.4316 91.748C69.4316 90.6699 70.2578 90.0078 71.7227 89.9258L73.4102 89.8262V89.3516C73.4102 88.666 72.9473 88.2559 72.1738 88.2559C71.4414 88.2559 70.9844 88.6074 70.873 89.1582H69.6777C69.748 88.0449 70.6973 87.2246 72.2207 87.2246C73.7148 87.2246 74.6699 88.0156 74.6699 89.252V93.5H73.457V92.4863H73.4277C73.0703 93.1719 72.291 93.6055 71.4824 93.6055ZM76.2695 85.877H77.541V87.3359H78.7129V88.3379H77.541V91.7363C77.541 92.2695 77.7754 92.5098 78.291 92.5098C78.4199 92.5098 78.625 92.498 78.707 92.4805V93.4824C78.5664 93.5176 78.2852 93.541 78.0039 93.541C76.7559 93.541 76.2695 93.0664 76.2695 91.877V88.3379H75.373V87.3359H76.2695V85.877ZM79.7969 93.5V87.3359H81.0625V93.5H79.7969ZM80.4297 86.3398C80.0254 86.3398 79.6973 86.0117 79.6973 85.6133C79.6973 85.209 80.0254 84.8867 80.4297 84.8867C80.834 84.8867 81.1562 85.209 81.1562 85.6133C81.1562 86.0117 80.834 86.3398 80.4297 86.3398ZM85.0059 93.6172C83.2422 93.6172 82.082 92.4043 82.082 90.418C82.082 88.4375 83.248 87.2246 85.0059 87.2246C86.7637 87.2246 87.9297 88.4375 87.9297 90.418C87.9297 92.4043 86.7695 93.6172 85.0059 93.6172ZM85.0059 92.5742C86.002 92.5742 86.6406 91.7891 86.6406 90.418C86.6406 89.0527 85.9961 88.2676 85.0059 88.2676C84.0156 88.2676 83.3711 89.0527 83.3711 90.418C83.3711 91.7891 84.0156 92.5742 85.0059 92.5742ZM88.9082 93.5V87.3359H90.1152V88.3672H90.1445C90.4785 87.6641 91.1348 87.2305 92.084 87.2305C93.4434 87.2305 94.2227 88.0977 94.2227 89.5098V93.5H92.9512V89.7559C92.9512 88.8301 92.5176 88.3203 91.6387 88.3203C90.748 88.3203 90.1738 88.9531 90.1738 89.9082V93.5H88.9082ZM56.5938 106.363V107.5H51.3438V99.0449H52.6562V106.363H56.5938ZM57.6074 107.5V101.336H58.873V107.5H57.6074ZM58.2402 100.34C57.8359 100.34 57.5078 100.012 57.5078 99.6133C57.5078 99.209 57.8359 98.8867 58.2402 98.8867C58.6445 98.8867 58.9668 99.209 58.9668 99.6133C58.9668 100.012 58.6445 100.34 58.2402 100.34ZM63.4492 107.605C62.5469 107.605 61.8496 107.166 61.4688 106.451H61.4453V107.5H60.2148V99.0449H61.4805V102.385H61.5098C61.8789 101.67 62.582 101.236 63.4551 101.236C65.0078 101.236 66.0215 102.467 66.0215 104.418C66.0215 106.375 65.0137 107.605 63.4492 107.605ZM63.1094 102.303C62.1484 102.303 61.4746 103.146 61.4746 104.418C61.4746 105.701 62.1484 106.533 63.1094 106.533C64.1055 106.533 64.7207 105.725 64.7207 104.418C64.7207 103.123 64.1055 102.303 63.1094 102.303ZM67.0117 107.5V101.336H68.2188V102.385H68.248C68.4531 101.664 69.0039 101.236 69.7305 101.236C69.9121 101.236 70.0703 101.266 70.1641 101.283V102.461C70.0645 102.42 69.8418 102.391 69.5957 102.391C68.7812 102.391 68.2773 102.936 68.2773 103.809V107.5H67.0117ZM72.9766 106.604C73.8613 106.604 74.5527 105.994 74.5527 105.191V104.705L73.0352 104.799C72.2793 104.852 71.8516 105.186 71.8516 105.713C71.8516 106.252 72.2969 106.604 72.9766 106.604ZM72.625 107.605C71.418 107.605 70.5742 106.855 70.5742 105.748C70.5742 104.67 71.4004 104.008 72.8652 103.926L74.5527 103.826V103.352C74.5527 102.666 74.0898 102.256 73.3164 102.256C72.584 102.256 72.127 102.607 72.0156 103.158H70.8203C70.8906 102.045 71.8398 101.225 73.3633 101.225C74.8574 101.225 75.8125 102.016 75.8125 103.252V107.5H74.5996V106.486H74.5703C74.2129 107.172 73.4336 107.605 72.625 107.605ZM77.043 107.5V101.336H78.25V102.385H78.2793C78.4844 101.664 79.0352 101.236 79.7617 101.236C79.9434 101.236 80.1016 101.266 80.1953 101.283V102.461C80.0957 102.42 79.873 102.391 79.627 102.391C78.8125 102.391 78.3086 102.936 78.3086 103.809V107.5H77.043ZM81.5957 109.797C81.4902 109.797 81.1738 109.785 81.0801 109.768V108.742C81.1738 108.766 81.3848 108.766 81.4902 108.766C82.0762 108.766 82.3926 108.52 82.5859 107.887C82.5859 107.875 82.6973 107.512 82.6973 107.506L80.4707 101.336H81.8418L83.4004 106.352H83.4238L84.9824 101.336H86.3184L84.0098 107.822C83.4824 109.316 82.873 109.797 81.5957 109.797Z" fill="#C3D2DF"/>
</svg>
