<svg width="135" height="135" viewBox="0 0 135 135" fill="none" xmlns="http://www.w3.org/2000/svg">
<rect width="135" height="135" rx="6" fill="#3D434D"/>
<path fill-rule="evenodd" clip-rule="evenodd" d="M58 50.75H76C77.2426 50.75 78.25 51.7574 78.25 53V71C78.25 72.2426 77.2426 73.25 76 73.25H58C56.7574 73.25 55.75 72.2426 55.75 71V53C55.75 51.7574 56.7574 50.75 58 50.75ZM53.5 53C53.5 50.5147 55.5147 48.5 58 48.5H76C78.4853 48.5 80.5 50.5147 80.5 53V71C80.5 73.4853 78.4853 75.5 76 75.5H58C55.5147 75.5 53.5 73.4853 53.5 71V53ZM64.6866 55.7748C62.6874 54.6844 60.25 56.1313 60.25 58.4085V65.5915C60.25 67.8687 62.6874 69.3156 64.6866 68.2252L72.4781 63.9753C74.0415 63.1225 74.0415 60.8775 72.4781 60.0247L64.6866 55.7748ZM62.5 58.4085C62.5 57.8392 63.1094 57.4775 63.6091 57.7501L71.4006 62L63.6091 66.2499C63.1094 66.5225 62.5 66.1608 62.5 65.5915V58.4085Z" fill="#C3D2DF"/>
<path d="M51.9707 93.6406C49.5977 93.6406 48.0977 91.9648 48.0977 89.2695C48.0977 86.5918 49.6094 84.9043 51.9707 84.9043C53.8867 84.9043 55.334 86.082 55.5566 87.8457H54.2559C54.0215 86.7617 53.1191 86.0527 51.9707 86.0527C50.4355 86.0527 49.4395 87.3125 49.4395 89.2695C49.4395 91.2441 50.4238 92.4922 51.9766 92.4922C53.1543 92.4922 53.9922 91.8887 54.2559 90.8691H55.5625C55.2402 92.6152 53.916 93.6406 51.9707 93.6406ZM58.75 92.6035C59.6348 92.6035 60.3262 91.9941 60.3262 91.1914V90.7051L58.8086 90.7988C58.0527 90.8516 57.625 91.1855 57.625 91.7129C57.625 92.252 58.0703 92.6035 58.75 92.6035ZM58.3984 93.6055C57.1914 93.6055 56.3477 92.8555 56.3477 91.748C56.3477 90.6699 57.1738 90.0078 58.6387 89.9258L60.3262 89.8262V89.3516C60.3262 88.666 59.8633 88.2559 59.0898 88.2559C58.3574 88.2559 57.9004 88.6074 57.7891 89.1582H56.5938C56.6641 88.0449 57.6133 87.2246 59.1367 87.2246C60.6309 87.2246 61.5859 88.0156 61.5859 89.252V93.5H60.373V92.4863H60.3438C59.9863 93.1719 59.207 93.6055 58.3984 93.6055ZM66.0273 87.2363C67.5918 87.2363 68.623 88.4668 68.623 90.418C68.623 92.3691 67.5977 93.6055 66.0508 93.6055C65.166 93.6055 64.4629 93.1719 64.1113 92.4863H64.082V95.5391H62.8164V87.3359H64.041V88.3965H64.0645C64.4277 87.6875 65.1367 87.2363 66.0273 87.2363ZM65.6934 92.5332C66.6953 92.5332 67.3223 91.7129 67.3223 90.418C67.3223 89.1289 66.6953 88.3027 65.6934 88.3027C64.7266 88.3027 64.0762 89.1465 64.0762 90.418C64.0762 91.7012 64.7207 92.5332 65.6934 92.5332ZM69.9707 85.877H71.2422V87.3359H72.4141V88.3379H71.2422V91.7363C71.2422 92.2695 71.4766 92.5098 71.9922 92.5098C72.1211 92.5098 72.3262 92.498 72.4082 92.4805V93.4824C72.2676 93.5176 71.9863 93.541 71.7051 93.541C70.457 93.541 69.9707 93.0664 69.9707 91.877V88.3379H69.0742V87.3359H69.9707V85.877ZM78.7422 87.3359V93.5H77.5293V92.457H77.5C77.1602 93.1953 76.5332 93.6113 75.5898 93.6113C74.248 93.6113 73.4277 92.7383 73.4277 91.3262V87.3359H74.6934V91.0801C74.6934 92.0176 75.1387 92.5215 76.0117 92.5215C76.9258 92.5215 77.4766 91.8887 77.4766 90.9277V87.3359H78.7422ZM79.9961 93.5V87.3359H81.2031V88.3848H81.2324C81.4375 87.6641 81.9883 87.2363 82.7148 87.2363C82.8965 87.2363 83.0547 87.2656 83.1484 87.2832V88.4609C83.0488 88.4199 82.8262 88.3906 82.5801 88.3906C81.7656 88.3906 81.2617 88.9355 81.2617 89.8086V93.5H79.9961ZM86.2422 88.2441C85.3574 88.2441 84.7363 88.918 84.6719 89.8496H87.7539C87.7246 88.9062 87.127 88.2441 86.2422 88.2441ZM87.748 91.6895H88.9492C88.7734 92.8145 87.707 93.6172 86.2949 93.6172C84.4844 93.6172 83.3887 92.3926 83.3887 90.4473C83.3887 88.5137 84.502 87.2246 86.2422 87.2246C87.9531 87.2246 89.0195 88.4316 89.0195 90.3008V90.7344H84.666V90.8105C84.666 91.8828 85.3105 92.5918 86.3242 92.5918C87.0449 92.5918 87.5781 92.2285 87.748 91.6895ZM41.3066 107.5V102.338H40.457V101.348H41.3066V100.744C41.3066 99.5488 41.8691 98.9863 43.123 98.9863C43.3809 98.9863 43.668 99.0156 43.832 99.0449V99.9824C43.709 99.959 43.5391 99.9473 43.3691 99.9473C42.8184 99.9473 42.5605 100.223 42.5605 100.768V101.348H43.8086V102.338H42.5781V107.5H41.3066ZM44.8047 107.5V101.336H46.0117V102.385H46.041C46.2461 101.664 46.7969 101.236 47.5234 101.236C47.7051 101.236 47.8633 101.266 47.957 101.283V102.461C47.8574 102.42 47.6348 102.391 47.3887 102.391C46.5742 102.391 46.0703 102.936 46.0703 103.809V107.5H44.8047ZM51.1211 107.617C49.3574 107.617 48.1973 106.404 48.1973 104.418C48.1973 102.438 49.3633 101.225 51.1211 101.225C52.8789 101.225 54.0449 102.438 54.0449 104.418C54.0449 106.404 52.8848 107.617 51.1211 107.617ZM51.1211 106.574C52.1172 106.574 52.7559 105.789 52.7559 104.418C52.7559 103.053 52.1113 102.268 51.1211 102.268C50.1309 102.268 49.4863 103.053 49.4863 104.418C49.4863 105.789 50.1309 106.574 51.1211 106.574ZM55.0234 107.5V101.336H56.2305V102.373H56.2598C56.5352 101.688 57.1797 101.23 58.0117 101.23C58.8672 101.23 59.4883 101.67 59.7344 102.438H59.7637C60.0801 101.688 60.8066 101.23 61.6855 101.23C62.9043 101.23 63.7012 102.039 63.7012 103.264V107.5H62.4297V103.568C62.4297 102.771 62.002 102.314 61.252 102.314C60.502 102.314 59.9805 102.871 59.9805 103.65V107.5H58.7383V103.475C58.7383 102.766 58.2871 102.314 57.5723 102.314C56.8223 102.314 56.2891 102.9 56.2891 103.691V107.5H55.0234ZM71.3418 107.5H69.9062L66.8887 99.0449H68.3125L70.6152 106.023H70.6504L72.959 99.0449H74.3594L71.3418 107.5ZM75.0332 107.5V101.336H76.2988V107.5H75.0332ZM75.666 100.34C75.2617 100.34 74.9336 100.012 74.9336 99.6133C74.9336 99.209 75.2617 98.8867 75.666 98.8867C76.0703 98.8867 76.3926 99.209 76.3926 99.6133C76.3926 100.012 76.0703 100.34 75.666 100.34ZM79.9082 107.605C78.3496 107.605 77.3184 106.363 77.3184 104.418C77.3184 102.473 78.3496 101.236 79.8965 101.236C80.7812 101.236 81.4844 101.682 81.8301 102.361H81.8535V99.0449H83.125V107.5H81.8945V106.451H81.8711C81.5078 107.154 80.8047 107.605 79.9082 107.605ZM80.2422 102.303C79.2402 102.303 78.6133 103.123 78.6133 104.418C78.6133 105.719 79.2402 106.533 80.2422 106.533C81.2148 106.533 81.8652 105.707 81.8652 104.418C81.8652 103.141 81.2148 102.303 80.2422 102.303ZM87.0039 102.244C86.1191 102.244 85.498 102.918 85.4336 103.85H88.5156C88.4863 102.906 87.8887 102.244 87.0039 102.244ZM88.5098 105.689H89.7109C89.5352 106.814 88.4688 107.617 87.0566 107.617C85.2461 107.617 84.1504 106.393 84.1504 104.447C84.1504 102.514 85.2637 101.225 87.0039 101.225C88.7148 101.225 89.7812 102.432 89.7812 104.301V104.734H85.4277V104.811C85.4277 105.883 86.0723 106.592 87.0859 106.592C87.8066 106.592 88.3398 106.229 88.5098 105.689ZM93.4141 107.617C91.6504 107.617 90.4902 106.404 90.4902 104.418C90.4902 102.438 91.6562 101.225 93.4141 101.225C95.1719 101.225 96.3379 102.438 96.3379 104.418C96.3379 106.404 95.1777 107.617 93.4141 107.617ZM93.4141 106.574C94.4102 106.574 95.0488 105.789 95.0488 104.418C95.0488 103.053 94.4043 102.268 93.4141 102.268C92.4238 102.268 91.7793 103.053 91.7793 104.418C91.7793 105.789 92.4238 106.574 93.4141 106.574Z" fill="#C3D2DF"/>
</svg>
