<svg width="16" height="16" viewBox="0 0 16 16" fill="none" xmlns="http://www.w3.org/2000/svg">
<path fill-rule="evenodd" clip-rule="evenodd" d="M9.0822 2.00688C8.80981 1.96148 8.5522 2.14549 8.5068 2.41788C8.46141 2.69026 8.64542 2.94788 8.9178 2.99327C10.3214 3.22721 11.3261 3.80182 11.9846 4.62493C12.6461 5.45178 13 6.58183 13 8.00008C13 10.7239 10.7239 13.0001 8 13.0001C5.25873 13.0001 3 10.9944 3 8.00008C3 6.52303 3.67009 5.39139 4.4838 4.55298C4.98781 4.03368 5.53907 3.63573 6 3.35074L6 5.50007C6 5.77622 6.22386 6.00007 6.5 6.00007C6.77614 6.00007 7 5.77622 7 5.50007L7 2.50007C7 2.22393 6.77614 2.00007 6.5 2.00007L3.5 2.00007C3.22386 2.00007 3 2.22393 3 2.50007C3 2.77621 3.22386 3.00007 3.5 3.00007L4.74182 3.00007C4.41963 3.24274 4.08555 3.52749 3.7662 3.85653C2.82991 4.82124 2 6.18959 2 8.00008C2 11.5808 4.74126 14.0001 8 14.0001C11.2761 14.0001 14 11.2762 14 8.00008C14 6.41833 13.6039 5.04837 12.7654 4.00023C11.9239 2.94834 10.6786 2.27294 9.0822 2.00688Z" fill="white"/>
</svg>
