<svg width="48" height="48" viewBox="0 0 48 48" fill="none" xmlns="http://www.w3.org/2000/svg">
<path fill-rule="evenodd" clip-rule="evenodd" d="M3 24C3 12.402 12.402 3 24 3C35.598 3 45 12.402 45 24C45 35.598 35.598 45 24 45C12.402 45 3 35.598 3 24Z" fill="#FCE94E"/>
<path fill-rule="evenodd" clip-rule="evenodd" d="M24 12C22.3938 12 21.1387 13.3869 21.2985 14.9851L22.3507 25.5074C22.4355 26.3548 23.1485 27 24 27C24.8515 27 25.5645 26.3547 25.6493 25.5074L26.7015 14.9851C26.8613 13.3869 25.6062 12 24 12ZM24 36C25.6569 36 27 34.6569 27 33C27 31.3431 25.6569 30 24 30C22.3431 30 21 31.3431 21 33C21 34.6569 22.3431 36 24 36Z" fill="black"/>
</svg>
