<svg width="36" height="36" viewBox="0 0 36 36" fill="none" xmlns="http://www.w3.org/2000/svg">
<path d="M18.0136 21.0058C18.8386 21.0058 19.5136 20.3311 19.5136 19.5065V13.4945C19.5136 12.6699 18.8386 11.9953 18.0136 11.9953C17.1886 11.9953 16.5136 12.6699 16.5136 13.4945V19.5065C16.5136 20.3311 17.1886 21.0058 18.0136 21.0058Z" fill="#FCE94E"/>
<path d="M33.7489 23.9295C31.5139 19.8666 27.0289 12.3853 24.0589 7.43778L23.1889 5.98351C22.0639 4.12444 20.1439 3 18.0139 3C15.8989 3 13.9639 4.10945 12.8389 5.98351L12.2539 6.95802C9.38891 11.7406 4.57391 19.7316 2.26391 23.9445C1.21391 25.8636 1.24391 28.1274 2.36891 30.0015C3.47891 31.8756 5.44391 33 7.61891 33H28.3939C30.5689 33 32.5339 31.8756 33.6439 30.0015C34.7539 28.1274 34.7989 25.8486 33.7489 23.9445V23.9295ZM31.0789 28.4573C30.5089 29.4168 29.5189 29.9865 28.4089 29.9865H7.63391C6.52391 29.9865 5.53391 29.4168 4.96391 28.4573C4.39391 27.4978 4.37891 26.3433 4.91891 25.3688C7.19891 21.2159 11.9839 13.2549 14.8489 8.48726L15.4339 7.51274C16.0189 6.53823 16.9639 5.98351 18.0289 5.98351C19.0939 5.98351 20.0389 6.53823 20.6239 7.49775L21.4939 8.95202C24.4489 13.8846 28.9189 21.3358 31.1239 25.3388C31.6639 26.3133 31.6489 27.4978 31.0789 28.4573Z" fill="#FCE94E"/>
<path d="M18.0139 26.2234C19.0494 26.2234 19.8889 25.3843 19.8889 24.3493C19.8889 23.3143 19.0494 22.4753 18.0139 22.4753C16.9784 22.4753 16.1389 23.3143 16.1389 24.3493C16.1389 25.3843 16.9784 26.2234 18.0139 26.2234Z" fill="#FCE94E"/>
</svg>
