<svg width="16" height="16" viewBox="0 0 16 16" fill="none" xmlns="http://www.w3.org/2000/svg">
<path fill-rule="evenodd" clip-rule="evenodd" d="M10 2H4V3H5C5.35217 3 5.66183 3.18205 5.83999 3.45718L2.96875 11.6607C2.68799 12.4629 1.93093 13 1.08104 13H1V14H6V13H5.38743C4.70487 13 4.2229 12.3313 4.43874 11.6838L5.33333 9H6.16298C6.43102 8.64634 6.72319 8.31223 7.03714 8H5.66667L7 4L8.04342 7.13026C8.40557 6.85903 8.78795 6.61295 9.18808 6.3945L8.16001 3.45718C8.33817 3.18205 8.64783 3 9 3H10V2ZM14.7236 8.0529C14.9706 8.17639 15.0707 8.47673 14.9472 8.72372L13.9999 11.0001C13.9641 11.1114 13.8993 11.2749 13.8239 11.4653L13.8239 11.4653C13.5927 12.0485 13.2615 12.8842 13.3581 13.2463C13.4206 13.4806 13.5277 13.657 13.6825 13.7777C13.8361 13.8976 14.0848 14.0001 14.5 14.0001C14.7761 14.0001 15 14.224 15 14.5001C15 14.7763 14.7761 15.0001 14.5 15.0001C13.9152 15.0001 13.4346 14.8526 13.0674 14.5662C12.74 14.3108 12.5411 13.9748 12.4282 13.6271C11.7723 14.4182 10.8344 15.0001 9.49998 15.0001C7.61767 15.0001 6.40536 13.2838 6.99987 11.5001C7.52161 9.9349 8.66748 8.00011 10.9997 8.00011C12.1338 8.00011 12.9527 8.43599 13.3744 9.19474C13.4146 9.26716 13.4506 9.34138 13.4824 9.41713L14.0527 8.2765C14.1762 8.02951 14.4766 7.9294 14.7236 8.0529ZM12.5008 12.0008C11.8104 13.1965 10.4999 14.5001 9.00078 14.0008C7.25618 13.4197 7.80951 11.6959 8.49987 10.5001C9.19022 9.30439 10.6441 8.71516 11.5009 9.00078C13.0007 9.5008 13.1911 10.8051 12.5008 12.0008Z" fill="#DEE6ED"/>
</svg>
