<svg width="16" height="16" viewBox="0 0 16 16" fill="none" xmlns="http://www.w3.org/2000/svg">
<path fill-rule="evenodd" clip-rule="evenodd" d="M1 1H5V2H2V5H1V1ZM1 15H5V14H2V11H1V15ZM14 5H15V1H11V2L14 2V5ZM15 15V11H14V14H11V15H15ZM8 7C9.10457 7 10 6.10457 10 5C10 3.89543 9.10457 3 8 3C6.89543 3 6 3.89543 6 5C6 6.10457 6.89543 7 8 7ZM9.75 8L9.14142 10.4343L10.8536 12.1464C11.0488 12.3417 11.0488 12.6583 10.8536 12.8536C10.6583 13.0488 10.3417 13.0488 10.1464 12.8536L8.29289 11H7.70711L5.85355 12.8536C5.65829 13.0488 5.34171 13.0488 5.14645 12.8536C4.95118 12.6583 4.95118 12.3417 5.14645 12.1464L6.85858 10.4343L6.25 8H4.5C4.22386 8 4 7.77614 4 7.5C4 7.22386 4.22386 7 4.5 7H6H8H10H11.5C11.7761 7 12 7.22386 12 7.5C12 7.77614 11.7761 8 11.5 8H9.75Z" fill="#EA5563"/>
</svg>
