<svg width="16" height="16" viewBox="0 0 16 16" fill="none" xmlns="http://www.w3.org/2000/svg">
<path fill-rule="evenodd" clip-rule="evenodd" d="M1 1H5V2H2V5H1V1ZM1 11V15H5V14H2V11H1ZM14 5H15V1H11V2L14 2V5ZM11 15H15V11H14V14H11V15ZM7.5 3C7.22386 3 7 3.22386 7 3.5V7C7 7.27614 6.77614 7.5 6.5 7.5C6.22386 7.5 6 7.27614 6 7V4.5C6 4.22386 5.77614 4 5.5 4C5.22386 4 5 4.22386 5 4.5L5 4.94104C5 6.6441 5.14071 8.34425 5.42069 10.0241C5.44541 10.1725 5.23934 10.2957 5.11338 10.2135C4.73546 9.96699 4.18133 9.64989 3.73529 9.40167C3.40344 9.21699 3 9.45858 3 9.83836C3 9.94348 3.03288 10.046 3.09775 10.1287C3.54779 10.7025 5.50537 13 8 13H8.5C9 13 11 13 11.5 11C11.8321 9.67168 12 8.30765 12 6.93845V6.5C12 6.22386 11.7761 6 11.5 6C11.2239 6 11 6.22386 11 6.5L11 8C11 8.27614 10.7761 8.5 10.5 8.5C10.2239 8.5 10 8.27614 10 8L10 4.5C10 4.22386 9.77614 4 9.5 4C9.22386 4 9 4.22386 9 4.5V7.5C9 7.77614 8.77614 8 8.5 8C8.22386 8 8 7.77614 8 7.5V3.5C8 3.22386 7.77614 3 7.5 3Z" fill="#EA5563"/>
</svg>
