<svg width="16" height="16" viewBox="0 0 16 16" fill="none" xmlns="http://www.w3.org/2000/svg">
<path fill-rule="evenodd" clip-rule="evenodd" d="M1 1H5V2H2V5H1V1ZM1 15H5V14H2V11H1V15ZM15 5V1H11V2L14 2V5H15ZM15 15V11H14V14H11V15H15ZM8 6.24081C8.70561 6.24081 9.27763 5.6688 9.27763 4.96318C9.27763 4.25756 8.70561 3.68555 8 3.68555C7.29438 3.68555 6.72236 4.25756 6.72236 4.96318C6.72236 5.6688 7.29438 6.24081 8 6.24081ZM8 7.24081C8.49137 7.24081 8.9464 7.08521 9.3185 6.82059C9.90352 7.02026 10.4412 7.3521 10.8866 7.79747L11.9907 8.90162C12.1216 9.03253 12.1216 9.24477 11.9907 9.37568L11.77 9.59641C11.5747 9.79167 11.2582 9.79167 11.0629 9.59641L10.2516 8.7851C10.1086 8.6421 9.89352 8.59932 9.70668 8.67671C9.51985 8.7541 9.39802 8.93642 9.39802 9.13865V11.0367C9.39802 11.8088 8.77211 12.4347 8 12.4347C7.22789 12.4347 6.60197 11.8088 6.60197 11.0367V9.13865C6.60197 8.93642 6.48015 8.7541 6.29331 8.67671C6.10647 8.59932 5.89142 8.6421 5.74842 8.7851L4.9371 9.59641C4.74184 9.79167 4.42526 9.79167 4.22999 9.59641L4.00926 9.37568C3.87835 9.24477 3.87835 9.03253 4.00926 8.90162L5.11341 7.79747C5.55878 7.3521 6.09647 7.02026 6.68149 6.82059C7.0536 7.08521 7.50863 7.24081 8 7.24081ZM10.2776 4.96318C10.2776 5.34451 10.1839 5.70396 10.0183 6.01974C10.6007 6.27174 11.1363 6.63295 11.5937 7.09036L12.6978 8.19452C13.2193 8.71595 13.2193 9.56135 12.6978 10.0828L12.4771 10.3035C11.9052 10.8754 10.9864 10.889 10.398 10.3442V11.0367C10.398 12.3611 9.32439 13.4347 8 13.4347C6.6756 13.4347 5.60197 12.3611 5.60197 11.0367V10.3442C5.01362 10.889 4.0948 10.8754 3.52289 10.3035L3.30215 10.0828C2.78072 9.56135 2.78072 8.71595 3.30215 8.19452L4.40631 7.09036C4.86371 6.63295 5.39933 6.27174 5.98173 6.01974C5.81608 5.70396 5.72236 5.34451 5.72236 4.96318C5.72236 3.70528 6.74209 2.68555 8 2.68555C9.2579 2.68555 10.2776 3.70528 10.2776 4.96318Z" fill="#EA5563"/>
</svg>
