<svg width="36" height="36" viewBox="0 0 36 36" fill="none" xmlns="http://www.w3.org/2000/svg">
<path d="M29.4066 15.2897C28.4648 13.112 25.7594 12.0712 23.4716 12.2942C23.5471 10.9692 23.3694 9.65295 23.0273 8.37168C21.357 2.09649 12.2544 2.97108 11.3171 8.53348C11.206 9.20254 11.3037 11.7738 11.1616 12.0756C10.8817 12.6747 9.84662 12.456 9.25134 12.6091C7.6876 13.007 6.09721 14.8786 5.8129 16.4223C5.42196 18.5388 5.49749 24.7353 5.70184 27.0048C5.77292 27.7788 5.9595 27.8663 6.15497 28.4129C6.84798 30.3589 7.44771 30.9448 9.48235 31.6795L11.0372 31.8632C13.6182 31.8107 19.0958 31.9288 19.0958 31.9288C21.2814 32.0862 23.4005 32.0031 25.4618 31.6795C28.2738 31.3953 29.6998 29.1607 29.9086 26.5675C30.0863 24.3592 30.1707 17.0651 29.3978 15.2897H29.4066ZM19.7133 12.4167C18.9314 12.4954 14.9821 12.7184 14.6933 12.3073C14.4179 10.5407 14.2846 7.83818 16.528 7.33091C19.5089 6.65748 20.5751 10.1865 19.7133 12.4167Z" fill="#C3D2DF" fill-opacity="0.65"/>
</svg>
