<svg width="36" height="36" viewBox="0 0 36 36" fill="none" xmlns="http://www.w3.org/2000/svg">
<path transform="translate(7.5, 4.5)" fill-rule="evenodd" clip-rule="evenodd" d="M10.5001 0.999993C8.38434 0.999993 6.12121 0.852621 3.71071 0.557876C3.45037 0.526044 3.20969 0.700768 3.15931 0.958155L3.15933 0.958158C2.54607 4.09141 1.90966 8.10536 1.2501 13C1.06871 14.3461 0.706963 17.8073 0.164868 23.3837C0.126103 23.7825 0.329076 24.1659 0.680648 24.358L0.68065 24.358C0.728656 24.3842 0.751804 24.4067 0.750096 24.4254C0.740308 24.5324 0.738434 24.787 0.744473 25.1893C0.7474 25.3843 0.863455 25.5598 1.04175 25.6389L1.04175 25.6389C1.62186 25.8961 2.20672 26.0421 2.79633 26.0767C3.82917 26.1375 4.91111 26.1637 5.0001 25.75C5.13364 25.3834 5.21698 25.1334 5.2501 25C5.2606 24.9577 5.36303 24.8855 5.55738 24.7835C5.80561 24.6532 5.98775 24.4247 6.05941 24.1537L10.0001 9.24999C10.1668 9.08333 10.3334 8.99999 10.5001 8.99999C10.6668 8.99999 10.8334 9.08333 11.0001 9.24999L14.9408 24.1537C15.0124 24.4247 15.1946 24.6532 15.4428 24.7835C15.6372 24.8855 15.7396 24.9577 15.7501 25C15.7832 25.1334 15.8665 25.3834 16.0001 25.75C16.0891 26.1637 17.171 26.1375 18.2039 26.0767C18.7935 26.0421 19.3783 25.8961 19.9584 25.6389L19.9584 25.6389C20.1367 25.5598 20.2528 25.3843 20.2557 25.1893C20.2618 24.787 20.2599 24.5324 20.2501 24.4254C20.2484 24.4067 20.2715 24.3842 20.3195 24.358L20.3195 24.358C20.6711 24.1659 20.8741 23.7825 20.8353 23.3837C20.2932 17.8073 19.9315 14.3461 19.7501 13C19.0905 8.10536 18.4541 4.09141 17.8409 0.958158L17.8409 0.958155C17.7905 0.700768 17.5498 0.526044 17.2895 0.557876C14.879 0.852621 12.6159 0.999993 10.5001 0.999993Z" fill="#FFFFFF"/>
</svg>