<svg width="36" height="36" viewBox="0 0 33 33" fill="none" xmlns="http://www.w3.org/2000/svg">
<g clip-path="url(#clip0_3971_45699)">
<path d="M11.1315 12.8009C10.3212 11.0333 10.0886 9.05721 10.5436 7.15908C10.7616 6.24975 10.6745 5.29564 10.2954 4.43882C10.151 4.11256 9.77749 3.55336 10.249 3.31656C10.659 3.11066 11.0753 3 11.5334 3C11.9174 3 12.0086 3.35196 12.1093 3.6468C12.8046 5.68413 14.0568 7.4948 15.7291 8.88112C16.1743 9.25014 16.8257 9.25014 17.2709 8.88113C18.9432 7.4948 20.1954 5.68413 20.8907 3.6468C20.9914 3.35196 21.0826 3 21.4666 3C21.9287 3 22.3419 3.11114 22.751 3.31656C23.2225 3.55336 22.849 4.11256 22.7046 4.43882C22.3255 5.29564 22.2384 6.24975 22.4564 7.15908C22.9114 9.05722 22.6788 11.0333 21.8685 12.8009C21.2295 14.1947 21.3562 15.8118 22.2048 17.0933C24.1999 20.1062 25.3098 23.4254 26.4604 26.8134C26.6006 27.2261 26.3559 27.6692 25.9272 27.7792L23.2973 28.4541C22.6958 28.6084 22.4318 29.1659 22.1215 29.6467C21.9514 29.9103 21.6343 30.0451 21.3221 29.9864C19.89 29.7174 18.485 29.3248 17.1233 28.8132C16.714 28.6594 16.2874 28.6589 15.8767 28.8132C14.515 29.3248 13.11 29.7174 11.6779 29.9864C11.3657 30.0451 11.0486 29.9103 10.8785 29.6467C10.5682 29.1659 10.3042 28.6084 9.70272 28.4541L7.07285 27.7792C6.64406 27.6692 6.39944 27.2261 6.5396 26.8134C7.69016 23.4254 8.80005 20.1062 10.7952 17.0933C11.6438 15.8118 11.7705 14.1947 11.1315 12.8009Z" fill="#FFFFFF"/>
</g>
<defs>
<clipPath id="clip0_3971_45699">
<rect width="33" height="33" fill="white"/>
</clipPath>
</defs>
</svg>
