<svg width="36" height="36" viewBox="0 0 33 33" fill="none" xmlns="http://www.w3.org/2000/svg">
<g clip-path="url(#clip0_3971_45633)">
<path d="M22.1934 8.86727L21.5737 13.9944C21.4864 14.7162 21.5122 15.4471 21.65 16.161L22.6182 21.1771C22.9224 22.7535 24.2386 23.9348 25.8386 24.0675C27.0004 24.1638 27.8642 25.1838 27.7678 26.3457C27.7533 26.5206 27.7171 26.693 27.6599 26.8589L27.0096 28.7464C26.8542 29.1974 26.4298 29.5 25.9529 29.5L21.4999 29.5C18.1745 29.5 15.0221 28.0179 12.9008 25.457L2.90547 13.3909C2.51829 12.9235 2.57487 12.2326 3.03292 11.8344L3.56593 11.3711C3.78408 11.1814 4.03693 11.0359 4.31049 10.9425L4.60762 10.8411C4.88378 10.7469 5.11213 10.5484 5.24389 10.2881L5.58329 9.61739C6.15894 8.58311 7.84598 7.1166 10.6444 5.21785C11.825 4.4168 12.8435 3.80258 13.6999 3.37519L13.869 3.2922C14.3665 3.05235 14.9642 3.26119 15.2041 3.75867C15.2923 3.9417 15.3227 4.14726 15.2912 4.348C15.1641 5.15817 15.4836 6.04217 16.2499 7.00001C19.5496 10.7958 18.7499 7.75001 20.4094 7.47523C21.5157 7.29205 22.1104 7.75606 22.1934 8.86727ZM25.6369 27.4024C25.6369 27.1802 25.4568 27 25.2345 27L21.9999 27C19.6267 27 17.379 25.9337 15.8779 24.0955L6.44717 12.5477C6.43361 12.5311 6.41923 12.5152 6.40407 12.5C6.15439 12.2503 5.74958 12.2503 5.4999 12.5C5.21746 12.7825 5.19916 13.2344 5.45786 13.5388L15.2403 25.0475C16.8324 26.9205 19.1666 28 21.6249 28L24.9845 28C25.2874 28 25.5514 27.7939 25.6249 27.5C25.6329 27.4681 25.6369 27.4353 25.6369 27.4024Z" fill="#88909A"/>
</g>
<defs>
<clipPath id="clip0_3971_45633">
<rect width="33" height="33" fill="white"/>
</clipPath>
</defs>
</svg>
