<svg width="36" height="36" viewBox="0 0 33 33" fill="none" xmlns="http://www.w3.org/2000/svg">
<g clip-path="url(#clip0_3971_45532)">
<path d="M32.5001 14.23H31.5001L27.8801 7.22999C27.6651 6.93499 26.3301 4.54999 24.8801 4.54999C23.8401 4.54999 22.4451 5.07999 22.4451 5.83999C22.4451 6.59999 22.8601 6.76999 23.3201 6.76999C23.7801 6.76999 23.8501 6.40999 24.9351 6.40999C25.6001 6.40999 25.8051 7.17499 25.8651 7.76999C25.9137 8.31921 26.0313 8.86013 26.2151 9.37999L27.9851 14.235L16.5001 14.28L5.06008 14.245L6.83008 9.38999C7.01384 8.87013 7.13143 8.32922 7.18008 7.77999C7.24008 7.18499 7.44508 6.41999 8.11008 6.41999C9.19508 6.41999 9.25508 6.77999 9.73008 6.77999C10.2051 6.77999 10.6051 6.61499 10.6051 5.84999C10.6051 5.08499 9.20508 4.55999 8.16508 4.55999C6.69508 4.55999 5.36008 6.94499 5.16508 7.23999L1.54508 14.24H0.500078L0.205078 17.87L1.33508 18.37V18.42C2.03008 22.055 2.92508 25.875 4.33508 26.68C5.55008 27.375 8.46508 27.45 9.66008 27.45C13.5451 27.45 13.9501 26.865 14.1601 26.67C14.8451 26.055 15.3451 23.455 15.9801 19.17L16.0001 19H17.0001V19.155C17.6351 23.435 18.1351 26.035 18.8201 26.655C19.0351 26.85 19.4401 27.435 23.3201 27.435C24.5151 27.435 27.4301 27.36 28.6451 26.665C30.0451 25.86 30.9401 22.04 31.6451 18.405V18.355L32.7701 17.855L32.5001 14.23ZM12.1201 24.335C11.3108 24.4556 10.4932 24.5108 9.67508 24.5C9.36508 24.5 9.04008 24.5 8.70508 24.5C7.73713 24.5109 6.77203 24.3932 5.83508 24.15C5.46508 23.685 4.68008 20.42 4.19508 17.77H13.1951C12.9001 19.92 12.4351 23.315 12.1201 24.335ZM27.1651 24.13C26.2281 24.3732 25.263 24.4909 24.2951 24.48C23.9601 24.48 23.6351 24.48 23.3251 24.48C22.507 24.4908 21.6893 24.4356 20.8801 24.315C20.5651 23.315 20.1001 19.9 19.7901 17.735H28.7901C28.3201 20.4 27.5351 23.665 27.1651 24.13Z" fill="#FFFFFF"/>
</g>
<defs>
<clipPath id="clip0_3971_45532">
<rect width="33" height="33" fill="white"/>
</clipPath>
</defs>
</svg>
