<svg width="36" height="36" viewBox="0 0 33 33" fill="none" xmlns="http://www.w3.org/2000/svg">
<g clip-path="url(#clip0_3971_45660)">
<path d="M19.75 7.99999V7.95499C19.6785 7.38054 19.4855 6.82791 19.1837 6.3339C18.882 5.83989 18.4785 5.41584 18 5.08999C18.9425 4.84951 19.908 4.71039 20.88 4.67499C22.225 5.05999 26.03 15.465 26.03 18.765C26.03 19.635 23.07 21.925 16.405 21.925C9.74 21.925 6.8 19.635 6.8 18.765C6.8 17.375 7.5 13.87 8.675 10.415C10.215 5.87499 11.47 4.67499 11.92 4.67499C13.3848 4.76478 14.8334 5.03001 16.235 5.46499L16.425 5.51999C16.925 5.69999 18.595 6.42499 18.745 8.01999C18.7563 8.14465 18.8139 8.26055 18.9065 8.34479C18.999 8.42904 19.1198 8.4755 19.245 8.47499H19.295C19.4155 8.46423 19.5279 8.41018 19.6116 8.32284C19.6953 8.2355 19.7444 8.1208 19.75 7.99999ZM27.32 17.715C27.3687 18.063 27.3954 18.4137 27.4 18.765C27.4 20.935 23.2 23.265 16.425 23.265C9.65 23.265 5.425 20.925 5.425 18.765C5.42717 18.4308 5.4472 18.097 5.485 17.765C2.425 18.965 0.5 20.64 0.5 22.5C0.5 26.09 7.665 29 16.5 29C25.335 29 32.5 26.09 32.5 22.5C32.5 20.605 30.5 18.9 27.32 17.715Z" fill="#FFFFFF"/>
</g>
<defs>
<clipPath id="clip0_3971_45660">
<rect width="33" height="33" fill="white"/>
</clipPath>
</defs>
</svg>
