<svg width="128" height="128" viewBox="0 0 128 128" fill="none" xmlns="http://www.w3.org/2000/svg">
  <g transform="translate(48, 48)">
    <path fill-rule="evenodd" clip-rule="evenodd" d="M3.06683 3.05348C3.58683 2.53328 4.42683 2.53328 4.94683 3.05348L28.9468 27.0625C29.4668 27.5827 29.4668 28.423 28.9468 28.9432C28.6802 29.1966 28.3468 29.33 28.0002 29.33C27.6535 29.33 27.3202 29.21 27.0535 28.9432L23.6535 25.5419C21.6135 26.9691 19.0802 27.9962 16.0002 27.9962C5.98417 27.9962 1.71069 17.2087 1.42274 16.4818L1.4135 16.4585C1.30683 16.1517 1.30683 15.8316 1.4135 15.5248C1.42096 15.5082 1.4338 15.4775 1.4521 15.4338C1.72778 14.7744 3.24262 11.1515 6.2935 8.16206L3.06683 4.93418C2.54683 4.41399 2.54683 3.57367 3.06683 3.05348ZM9.52016 17.5656C10.0802 19.9798 12.0135 21.9406 14.4268 22.5008C16.3735 22.9543 18.2135 22.5274 19.6668 21.5671L17.7202 19.6197C16.8535 20.0332 15.8135 20.1532 14.7335 19.8064C13.5602 19.4196 12.6002 18.4593 12.2135 17.2855C11.8668 16.2051 11.9735 15.1647 12.4002 14.2844L10.4535 12.337C9.49349 13.7908 9.06683 15.6182 9.52016 17.5656Z" fill="#C3D2DF"/>
    <path d="M30.5776 15.5149L30.5868 15.5382C30.6935 15.8449 30.6935 16.1651 30.5868 16.4718L30.5755 16.5003C30.4511 16.8154 29.6902 18.741 28.1735 20.9268C27.8268 21.4204 27.1335 21.5004 26.7068 21.0736L23.0002 17.3655C22.7335 17.0987 22.6268 16.7386 22.6535 16.3651C22.6802 16.0584 22.6668 15.7516 22.6402 15.4181C22.3335 12.1502 19.6135 9.53591 16.3468 9.34917C16.1068 9.33583 15.8802 9.33583 15.6535 9.34917C15.2802 9.37585 14.9202 9.26914 14.6535 9.00237L11.4668 5.81451C11.1202 5.46772 11.2668 4.86749 11.7335 4.70743C13.0135 4.25393 14.4402 4.0005 16.0002 4.0005C26.0162 4.0005 30.2896 14.788 30.5776 15.5149Z" fill="#C3D2DF"/>
  </g>
</svg>
