<svg width="36" height="36" viewBox="0 0 33 33" fill="none" xmlns="http://www.w3.org/2000/svg">
<g clip-path="url(#clip0_3971_45645)">
<path d="M16.5001 3V5C13.7501 5 12.1509 6.78156 14.5001 9.5C15.8334 11 15.8334 17.1913 14.5001 28.074C14.5001 28.6013 14.0908 29.0379 13.5646 29.072C10.9866 29.2386 9.98508 29.0479 9.56007 28.5C8.84899 27.5833 8.8213 22.7537 8.64712 19.4467C8.62525 19.0315 8.04444 21.2465 6.90468 26.0915C6.80121 26.5313 6.41568 26.8471 5.96411 26.8619C5.63315 26.8728 5.31182 26.8355 5.00011 26.75C4.74293 26.6795 4.51523 26.5876 4.31703 26.4746C3.96294 26.2726 3.76691 25.8759 3.82156 25.4719L3.96333 24.424C3.8458 24.2853 3.8458 24.1467 3.8458 23.9387C4.19841 19.64 8.32591 7.576 8.32591 7.576C9.31342 6.41098 11.0443 5.52786 12.0732 5.07399C12.7501 3.75 13.612 3.06655 16.5001 3ZM16.5001 3C19.3882 3.06655 20.2501 3.75 20.927 5.07399C21.9559 5.52786 23.6868 6.41098 24.6743 7.576C24.6743 7.576 28.8018 19.64 29.1544 23.9387C29.1544 24.1467 29.1544 24.2853 29.0369 24.424L29.1787 25.4719C29.2333 25.8759 29.0373 26.2726 28.6832 26.4746C28.485 26.5876 28.2573 26.6795 28.0001 26.75C27.6884 26.8355 27.3671 26.8728 27.0361 26.8619C26.5845 26.8471 26.199 26.5313 26.0955 26.0915C24.9558 21.2465 24.375 19.0315 24.3531 19.4467C24.1789 22.7537 24.1512 27.5833 23.4402 28.5C23.0151 29.0479 22.0136 29.2386 19.4356 29.072C18.9095 29.0379 18.5001 28.6013 18.5001 28.074C17.1668 17.1913 17.1668 11 18.5001 9.5C20.8493 6.78156 19.2501 5 16.5001 5V3Z" fill="#88909A"/>
</g>
<defs>
<clipPath id="clip0_3971_45645">
<rect width="33" height="33" fill="white"/>
</clipPath>
</defs>
</svg>
