<svg width="36" height="36" viewBox="0 0 33 33" fill="none" xmlns="http://www.w3.org/2000/svg">
<g clip-path="url(#clip0_3971_45617)">
<path d="M16.4646 3C18.7178 3 20.6742 4.50268 21.2772 6.64088C21.5396 7.5711 20.9981 8.53785 20.0679 8.8002C19.1377 9.06254 18.171 8.52112 17.9086 7.59091L17.8815 7.5049C17.6747 6.91132 17.1098 6.5 16.4646 6.5C15.6361 6.5 14.9646 7.1715 14.9646 8C14.9646 8.56978 15.2839 9.08135 15.7827 9.33685L16.0297 9.41141C17.3257 9.82133 18.2146 11.0259 18.2148 12.395L18.2139 12.369L28.5245 20.4384C30.4861 21.9735 30.8317 24.808 29.2966 26.7696C28.4418 27.8618 27.132 28.5 25.745 28.5H7.25487C4.76407 28.5 2.74487 26.4808 2.74487 23.99C2.74487 22.603 3.38306 21.2932 4.47532 20.4384L14.5 12.5926C14.3911 12.5498 14.2869 12.5031 14.187 12.4519C12.5303 11.6033 11.4646 9.896 11.4646 8C11.4646 5.2385 13.7031 3 16.4646 3ZM16.4999 15.4722L6.6324 23.1946C6.38779 23.3861 6.24487 23.6794 6.24487 23.99C6.24487 24.5478 6.69707 25 7.25487 25H25.745C26.0556 25 26.3489 24.8571 26.5404 24.6125C26.8841 24.1732 26.8067 23.5384 26.3675 23.1946L16.4999 15.4722Z" fill="#FFFFFF"/>
</g>
<defs>
<clipPath id="clip0_3971_45617">
<rect width="33" height="33" fill="white"/>
</clipPath>
</defs>
</svg>
