<svg width="36" height="36" viewBox="0 0 33 33" fill="none" xmlns="http://www.w3.org/2000/svg">
<g clip-path="url(#clip0_3971_45639)">
<path d="M11.817 8.48044C12.938 8.67937 13.7337 9.68428 13.6704 10.82L13.6309 11.5817L13.5996 12.3003C13.4718 15.5694 13.5972 17.6562 13.9394 18.4546C13.9743 18.5359 14.0089 18.6135 14.0434 18.6877C14.3479 19.3425 14.6369 19.7364 15.0996 20.1499L15.2096 20.2458C15.2729 20.2998 15.3985 20.3996 15.5532 20.5207L16.8161 21.498C18.8166 23.0862 18.7937 26.4605 16.8802 28.3698C14.9953 30.2531 12.2137 30.2532 10.3283 28.3699L10.2822 28.3194L9.89468 27.8582L9.62475 27.5417C8.97015 26.7798 8.46748 26.2372 8.12558 25.9212L8.01009 25.8178L7.86807 25.6978C7.73446 25.5882 7.61416 25.5013 7.39965 25.3613L6.72806 24.933C5.79308 24.3258 5.2862 23.8071 4.82143 22.8193C4.62755 22.4073 4.50646 21.982 4.44822 21.5348C4.36078 20.8635 4.3961 20.3642 4.56002 19.2752L4.61014 18.9463C4.69868 18.3596 4.73823 18.0176 4.74773 17.6734L4.75005 17.5C4.75005 16.7575 4.68788 16.0577 4.55435 15.1266L4.37543 13.9614L4.29809 13.4343L4.26743 13.1944L4.2356 12.9172C4.19525 12.5808 4.13994 12.202 4.06964 11.781L3.99435 11.3459C3.79613 10.2374 4.44794 9.15309 5.52949 8.80507L5.84373 8.70864C6.61377 8.48346 7.3876 8.33783 8.16452 8.27211L8.45601 8.25121L8.74131 8.23797C9.69904 8.20524 10.7242 8.2865 11.817 8.48044ZM16.7225 24.0463L16.5689 24.0789C15.8361 24.2474 15.2299 24.5545 14.7501 25C14.0761 25.6258 13.4704 26.6929 12.9329 28.2013C13.9269 28.4419 14.984 28.144 15.8204 27.3083C16.6881 26.4425 16.9872 25.1266 16.7225 24.0463ZM23.2586 3.4391C24.4165 3.64093 25.224 4.69996 25.1122 5.86868L25.0653 6.37678L25.0232 6.87389L24.9856 7.36659C24.782 10.1878 24.8631 12.0822 25.2023 12.9867C25.582 13.9991 25.9927 14.5874 26.723 15.2298L26.9226 15.3996L28.3161 16.498L28.4214 16.5848C30.3152 18.2062 30.2596 21.4945 28.3802 23.3698C26.4953 25.2531 23.7137 25.2532 21.8283 23.3699L21.7822 23.3194L21.3947 22.8582L21.1248 22.5417C20.4701 21.7798 19.9675 21.2372 19.6256 20.9212L19.5101 20.8178L19.3681 20.6978C19.2345 20.5882 19.1142 20.5013 18.8997 20.3613L18.2281 19.933C17.2931 19.3258 16.7862 18.8071 16.3214 17.8193C16.1373 17.428 15.9994 17.0269 15.9016 16.6089C15.7153 15.8128 15.6814 15.1922 15.7155 13.9276L15.7466 12.8631L15.7514 12.159C15.7526 12.0079 15.7547 11.8543 15.7578 11.6863L15.7977 10.0019L15.8066 9.40321C15.8105 8.87546 15.7989 8.53974 15.7676 8.20956L15.7351 7.91263L15.6882 7.55181L15.6308 7.16119C15.61 7.02602 15.5873 6.88591 15.5629 6.74086L15.4845 6.29094C15.2849 5.18291 15.935 4.09789 17.0166 3.74799L17.2485 3.67673C17.9761 3.46427 18.782 3.32857 19.6661 3.26815L19.9637 3.25079L20.3082 3.23757C21.3366 3.20855 22.3202 3.27552 23.2586 3.4391ZM6.08963 19.1964L6.02388 19.6292C5.89838 20.484 5.87504 20.8757 5.93566 21.3411C5.97427 21.6376 6.05262 21.9128 6.17868 22.1807C6.50558 22.8754 6.82673 23.2088 7.54162 23.6728L8.23281 24.1137L8.28813 24.1502C8.42941 22.7643 8.33333 21.7142 8.00006 21C7.68314 20.3209 7.04633 19.7197 6.08963 19.1964ZM28.1674 18.8505L28.0904 18.8714C27.2516 19.1086 26.5549 19.4848 26.0001 20C25.2201 20.7243 24.6584 21.7809 24.3151 23.17C25.3432 23.4646 26.451 23.1769 27.3204 22.3083C28.2413 21.3895 28.5218 19.9635 28.1674 18.8505ZM17.2146 14.0032L17.2112 14.1206C17.1898 15.0472 17.2144 15.5534 17.3227 16.0867L17.3622 16.2671C17.4365 16.5846 17.5401 16.8862 17.6787 17.1807C18.0056 17.8754 18.3267 18.2088 19.0416 18.6728L19.7882 19.1496C19.9294 17.764 19.8333 16.7141 19.5001 16C19.1434 15.2357 18.3816 14.5701 17.2146 14.0032Z" fill="#88909A"/>
</g>
<defs>
<clipPath id="clip0_3971_45639">
<rect width="33" height="33" fill="white"/>
</clipPath>
</defs>
</svg>
