<svg width="36" height="36" viewBox="0 0 33 33" fill="none" xmlns="http://www.w3.org/2000/svg">
<g clip-path="url(#clip0_3971_45623)">
<path d="M30.3638 11.7893C29.7468 10.7498 28.2493 8.30479 26.7523 6.43329C25.0603 4.31729 22.1173 4.12329 21.3583 4.10975C21.2493 4.10779 21.1563 4.18029 21.1243 4.28429C20.4013 6.64379 18.8828 7.89779 16.4998 7.89779C14.1168 7.89779 12.5988 6.64379 11.8753 4.28429C11.8438 4.18029 11.7503 4.10779 11.6418 4.10975C10.8828 4.12329 7.94026 4.31729 6.24776 6.43329C4.75026 8.30479 3.25326 10.7498 2.63626 11.7893C2.45276 12.0978 2.45526 12.4798 2.63976 12.7878L2.64026 12.7883C3.38426 14.0283 4.61026 14.9023 6.02476 15.2008L6.19376 15.2363C6.49676 15.2998 6.81176 15.2163 7.04276 15.0113L9.40676 12.9148L8.55376 26.9893C8.55226 26.9993 8.55176 27.0098 8.55176 27.0198C8.55176 27.7943 12.1103 28.8903 16.4998 28.8903C20.8898 28.8903 24.4483 27.7943 24.4483 27.0198C24.4483 27.0098 24.4478 26.9993 24.4463 26.9893L23.5933 12.9148L25.9573 15.0113C26.1883 15.2163 26.5033 15.2998 26.8063 15.2363L26.9753 15.2008C28.3898 14.9023 29.6163 14.0283 30.3598 12.7883L30.3603 12.7878C30.5448 12.4798 30.5473 12.0978 30.3638 11.7893Z" fill="#FFFFFF"/>
</g>
<defs>
<clipPath id="clip0_3971_45623">
<rect width="33" height="33" fill="white"/>
</clipPath>
</defs>
</svg>
