<svg width="16" height="16" viewBox="0 0 16 16" fill="none" xmlns="http://www.w3.org/2000/svg">
<path fill-rule="evenodd" clip-rule="evenodd" d="M12 5.08535V6.49943L13.3332 6.02819C13.3724 6.01436 13.4144 6.00512 13.4591 6.0016L14.4624 5.34942C14.3266 5.2357 14.1704 5.14557 14 5.08535C13.8436 5.03008 13.6753 5 13.5 5C13.3247 5 13.1564 5.03008 13 5.08535V4.05021V3.4C13 3.13595 12.9493 2.87189 12.7865 2.66401C12.3403 2.09432 11.0821 1 8 1C4.91791 1 3.65968 2.09431 3.21348 2.66401C3.05066 2.87189 3 3.13595 3 3.4V4.05021V5.08535C2.84361 5.03008 2.67532 5 2.5 5C2.32468 5 2.15639 5.03008 2 5.08535C1.4174 5.29127 1 5.84689 1 6.5V8C1 9.10457 1.89543 10 3 10V10.7889C3 11.5786 3.22553 12.3608 3.7727 12.9302C4.09355 13.2641 4.50718 13.6423 5 13.9831V12.7187C4.81536 12.5588 4.64606 12.3958 4.49375 12.2373C4.17546 11.9061 4 11.4026 4 10.7889V10V9H3C2.44772 9 2 8.55228 2 8V6.5C2 6.22386 2.22386 6 2.5 6C2.56023 6 2.61591 6.01022 2.66675 6.02819L4 6.49943V5.08535V3.4C4 3.3289 4.00716 3.28665 4.01253 3.26632L4.01274 3.26551C4.26648 2.94984 5.23284 2 8 2C10.7672 2 11.7335 2.94984 11.9873 3.26551L11.9875 3.26632C11.9928 3.28665 12 3.3289 12 3.4V5.08535ZM14.8536 7.14645C15.0488 7.34171 15.0488 7.65829 14.8536 7.85355L10.8536 11.8536C10.6583 12.0488 10.3417 12.0488 10.1464 11.8536C9.95118 11.6583 9.95118 11.3417 10.1464 11.1464L14.1464 7.14645C14.3417 6.95118 14.6583 6.95118 14.8536 7.14645ZM9.5658 12.4057C8.98686 11.8648 8.04822 11.8648 7.46929 12.4057C7.32279 12.5426 7.21339 12.6984 7.10076 12.9095C7.06771 12.9715 7.05795 12.9909 6.98403 13.1401C6.76906 13.5738 6.62861 13.7616 6.33497 13.9344L6 14.1315L6.29665 14.3764C7.41225 15.2974 8.76097 15.1167 9.5658 14.3647C10.1447 13.8237 10.1447 12.9467 9.5658 12.4057Z" fill="#E48DC2"/>
</svg>
