<svg width="32" height="32" viewBox="0 0 32 32" fill="none" xmlns="http://www.w3.org/2000/svg">
<path d="M6.61409 9.58389C7.31016 9.042 8.31605 9.16399 8.86083 9.85638C10.9399 12.499 15.9369 11.6593 18.9271 11.6609C21.8976 11.6609 24.6535 13.4302 25.86 16.1118C26.2238 16.9203 25.8542 17.8281 25.0345 18.1392C24.2149 18.4503 23.2555 18.0471 22.8918 17.2386C22.2553 15.8238 20.8322 14.8723 19.2746 14.8025L19.2124 16.4053L20.5742 19.2052C20.9265 19.9298 21.1882 20.6948 21.3535 21.4828L22.0341 24.7286C22.2145 25.5894 21.6594 26.4328 20.7941 26.6123C19.9289 26.7918 19.081 26.2396 18.9005 25.3789L18.22 22.1329C18.1082 21.5997 17.9311 21.0821 17.6926 20.5918L16.4903 18.1195L14.9734 21.0659C14.7417 21.5159 14.5623 21.9907 14.4385 22.481L13.6023 25.7952C13.387 26.648 12.5176 27.1658 11.6603 26.9517C10.803 26.7376 10.2825 25.8727 10.4977 25.0199L11.3339 21.7058C11.5168 20.9811 11.782 20.2793 12.1244 19.6143L13.7531 16.4508L13.8221 14.6716L13.3611 14.726C10.6711 15.0429 8.00967 13.9409 6.34016 11.8188C5.79542 11.1264 5.91805 10.1258 6.61409 9.58389Z" fill="white"/>
<path d="M16.6106 5C18.2148 5 19.5152 6.29359 19.5152 7.88932C19.5152 9.48505 18.2148 10.7786 16.6106 10.7786C15.0065 10.7786 13.706 9.48504 13.706 7.88932C13.706 6.2936 15.0065 5.00002 16.6106 5Z" fill="white"/>
<path d="M16.9727 1.00781C20.4957 1.18468 23.3749 4.07159 23.3751 7.70508C23.375 8.02165 23.3509 8.33279 23.3086 8.63672C26.0396 9.71978 28.3341 11.8123 29.5831 14.5654C30.845 17.3475 29.5322 20.6076 26.6387 21.6973H26.6377C26.2425 21.846 25.8396 21.9446 25.4366 21.998L25.8917 24.1514L25.9424 24.4287C26.3945 27.2832 24.495 29.951 21.7002 30.5264C19.674 30.9432 17.6411 30.1636 16.4014 28.6348C15.2075 30.3945 13.0393 31.3184 10.8907 30.8994L10.6231 30.8408C7.76105 30.1319 5.94625 27.2291 6.69146 24.2998L7.55474 20.9111C7.78187 20.0185 8.09746 19.1504 8.4981 18.3213L8.69634 17.9258C6.52343 17.2237 4.56388 15.899 3.10064 14.0547C1.23267 11.6999 1.66653 8.29439 4.02935 6.46973C5.82256 5.08556 8.22765 4.99886 10.0821 6.08789C10.8142 3.13937 13.5011 1.00003 16.6299 1L16.9727 1.00781ZM16.6299 2.875C13.9652 2.87503 11.759 5.01292 11.7588 7.70508C11.7589 8.37766 11.8977 9.01655 12.1465 9.5957C11.1498 9.38805 10.4908 9.035 10.1065 8.55078H10.1055C8.97711 7.12983 6.9715 6.81463 5.4688 7.75L5.4483 7.76172L5.42974 7.77539L5.21294 7.92578L5.17486 7.95312C3.63484 9.14222 3.35473 11.3569 4.56939 12.8887C6.28169 15.047 8.80604 16.3637 11.503 16.5898L10.3389 18.833C9.92011 19.6398 9.59522 20.4918 9.37115 21.3721L8.50884 24.7637C8.02565 26.6652 9.20294 28.5569 11.0743 29.0205L11.2491 29.0586C12.9994 29.3998 14.764 28.381 15.2969 26.6504L15.3448 26.4805L16.2071 23.0908C16.2605 22.881 16.3288 22.6751 16.4092 22.4746C16.4249 22.5364 16.442 22.5979 16.4551 22.6602L17.1563 25.9805C17.5609 27.8924 19.4432 29.0766 21.3223 28.6904H21.3233C23.0929 28.3256 24.3029 26.6843 24.1133 24.8965L24.1114 24.8721L24.1075 24.8496L24.0665 24.5879L24.0626 24.5625L24.0577 24.5391L23.3555 21.2197C23.2461 20.7021 23.1002 20.1931 22.9229 19.6953C23.8289 20.2055 24.9444 20.3312 25.9776 19.9424C27.7888 19.2603 28.6396 17.2733 27.9473 15.5098L27.876 15.3398C26.5932 12.5123 23.9733 10.5035 20.9727 9.88672C21.3076 9.23317 21.5 8.49285 21.5001 7.70508C21.4999 5.01324 19.2949 2.87515 16.6299 2.875Z" fill="black"/>
<path d="M16.9727 1.00781C20.4957 1.18468 23.3749 4.07159 23.3751 7.70508C23.375 8.02165 23.3509 8.33279 23.3086 8.63672C26.0396 9.71978 28.3341 11.8123 29.5831 14.5654C30.845 17.3475 29.5322 20.6076 26.6387 21.6973H26.6377C26.2425 21.846 25.8396 21.9446 25.4366 21.998L25.8917 24.1514L25.9424 24.4287C26.3945 27.2832 24.495 29.951 21.7002 30.5264C19.674 30.9432 17.6411 30.1636 16.4014 28.6348C15.2075 30.3945 13.0393 31.3184 10.8907 30.8994L10.6231 30.8408C7.76105 30.1319 5.94625 27.2291 6.69146 24.2998L7.55474 20.9111C7.78187 20.0185 8.09746 19.1504 8.4981 18.3213L8.69634 17.9258C6.52343 17.2237 4.56388 15.899 3.10064 14.0547C1.23267 11.6999 1.66653 8.29439 4.02935 6.46973C5.82256 5.08556 8.22765 4.99886 10.0821 6.08789C10.8142 3.13937 13.5011 1.00003 16.6299 1L16.9727 1.00781ZM16.6299 2.875C13.9652 2.87503 11.759 5.01292 11.7588 7.70508C11.7589 8.37766 11.8977 9.01655 12.1465 9.5957C11.1498 9.38805 10.4908 9.035 10.1065 8.55078H10.1055C8.97711 7.12983 6.9715 6.81463 5.4688 7.75L5.4483 7.76172L5.42974 7.77539L5.21294 7.92578L5.17486 7.95312C3.63484 9.14222 3.35473 11.3569 4.56939 12.8887C6.28169 15.047 8.80604 16.3637 11.503 16.5898L10.3389 18.833C9.92011 19.6398 9.59522 20.4918 9.37115 21.3721L8.50884 24.7637C8.02565 26.6652 9.20294 28.5569 11.0743 29.0205L11.2491 29.0586C12.9994 29.3998 14.764 28.381 15.2969 26.6504L15.3448 26.4805L16.2071 23.0908C16.2605 22.881 16.3288 22.6751 16.4092 22.4746C16.4249 22.5364 16.442 22.5979 16.4551 22.6602L17.1563 25.9805C17.5609 27.8924 19.4432 29.0766 21.3223 28.6904H21.3233C23.0929 28.3256 24.3029 26.6843 24.1133 24.8965L24.1114 24.8721L24.1075 24.8496L24.0665 24.5879L24.0626 24.5625L24.0577 24.5391L23.3555 21.2197C23.2461 20.7021 23.1002 20.1931 22.9229 19.6953C23.8289 20.2055 24.9444 20.3312 25.9776 19.9424C27.7888 19.2603 28.6396 17.2733 27.9473 15.5098L27.876 15.3398C26.5932 12.5123 23.9733 10.5035 20.9727 9.88672C21.3076 9.23317 21.5 8.49285 21.5001 7.70508C21.4999 5.01324 19.2949 2.87515 16.6299 2.875Z" fill="url(#paint0_linear_761_320)"/>
<defs>
<linearGradient id="paint0_linear_761_320" x1="23.4014" y1="11.4693" x2="14.1516" y2="27.2883" gradientUnits="userSpaceOnUse">
<stop stop-color="#E48DC2"/>
<stop offset="0.333333" stop-color="#FFB36C"/>
<stop offset="0.666667" stop-color="#FCE94E"/>
<stop offset="1" stop-color="#B8F3E0"/>
</linearGradient>
</defs>
</svg>
