<svg width="16" height="16" viewBox="0 0 16 16" fill="none" xmlns="http://www.w3.org/2000/svg">
<path fill-rule="evenodd" clip-rule="evenodd" d="M8 13C4.13401 13 1 8 1 8C1 8 4.13401 3 8 3C11.866 3 15 8 15 8C15 8 11.866 13 8 13ZM2.34792 8.17836C2.30055 8.11568 2.25628 8.05608 2.21522 8C2.25628 7.94392 2.30055 7.88432 2.34792 7.82164C2.68164 7.38002 3.16255 6.79408 3.75264 6.2118C4.97423 5.00636 6.4781 4 8 4C9.5219 4 11.0258 5.00636 12.2474 6.2118C12.8375 6.79408 13.3184 7.38002 13.6521 7.82164C13.6994 7.88432 13.7437 7.94392 13.7848 8C13.7437 8.05608 13.6994 8.11568 13.6521 8.17836C13.3184 8.61998 12.8375 9.20592 12.2474 9.7882C11.0258 10.9936 9.5219 12 8 12C6.4781 12 4.97423 10.9936 3.75264 9.7882C3.16255 9.20592 2.68164 8.61998 2.34792 8.17836ZM9.99998 8C9.99998 9.10457 9.10455 10 7.99998 10C6.89541 10 5.99998 9.10457 5.99998 8C5.99998 6.89543 6.89541 6 7.99998 6C9.10455 6 9.99998 6.89543 9.99998 8Z" fill="#E48DC2"/>
</svg>
