<svg width="20" height="20" viewBox="0 0 20 20" fill="none" xmlns="http://www.w3.org/2000/svg">
<path fill-rule="evenodd" clip-rule="evenodd" d="M17.2917 10C17.2917 14.0271 14.0271 17.2917 10 17.2917C5.97292 17.2917 2.70833 14.0271 2.70833 10C2.70833 5.97292 5.97292 2.70833 10 2.70833C14.0271 2.70833 17.2917 5.97292 17.2917 10ZM18.75 10C18.75 14.8325 14.8325 18.75 10 18.75C5.16751 18.75 1.25 14.8325 1.25 10C1.25 5.16751 5.16751 1.25 10 1.25C14.8325 1.25 18.75 5.16751 18.75 10ZM14.726 11.6365C14.0482 13.5942 12.1883 15 10 15C7.81171 15 5.95175 13.5942 5.27395 11.6365C4.97281 10.7667 5.74619 10 6.66667 10H13.3333C14.2538 10 15.0272 10.7667 14.726 11.6365ZM8.75 7.5C8.75 8.19036 8.19036 8.75 7.5 8.75C6.80964 8.75 6.25 8.19036 6.25 7.5C6.25 6.80964 6.80964 6.25 7.5 6.25C8.19036 6.25 8.75 6.80964 8.75 7.5ZM12.5 8.75C13.1904 8.75 13.75 8.19036 13.75 7.5C13.75 6.80964 13.1904 6.25 12.5 6.25C11.8096 6.25 11.25 6.80964 11.25 7.5C11.25 8.19036 11.8096 8.75 12.5 8.75Z" fill="#C3D2DF"/>
</svg>
