<svg width="16" height="16" viewBox="0 0 16 16" fill="none" xmlns="http://www.w3.org/2000/svg">
<path d="M4.66699 6.66699C5.0334 6.66717 5.33283 6.9666 5.33301 7.33301C5.33301 7.69957 5.03351 7.99982 4.66699 8H2.66699C2.30033 8 2 8.30033 2 8.66699V13.333C2 13.6997 2.30033 14 2.66699 14H7.33301C7.69967 14 8 13.6997 8 13.333V11.333C8.00018 10.9665 8.30043 10.667 8.66699 10.667C9.0334 10.6672 9.33283 10.9666 9.33301 11.333V13.333C9.33301 14.433 8.43301 15.333 7.33301 15.333H2.66699C1.56699 15.333 0.666992 14.433 0.666992 13.333V8.66699C0.666992 7.56699 1.56699 6.66699 2.66699 6.66699H4.66699ZM6 11C6.55228 11 7 11.4477 7 12C7 12.5523 6.55228 13 6 13C5.44772 13 5 12.5523 5 12C5 11.4477 5.44772 11 6 11ZM4 9C4.55228 9 5 9.44772 5 10C5 10.5523 4.55228 11 4 11C3.44772 11 3 10.5523 3 10C3 9.44771 3.44772 9 4 9ZM13.333 0.666992C14.433 0.666992 15.333 1.56699 15.333 2.66699V7.33301C15.333 8.43301 14.433 9.33301 13.333 9.33301H8.66699C7.56699 9.33301 6.66699 8.43301 6.66699 7.33301V2.66699C6.66699 1.56699 7.56699 0.666992 8.66699 0.666992H13.333ZM8.66699 2C8.30033 2 8 2.30033 8 2.66699V7.33301C8 7.69967 8.30033 8 8.66699 8H13.333C13.6997 8 14 7.69967 14 7.33301V2.66699C14 2.30033 13.6997 2 13.333 2H8.66699ZM11 4C11.5523 4 12 4.44772 12 5C12 5.55228 11.5523 6 11 6C10.4477 6 10 5.55228 10 5C10 4.44772 10.4477 4 11 4Z" fill="#C3D2DF"/>
</svg>
