<svg width="254" height="254" viewBox="0 0 254 254" fill="none" xmlns="http://www.w3.org/2000/svg">
<g clip-path="url(#clip0_534_256)">
<path d="M22.0712 9.8801C22.2004 9.5101 22.6872 9.4201 22.9356 9.7301L27.4961 15.5601C27.7345 15.8701 28.0624 16.1001 28.43 16.2301L35.4048 18.6601C35.7724 18.7901 35.8618 19.2801 35.5538 19.5301L29.7614 24.1201C29.4534 24.3601 29.2248 24.6901 29.0957 25.0601L26.6813 32.0801C26.5522 32.4501 26.0653 32.5401 25.8169 32.2301L21.2565 26.4001C21.0181 26.0901 20.6902 25.8601 20.3226 25.7301L13.3379 23.2901C12.9703 23.1601 12.8808 22.6701 13.1888 22.4201L18.9813 17.8301C19.2893 17.5901 19.5178 17.2601 19.647 16.8901L22.0613 9.8701L22.0712 9.8801Z" fill="white"/>
<path d="M185.442 215.45C185.819 214.76 186.813 214.76 187.18 215.45L190.28 221.16C190.469 221.5 190.747 221.79 191.095 221.98L196.768 225.1C197.454 225.48 197.454 226.48 196.768 226.85L191.095 229.97C190.757 230.16 190.469 230.44 190.28 230.79L187.18 236.5C186.803 237.19 185.809 237.19 185.442 236.5L182.342 230.79C182.153 230.45 181.875 230.16 181.527 229.97L175.854 226.85C175.168 226.47 175.168 225.47 175.854 225.1L181.527 221.98C181.865 221.79 182.153 221.51 182.342 221.16L185.442 215.45Z" fill="white"/>
<path d="M216.639 229.46C215.368 229.46 214.205 228.77 213.589 227.65L206.118 214L192.526 206.53C191.413 205.92 190.718 204.74 190.718 203.46C190.718 202.18 191.413 201 192.526 200.39L206.048 192.93L213.41 179.29C214.016 178.17 215.189 177.46 216.461 177.46H216.471C217.742 177.46 218.905 178.15 219.521 179.27L226.992 192.92L240.584 200.39C241.697 201 242.392 202.18 242.392 203.46C242.392 204.74 241.697 205.92 240.584 206.53L227.062 213.99L219.71 227.63C219.103 228.75 217.931 229.46 216.659 229.46H216.649H216.639ZM201.438 203.45L209.923 208.11C210.768 208.57 211.463 209.27 211.94 210.12L216.61 218.66L221.2 210.16C221.677 209.28 222.382 208.58 223.227 208.11L231.652 203.46L223.167 198.8C222.313 198.33 221.617 197.63 221.15 196.78L216.48 188.25L211.89 196.75C211.423 197.61 210.728 198.32 209.863 198.79L201.428 203.44L201.438 203.45Z" fill="#FCBB68"/>
<path d="M126.812 58.42C127.597 58.8 127.488 60 126.762 60.47C121.129 64.11 117.592 74.94 120.731 80.24C121 80.69 121.606 80.75 122.033 80.45C124.735 78.56 127.001 77.02 128.908 75.77C122.46 102.79 114.611 149.65 112.664 187.32C118.108 185.92 123.911 185.75 129.634 187.05C130.051 183.46 131.223 179.93 133.21 176.72L133.26 176.63L133.32 176.54L133.658 176.01L133.717 175.92L133.777 175.84C134.144 175.3 134.512 174.82 134.86 174.37L134.89 174.32L134.929 174.27L136.032 172.91H136.042L136.052 172.88L142.262 165.23C143.106 164.2 143.911 163.2 144.696 162.3C143.176 139.18 144.577 104.78 151.124 75.77C156.211 80.37 162.183 88.75 167.657 99.66C168.064 100.47 169.247 100.37 169.475 99.49C172.655 87.13 170.558 79.1 168.054 74.95C167.508 74.05 168.343 72.44 169.316 72.84C179.927 77.2 193.35 94.58 201.438 106.89C203.773 105.1 206.157 103.33 208.472 101.63C213.758 81.03 209.744 61.35 195.785 52.85C195.189 52.49 195.099 51.63 195.675 51.24C202.114 46.92 214.195 46.83 225.711 46.83C226.019 46.83 226.207 46.47 226.038 46.21C204.319 11.85 166.902 20.41 149.366 30.16C149.405 29.94 149.445 29.73 149.475 29.5C151.075 19.17 139.281 11.35 131.77 8.05998C131.025 7.72998 130.27 8.42998 130.488 9.21998L135.466 27.31C109.623 11.05 67.5861 17.05 63.1349 52.13C61.7539 71.1 67.2979 66.98 68.1027 64.48C71.918 52.62 109.643 50.17 126.812 58.4V58.42Z" fill="url(#paint0_linear_534_256)"/>
<path d="M48.2315 247.48C48.2315 249.05 47.6552 250.6 46.3934 251.51C44.2076 253.08 41.525 254 38.6337 254C31.2218 254 25.2207 247.96 25.2207 240.5V225.16C25.2207 203.65 33.4672 182.98 48.2315 167.44V247.48Z" fill="white"/>
<path d="M105.748 244.24C110.289 250.13 118.714 251.2 124.566 246.63C130.418 242.06 131.481 233.58 126.941 227.69L114.969 212.17C112.077 208.42 109.693 204.35 107.835 200.05C107.606 200.19 107.378 200.32 107.159 200.46C95.8824 207.65 102.023 221.36 96.0513 231.66L105.758 244.24H105.748Z" fill="white"/>
<path d="M76.3491 177.52C76.3491 193.2 80.7505 208.49 88.9275 221.7C89.0567 220.82 89.1759 219.83 89.2852 218.68C89.8217 212.89 89.7521 199.73 101.844 192.02C102.758 191.43 103.702 190.9 104.665 190.39C103.692 186.2 103.175 181.88 103.175 177.52V167.61L121.188 112.09C141.815 106.3 159.51 92.6801 170.439 73.9601L175.903 64.5901C179.659 58.1601 177.523 49.8901 171.134 46.1101C164.746 42.3301 156.529 44.4801 152.773 50.9101L147.309 60.2801C139.241 74.1001 125.719 83.8301 110.1 87.0301L92.862 90.5601C91.8883 90.6501 90.9047 90.8401 89.9409 91.1601L89.5733 91.2401C88.4307 91.4701 87.3577 91.8501 86.3542 92.3401L71.888 97.0801C67.417 98.5401 62.8069 99.4301 58.167 99.7301V126.77C61.7041 126.61 65.2312 126.23 68.7186 125.62L58.7035 156.49L58.167 157.05V199.51C60.6509 194.6 63.8601 190.05 67.7151 186.01L76.3491 176.97V177.53V177.52Z" fill="white"/>
<path d="M14.3911 105.12C16.2689 97.9101 23.5914 93.5901 30.7649 95.4701L40.3229 97.9901C42.926 98.6801 45.5689 99.1701 48.2316 99.4701V126.58C43.2936 126.2 38.3755 125.38 33.5369 124.11L23.9789 121.59C16.8153 119.7 12.5232 112.33 14.401 105.11L14.3911 105.12Z" fill="white"/>
<path d="M97.0847 43.5901C120.702 44.3901 122.44 79.2401 99.0321 82.4301C71.6794 84.9501 69.5632 43.8801 97.0847 43.5901Z" fill="white"/>
<path d="M84.0492 243C82.4894 252.17 125.918 262.53 143.494 243H84.0492Z" fill="white"/>
<path d="M250.917 110.27V100.51C250.37 99.3201 249.615 98.2001 248.642 97.2201C246.019 94.5801 242.432 93.4801 238.994 93.9501V126.8C244.965 118.97 249.188 112.96 249.228 112.91C249.923 112.09 250.48 111.2 250.917 110.27Z" fill="white"/>
<path d="M238.994 142.96V238C238.994 240.76 236.769 243 234.026 243H155.655C155.257 243.69 154.85 244.38 154.413 245.06C151.79 249.14 148.551 252.41 144.954 255H234.017C243.326 255 250.907 247.37 250.907 238V127.52C247.678 131.86 243.495 137.36 238.984 142.96H238.994Z" fill="white"/>
<path d="M74.0838 242.9C71.8085 242.44 70.0897 240.42 70.0897 238V17C70.0897 14.24 72.3152 12 75.0575 12H234.026C236.769 12 238.994 14.24 238.994 17V83.94C243.088 83.64 247.241 84.5 250.917 86.55V17C250.917 7.63 243.336 0 234.026 0H75.0575C65.7478 0 58.167 7.63 58.167 17V238C58.167 247.37 65.7478 255 75.0575 255H80.0352C77.6904 253.08 73.7956 248.96 74.0838 242.9Z" fill="white"/>
<path d="M142.868 199.61C138.695 194.62 138.218 187.51 141.626 182.02L141.964 181.49C142.143 181.22 142.351 180.94 142.629 180.59L143.732 179.23L149.942 171.58C151.482 169.69 152.346 168.62 153.101 167.87L153.419 167.57C156.251 165.01 159.828 163.72 163.415 163.73C162.381 160.74 163.017 157.19 165.809 154.78C165.839 154.75 184.756 134.25 197.056 123.33C209.337 112.42 232.934 96.7101 233.043 96.6401C237.593 92.7101 244.389 92.9601 248.622 97.2301C252.864 101.5 253.123 108.34 249.208 112.91C249.139 113.01 234.821 133.33 221.627 148.06C208.423 162.8 191.632 180.37 191.572 180.43C189.148 183.27 185.571 183.92 182.541 182.88C182.58 186.53 181.289 190.18 178.725 193.05L178.427 193.37C177.682 194.14 176.619 195.01 174.741 196.55L167.14 202.8C165.998 203.74 165.422 204.22 164.895 204.58L164.368 204.92C159.083 208.23 152.307 207.89 147.379 204.06L146.892 203.67C146.405 203.25 145.878 202.72 144.825 201.67C144.04 200.88 143.543 200.38 143.176 199.98L142.838 199.59L142.868 199.61ZM150.995 187.7C149.992 189.18 150.091 191.16 151.234 192.53C151.204 192.5 151.234 192.55 151.472 192.78C151.71 193.03 152.038 193.36 152.585 193.91C153.131 194.46 153.459 194.79 153.707 195.03C153.857 195.18 153.936 195.25 153.956 195.27C155.317 196.42 157.284 196.52 158.755 195.51C158.785 195.49 158.864 195.43 159.023 195.3C159.291 195.08 159.649 194.79 160.245 194.3L167.846 188.05C168.959 187.13 169.644 186.57 170.141 186.14C170.618 185.72 170.687 185.63 170.628 185.71C171.88 184.3 171.989 182.2 170.876 180.67C170.936 180.75 170.876 180.65 170.439 180.19C169.982 179.71 169.366 179.09 168.343 178.06C167.319 177.03 166.703 176.41 166.226 175.95C165.769 175.51 165.67 175.45 165.749 175.51C164.229 174.39 162.143 174.5 160.742 175.76C160.811 175.7 160.722 175.76 160.315 176.25C159.887 176.75 159.331 177.43 158.417 178.56L152.207 186.21C151.72 186.81 151.422 187.17 151.214 187.44C151.085 187.61 151.025 187.69 151.005 187.71L150.995 187.7ZM146.077 239.63C128.58 266.9 68.6491 249.01 87.7055 239.22C106.762 229.43 92.7727 209.64 107.159 200.46C117.085 194.13 130.876 194.13 141.616 204.95C152.356 215.77 153.707 227.73 146.077 239.63Z" fill="url(#paint1_linear_534_256)"/>
</g>
<defs>
<linearGradient id="paint0_linear_534_256" x1="181.905" y1="46.5" x2="117.61" y2="202.208" gradientUnits="userSpaceOnUse">
<stop stop-color="#E28EBC"/>
<stop offset="0.33" stop-color="#FBB26D"/>
<stop offset="0.67" stop-color="#FBE84E"/>
<stop offset="1" stop-color="#BDE3D8"/>
</linearGradient>
<linearGradient id="paint1_linear_534_256" x1="221.18" y1="95.4501" x2="111.475" y2="247.338" gradientUnits="userSpaceOnUse">
<stop stop-color="#E28EBC"/>
<stop offset="0.33" stop-color="#FBB26D"/>
<stop offset="0.67" stop-color="#FBE84E"/>
<stop offset="1" stop-color="#BDE3D8"/>
</linearGradient>
<clipPath id="clip0_534_256">
<rect width="254" height="254" fill="white"/>
</clipPath>
</defs>
</svg>
