<svg width="328" height="72" viewBox="0 0 328 72" fill="none" xmlns="http://www.w3.org/2000/svg">
    <path d="M0 4C0 1.79086 1.697694 0 3.791908 0H324.208092C326.302173 0 328 1.79086 328 4V68C328 70.2091 326.302173 72 324.208092 72H3.791898C1.697694 72 0 70.2091 0 68V4Z" fill="#1E2329" fill-opacity="0.4"/>
    <path d="M3.791908 0.5H324.208092C326.040532 0.5 327.526012 2.067 327.526012 4V68C327.526012 69.933 326.040532 71.5 324.208092 71.5H3.791908C1.959468 71.5 0.473988 69.933 0.473988 68V4C0.473989 2.067 1.959468 0.5 3.791908 0.5Z" stroke="#1A1D21" stroke-opacity="0.4"/>
</svg>
