<svg width="16" height="16" viewBox="0 0 16 16" fill="none" xmlns="http://www.w3.org/2000/svg">
<path fill-rule="evenodd" clip-rule="evenodd" d="M12 5V3.4C12 3.3289 11.9928 3.28665 11.9875 3.26632L11.9873 3.26551C11.7335 2.94984 10.7672 2 8 2C5.23284 2 4.26648 2.94984 4.01274 3.26551L4.01253 3.26632C4.00716 3.28665 4 3.3289 4 3.4V5.08535V6.49943L2.66675 6.02819C2.61591 6.01022 2.56023 6 2.5 6C2.22386 6 2 6.22386 2 6.5V8C2 8.55228 2.44772 9 3 9H4V10V10.7889C4 11.4026 4.17546 11.9061 4.49375 12.2373C4.64606 12.3958 4.81536 12.5588 5 12.7187V13.9831C4.50718 13.6423 4.09355 13.2641 3.7727 12.9302C3.22553 12.3608 3 11.5786 3 10.7889V10C1.89543 10 1 9.10457 1 8V6.5C1 5.84689 1.4174 5.29127 2 5.08535C2.15639 5.03008 2.32468 5 2.5 5C2.67532 5 2.84361 5.03008 3 5.08535V4.05021V3.4C3 3.13595 3.05066 2.87189 3.21348 2.66401C3.65968 2.09431 4.91791 1 8 1C11.0821 1 12.3403 2.09432 12.7865 2.66401C12.9493 2.87189 13 3.13595 13 3.4V4.05021V5H12ZM14 6C14.5523 6 15 6.44772 15 7V10.5C15 10.7761 14.7761 11 14.5 11C14.2239 11 14 10.7761 14 10.5V7.70711L7.70711 14H10.5C10.7761 14 11 14.2239 11 14.5C11 14.7761 10.7761 15 10.5 15H7C6.44771 15 6 14.5523 6 14V10.5C6 10.2239 6.22386 10 6.5 10C6.77614 10 7 10.2239 7 10.5V13.2929L13.2929 7H10.5C10.2239 7 10 6.77614 10 6.5C10 6.22386 10.2239 6 10.5 6H14Z" fill="#E48DC2"/>
</svg>
