<svg width="16" height="16" viewBox="0 0 16 16" fill="none" xmlns="http://www.w3.org/2000/svg">
<path fill-rule="evenodd" clip-rule="evenodd" d="M13 3C13 1.89543 12.1046 1 11 1H5C3.89543 1 3 1.89543 3 3V13C3 14.1046 3.89543 15 5 15H6V14H5C4.44772 14 4 13.5523 4 13V3C4 2.44772 4.44772 2 5 2H11C11.5523 2 12 2.44772 12 3V5H13V3Z" fill="white"/>
<circle cx="10.5" cy="10.5" r="4" stroke="url(#paint0_linear_1463_833)"/>
<path fill-rule="evenodd" clip-rule="evenodd" d="M12.7071 9.70711C13.0976 9.31658 13.0976 8.68342 12.7071 8.29289C12.3166 7.90237 11.6834 7.90237 11.2929 8.29289L8.29289 11.2929C7.90237 11.6834 7.90237 12.3166 8.29289 12.7071C8.68342 13.0976 9.31658 13.0976 9.70711 12.7071L12.7071 9.70711ZM12.3536 9.35355C12.5488 9.15829 12.5488 8.84171 12.3536 8.64645C12.1583 8.45118 11.8417 8.45118 11.6464 8.64645L10.6464 9.64645C10.4512 9.84171 10.4512 10.1583 10.6464 10.3536C10.8417 10.5488 11.1583 10.5488 11.3536 10.3536L12.3536 9.35355Z" fill="white"/>
<defs>
<linearGradient id="paint0_linear_1463_833" x1="15" y1="10.2353" x2="6" y2="10.2353" gradientUnits="userSpaceOnUse">
<stop stop-color="#E48DC2"/>
<stop offset="0.333333" stop-color="#FFB36C"/>
<stop offset="0.666667" stop-color="#FCE94E"/>
<stop offset="1" stop-color="#B8F3E0"/>
</linearGradient>
</defs>
</svg>
