<svg width="16" height="16" viewBox="0 0 56 56" fill="none" xmlns="http://www.w3.org/2000/svg">
<g clip-path="url(#clip0_311_5704)">
<path d="M13.0791 21.8819C13.4242 21.8819 13.759 21.9269 14.0791 22.0079V24.1085L13.7725 24.0011C13.5553 23.9243 13.3227 23.8819 13.0791 23.8819C12.0027 23.8821 11.1173 24.7006 11.0107 25.7491L11 25.961V29.7921C11.0001 31.7445 12.5559 33.3341 14.4961 33.3888L16.4395 33.4435V37.3868C16.4395 39.257 16.9766 40.8939 18.0605 42.003C20.2567 44.2494 23.7852 46.9014 28.0371 46.9015C32.2892 46.9015 35.8176 44.2493 38.0137 42.003C39.0298 40.9635 39.566 39.4601 39.6289 37.7345L39.6348 37.3868V33.4435L41.5781 33.3888C43.4578 33.3359 44.9763 31.8423 45.0693 29.9737L45.0742 29.7921V25.961C45.0738 24.9082 44.2912 24.0398 43.2764 23.9025V21.8927C45.3978 22.0372 47.0738 23.803 47.0742 25.961V29.7921C47.0741 32.8312 44.6533 35.3029 41.6348 35.3878V37.3868C41.6347 39.6091 40.9977 41.8123 39.4443 43.4015C37.1273 45.7715 33.1071 48.9015 28.0371 48.9015C22.9673 48.9014 18.9479 45.7715 16.6309 43.4015C15.0773 41.8123 14.4395 39.6093 14.4395 37.3868V35.3878C11.421 35.3028 9.00009 32.8311 9 29.7921V25.961C9.00042 23.7085 10.8265 21.8821 13.0791 21.8819Z" fill="white"/>
<path d="M14.0793 47.25L11.2542 47.7637C7.48502 48.449 4.31067 50.9788 2.80157 54.5V54.5" stroke="white" stroke-width="2" stroke-linecap="round" stroke-linejoin="round"/>
<path d="M53.2767 34.2573C52.8911 34.0891 52.2864 33.6879 51.6022 33.5734C50.9184 33.4586 50.4754 33.6326 50.076 33.9174C49.5232 34.3732 48.9141 35.6346 49.0696 36.9767C49.3244 39.1768 50.3598 42.3608 49.5719 42.96C48.784 43.5591 46.873 42.0134 44.2228 43.6554C42.1106 44.9638 41.4303 46.3552 40.3322 48.2656C39.5213 49.676 38.9329 50.6638 37.3541 51.0375C35.3328 51.5161 34.243 51.2739 33.5414 51.0566C32.8396 50.839 33.6917 52.5377 35.3877 53.0118C35.3877 53.0118 38.0882 53.9637 42.53 53.1511C42.5667 54.1025 42.8062 55.0407 43.5693 55.2511C44.1832 55.4053 45.3327 53.8303 45.913 52.2568C47.4627 51.7249 49.1468 50.979 50.9411 49.9485C51.4701 52.0791 53.0142 52.2562 53.2295 51.9259C54.2685 50.08 54.1909 47.9555 53.6404 46.5858C54.8769 42.0947 50.941 38.3984 51.3197 36.4319C51.445 35.7788 52.5628 35.3682 53.0275 35.2498C53.4921 35.131 53.662 34.4255 53.2767 34.2573Z" fill="black"/>
<path d="M53.2767 34.2573C52.8911 34.0891 52.2864 33.6879 51.6022 33.5734C50.9184 33.4586 50.4754 33.6326 50.076 33.9174C49.5232 34.3732 48.9141 35.6346 49.0696 36.9767C49.3244 39.1768 50.3598 42.3608 49.5719 42.96C48.784 43.5591 46.873 42.0134 44.2228 43.6554C42.1106 44.9638 41.4303 46.3552 40.3322 48.2656C39.5213 49.676 38.9329 50.6638 37.3541 51.0375C35.3328 51.5161 34.243 51.2739 33.5414 51.0566C32.8396 50.839 33.6917 52.5377 35.3877 53.0118C35.3877 53.0118 38.0882 53.9637 42.53 53.1511C42.5667 54.1025 42.8062 55.0407 43.5693 55.2511C44.1832 55.4053 45.3327 53.8303 45.913 52.2568C47.4627 51.7249 49.1468 50.979 50.9411 49.9485C51.4701 52.0791 53.0142 52.2562 53.2295 51.9259C54.2685 50.08 54.1909 47.9555 53.6404 46.5858C54.8769 42.0947 50.941 38.3984 51.3197 36.4319C51.445 35.7788 52.5628 35.3682 53.0275 35.2498C53.4921 35.131 53.662 34.4255 53.2767 34.2573Z" fill="url(#paint0_linear_311_5704)"/>
<path d="M25.3805 4H25.476C26.2797 4 26.6975 4.33866 27.1119 4.67456C27.5607 5.03832 28.0055 5.39884 28.932 5.32244C29.8824 5.24407 30.4641 4.87315 30.9804 4.54402C31.4321 4.25601 31.8336 4 32.388 4C33.458 4 34.4476 4.54118 34.935 5.44839C35.4291 6.3681 36.0823 7.66222 36.708 9.14282C37.5349 11.0994 38.4096 14.0329 38.902 15.7752C39.1363 16.6044 38.6748 17.4635 37.8486 17.8074L37.7726 17.8391C35.5516 18.7638 33.9317 19.4383 28.5 19.4285C24.0993 19.4205 20.7529 18.4366 19.0198 17.7863C18.2328 17.4909 17.8696 16.6744 18.125 15.9064C18.652 14.3217 19.6172 11.5717 20.724 9.14282C21.535 7.36307 22.27 6.10068 22.8123 5.2721C23.3614 4.43306 24.3424 4 25.3805 4Z" fill="url(#paint1_linear_311_5704)"/>
<path d="M16.6245 16.6788C16.8917 15.8063 17.2227 14.759 17.6003 13.6329C13.2851 15.0944 10.5 17.4026 10.5 20C10.5 24.4183 18.5589 28 28.5 28C38.4411 28 46.5 24.4183 46.5 20C46.5 17.4617 43.8402 15.1995 39.6918 13.734C39.9596 14.6839 40.2053 15.6011 40.4138 16.4021C40.8278 17.9919 39.9816 19.6531 38.4243 20.3482C36.2207 21.3317 34.0915 22.0111 28.5 21.9999C24.0401 21.9909 20.5084 21.0273 18.3323 20.2218C16.8461 19.6716 16.1781 18.1367 16.6245 16.6788Z" fill="url(#paint2_linear_311_5704)"/>
</g>
<defs>
<linearGradient id="paint0_linear_311_5704" x1="52.875" y1="48.625" x2="36.25" y2="48.7499" gradientUnits="userSpaceOnUse">
<stop stop-color="#E48DC2"/>
<stop offset="0.333333" stop-color="#FFB36C"/>
<stop offset="0.666667" stop-color="#FCE94E"/>
<stop offset="1" stop-color="#B8F3E0"/>
</linearGradient>
<linearGradient id="paint1_linear_311_5704" x1="46.5" y1="15.2941" x2="10.5" y2="15.2941" gradientUnits="userSpaceOnUse">
<stop stop-color="#E48DC2"/>
<stop offset="0.333333" stop-color="#FFB36C"/>
<stop offset="0.666667" stop-color="#FCE94E"/>
<stop offset="1" stop-color="#B8F3E0"/>
</linearGradient>
<linearGradient id="paint2_linear_311_5704" x1="46.5" y1="15.2941" x2="10.5" y2="15.2941" gradientUnits="userSpaceOnUse">
<stop stop-color="#E48DC2"/>
<stop offset="0.333333" stop-color="#FFB36C"/>
<stop offset="0.666667" stop-color="#FCE94E"/>
<stop offset="1" stop-color="#B8F3E0"/>
</linearGradient>
<clipPath id="clip0_311_5704">
<rect width="56" height="56" fill="white"/>
</clipPath>
</defs>
</svg>
