<svg width="16" height="16" viewBox="0 0 16 16" fill="none" xmlns="http://www.w3.org/2000/svg">
<path fill-rule="evenodd" clip-rule="evenodd" d="M5.57727 11.888L5.82149 10.1785L4.11198 10.4227C3.47393 10.5139 3 11.0603 3 11.7049C3 12.4201 3.57986 13 4.29515 13C4.93967 13 5.48612 12.5261 5.57727 11.888ZM6.56722 12.0294L6.85269 10.0312L7 9L5.9688 9.14731L3.97056 9.43278C2.83986 9.59431 2 10.5627 2 11.7049C2 12.9724 3.02757 14 4.29515 14C5.43733 14 6.40569 13.1601 6.56722 12.0294ZM5.57727 4.11198L5.82149 5.82149L4.11198 5.57727C3.47393 5.48612 3 4.93968 3 4.29514C3 3.57986 3.57986 3 4.29515 3C4.93967 3 5.48612 3.47393 5.57727 4.11198ZM6.56722 3.97056L6.85269 5.9688L7 7L5.9688 6.85269L3.97056 6.56722C2.83986 6.40569 2 5.43733 2 4.29515C2 3.02757 3.02757 2 4.29514 2C5.43732 2 6.40569 2.83986 6.56722 3.97056ZM10.1785 5.82149L10.4227 4.11198C10.5139 3.47393 11.0603 3 11.7049 3C12.4201 3 13 3.57986 13 4.29514C13 4.93967 12.5261 5.48612 11.888 5.57727L10.1785 5.82149ZM9.14731 5.9688L9.43278 3.97056C9.5943 2.83986 10.5627 2 11.7049 2C12.9724 2 14 3.02757 14 4.29514C14 5.43732 13.1601 6.40569 12.0294 6.56722L10.0312 6.85269L9 7L9.14731 5.9688ZM10.4227 11.888L10.1785 10.1785L11.888 10.4227C12.5261 10.5139 13 11.0603 13 11.7049C13 12.4201 12.4201 13 11.7049 13C11.0603 13 10.5139 12.5261 10.4227 11.888ZM9.43278 12.0294L9.14731 10.0312L9 9L10.0312 9.14731L12.0294 9.43278C13.1601 9.59431 14 10.5627 14 11.7049C14 12.9724 12.9724 14 11.7049 14C10.5627 14 9.59431 13.1601 9.43278 12.0294Z" fill="#F08F35"/>
</svg>
