<svg width="36" height="36" viewBox="0 0 36 36" fill="none" xmlns="http://www.w3.org/2000/svg">
<path d="M18 27C19.2426 27 20.25 25.9926 20.25 24.75V11.6436L20.9326 12.3018C21.6255 12.9705 22.7241 12.9704 23.417 12.3018C24.1455 11.5986 24.1455 10.4307 23.417 9.72754L19.5625 6.00781C18.6908 5.1666 17.3092 5.1666 16.4375 6.00781L12.583 9.72754C11.8545 10.4307 11.8545 11.5986 12.583 12.3018C13.2759 12.9704 14.3745 12.9705 15.0674 12.3018L15.75 11.6436V24.75C15.75 25.9926 16.7574 27 18 27ZM25.875 31.5C28.9816 31.5 31.5 28.9816 31.5 25.875V21.375C31.5 18.2684 28.9816 15.75 25.875 15.75H24.75V18H25.875C27.739 18 29.25 19.511 29.25 21.375V25.875C29.25 27.739 27.739 29.25 25.875 29.25H10.125C8.26104 29.25 6.75 27.739 6.75 25.875V21.375C6.75 19.511 8.26104 18 10.125 18H11.25V15.75H10.125C7.0184 15.75 4.5 18.2684 4.5 21.375V25.875C4.5 28.9816 7.0184 31.5 10.125 31.5H25.875Z" fill="#C3D2DF"/>
</svg>
