<svg width="16" height="16" viewBox="0 0 16 16" fill="none" xmlns="http://www.w3.org/2000/svg">
<path fill-rule="evenodd" clip-rule="evenodd" d="M11 2H5V3H6C6.35217 3 6.66183 3.18205 6.83999 3.45718L3.96875 11.6607C3.68799 12.4629 2.93093 13 2.08104 13H2V14H7V13H6.38743C5.70487 13 5.2229 12.3313 5.43874 11.6838L6.33333 9H7.11796C7.26411 8.59377 7.53981 8.24049 7.90987 8H6.66667L8 4L9.10938 7.32812L10.286 6.67442L9.16001 3.45718C9.33817 3.18205 9.64783 3 10 3H11V2ZM8.00001 13L8 9.61446L11 11.7573V14.7219L8.00001 13ZM15 13L12 14.7067V11.7573L15 9.61446V13ZM11.4845 7L14.5212 8.72758L11.5 10.8856L8.47696 8.72624L11.4845 7Z" fill="#4CACF8"/>
</svg>
