<svg width="24" height="24" viewBox="0 0 24 24" fill="none" xmlns="http://www.w3.org/2000/svg">
	<path fill-rule="evenodd" clip-rule="evenodd"
		d="M7.5 1.5H9V3H7.5C6.67157 3 6 3.67157 6 4.5V19.5C6 20.3284 6.67157 21 7.5 21H16.5C17.3284 21 18 20.3284 18 19.5V15H19.5V19.5C19.5 21.1569 18.1569 22.5 16.5 22.5H7.5C5.84315 22.5 4.5 21.1569 4.5 19.5V4.5C4.5 2.84315 5.84315 1.5 7.5 1.5ZM12 16.5C11.1716 16.5 10.5 17.1716 10.5 18C10.5 18.8284 11.1716 19.5 12 19.5C12.8284 19.5 13.5 18.8284 13.5 18C13.5 17.1716 12.8284 16.5 12 16.5ZM12 3H21V6.03579C19.2663 6.19953 17.6977 6.89682 16.2571 7.53722L16.1954 7.56464C14.7388 8.21203 13.4054 8.79625 12 8.95666V3ZM16.8046 8.93536C18.2612 8.28797 19.5946 7.70375 21 7.54334V12H12V10.4642C13.7337 10.3005 15.3023 9.60318 16.7429 8.96278L16.8046 8.93536ZM10.5 3V9.75V12C10.5 12.8284 11.1716 13.5 12 13.5H21C21.8284 13.5 22.5 12.8284 22.5 12V6.75V3C22.5 2.17157 21.8284 1.5 21 1.5H12C11.1716 1.5 10.5 2.17157 10.5 3ZM15 7.5C15.8284 7.5 16.5 6.82843 16.5 6C16.5 5.17157 15.8284 4.5 15 4.5C14.1716 4.5 13.5 5.17157 13.5 6C13.5 6.82843 14.1716 7.5 15 7.5Z"
		fill="#F08F35" />
</svg>