<svg width="16" height="16" viewBox="0 0 16 16" fill="none" xmlns="http://www.w3.org/2000/svg">
<path fill-rule="evenodd" clip-rule="evenodd" d="M12 3.4V5H13V4.05021V3.4C13 3.13595 12.9493 2.87189 12.7865 2.66401C12.3403 2.09432 11.0821 1 8 1C4.91791 1 3.65968 2.09431 3.21348 2.66401C3.05066 2.87189 3 3.13595 3 3.4V4.05021V5.08535C2.84361 5.03008 2.67532 5 2.5 5C2.32468 5 2.15639 5.03008 2 5.08535C1.4174 5.29127 1 5.84689 1 6.5V8C1 9.10457 1.89543 10 3 10V10.7889C3 11.5786 3.22553 12.3608 3.7727 12.9302C4.09355 13.2641 4.50718 13.6423 5 13.9831V12.7187C4.81536 12.5588 4.64606 12.3958 4.49375 12.2373C4.17546 11.9061 4 11.4026 4 10.7889V10V9H3C2.44772 9 2 8.55228 2 8V6.5C2 6.22386 2.22386 6 2.5 6C2.56023 6 2.61591 6.01022 2.66675 6.02819L4 6.49943V5.08535V3.4C4 3.3289 4.00716 3.28665 4.01253 3.26632L4.01274 3.26551C4.26648 2.94984 5.23284 2 8 2C10.7672 2 11.7335 2.94984 11.9873 3.26551L11.9875 3.26632C11.9928 3.28665 12 3.3289 12 3.4ZM11 8.91465C11.5826 8.70873 12 8.15311 12 7.5C12 6.67157 11.3284 6 10.5 6C9.67157 6 9 6.67157 9 7.5C9 8.15311 9.4174 8.70873 10 8.91465V10H8C7.72386 10 7.5 10.2239 7.5 10.5C7.5 10.7761 7.72386 11 8 11H10V13.9806C9.43231 13.9368 8.83567 13.8169 8.31731 13.601C7.642 13.3196 7.16174 12.9041 6.97434 12.3419C6.88702 12.0799 6.60386 11.9383 6.34188 12.0257C6.07991 12.113 5.93833 12.3961 6.02566 12.6581C6.33825 13.5959 7.10799 14.1804 7.93269 14.524C8.75889 14.8683 9.70282 15 10.5 15C11.2972 15 12.2411 14.8683 13.0673 14.524C13.892 14.1804 14.6617 13.5959 14.9743 12.6581C15.0617 12.3961 14.9201 12.113 14.6581 12.0257C14.3961 11.9383 14.113 12.0799 14.0257 12.3419C13.8383 12.9041 13.358 13.3196 12.6827 13.601C12.1643 13.8169 11.5677 13.9368 11 13.9806V11H13C13.2761 11 13.5 10.7761 13.5 10.5C13.5 10.2239 13.2761 10 13 10H11V8.91465ZM11 7.5C11 7.77614 10.7761 8 10.5 8C10.2239 8 10 7.77614 10 7.5C10 7.22386 10.2239 7 10.5 7C10.7761 7 11 7.22386 11 7.5Z" fill="#E48DC2"/>
</svg>
