<svg width="16" height="16" viewBox="0 0 16 16" fill="none" xmlns="http://www.w3.org/2000/svg">
<g clip-path="url(#clip0_3206_210)">
<path d="M5.64754 1H2C1.44772 1 1 1.44772 1 2V5.64754M10.3525 1H14C14.5523 1 15 1.44772 15 2V5.64754M1 10.3525V14C1 14.5523 1.44772 15 2 15H5.64754M10.3525 15H14C14.5523 15 15 14.5523 15 14V10.3525" stroke="white" stroke-linecap="round"/>
<path fill-rule="evenodd" clip-rule="evenodd" d="M7.61285 4.35083L7.61263 4.37656C7.69651 4.37011 7.78123 4.36683 7.86667 4.36683C9.77053 4.36683 11.3139 5.99481 11.3139 8.00302C11.3139 8.62997 11.1635 9.21987 10.8986 9.73474C10.9211 9.73303 10.9438 9.73216 10.9666 9.73216C11.4939 9.73216 11.9213 10.194 11.9213 10.7637C11.9213 11.3334 11.4939 11.7952 10.9666 11.7952C10.4653 11.7952 10.0542 11.3777 10.015 10.8469C9.42581 11.3428 8.67906 11.6392 7.86667 11.6392C7.68674 11.6392 7.51002 11.6247 7.33753 11.5966C7.2904 12.3799 6.66336 13 5.89675 13C5.09946 13 4.45313 12.3292 4.45313 11.5018C4.45313 10.9629 4.72731 10.4904 5.13881 10.2265C4.81321 9.78267 4.58279 9.25725 4.47983 8.68424C4.32326 8.85443 4.1041 8.96018 3.86152 8.96018C3.38571 8.96018 3 8.55333 3 8.05144C3 7.54956 3.38571 7.1427 3.86152 7.1427C4.09704 7.1427 4.31048 7.24239 4.466 7.40394C4.59096 6.60879 4.96051 5.90078 5.49037 5.3688C5.22147 5.12117 5.05158 4.75693 5.05158 4.35083C5.05158 3.60479 5.62494 3 6.33222 3C7.03949 3 7.61285 3.60479 7.61285 4.35083ZM7.86667 5.44995C6.52992 5.44995 5.44627 6.593 5.44627 8.00302C5.44627 9.41303 6.52992 10.5561 7.86667 10.5561C9.20342 10.5561 10.2871 9.41303 10.2871 8.00302C10.2871 6.593 9.20342 5.44995 7.86667 5.44995ZM6.80133 7.71552H8.93677C9.17106 7.71552 9.31844 7.98852 9.20193 8.20726C8.98369 8.61658 8.59729 8.90518 8.14476 8.96893L8.08524 8.97741C7.94164 8.99776 7.79615 8.99776 7.65255 8.97741L7.59303 8.96893C7.14081 8.90518 6.75409 8.61658 6.53586 8.20726C6.41934 7.98852 6.56672 7.71552 6.80102 7.71552H6.80133ZM9.18855 6.74612C9.18855 7.04594 8.94656 7.28904 8.64811 7.28904C8.34966 7.28904 8.10767 7.04594 8.10767 6.74612C8.10767 6.44631 8.34966 6.20321 8.64811 6.20321C8.94656 6.20321 9.18855 6.44631 9.18855 6.74612ZM7.05245 7.08795C7.15058 7.08795 7.24197 7.11918 7.31855 7.14534C7.45269 7.19118 7.54142 7.22149 7.54142 7.04128C7.54142 6.7582 7.32247 6.52896 7.05245 6.52896C6.78242 6.52896 6.56348 6.7582 6.56348 7.04128C6.56348 7.22149 6.6522 7.19118 6.78635 7.14534C6.86293 7.11918 6.95432 7.08795 7.05245 7.08795ZM12.278 7.56308C12.6766 7.56308 12.9998 7.2222 12.9998 6.80171C12.9998 6.38121 12.6766 6.04033 12.278 6.04033C11.8793 6.04033 11.5562 6.38121 11.5562 6.80171C11.5562 7.2222 11.8793 7.56308 12.278 7.56308Z" fill="#231F20"/>
<path fill-rule="evenodd" clip-rule="evenodd" d="M7.61285 4.35083L7.61263 4.37656C7.69651 4.37011 7.78123 4.36683 7.86667 4.36683C9.77053 4.36683 11.3139 5.99481 11.3139 8.00302C11.3139 8.62997 11.1635 9.21987 10.8986 9.73474C10.9211 9.73303 10.9438 9.73216 10.9666 9.73216C11.4939 9.73216 11.9213 10.194 11.9213 10.7637C11.9213 11.3334 11.4939 11.7952 10.9666 11.7952C10.4653 11.7952 10.0542 11.3777 10.015 10.8469C9.42581 11.3428 8.67906 11.6392 7.86667 11.6392C7.68674 11.6392 7.51002 11.6247 7.33753 11.5966C7.2904 12.3799 6.66336 13 5.89675 13C5.09946 13 4.45313 12.3292 4.45313 11.5018C4.45313 10.9629 4.72731 10.4904 5.13881 10.2265C4.81321 9.78267 4.58279 9.25725 4.47983 8.68424C4.32326 8.85443 4.1041 8.96018 3.86152 8.96018C3.38571 8.96018 3 8.55333 3 8.05144C3 7.54956 3.38571 7.1427 3.86152 7.1427C4.09704 7.1427 4.31048 7.24239 4.466 7.40394C4.59096 6.60879 4.96051 5.90078 5.49037 5.3688C5.22147 5.12117 5.05158 4.75693 5.05158 4.35083C5.05158 3.60479 5.62494 3 6.33222 3C7.03949 3 7.61285 3.60479 7.61285 4.35083ZM7.86667 5.44995C6.52992 5.44995 5.44627 6.593 5.44627 8.00302C5.44627 9.41303 6.52992 10.5561 7.86667 10.5561C9.20342 10.5561 10.2871 9.41303 10.2871 8.00302C10.2871 6.593 9.20342 5.44995 7.86667 5.44995ZM6.80133 7.71552H8.93677C9.17106 7.71552 9.31844 7.98852 9.20193 8.20726C8.98369 8.61658 8.59729 8.90518 8.14476 8.96893L8.08524 8.97741C7.94164 8.99776 7.79615 8.99776 7.65255 8.97741L7.59303 8.96893C7.14081 8.90518 6.75409 8.61658 6.53586 8.20726C6.41934 7.98852 6.56672 7.71552 6.80102 7.71552H6.80133ZM9.18855 6.74612C9.18855 7.04594 8.94656 7.28904 8.64811 7.28904C8.34966 7.28904 8.10767 7.04594 8.10767 6.74612C8.10767 6.44631 8.34966 6.20321 8.64811 6.20321C8.94656 6.20321 9.18855 6.44631 9.18855 6.74612ZM7.05245 7.08795C7.15058 7.08795 7.24197 7.11918 7.31855 7.14534C7.45269 7.19118 7.54142 7.22149 7.54142 7.04128C7.54142 6.7582 7.32247 6.52896 7.05245 6.52896C6.78242 6.52896 6.56348 6.7582 6.56348 7.04128C6.56348 7.22149 6.6522 7.19118 6.78635 7.14534C6.86293 7.11918 6.95432 7.08795 7.05245 7.08795ZM12.278 7.56308C12.6766 7.56308 12.9998 7.2222 12.9998 6.80171C12.9998 6.38121 12.6766 6.04033 12.278 6.04033C11.8793 6.04033 11.5562 6.38121 11.5562 6.80171C11.5562 7.2222 11.8793 7.56308 12.278 7.56308Z" fill="url(#paint0_linear_3206_210)"/>
</g>
<defs>
<linearGradient id="paint0_linear_3206_210" x1="12.8191" y1="7.85426" x2="3" y2="7.85426" gradientUnits="userSpaceOnUse">
<stop stop-color="#E48DC2"/>
<stop offset="0.333333" stop-color="#FFB36C"/>
<stop offset="0.666667" stop-color="#FCE94E"/>
<stop offset="1" stop-color="#B8F3E0"/>
</linearGradient>
<clipPath id="clip0_3206_210">
<rect width="16" height="16" fill="white"/>
</clipPath>
</defs>
</svg>
