<svg width="16" height="16" viewBox="0 0 16 16" fill="none" xmlns="http://www.w3.org/2000/svg">
<path fill-rule="evenodd" clip-rule="evenodd" d="M11 1C12.1046 1 13 1.89543 13 3V13C13 14.1046 12.1046 15 11 15H5C3.89543 15 3 14.1046 3 13V3C3 1.89543 3.89543 1 5 1H11ZM12 3C12 2.44772 11.5523 2 11 2H5C4.44772 2 4 2.44772 4 3V13C4 13.5523 4.44772 14 5 14H11C11.5523 14 12 13.5523 12 13V3ZM7 12C7 11.4477 7.44772 11 8 11C8.55228 11 9 11.4477 9 12H10V4H6V12H7ZM8 13H10C10.5523 13 11 12.5523 11 12V4C11 3.44772 10.5523 3 10 3H6C5.44772 3 5 3.44772 5 4V12C5 12.5523 5.44772 13 6 13H8Z" fill="#F08F35"/>
</svg>
