<svg width="16" height="16" viewBox="0 0 16 16" fill="none" xmlns="http://www.w3.org/2000/svg">
<path fill-rule="evenodd" clip-rule="evenodd" d="M12.9603 4.08364C13.3478 4.11636 13.708 4.34545 13.8826 4.69455C14.1009 5.14182 14.0082 5.64909 13.6589 5.98182L12.8075 6.81091C12.742 6.87636 12.7147 6.96909 12.7311 7.06182L12.993 8.31636C13.0913 8.73091 12.9275 9.17818 12.5673 9.44C12.3763 9.57636 12.1471 9.64727 11.9233 9.64727C11.7269 9.64727 11.5249 9.59273 11.3503 9.48364L10.3297 8.79091C10.2369 8.72545 10.1169 8.72545 10.0241 8.79091L9.03625 9.46727C8.63784 9.71273 8.16303 9.69636 7.80283 9.43455C7.44262 9.17273 7.27344 8.72545 7.37713 8.29455L7.63364 7.05636C7.65547 6.96364 7.62273 6.87091 7.55723 6.80545L6.70039 5.97091C6.3511 5.63818 6.25832 5.13091 6.48208 4.68364C6.65672 4.32909 7.02784 4.11636 7.41534 4.08364L8.46866 3.99091C8.57235 3.98 8.65968 3.91455 8.69788 3.82182L9.17269 2.67636C9.34188 2.26727 9.74029 2 10.1824 2C10.6244 2 11.0228 2.26727 11.192 2.67636L11.6668 3.82182C11.705 3.92 11.7924 3.98 11.8961 3.99091L12.9603 4.08364ZM11.6286 7.07818C11.5522 6.75636 11.6559 6.40182 11.907 6.16182L12.6929 5.38727C12.7747 5.30545 12.7256 5.16364 12.611 5.15273L11.5577 5.05455C11.1975 5.02182 10.8864 4.79273 10.7445 4.45455L10.3024 3.39091C10.2588 3.28182 10.1005 3.27636 10.0514 3.39091L9.60385 4.46C9.4674 4.79273 9.15086 5.02182 8.79066 5.05455L7.74279 5.14727C7.62818 5.15818 7.57906 5.3 7.66093 5.38182L8.4632 6.16727C8.71425 6.40182 8.81795 6.75636 8.73608 7.09455L8.50686 8.22364C8.48503 8.34364 8.61601 8.43636 8.71971 8.36545L9.64751 7.73273C9.82215 7.62364 10.0132 7.57455 10.1878 7.57455C10.3625 7.57455 10.5371 7.62364 10.6899 7.71636L11.6668 8.36545C11.7651 8.43636 11.9015 8.34364 11.8742 8.22364L11.6286 7.07818Z" fill="white"/>
<path d="M5.98544 9.8C6.19828 9.58727 6.54211 9.58727 6.75496 9.8C6.96781 10.0127 6.97327 10.3564 6.76042 10.5691L3.48584 13.8418C3.37669 13.9455 3.24025 14 3.09835 14C2.95645 14 2.82001 13.9509 2.71086 13.8418C2.49801 13.6291 2.49801 13.2855 2.71086 13.0727L5.98544 9.8Z" fill="white"/>
<path d="M9.25456 10.3455L6.52574 13.0727C6.31289 13.2855 6.31289 13.6291 6.52574 13.8418C6.63489 13.9509 6.77133 14 6.91323 14C7.05513 14 7.19157 13.9455 7.30072 13.8418L10.0295 11.1145C10.2424 10.9018 10.2424 10.5582 10.0295 10.3455C9.81669 10.1327 9.47286 10.1327 9.26001 10.3455H9.25456Z" fill="white"/>
<path d="M5.66344 7.84727L2.93462 10.5691C2.82547 10.6727 2.68903 10.7273 2.54713 10.7273C2.40523 10.7273 2.26879 10.6782 2.15964 10.5691C1.94679 10.3564 1.94679 10.0127 2.15964 9.8L4.89391 7.07818C5.10676 6.86545 5.45059 6.86545 5.66344 7.07818C5.87628 7.29091 5.87628 7.63455 5.66344 7.84727Z" fill="white"/>
</svg>
