<svg width="32" height="20" viewBox="0 0 32 20" fill="none" xmlns="http://www.w3.org/2000/svg">
<rect width="32" height="20" rx="4" fill="#4F5963"/>
<g clip-path="url(#clip0_930_41992)">
<rect x="8" y="2" width="16" height="16" rx="4" fill="#4F5963"/>
<path fill-rule="evenodd" clip-rule="evenodd" d="M13 4H19C19.5523 4 20 4.44772 20 5V6H12V5C12 4.44772 12.4477 4 13 4ZM11 6H10V7H11V15C11 16.1046 11.8954 17 13 17H19C20.1046 17 21 16.1046 21 15V7H22V6H21V5C21 3.89543 20.1046 3 19 3H13C11.8954 3 11 3.89543 11 5V6ZM20 7V15C20 15.5523 19.5523 16 19 16H13C12.4477 16 12 15.5523 12 15V7H20ZM14 15L14 8H15L15 15H14ZM17 8L17 15H18V8H17Z" fill="#C3D2DF"/>
</g>
<defs>
<clipPath id="clip0_930_41992">
<rect width="16" height="16" fill="white" transform="translate(8 2)"/>
</clipPath>
</defs>
</svg>
