<svg width="16" height="16" viewBox="0 0 16 16" fill="none" xmlns="http://www.w3.org/2000/svg">
<path fill-rule="evenodd" clip-rule="evenodd" d="M13 11V5C13 4.6291 12.899 4.28177 12.7231 3.98402L3.98386 12.7232C4.28161 12.8991 4.62897 13 5 13H11C12.1046 13 13 12.1046 13 11ZM3.27667 12.0162L12.016 3.27691C11.7182 3.10096 11.3709 3 11 3H10.7071L3 10.7071V11.0009C3 11.3716 3.10086 11.7187 3.27667 12.0162ZM3 9.29289V7.70709L7.70709 3H9.29289L3 9.29289ZM6.29288 3L3 6.29288V4.99961C3 4.89153 3.00857 4.78546 3.02508 4.68203L4.68197 3.02513C4.78554 3.00859 4.89177 3 5 3H6.29288ZM14 5V11C14 12.6569 12.6569 14 11 14H5C3.34315 14 2 12.6578 2 11.0009V4.99961C2 3.34276 3.34315 2 5 2H11C12.6569 2 14 3.34315 14 5Z" fill="#FCE94E"/>
</svg>
