<svg width="20" height="20" viewBox="0 0 20 20" fill="none" xmlns="http://www.w3.org/2000/svg">
<path d="M7.16785 2.67908L2.74121 14.2834L3.67554 14.6399L8.10217 3.0355L7.16785 2.67908Z" fill="#C3D2DF"/>
<path d="M8.88855 3.33362L4.46191 14.938L5.39624 15.2944L9.82288 3.69004L8.88855 3.33362Z" fill="#C3D2DF"/>
<path d="M15.7811 5.9535L11.3545 17.5579L12.2888 17.9143L16.7155 6.30991L15.7811 5.9535Z" fill="#C3D2DF"/>
<path d="M14.0516 5.29529L9.625 16.8997L10.5593 17.2561L14.986 5.65171L14.0516 5.29529Z" fill="#C3D2DF"/>
<path d="M4.1139 12.9387L3.75781 13.8732L12.3641 17.1527L12.7202 16.2183L4.1139 12.9387Z" fill="#C3D2DF"/>
<path d="M4.70472 11.3932L4.34863 12.3276L5.78769 12.876L6.14378 11.9416L4.70472 11.3932Z" fill="#C3D2DF"/>
<path d="M11.3063 13.9109L10.9502 14.8453L12.9593 15.6109L13.3154 14.6765L11.3063 13.9109Z" fill="#C3D2DF"/>
<path d="M5.29814 9.84625L4.94189 10.7806L6.38086 11.3293L6.73711 10.3949L5.29814 9.84625Z" fill="#C3D2DF"/>
<path d="M11.8878 12.3577L11.5317 13.2921L13.5408 14.0577L13.8969 13.1232L11.8878 12.3577Z" fill="#C3D2DF"/>
<path d="M5.87855 8.29248L5.52246 9.22693L14.1288 12.5065L14.4849 11.572L5.87855 8.29248Z" fill="#C3D2DF"/>
<path d="M6.48125 6.75286L6.125 7.68726L7.56396 8.23588L7.92021 7.30149L6.48125 6.75286Z" fill="#C3D2DF"/>
<path d="M13.0612 9.2611L12.7051 10.1956L14.7142 10.9611L15.0702 10.0267L13.0612 9.2611Z" fill="#C3D2DF"/>
<path d="M7.06068 5.20373L6.70459 6.13818L8.14365 6.68656L8.49973 5.7521L7.06068 5.20373Z" fill="#C3D2DF"/>
<path d="M13.6587 7.72491L13.3027 8.65942L15.3119 9.42466L15.6679 8.49014L13.6587 7.72491Z" fill="#C3D2DF"/>
<path d="M7.64271 3.65624L7.28662 4.5907L15.8929 7.87025L16.249 6.93579L7.64271 3.65624Z" fill="#C3D2DF"/>
</svg>
