<svg width="36" height="28" viewBox="0 0 36 28" fill="none" xmlns="http://www.w3.org/2000/svg">
<rect width="36" height="28" rx="4" fill="#054476"/>
<path d="M15.1678 6.67908L10.7412 18.2834L11.6755 18.6399L16.1022 7.0355L15.1678 6.67908Z" fill="#C3D2DF"/>
<path d="M16.8885 7.33362L12.4619 18.938L13.3962 19.2944L17.8229 7.69004L16.8885 7.33362Z" fill="#C3D2DF"/>
<path d="M23.7811 9.9535L19.3545 21.5579L20.2888 21.9143L24.7155 10.3099L23.7811 9.9535Z" fill="#C3D2DF"/>
<path d="M22.0516 9.29529L17.625 20.8997L18.5593 21.2561L22.986 9.65171L22.0516 9.29529Z" fill="#C3D2DF"/>
<path d="M12.1139 16.9387L11.7578 17.8732L20.3641 21.1527L20.7202 20.2183L12.1139 16.9387Z" fill="#C3D2DF"/>
<path d="M12.7047 15.3932L12.3486 16.3276L13.7877 16.876L14.1438 15.9416L12.7047 15.3932Z" fill="#C3D2DF"/>
<path d="M19.3063 17.9109L18.9502 18.8453L20.9593 19.6109L21.3154 18.6765L19.3063 17.9109Z" fill="#C3D2DF"/>
<path d="M13.2981 13.8462L12.9419 14.7806L14.3809 15.3293L14.7371 14.3949L13.2981 13.8462Z" fill="#C3D2DF"/>
<path d="M19.8878 16.3577L19.5317 17.2921L21.5408 18.0577L21.8969 17.1232L19.8878 16.3577Z" fill="#C3D2DF"/>
<path d="M13.8785 12.2925L13.5225 13.2269L22.1288 16.5065L22.4849 15.572L13.8785 12.2925Z" fill="#C3D2DF"/>
<path d="M14.4812 10.7529L14.125 11.6873L15.564 12.2359L15.9202 11.3015L14.4812 10.7529Z" fill="#C3D2DF"/>
<path d="M21.0612 13.2611L20.7051 14.1956L22.7142 14.9611L23.0702 14.0267L21.0612 13.2611Z" fill="#C3D2DF"/>
<path d="M15.0607 9.20373L14.7046 10.1382L16.1436 10.6866L16.4997 9.7521L15.0607 9.20373Z" fill="#C3D2DF"/>
<path d="M21.6587 11.7249L21.3027 12.6594L23.3119 13.4247L23.6679 12.4901L21.6587 11.7249Z" fill="#C3D2DF"/>
<path d="M15.6427 7.65624L15.2866 8.5907L23.8929 11.8702L24.249 10.9358L15.6427 7.65624Z" fill="#C3D2DF"/>
</svg>
