<svg width="36" height="28" viewBox="0 0 36 28" fill="none" xmlns="http://www.w3.org/2000/svg">
<rect width="36" height="28" rx="4" fill="#054476"/>
<path fill-rule="evenodd" clip-rule="evenodd" d="M16.3 13C16.0239 13 15.8 13.2239 15.8 13.5C15.8 13.7761 16.0239 14 16.3 14C16.5761 14 16.8 13.7761 16.8 13.5C16.8 13.2239 16.5761 13 16.3 13ZM14.8 13.5C14.8 12.6716 15.4716 12 16.3 12C17.1284 12 17.8 12.6716 17.8 13.5C17.8 14.3284 17.1284 15 16.3 15C15.4716 15 14.8 14.3284 14.8 13.5Z" fill="#C3D2DF"/>
<path fill-rule="evenodd" clip-rule="evenodd" d="M17.88 8.625C16.0852 8.625 14.625 10.0852 14.625 11.88V18.48C14.625 18.8518 14.8509 19.1701 15.1731 19.3055L15.1953 19.262C15.6603 18.3664 16.8591 18.1824 17.5766 18.8828L17.5777 18.8839L17.9472 19.2464C17.9968 19.2338 18.0371 19.205 18.0636 19.1678L18.1452 19.0455L18.1507 19.0378C18.7161 18.2426 19.8757 18.2313 20.4698 18.9817L20.7493 19.3339C21.1122 19.2198 21.375 18.881 21.375 18.48H22.625C22.625 19.6652 21.6652 20.625 20.48 20.625H20.1781L19.4904 19.7585L19.4897 19.7576C19.405 19.6505 19.2488 19.6574 19.173 19.7572L19.0946 19.8749C18.74 20.3891 18.1081 20.608 17.5143 20.4553L17.352 20.4136L16.7034 19.7772C16.5812 19.6583 16.3808 19.6935 16.3053 19.8368L16.3047 19.838L15.9025 20.625H15.52C14.3348 20.625 13.375 19.6652 13.375 18.48V11.88C13.375 9.39482 15.3948 7.375 17.88 7.375H17.98C20.5531 7.375 22.625 9.44279 22.625 12V18.48H21.375V12C21.375 10.1372 19.8669 8.625 17.98 8.625H17.88Z" fill="#C3D2DF"/>
<path fill-rule="evenodd" clip-rule="evenodd" d="M19.3 13C19.0239 13 18.8 13.2239 18.8 13.5C18.8 13.7761 19.0239 14 19.3 14C19.5761 14 19.8 13.7761 19.8 13.5C19.8 13.2239 19.5761 13 19.3 13ZM17.8 13.5C17.8 12.6716 18.4716 12 19.3 12C20.1284 12 20.8 12.6716 20.8 13.5C20.8 14.3284 20.1284 15 19.3 15C18.4716 15 17.8 14.3284 17.8 13.5Z" fill="#C3D2DF"/>
</svg>
