<svg width="20" height="20" viewBox="0 0 20 20" fill="none" xmlns="http://www.w3.org/2000/svg">
<path fill-rule="evenodd" clip-rule="evenodd" d="M8.3 9C8.02386 9 7.8 9.22386 7.8 9.5C7.8 9.77614 8.02386 10 8.3 10C8.57614 10 8.8 9.77614 8.8 9.5C8.8 9.22386 8.57614 9 8.3 9ZM6.8 9.5C6.8 8.67157 7.47157 8 8.3 8C9.12843 8 9.8 8.67157 9.8 9.5C9.8 10.3284 9.12843 11 8.3 11C7.47157 11 6.8 10.3284 6.8 9.5Z" fill="#C3D2DF"/>
<path fill-rule="evenodd" clip-rule="evenodd" d="M9.88 4.625C8.08518 4.625 6.625 6.08518 6.625 7.88V14.48C6.625 14.8518 6.85089 15.1701 7.17309 15.3055L7.1953 15.262C7.6603 14.3664 8.85911 14.1824 9.57659 14.8828L9.57771 14.8839L9.94723 15.2464C9.99678 15.2338 10.0371 15.205 10.0636 15.1678L10.1452 15.0455L10.1507 15.0378C10.7161 14.2426 11.8757 14.2313 12.4698 14.9817L12.7493 15.3339C13.1122 15.2198 13.375 14.881 13.375 14.48H14.625C14.625 15.6652 13.6652 16.625 12.48 16.625H12.1781L11.4904 15.7585L11.4897 15.7576C11.405 15.6505 11.2488 15.6574 11.173 15.7572L11.0946 15.8749C10.74 16.3891 10.1081 16.608 9.51435 16.4553L9.35197 16.4136L8.70341 15.7772C8.58121 15.6583 8.38077 15.6935 8.30533 15.8368L8.30469 15.838L7.90246 16.625H7.52C6.33482 16.625 5.375 15.6652 5.375 14.48V7.88C5.375 5.39482 7.39482 3.375 9.88 3.375H9.98C12.5531 3.375 14.625 5.44279 14.625 8V14.48H13.375V8C13.375 6.13721 11.8669 4.625 9.98 4.625H9.88Z" fill="#C3D2DF"/>
<path fill-rule="evenodd" clip-rule="evenodd" d="M11.3 9C11.0239 9 10.8 9.22386 10.8 9.5C10.8 9.77614 11.0239 10 11.3 10C11.5761 10 11.8 9.77614 11.8 9.5C11.8 9.22386 11.5761 9 11.3 9ZM9.8 9.5C9.8 8.67157 10.4716 8 11.3 8C12.1284 8 12.8 8.67157 12.8 9.5C12.8 10.3284 12.1284 11 11.3 11C10.4716 11 9.8 10.3284 9.8 9.5Z" fill="#C3D2DF"/>
</svg>
