<svg width="36" height="28" viewBox="0 0 36 28" fill="none" xmlns="http://www.w3.org/2000/svg">
<rect width="36" height="28" rx="4" fill="#054476"/>
<path d="M13.8 11H11.8V12H13.8V11Z" fill="#C3D2DF"/>
<path d="M21.8 11H19.8V12H21.8V11Z" fill="#C3D2DF"/>
<path d="M22.8 15H19.8V16H22.8V15Z" fill="black"/>
<path fill-rule="evenodd" clip-rule="evenodd" d="M14.625 9.52C14.625 9.02571 15.0257 8.625 15.52 8.625H20.48C20.9743 8.625 21.375 9.02571 21.375 9.52V12H22.625V9.52C22.625 8.33535 21.6646 7.375 20.48 7.375H15.52C14.3353 7.375 13.375 8.33535 13.375 9.52V12H14.625V9.52ZM14.625 13H13.375V14H14.625V13ZM14.625 16H13.375V18.48C13.375 19.6646 14.3353 20.625 15.52 20.625H20.48C21.6646 20.625 22.625 19.6646 22.625 18.48V17H21.375V18.48C21.375 18.9743 20.9743 19.375 20.48 19.375H15.52C15.0257 19.375 14.625 18.9743 14.625 18.48V16ZM21.375 16H22.625V15H21.375V16ZM21.375 14H22.625V13H21.375V14Z" fill="#C3D2DF"/>
<path d="M12.8 15H10.8V16H12.8V15Z" fill="#C3D2DF"/>
<path d="M16.8 12H14.8V13H16.8V12Z" fill="#C3D2DF"/>
<path d="M24.8 12H22.8V13H24.8V12Z" fill="#C3D2DF"/>
<path d="M22.8 15H18.8V16H22.8V15Z" fill="#C3D2DF"/>
<path d="M15.8 17H13.8V18H15.8V17Z" fill="#C3D2DF"/>
<path d="M23.8 17H21.8V18H23.8V17Z" fill="#C3D2DF"/>
</svg>
