<svg width="20" height="20" viewBox="0 0 20 20" fill="none" xmlns="http://www.w3.org/2000/svg">
<path d="M5.80005 7H3.80005V8H5.80005V7Z" fill="#C3D2DF"/>
<path d="M13.8 7H11.8V8H13.8V7Z" fill="#C3D2DF"/>
<path d="M14.8 11H11.8V12H14.8V11Z" fill="black"/>
<path fill-rule="evenodd" clip-rule="evenodd" d="M6.625 5.52C6.625 5.02571 7.02571 4.625 7.52 4.625H12.48C12.9743 4.625 13.375 5.02571 13.375 5.52V8H14.625V5.52C14.625 4.33535 13.6646 3.375 12.48 3.375H7.52C6.33535 3.375 5.375 4.33535 5.375 5.52V8H6.625V5.52ZM6.625 9H5.375V10H6.625V9ZM6.625 12H5.375V14.48C5.375 15.6646 6.33535 16.625 7.52 16.625H12.48C13.6646 16.625 14.625 15.6646 14.625 14.48V13H13.375V14.48C13.375 14.9743 12.9743 15.375 12.48 15.375H7.52C7.02571 15.375 6.625 14.9743 6.625 14.48V12ZM13.375 12H14.625V11H13.375V12ZM13.375 10H14.625V9H13.375V10Z" fill="#C3D2DF"/>
<path d="M4.80005 11H2.80005V12H4.80005V11Z" fill="#C3D2DF"/>
<path d="M8.80005 8H6.80005V9H8.80005V8Z" fill="#C3D2DF"/>
<path d="M16.8 8H14.8V9H16.8V8Z" fill="#C3D2DF"/>
<path d="M14.8 11H10.8V12H14.8V11Z" fill="#C3D2DF"/>
<path d="M7.80005 13H5.80005V14H7.80005V13Z" fill="#C3D2DF"/>
<path d="M15.8 13H13.8V14H15.8V13Z" fill="#C3D2DF"/>
</svg>
