<svg width="64" height="64" viewBox="0 0 64 64" fill="none" xmlns="http://www.w3.org/2000/svg">
<path opacity="0.25" fill-rule="evenodd" clip-rule="evenodd" d="M50 42.8321C48.7751 42.2969 47.4222 42 46 42C40.4772 42 36 46.4772 36 52C36 53.4222 36.2969 54.7751 36.8321 56H18C15.7909 56 14 54.2186 14 52.0094V11.9965C14 9.78737 15.7909 8 18 8H38L50 20V42.8321ZM39 20H47L38 11V19C38 19.5523 38.4477 20 39 20ZM28.0894 30.5015H23C23.0499 28.3001 23.8638 26.4995 25.4418 25.0997C27.0198 23.6999 29.2432 23 32.1123 23C34.7817 23 36.9303 23.6461 38.5582 24.9382C40.1861 26.2303 41 27.9053 41 29.9631C41 31.3151 40.6632 32.4786 39.9896 33.4536C39.316 34.4287 38.3181 35.2871 36.9958 36.0289C35.7484 36.7228 34.9064 37.348 34.4699 37.9043C34.0333 38.4606 33.815 39.1755 33.815 40.0489V41H28.8378L28.8191 39.9771C28.6944 38.5653 28.9002 37.4108 29.4366 36.5135C29.973 35.6161 30.8898 34.8026 32.1871 34.0728C33.3971 33.3789 34.2235 32.7567 34.6663 32.2064C35.1091 31.656 35.3306 30.9621 35.3306 30.1246C35.3306 29.2632 35.0062 28.5573 34.3576 28.007C33.7089 27.4566 32.8482 27.1815 31.7755 27.1815C30.7027 27.1815 29.8358 27.4835 29.1746 28.0877C28.5135 28.6919 28.1518 29.4965 28.0894 30.5015ZM32.0165 50C32.9396 50 33.6676 49.7313 34.2006 49.194C34.7335 48.6567 35 47.9284 35 47.009C35 46.0657 34.7335 45.3284 34.2006 44.797C33.6676 44.2657 32.9396 44 32.0165 44C31.0934 44 30.3599 44.2657 29.8159 44.797C29.272 45.3284 29 46.0657 29 47.009C29 47.9284 29.272 48.6567 29.8159 49.194C30.3599 49.7313 31.0934 50 32.0165 50Z" fill="white"/>
<path opacity="0.25" fill-rule="evenodd" clip-rule="evenodd" d="M38 52C38 47.5817 41.5817 44 46 44C50.4183 44 54 47.5817 54 52C54 53.4708 53.6031 54.8488 52.9106 56.0329L57.404 60.5263C58.1986 61.321 58.1986 62.6094 57.404 63.4041C56.6093 64.1988 55.3208 64.1988 54.5262 63.4041L50.0328 58.9107C48.8487 59.6031 47.4707 60 46 60C41.5817 60 38 56.4183 38 52ZM46 48C48.2091 48 50 49.7909 50 52C50 54.2091 48.2091 56 46 56C43.7909 56 42 54.2091 42 52C42 49.7909 43.7909 48 46 48Z" fill="white"/>
</svg>
