<svg width="20" height="20" viewBox="0 0 20 20" fill="none" xmlns="http://www.w3.org/2000/svg">
<path fill-rule="evenodd" clip-rule="evenodd" d="M12.0935 3.52562C11.7245 3.61063 11.4999 3.8621 11.4999 4.17412C11.4999 4.21249 11.4999 4.24897 11.4998 4.28373C11.4989 4.64637 11.4985 4.82112 11.6008 4.98739V4.98739L14.1429 9.11275C14.48 9.65208 14.48 10.3216 14.1429 10.861L14.1418 10.8627L11.6008 14.9863C11.4985 15.1525 11.4989 15.3273 11.4998 15.69C11.4999 15.7247 11.4999 15.7612 11.4999 15.7996C11.4999 16.1302 11.7322 16.3858 12.0971 16.4729C12.465 16.5607 12.8225 16.4387 12.9981 16.1382L16.4096 10.3292C16.5288 10.1317 16.5323 9.88243 16.4066 9.66849L12.9981 3.86454C12.8224 3.56394 12.4634 3.44041 12.0935 3.52562ZM13.8612 3.35947C13.4139 2.5946 12.5582 2.39238 11.869 2.55114C11.1789 2.71013 10.4999 3.27252 10.4999 4.17412C10.4999 4.20864 10.4994 4.24621 10.4987 4.28639C10.4937 4.60368 10.486 5.08391 10.7491 5.51149L13.2924 9.63882L13.2944 9.64205C13.4295 9.85749 13.4295 10.1162 13.2944 10.3317L10.7493 14.4619C10.4862 14.8895 10.4937 15.37 10.4987 15.6873C10.4994 15.7275 10.4999 15.7651 10.4999 15.7996C10.4999 16.7068 11.1708 17.2799 11.865 17.4456C12.556 17.6105 13.4132 17.4093 13.8612 16.6433V16.6433L17.2676 10.843C17.5792 10.3241 17.5752 9.68348 17.2689 9.16205L13.8612 3.35947V3.35947Z" fill="#C3D2DF"/>
<path fill-rule="evenodd" clip-rule="evenodd" d="M8.43 4.5H7V3.5H8.43V4.5Z" fill="#C3D2DF"/>
<path fill-rule="evenodd" clip-rule="evenodd" d="M10 7.5L5 7.5V6.5L10 6.5V7.5Z" fill="#C3D2DF"/>
<path fill-rule="evenodd" clip-rule="evenodd" d="M4 7.5H3L3 6.5H4V7.5Z" fill="#C3D2DF"/>
<path fill-rule="evenodd" clip-rule="evenodd" d="M6.15 4.5H4V3.5H6.15V4.5Z" fill="#C3D2DF"/>
<path fill-rule="evenodd" clip-rule="evenodd" d="M10 10.5H8V9.5H10V10.5Z" fill="#C3D2DF"/>
<path fill-rule="evenodd" clip-rule="evenodd" d="M5.5 10.5H4V9.5H5.5V10.5Z" fill="#C3D2DF"/>
<path fill-rule="evenodd" clip-rule="evenodd" d="M9.5 13.5H5V12.5H9.5V13.5Z" fill="#C3D2DF"/>
<path fill-rule="evenodd" clip-rule="evenodd" d="M9 16.5H7V15.5H9V16.5Z" fill="#C3D2DF"/>
<path fill-rule="evenodd" clip-rule="evenodd" d="M5 16.5H3L3 15.5H5V16.5Z" fill="#C3D2DF"/>
</svg>
