<svg width="36" height="28" viewBox="0 0 36 28" fill="none" xmlns="http://www.w3.org/2000/svg">
<rect width="36" height="28" rx="4" fill="#054476"/>
<path fill-rule="evenodd" clip-rule="evenodd" d="M20.0935 7.52562C19.7245 7.61063 19.4999 7.8621 19.4999 8.17412C19.4999 8.21249 19.4999 8.24897 19.4998 8.28373C19.4989 8.64637 19.4985 8.82112 19.6008 8.98739V8.98739L22.1429 13.1127C22.48 13.6521 22.48 14.3216 22.1429 14.861L22.1418 14.8627L19.6008 18.9863C19.4985 19.1525 19.4989 19.3273 19.4998 19.69C19.4999 19.7247 19.4999 19.7612 19.4999 19.7996C19.4999 20.1302 19.7322 20.3858 20.0971 20.4729C20.465 20.5607 20.8225 20.4387 20.9981 20.1382L24.4096 14.3292C24.5288 14.1317 24.5323 13.8824 24.4066 13.6685L20.9981 7.86454C20.8224 7.56394 20.4634 7.44041 20.0935 7.52562ZM21.8612 7.35947C21.4139 6.5946 20.5582 6.39238 19.869 6.55114C19.1789 6.71013 18.4999 7.27252 18.4999 8.17412C18.4999 8.20864 18.4994 8.24621 18.4987 8.28639C18.4937 8.60368 18.486 9.08391 18.7491 9.51149L21.2924 13.6388L21.2944 13.6421C21.4295 13.8575 21.4295 14.1162 21.2944 14.3317L18.7493 18.4619C18.4862 18.8895 18.4937 19.37 18.4987 19.6873C18.4994 19.7275 18.4999 19.7651 18.4999 19.7996C18.4999 20.7068 19.1708 21.2799 19.865 21.4456C20.556 21.6105 21.4132 21.4093 21.8612 20.6433V20.6433L25.2676 14.843C25.5792 14.3241 25.5752 13.6835 25.2689 13.1621L21.8612 7.35947V7.35947Z" fill="white"/>
<path fill-rule="evenodd" clip-rule="evenodd" d="M16.43 8.5H15V7.5H16.43V8.5Z" fill="white"/>
<path fill-rule="evenodd" clip-rule="evenodd" d="M18 11.5L13 11.5V10.5L18 10.5V11.5Z" fill="white"/>
<path fill-rule="evenodd" clip-rule="evenodd" d="M12 11.5H11V10.5H12V11.5Z" fill="white"/>
<path fill-rule="evenodd" clip-rule="evenodd" d="M14.15 8.5H12V7.5H14.15V8.5Z" fill="white"/>
<path fill-rule="evenodd" clip-rule="evenodd" d="M18 14.5H16V13.5H18V14.5Z" fill="white"/>
<path fill-rule="evenodd" clip-rule="evenodd" d="M13.5 14.5H12V13.5H13.5V14.5Z" fill="white"/>
<path fill-rule="evenodd" clip-rule="evenodd" d="M17.5 17.5H13V16.5H17.5V17.5Z" fill="white"/>
<path fill-rule="evenodd" clip-rule="evenodd" d="M17 20.5H15V19.5H17V20.5Z" fill="white"/>
<path fill-rule="evenodd" clip-rule="evenodd" d="M13 20.5H11V19.5H13V20.5Z" fill="white"/>
</svg>
