<svg width="14" height="14" viewBox="0 0 14 14" fill="none" xmlns="http://www.w3.org/2000/svg">
<path fill-rule="evenodd" clip-rule="evenodd" d="M1 7C1 3.68629 3.68629 1 7 1C10.3137 1 13 3.68629 13 7C13 10.3137 10.3137 13 7 13C3.68629 13 1 10.3137 1 7ZM0 7C0 3.13401 3.13401 0 7 0C10.866 0 14 3.13401 14 7C14 10.866 10.866 14 7 14C3.13401 14 0 10.866 0 7ZM5.83408 11C7.00021 10.8505 8.0376 10.3754 8.72128 9.67772L8.42798 9.30748C8.14432 9.55886 7.7747 9.75255 7.35559 9.86945C7.2456 9.86945 7.2456 9.69755 7.35559 9.40004C7.47179 9.05546 7.61426 8.64675 7.75832 8.23345C7.92109 7.76652 8.08589 7.29372 8.21717 6.90092C8.57463 5.79682 8.44631 5.42658 7.8872 5.42658C6.7727 5.5731 5.75718 5.98238 5 6.59019L5.24748 6.97365C5.50198 6.78946 5.81747 6.65519 6.16405 6.58358C6.26487 6.58358 6.2832 6.68936 6.16405 7.03315C6.0095 7.59052 5.77806 8.2621 5.5428 8.94473C5.44319 9.23377 5.3429 9.52478 5.24748 9.80995C4.99083 10.643 5.28414 11 5.83408 11ZM8.91485 4.07614C8.97348 3.96489 9.00114 3.84641 8.99626 3.72745V3.72084C9.00792 3.62802 8.99225 3.53447 8.95027 3.44633C8.90829 3.35819 8.84096 3.27745 8.75268 3.2094C8.66439 3.14135 8.55717 3.08754 8.43802 3.05148C8.31888 3.01543 8.19052 2.99795 8.06135 3.00019C7.72175 3.00017 7.39578 3.09656 7.15393 3.26854C6.91209 3.44051 6.7738 3.67424 6.76898 3.91918C6.75156 4.01826 6.76548 4.11891 6.80971 4.21355C6.85394 4.3082 6.92732 4.39439 7.02434 4.46565C7.12137 4.5369 7.23951 4.59138 7.36991 4.62498C7.5003 4.65858 7.63956 4.67044 7.77722 4.65966C7.94214 4.65623 8.10451 4.6294 8.25505 4.58069C8.40559 4.53198 8.54134 4.46235 8.65455 4.37577C8.76777 4.2892 8.85622 4.18738 8.91485 4.07614Z" fill="#C3D2DF"/>
</svg>
