<svg width="36" height="28" viewBox="0 0 36 28" fill="none" xmlns="http://www.w3.org/2000/svg">
<rect width="36" height="28" rx="4" fill="#054476"/>
<path fill-rule="evenodd" clip-rule="evenodd" d="M16.7694 10.1512C15.9593 9.44539 14.8207 9.33629 13.9046 9.87002L13.9032 9.87084L11.3132 11.3708L10.6868 10.2891L13.2754 8.78996C13.2756 8.78981 13.2751 8.7901 13.2754 8.78996C14.6589 7.98429 16.3804 8.15473 17.5901 9.20834C17.5902 9.20848 17.5899 9.2082 17.5901 9.20834L20.0213 11.3194C20.909 12.0951 22.1919 12.1433 23.1364 11.439L23.1382 11.4376L24.6382 10.3276L25.3818 11.3324L23.8836 12.441C23.8833 12.4412 23.883 12.4415 23.8827 12.4417C22.4675 13.4965 20.5314 13.4246 19.1994 12.2612C19.1992 12.261 19.1996 12.2614 19.1994 12.2612L16.7702 10.1519L16.7694 10.1512Z" fill="#C3D2DF"/>
<path fill-rule="evenodd" clip-rule="evenodd" d="M16.7694 13.3212C15.9593 12.6154 14.8207 12.5063 13.9046 13.04L13.9032 13.0408L11.3132 14.5408L10.6868 13.4591L13.2754 11.9599C13.2756 11.9598 13.2751 11.9601 13.2754 11.9599C14.6589 11.1543 16.3804 11.3247 17.5901 12.3783C17.5902 12.3785 17.5899 12.3782 17.5901 12.3783L20.0213 14.4893C20.909 15.2651 22.1919 15.3133 23.1364 14.609L23.1382 14.6076L24.6382 13.4976L25.3818 14.5024L23.8836 15.611C23.8833 15.6112 23.883 15.6114 23.8827 15.6117C22.4675 16.6665 20.5314 16.5946 19.1994 15.4312C19.1992 15.431 19.1996 15.4314 19.1994 15.4312L16.7702 13.3219L16.7694 13.3212Z" fill="#C3D2DF"/>
<path fill-rule="evenodd" clip-rule="evenodd" d="M16.7694 16.5013C15.9593 15.7954 14.8207 15.6863 13.9046 16.2201L13.9032 16.2209L11.3132 17.7209L10.6868 16.6392L13.2754 15.14C13.2756 15.1399 13.2751 15.1401 13.2754 15.14C14.659 14.3343 16.3804 14.5048 17.5901 15.5584C17.5903 15.5585 17.59 15.5583 17.5901 15.5584L20.0213 17.6694C20.909 18.4452 22.1919 18.4933 23.1364 17.789L23.1382 17.7876L24.6382 16.6776L25.3818 17.6824L23.8836 18.791C23.8833 18.7913 23.883 18.7915 23.8827 18.7918C22.4674 19.8465 20.5314 19.7747 19.1994 18.6112C19.1992 18.611 19.1996 18.6114 19.1994 18.6112L16.7702 16.5019L16.7694 16.5013Z" fill="#C3D2DF"/>
</svg>
