<svg width="20" height="20" viewBox="0 0 20 20" fill="none" xmlns="http://www.w3.org/2000/svg">
<path fill-rule="evenodd" clip-rule="evenodd" d="M8.76942 6.15122C7.95933 5.44539 6.82074 5.33629 5.90463 5.87002L5.90323 5.87084L3.31323 7.37083L2.68677 6.28915L5.27537 4.78996C5.27512 4.7901 5.27562 4.78981 5.27537 4.78996C6.65895 3.98429 8.38042 4.15473 9.59009 5.20834C9.58992 5.2082 9.59025 5.20848 9.59009 5.20834L12.0213 7.31936C12.909 8.09512 14.1919 8.14328 15.1364 7.43897L15.1382 7.43759L16.6382 6.32759L17.3818 7.33239L15.8836 8.44101C15.8833 8.44123 15.883 8.44146 15.8827 8.44169C14.4675 9.49649 12.5314 9.42463 11.1994 8.26121C11.1992 8.26101 11.1996 8.26141 11.1994 8.26121L8.77022 6.15191L8.76942 6.15122Z" fill="#C3D2DF"/>
<path fill-rule="evenodd" clip-rule="evenodd" d="M8.76942 9.32123C7.95933 8.6154 6.82074 8.5063 5.90463 9.04004L5.90323 9.04085L3.31323 10.5408L2.68677 9.45916L5.27537 7.95997C5.27512 7.96011 5.27562 7.95983 5.27537 7.95997C6.65894 7.15431 8.38041 7.32474 9.59007 8.37834C9.58991 8.3782 9.59024 8.37849 9.59007 8.37834L12.0213 10.4894C12.909 11.2651 14.1919 11.3133 15.1364 10.609L15.1382 10.6076L16.6382 9.4976L17.3818 10.5024L15.8836 11.611C15.8833 11.6112 15.883 11.6115 15.8827 11.6117C14.4675 12.6665 12.5314 12.5946 11.1994 11.4312C11.1992 11.431 11.1996 11.4314 11.1994 11.4312L8.77022 9.32192L8.76942 9.32123Z" fill="#C3D2DF"/>
<path fill-rule="evenodd" clip-rule="evenodd" d="M8.76942 12.5012C7.95933 11.7954 6.82074 11.6863 5.90463 12.22L5.90323 12.2208L3.31323 13.7208L2.68677 12.6392L5.27537 11.14C5.27512 11.1401 5.27562 11.1398 5.27537 11.14C6.65896 10.3343 8.38044 10.5047 9.59011 11.5584C9.58995 11.5582 9.59026 11.5585 9.59011 11.5584L12.0213 13.6694C12.909 14.4451 14.1919 14.4933 15.1364 13.789L15.1382 13.7876L16.6382 12.6776L17.3818 13.6824L15.8836 14.791C15.8833 14.7913 15.883 14.7915 15.8827 14.7917C14.4674 15.8465 12.5314 15.7746 11.1994 14.6112C11.1992 14.611 11.1996 14.6114 11.1994 14.6112L8.77022 12.5019L8.76942 12.5012Z" fill="#C3D2DF"/>
</svg>
