<svg width="20" height="20" viewBox="0 0 20 20" fill="none" xmlns="http://www.w3.org/2000/svg">
<g clip-path="url(#clip0_3283_52568)">
<path d="M13.1303 9.89999C15.9103 14.33 10.3903 18.56 6.26027 16.14C3.49027 14.72 2.68027 7.81999 3.10027 5.55999C3.29027 5.26999 3.57027 5.38999 3.96027 5.41999C6.88027 5.82999 11.0503 7.31999 13.0003 9.72999L13.1303 9.89999Z" stroke="#C3D2DF" stroke-width="1.25" stroke-miterlimit="10"/>
<path d="M9.66992 15.68C11.7599 17.05 14.8999 16.71 16.4399 14.28L16.5299 14.12C17.9899 11.5 17.6499 7.22005 16.7199 4.52005C16.5699 4.14005 16.4999 3.92005 16.1099 3.97005C14.2599 4.68005 11.7399 5.89005 9.86992 7.47005" stroke="#C3D2DF" stroke-width="1.25" stroke-miterlimit="10"/>
<path d="M5.16016 7.59998C5.16016 7.59998 9.82016 10.38 10.0602 16.7" stroke="#C3D2DF" stroke-miterlimit="10"/>
<path d="M3.66992 11.88C3.66992 11.88 6.38992 13.4 9.36992 13.07" stroke="#C3D2DF" stroke-miterlimit="10"/>
<path d="M8.61035 11.39C8.61035 11.39 10.0004 11 10.6604 7.76001" stroke="#C3D2DF" stroke-miterlimit="10"/>
<path d="M9.82031 14.67C9.82031 14.67 12.6203 12.87 13.0003 9.71997" stroke="#C3D2DF" stroke-miterlimit="10"/>
</g>
<defs>
<clipPath id="clip0_3283_52568">
<rect width="20" height="20" fill="white"/>
</clipPath>
</defs>
</svg>
