<svg width="20" height="20" viewBox="0 0 20 20" fill="none" xmlns="http://www.w3.org/2000/svg">
<path fill-rule="evenodd" clip-rule="evenodd" d="M9.70009 3.65004C9.59009 3.36004 9.30009 3.17004 8.99009 3.17004C8.89009 3.17004 8.79009 3.19004 8.70009 3.23004L3.65008 5.30004C3.46008 5.38004 3.31008 5.53004 3.23008 5.72004C3.15008 5.91004 3.15008 6.12004 3.23008 6.31004L5.30008 11.36C5.41008 11.65 5.70009 11.84 6.01009 11.84C6.11009 11.84 6.21008 11.82 6.30008 11.78L8 11.0832V9.77C8 8.79 8.79 8 9.77 8H11.4831L9.70009 3.65004ZM12.5689 8L10.6301 3.27004C10.3501 2.58004 9.69008 2.17004 8.99009 2.17004C8.77009 2.17004 8.54008 2.21004 8.32009 2.30004L3.27009 4.37004C2.36009 4.74004 1.93008 5.78004 2.30008 6.68004L4.37009 11.73C4.65009 12.42 5.31009 12.83 6.01009 12.83C6.23009 12.83 6.46009 12.79 6.68009 12.7L8 12.159V15.23C8 16.21 8.79 17 9.77 17H15.23C16.21 17 17 16.21 17 15.23V9.77C17 8.79 16.21 8 15.23 8H12.5689ZM11.8301 9H9.77C9.35 9 9 9.34 9 9.77V10.6733L11.3501 9.71004C11.5401 9.63004 11.6901 9.48004 11.7701 9.29004C11.8094 9.19661 11.8294 9.09835 11.8301 9ZM9 11.7491L11.7301 10.63C12.4154 10.3514 12.8285 9.6927 12.8327 9H15.23C15.66 9 16 9.35 16 9.77V15.23C16 15.66 15.65 16 15.23 16H9.77C9.34 16 9 15.65 9 15.23V11.7491Z" fill="#C3D2DF"/>
</svg>
