<svg width="36" height="28" viewBox="0 0 36 28" fill="none" xmlns="http://www.w3.org/2000/svg">
<rect width="36" height="28" rx="4" fill="#054476"/>
<path d="M23.23 13C23.66 13 24 13.35 24 13.77V19.23C24 19.66 23.65 20 23.23 20H17.77C17.34 20 17 19.65 17 19.23V13.77C17 13.34 17.35 13 17.77 13H23.23ZM23.23 12H17.77C16.79 12 16 12.79 16 13.77V19.23C16 20.21 16.79 21 17.77 21H23.23C24.21 21 25 20.21 25 19.23V13.77C25 12.79 24.21 12 23.23 12Z" fill="white"/>
<path d="M16.9901 7.17004C17.3001 7.17004 17.5901 7.36004 17.7001 7.65004L19.7701 12.7C19.8501 12.89 19.8501 13.1 19.7701 13.29C19.6901 13.48 19.5401 13.63 19.3501 13.71L14.3001 15.78C14.2101 15.82 14.1101 15.84 14.0101 15.84C13.7001 15.84 13.4101 15.65 13.3001 15.36L11.2301 10.31C11.1501 10.12 11.1501 9.91004 11.2301 9.72004C11.3101 9.53004 11.4601 9.38004 11.6501 9.30004L16.7001 7.23004C16.7901 7.19004 16.8901 7.17004 16.9901 7.17004ZM16.9901 6.17004C16.7701 6.17004 16.5401 6.21004 16.3201 6.30004L11.2701 8.37004C10.3601 8.74004 9.93008 9.78004 10.3001 10.68L12.3701 15.73C12.6501 16.42 13.3101 16.83 14.0101 16.83C14.2301 16.83 14.4601 16.79 14.6801 16.7L19.7301 14.63C20.6401 14.26 21.0701 13.22 20.7001 12.32L18.6301 7.27004C18.3501 6.58004 17.6901 6.17004 16.9901 6.17004Z" fill="white"/>
</svg>
