<svg width="16" height="16" viewBox="0 0 16 16" fill="none" xmlns="http://www.w3.org/2000/svg">
<path fill-rule="evenodd" clip-rule="evenodd" d="M7 2.5C7 3.32843 6.32843 4 5.5 4C4.67157 4 4 3.32843 4 2.5C4 1.67157 4.67157 1 5.5 1C6.32843 1 7 1.67157 7 2.5ZM1 6C1 5.44772 1.44772 5 2 5H9C9.55229 5 10 5.44772 10 6C10 6.55228 9.55229 7 9 7H8H6V10.2344C6 10.5825 5.90917 10.9245 5.73649 11.2267L3.86824 14.4961C3.59423 14.9757 2.98338 15.1423 2.50386 14.8682C2.02434 14.5942 1.85775 13.9834 2.13176 13.5039L4 10.2344V7H2C1.44772 7 1 6.55228 1 6ZM8.00001 13L8 9.61446L11 11.7573V14.7219L8.00001 13ZM15 13L12 14.7067V11.7573L15 9.61446V13ZM11.4845 7L14.5212 8.72758L11.5 10.8856L8.47696 8.72624L11.4845 7Z" fill="#4CACF8"/>
</svg>
