<svg width="16" height="16" viewBox="0 0 16 16" fill="none" xmlns="http://www.w3.org/2000/svg">
<path fill-rule="evenodd" clip-rule="evenodd" d="M10 4C10 5.10457 9.10457 6 8 6C6.89543 6 6 5.10457 6 4C6 2.89543 6.89543 2 8 2C9.10457 2 10 2.89543 10 4ZM9.88788 6.33163C9.37232 6.74959 8.7154 7 8 7C7.2846 7 6.62768 6.74959 6.11212 6.33163C5.35756 6.6054 4.66425 7.04261 4.08579 7.62108L2.56066 9.1462C2.3654 9.34147 2.3654 9.65805 2.56066 9.85331L3.14645 10.4391C3.34171 10.6344 3.65829 10.6344 3.85355 10.4391L5.14645 9.1462C5.28945 9.0032 5.50451 8.96043 5.69134 9.03782C5.87818 9.11521 6 9.29753 6 9.49976V12.4998C6 13.3282 6.67157 13.9998 7.5 13.9998H8.5C9.32843 13.9998 10 13.3282 10 12.4998V9.49976C10 9.29753 10.1218 9.11521 10.3087 9.03782C10.4955 8.96043 10.7106 9.0032 10.8536 9.1462L12.1464 10.4391C12.3417 10.6344 12.6583 10.6344 12.8536 10.4391L13.4393 9.85331C13.6346 9.65805 13.6346 9.34147 13.4393 9.1462L11.9142 7.62108C11.3358 7.04261 10.6424 6.6054 9.88788 6.33163ZM10.5806 5.53081C10.847 5.08266 11 4.5592 11 4C11 2.34315 9.65685 1 8 1C6.34315 1 5 2.34315 5 4C5 4.5592 5.153 5.08266 5.41942 5.53081C4.66475 5.85515 3.97076 6.32189 3.37868 6.91397L1.85356 8.4391C1.26777 9.02488 1.26777 9.97463 1.85355 10.5604L2.43934 11.1462C3.02513 11.732 3.97487 11.732 4.56066 11.1462L5 10.7069V12.4998C5 13.8805 6.11929 14.9998 7.5 14.9998H8.5C9.88071 14.9998 11 13.8805 11 12.4998V10.7069L11.4393 11.1462C12.0251 11.732 12.9749 11.732 13.5607 11.1462L14.1464 10.5604C14.7322 9.97463 14.7322 9.02488 14.1464 8.4391L12.6213 6.91397C12.0292 6.32189 11.3353 5.85514 10.5806 5.53081Z" fill="#4CACF8"/>
</svg>
