<svg width="16" height="16" viewBox="0 0 16 16" fill="none" xmlns="http://www.w3.org/2000/svg">
<path fill-rule="evenodd" clip-rule="evenodd" d="M9.99426 9.46838L9.87994 9.53429L9.78664 9.62759L9.28909 10.1251L9.01318 10.401L8.99704 10.7909C8.92319 12.5754 7.45228 14 5.64915 14H5.00003C4.44774 14 4.00003 13.5523 4.00003 13C4.00003 12.4477 4.44774 12 5.00003 12H5.64915C6.39519 12 6.99997 11.3952 6.99997 10.6492C6.99997 10.6336 7.00011 10.618 7.0004 10.6024L7.01254 9.93498L6.40082 9.6678C4.98577 9.04974 4 7.63888 4 6C4 3.79086 5.79086 2 8 2C10.2091 2 12 3.79086 12 6C12 7.48137 11.1952 8.77597 9.99426 9.46838ZM9.99619 10.8322L10.4937 10.3347C10.9111 10.0941 11.2905 9.79484 11.6207 9.44828C11.9795 9.79014 12.4653 10 13 10C14.1046 10 15 9.10457 15 8V4C15 2.89543 14.1046 2 13 2C12.4653 2 11.9795 2.20986 11.6207 2.55172C10.71 1.59576 9.42456 1 8 1C5.23858 1 3 3.23858 3 6C3 7.6356 3.78535 9.08777 4.99952 10L5.00003 10.0004C5.07302 10.0552 5.14756 10.1081 5.22358 10.1589C5.36079 10.2507 5.5028 10.3359 5.64915 10.414C5.7637 10.4751 5.88091 10.5319 6.00056 10.5842C6.00017 10.6058 5.99997 10.6275 5.99997 10.6492C5.99997 10.7704 5.93851 10.8772 5.84505 10.9403C5.78911 10.978 5.7217 11 5.64915 11H5.00003C4.90272 11 4.80703 11.007 4.71344 11.0204C3.74464 11.1594 3.00003 11.9927 3.00003 13C3.00003 14.1046 3.89546 15 5.00003 15H5.64915C7.99072 15 9.90025 13.1502 9.99619 10.8322ZM12.2405 3.34951C12.7218 4.1179 13 5.02646 13 6C13 6.97354 12.7218 7.8821 12.2405 8.65049C12.4239 8.86444 12.6961 9 13 9C13.5523 9 14 8.55228 14 8V4C14 3.44772 13.5523 3 13 3C12.6961 3 12.4239 3.13556 12.2405 3.34951ZM3 10C3.53472 10 4.02044 9.79015 4.37927 9.44831C4.14701 9.20451 3.93911 8.93728 3.7595 8.65053C3.57609 8.86446 3.30388 9 3 9C2.44772 9 2 8.55228 2 8V4C2 3.44772 2.44772 3 3 3C3.30388 3 3.5761 3.13554 3.7595 3.34946C3.93911 3.06271 4.14701 2.79549 4.37927 2.55169C4.02044 2.20985 3.53472 2 3 2C1.89543 2 1 2.89543 1 4V8C1 9.10457 1.89543 10 3 10Z" fill="url(#paint0_linear_1463_831)"/>
<path fill-rule="evenodd" clip-rule="evenodd" d="M6.5 4C6.22386 4 6 4.22386 6 4.5V7.5C6 7.77614 6.22386 8 6.5 8C6.77614 8 7 7.77614 7 7.5V4.5C7 4.22386 6.77614 4 6.5 4ZM9.5 4C9.22386 4 9 4.22386 9 4.5V7.5C9 7.77614 9.22386 8 9.5 8C9.77614 8 10 7.77614 10 7.5V4.5C10 4.22386 9.77614 4 9.5 4Z" fill="white"/>
<defs>
<linearGradient id="paint0_linear_1463_831" x1="15" y1="7.58824" x2="1" y2="7.58824" gradientUnits="userSpaceOnUse">
<stop stop-color="#E48DC2"/>
<stop offset="0.333333" stop-color="#FFB36C"/>
<stop offset="0.666667" stop-color="#FCE94E"/>
<stop offset="1" stop-color="#B8F3E0"/>
</linearGradient>
</defs>
</svg>
