<svg width="16" height="16" viewBox="0 0 16 16" fill="none" xmlns="http://www.w3.org/2000/svg">
<path fill-rule="evenodd" clip-rule="evenodd" d="M1 1H5V2H2V5H1V1ZM1 11V15H5V14H2V11H1ZM14 5H15V1H11V2L14 2V5ZM11 14V15H15V11H14V14H11ZM5 4H11C11.5523 4 12 4.44772 12 5V7.06026C10.3637 7.25907 9.04793 7.91698 7.80551 8.53823L7.77639 8.55279C6.55124 9.16536 5.39454 9.73907 4 9.93171V5C4 4.44772 4.44772 4 5 4ZM3 11V10V5C3 3.89543 3.89543 3 5 3H11C12.1046 3 13 3.89543 13 5V7V8V11C13 12.1046 12.1046 13 11 13H5C3.89543 13 3 12.1046 3 11ZM12 8.06829V11C12 11.5523 11.5523 12 11 12H5C4.44772 12 4 11.5523 4 11V10.9397C5.63633 10.7409 6.95207 10.083 8.19449 9.46177L8.22361 9.44721C9.44876 8.83464 10.6055 8.26093 12 8.06829ZM6.5 7C6.77614 7 7 6.77614 7 6.5C7 6.22386 6.77614 6 6.5 6C6.22386 6 6 6.22386 6 6.5C6 6.77614 6.22386 7 6.5 7ZM6.5 8C7.32843 8 8 7.32843 8 6.5C8 5.67157 7.32843 5 6.5 5C5.67157 5 5 5.67157 5 6.5C5 7.32843 5.67157 8 6.5 8Z" fill="#EA5563"/>
</svg>
