<svg width="16" height="17" viewBox="0 0 16 17" fill="none" xmlns="http://www.w3.org/2000/svg">
<path d="M8 1.1665C8.36667 1.1665 8.66699 1.46683 8.66699 1.8335C8.66681 2.20001 8.36655 2.49951 8 2.49951H5.33301C4.23326 2.49969 3.33318 3.39976 3.33301 4.49951V9.40674C3.54868 9.57666 3.72671 9.81044 3.89062 10.0269L3.90039 10.0396C4.30705 10.5929 4.73367 11.1665 5.66699 11.1665C6.24677 11.1663 6.64645 10.6995 7.25293 9.93311L7.25977 9.92529C7.99869 8.9933 8.91864 7.8335 10.667 7.8335V7.82666C12.5001 7.8268 13.5536 9.02662 13.8936 10.0532C13.9668 10.2598 14 10.473 14 10.6929V12.4995C14 14.3394 12.5068 15.8333 10.667 15.8335H5.33301C3.49316 15.8333 2 14.3394 2 12.4995V4.49951C2.00017 2.65976 3.49326 1.16668 5.33301 1.1665H8ZM10.667 9.1665C9.56986 9.1665 8.98986 9.89379 8.31738 10.7378L8.2998 10.7603L8.27344 10.7935C7.62705 11.5984 6.90294 12.4994 5.66699 12.4995C4.54033 12.4995 3.81967 11.9795 3.33301 11.4595V12.4995C3.33301 13.5994 4.23316 14.4993 5.33301 14.4995H10.667C11.7668 14.4993 12.667 13.5994 12.667 12.4995V10.6929C12.667 10.6197 12.6603 10.5531 12.6338 10.48C12.5605 10.26 12.1201 9.16667 10.667 9.1665ZM5.66699 5.1665C6.21913 5.16668 6.66699 5.61433 6.66699 6.1665C6.66698 6.71867 6.21912 7.16633 5.66699 7.1665C5.11471 7.1665 4.667 6.71878 4.66699 6.1665C4.66699 5.61422 5.11471 5.1665 5.66699 5.1665ZM12.3867 1.34619C12.4935 1.10651 12.8335 1.10644 12.9336 1.34619L13.5 2.80615C13.5333 2.89946 13.6067 2.96617 13.6934 2.99951L15.1533 3.56006C15.3932 3.66676 15.3933 4.00694 15.1533 4.10693L13.6934 4.6665C13.6 4.69984 13.5333 4.7732 13.5 4.85986L12.9336 6.31982C12.8269 6.55982 12.4867 6.5598 12.3867 6.31982L11.8203 4.85986C11.787 4.76662 11.7135 4.69987 11.627 4.6665L10.167 4.10693C9.92699 4.00027 9.92699 3.66006 10.167 3.56006L11.627 2.99951C11.7201 2.96612 11.787 2.89271 11.8203 2.80615L12.3867 1.34619Z" fill="#C3D2DF"/>
</svg>
