<svg width="16" height="17" viewBox="0 0 16 17" fill="none" xmlns="http://www.w3.org/2000/svg">
<path d="M7.33301 9.16699C7.69957 9.16699 7.99982 9.46649 8 9.83301C8 10.1997 7.69967 10.5 7.33301 10.5H5.33301C3.85982 10.5002 2.66699 11.6938 2.66699 13.167C2.66717 13.5334 2.9666 13.8328 3.33301 13.833H7.33301C7.69967 13.833 8 14.1333 8 14.5C8 14.8667 7.69967 15.167 7.33301 15.167H3.33301C2.23326 15.1668 1.33319 14.2667 1.33301 13.167C1.33301 10.9604 3.12649 9.16717 5.33301 9.16699H7.33301ZM11.667 9.16699C12.0334 9.16717 12.3328 9.4666 12.333 9.83301V11.5H14C14.3667 11.5 14.667 11.8003 14.667 12.167C14.6668 12.5335 14.3666 12.833 14 12.833H12.333V14.5C12.333 14.8666 12.0335 15.1668 11.667 15.167C11.3003 15.167 11 14.8667 11 14.5V12.833H9.33301C8.9666 12.8328 8.66717 12.5334 8.66699 12.167C8.66699 11.8004 8.96649 11.5002 9.33301 11.5H11V9.83301C11.0002 9.46649 11.3004 9.16699 11.667 9.16699ZM8 1.83301C9.84 1.83301 11.333 3.32699 11.333 5.16699C11.3328 7.00684 9.83989 8.5 8 8.5C6.16011 8.5 4.66717 7.00684 4.66699 5.16699C4.66699 3.32699 6.16 1.83301 8 1.83301ZM8 3.16699C6.9 3.16699 6 4.06699 6 5.16699C6.00018 6.26684 6.90011 7.16699 8 7.16699C9.09989 7.16699 9.99982 6.26684 10 5.16699C10 4.06699 9.1 3.16699 8 3.16699Z" fill="#C3D2DF"/>
</svg>
