<svg width="16" height="17" viewBox="0 0 16 17" fill="none" xmlns="http://www.w3.org/2000/svg">
<path d="M6.86658 2.57747C7.23117 2.52711 7.56733 2.78192 7.61788 3.14648C7.66823 3.51111 7.4135 3.84731 7.04887 3.89779C4.43316 4.2599 2.66681 6.01851 2.66671 7.90755C2.6669 9.20892 3.48558 10.4284 4.87113 11.2005C5.13613 11.3482 5.26803 11.6562 5.1921 11.9499C5.19019 11.9572 5.18915 11.9634 5.18429 11.9837C5.18033 12.0003 5.17379 12.0272 5.16541 12.0566C5.0694 12.3933 4.93934 12.6988 4.79822 12.9688C5.44294 12.8114 6.11628 12.5425 6.59444 12.099L6.65043 12.0521C6.78761 11.9504 6.95963 11.9049 7.1309 11.9264C7.41505 11.9622 7.70528 11.9818 8.00004 11.9818C11.1004 11.9818 13.3333 10.0191 13.3334 7.9069C13.3336 7.53894 13.632 7.24089 14 7.24089C14.3682 7.2409 14.6666 7.53944 14.6667 7.90755C14.6664 11.0315 11.5269 13.3151 8.00004 13.3151C7.74898 13.3151 7.5018 13.3026 7.25916 13.2806C6.49168 13.8849 5.54945 14.1809 4.821 14.3301C4.40834 14.4145 4.04186 14.4567 3.77804 14.4779C3.64593 14.4884 3.53843 14.494 3.46228 14.4967C3.42416 14.4981 3.39347 14.499 3.37179 14.4993C3.36098 14.4995 3.35216 14.4993 3.34574 14.4993C3.3426 14.4994 3.33997 14.5 3.33793 14.5H3.33403C3.05738 14.5 2.80879 14.3288 2.71033 14.0703C2.61198 13.8118 2.68348 13.5193 2.89001 13.3353C2.9091 13.3175 3.42655 12.8374 3.74809 12.0716C2.31022 11.1055 1.33355 9.62668 1.33337 7.90755L1.34054 7.64779C1.49116 4.99038 3.94319 2.98206 6.86658 2.57747Z" fill="#C3D2DF"/>
<path d="M10.6667 2.5C11.0349 2.5 11.3334 2.79848 11.3334 3.16667V4.83333H13C13.3682 4.83333 13.6667 5.13181 13.6667 5.5C13.6667 5.86819 13.3682 6.16667 13 6.16667H11.3334V7.83333C11.3334 8.20152 11.0349 8.5 10.6667 8.5C10.2985 8.5 10 8.20152 10 7.83333V6.16667H8.33337C7.96518 6.16667 7.66671 5.86819 7.66671 5.5C7.66671 5.13181 7.96518 4.83333 8.33337 4.83333H10V3.16667C10 2.79848 10.2985 2.5 10.6667 2.5Z" fill="#C3D2DF"/>
</svg>
