<svg width="16" height="17" viewBox="0 0 16 17" fill="none" xmlns="http://www.w3.org/2000/svg">
<path d="M8.46509 6.5C9.1054 6.5 9.59809 6.94426 9.77368 7.47266C9.96491 8.04802 10.2466 8.4529 10.6233 8.7207C11.0015 8.98957 11.5415 9.16698 12.3333 9.16699C12.7013 9.16699 13.0001 9.46497 13.0002 9.83301C13.0002 10.2012 12.7014 10.5 12.3333 10.5C11.3422 10.5 10.5106 10.2765 9.85083 9.80762C9.74826 9.73469 9.6512 9.65641 9.55981 9.57422C9.45608 9.481 9.28112 9.53339 9.25806 9.6709L9.08423 10.7188C9.07081 10.7992 9.0495 10.8776 9.02271 10.9521C8.99738 11.0229 9.01457 11.1032 9.07056 11.1533C9.52011 11.5543 9.84666 11.9866 10.054 12.5205C10.3417 13.2618 10.3661 14.1234 10.3333 15.1875C10.3217 15.5554 10.0137 15.8444 9.64575 15.833C9.27806 15.8215 8.98914 15.5142 9.00024 15.1465C9.03328 14.0761 8.98992 13.4643 8.81079 13.0029C8.6629 12.6221 8.39754 12.2839 7.83228 11.8652C7.80394 11.8442 7.76891 11.833 7.73364 11.833H6.37036C6.28892 11.8331 6.21968 11.8923 6.2063 11.9727L5.65747 15.2764C5.59688 15.6393 5.25382 15.8845 4.89087 15.8242C4.52769 15.7637 4.28151 15.4198 4.34204 15.0566L5.34204 9.05664L5.34399 9.0498L5.44751 8.4248C5.47194 8.2782 5.31557 8.18666 5.21509 8.2959C5.15776 8.35851 5.09871 8.4285 5.04028 8.50684C4.67878 8.99157 4.3893 9.69505 4.3313 10.5166C4.3054 10.8839 3.98666 11.1607 3.61938 11.1348C3.25232 11.1087 2.97533 10.79 3.00122 10.4229C3.07678 9.35221 3.45453 8.40372 3.97192 7.70996C4.46872 7.04388 5.18797 6.50006 5.98267 6.5H8.46509ZM7.03931 7.83301C6.95784 7.83301 6.88864 7.89229 6.87524 7.97266L6.4856 10.3057C6.46866 10.4073 6.54764 10.5 6.65063 10.5H7.6272C7.70867 10.5 7.77884 10.4407 7.79224 10.3604L8.18091 8.02734C8.19778 7.92579 8.11883 7.83301 8.01587 7.83301H7.03931ZM7.66626 1.16699C8.95492 1.16699 10.0002 2.21134 10.0002 3.5C10.0002 4.78866 8.95492 5.83301 7.66626 5.83301C6.3778 5.83277 5.33325 4.78852 5.33325 3.5C5.33325 2.21148 6.3778 1.16723 7.66626 1.16699ZM7.66626 2.5C7.11418 2.50024 6.66626 2.94786 6.66626 3.5C6.66626 4.05214 7.11418 4.49976 7.66626 4.5C8.21854 4.5 8.66626 4.05228 8.66626 3.5C8.66626 2.94772 8.21854 2.5 7.66626 2.5Z" fill="#C3D2DF"/>
</svg>
