<svg width="16" height="16" viewBox="0 0 16 16" fill="none" xmlns="http://www.w3.org/2000/svg">
<path fill-rule="evenodd" clip-rule="evenodd" d="M5.00582 1.42397C5.04334 1.18006 5.25322 1 5.5 1H12.5C12.6459 1 12.7845 1.06371 12.8795 1.17443C12.9745 1.28516 13.0164 1.43184 12.9942 1.57603L10.9942 14.576C10.9567 14.8199 10.7468 15 10.5 15H3.5C3.35412 15 3.21551 14.9363 3.12052 14.8256C3.02553 14.7148 2.98363 14.5682 3.00582 14.424L5.00582 1.42397ZM5.92896 2L4.32418 12.4311L11.5457 2H5.92896ZM11.6758 3.56888L4.45429 14H10.071L11.6758 3.56888Z" fill="#4CACF8"/>
</svg>
