<svg width="16" height="16" viewBox="0 0 16 16" fill="none" xmlns="http://www.w3.org/2000/svg">
<path fill-rule="evenodd" clip-rule="evenodd" d="M14 8C14 4.68629 11.3137 2 8 2C7.78288 2 7.54798 2.10922 7.29473 2.41356C7.03802 2.72207 6.80175 3.18867 6.60288 3.78353C6.20652 4.96911 6 6.53779 6 8C6 8.62291 6.03748 9.26514 6.11115 9.88885C6.73486 9.96252 7.37709 10 8 10C9.46221 10 11.0309 9.79348 12.2165 9.39712C12.8113 9.19825 13.2779 8.96198 13.5864 8.70527C13.8908 8.45202 14 8.21712 14 8ZM15 8C15 4.13401 11.866 1 8 1C4.13401 1 1 4.13401 1 8C1 11.866 4.13401 15 8 15C11.866 15 15 11.866 15 8ZM2 8C2 8.00042 2 8.00085 2 8.00127C2.00043 8.21804 2.10981 8.45251 2.41356 8.70527C2.72207 8.96198 3.18867 9.19825 3.78353 9.39712C4.18136 9.53012 4.62231 9.64174 5.08791 9.73136C5.02915 9.15177 5 8.56616 5 8C5 6.46221 5.21505 4.78089 5.65448 3.46647C5.79783 3.03767 5.96952 2.63425 6.17405 2.2829C3.7532 3.05542 2 5.32297 2 8ZM5.22744 10.7726C4.60238 10.6673 4.00377 10.5252 3.46647 10.3455C3.03767 10.2022 2.63426 10.0305 2.2829 9.82595C2.87169 11.671 4.32895 13.1283 6.17405 13.7171C5.96952 13.3657 5.79783 12.9623 5.65448 12.5335C5.47485 11.9962 5.33271 11.3976 5.22744 10.7726ZM6.26864 10.9121C6.35826 11.3777 6.46988 11.8186 6.60288 12.2165C6.80175 12.8113 7.03802 13.2779 7.29473 13.5864C7.54798 13.8908 7.78288 14 8 14C10.677 14 12.9446 12.2468 13.7171 9.82595C13.3657 10.0305 12.9623 10.2022 12.5335 10.3455C11.2191 10.785 9.53779 11 8 11C7.43384 11 6.84823 10.9708 6.26864 10.9121Z" fill="#4CACF8"/>
</svg>
