<svg width="16" height="16" viewBox="0 0 16 16" fill="none" xmlns="http://www.w3.org/2000/svg">
<path fill-rule="evenodd" clip-rule="evenodd" d="M14.9598 8.75481C14.9864 8.50685 15 8.25502 15 8C15 4.13401 11.866 1 8 1C4.13401 1 1 4.13401 1 8C1 11.81 4.04382 14.909 7.83237 14.998C7.2749 13.858 7 12.3814 7 11.5978C7 11.4813 7.00664 11.3664 7.01957 11.2534C6.72307 10.7232 6.50017 10.0835 6.3725 9.38109C6.86052 9.45991 7.35285 9.50975 7.83096 9.52578C8.3772 8.9541 9.14704 8.59775 10 8.59775C10.0592 8.59775 10.118 8.59951 10.1763 8.60296C10.209 8.39062 10.2679 8.19999 10.3401 8.03393C10.4262 7.83569 10.5271 7.68129 10.6123 7.57083C10.6552 7.51536 10.6948 7.47001 10.7278 7.43472C10.7444 7.41704 10.7594 7.40176 10.7726 7.38889L10.7908 7.37133L10.7988 7.36387L10.8025 7.36046L10.8042 7.35884L10.8051 7.35805C10.8055 7.35766 10.806 7.35727 11.4786 8.09724C11.7151 7.1256 11.7156 7.12573 11.7161 7.12586L11.7172 7.12613L11.7195 7.12668L11.7241 7.12785L11.7343 7.13047L11.7579 7.13691C11.7751 7.14176 11.7951 7.14776 11.8176 7.1551C11.8625 7.16974 11.9181 7.18991 11.9814 7.21716C12.1074 7.27136 12.2688 7.35559 12.4396 7.48363C12.709 7.68558 12.987 7.98663 13.1823 8.41363C13.2004 8.40415 13.2183 8.39461 13.2361 8.38504C13.233 8.42783 13.2294 8.47047 13.2253 8.51297C13.2478 8.56816 13.269 8.62531 13.2886 8.68446C13.5155 8.62807 13.7536 8.59775 14 8.59775C14.3356 8.59775 14.6584 8.65297 14.9598 8.75481ZM11.4786 8.09724L10.806 7.35727L11.199 7L11.7151 7.1256L11.4786 8.09724ZM10.1956 3.22975C10.8505 4.15411 11.3112 5.48312 11.4536 6.99971C12.1542 6.72544 12.7204 6.45393 12.9775 6.32603C12.5154 4.95141 11.4998 3.83102 10.1956 3.22975ZM8.16272 7.78142C8.65438 7.78185 9.1971 7.69329 9.73778 7.55857C9.6703 6.34381 9.32693 5.24146 8.80036 4.45159C8.5609 4.09242 8.30635 3.83446 8.08245 3.69241C8.06215 3.67953 8.04533 3.66909 8.03171 3.66064C8.018 3.65213 8.00752 3.64563 8 3.64067C8.02112 3.62676 8.01897 3.625 8 3.625C7.98103 3.625 7.97888 3.62676 8 3.64067C7.99248 3.64563 7.982 3.65213 7.96829 3.66064C7.95467 3.66909 7.93785 3.67953 7.91755 3.69241C7.69365 3.83446 7.4391 4.09242 7.19964 4.45159C6.67799 5.23408 6.33613 6.32323 6.26418 7.52455C6.89727 7.67832 7.55022 7.78088 8.16272 7.78142ZM5.80442 3.22975C5.15165 4.15105 4.69186 5.47431 4.54787 6.98462C3.88713 6.73315 3.34317 6.47812 3.02691 6.31303C3.49104 4.94434 4.50434 3.82913 5.80442 3.22975ZM4.54101 8.94055C3.8553 8.71664 3.23635 8.43907 2.75147 8.12547C2.79983 10.1876 4.03717 11.9555 5.80442 12.7702C5.14089 11.8338 4.67675 10.482 4.54101 8.94055Z" fill="#C3D2DF"/>
<g clip-path="url(#clip0_3451_534)">
<path fill-rule="evenodd" clip-rule="evenodd" d="M11.8937 10.2448C11.5274 10.2091 11.3068 9.99999 11.3068 9.99999C10.9573 9.69149 10.503 9.49999 10 9.49999C8.89575 9.49999 8 10.3965 8 11.5C8 12.1475 8.25 13.5 8.75 14.5C9.25 15.5 9.922 16 10.75 16C11.0892 16 11.3291 15.876 11.5382 15.7679C11.6999 15.6843 11.8433 15.6102 12 15.6102C12.1585 15.6102 12.3079 15.686 12.4749 15.7707C12.6867 15.8782 12.9269 16 13.25 16C14.078 16 14.75 15.5 15.25 14.5C15.75 13.5 16 12.1475 16 11.5C16 10.3965 15.1035 9.49999 14 9.49999C13.496 9.49999 13.042 9.69149 12.6925 9.99999C12.6925 9.99999 12.5043 10.1845 12.1739 10.2365C12.3025 10.0647 12.5405 9.63972 12.3705 9.0053C12.1444 8.16153 11.4786 7.99948 11.4786 7.99948C11.4786 7.99948 10.9781 8.45444 11.2091 9.3165C11.3609 9.88294 11.6811 10.1359 11.8937 10.2448Z" fill="#3BB3F7"/>
</g>
<defs>
<clipPath id="clip0_3451_534">
<rect width="8" height="8" fill="white" transform="translate(8 8)"/>
</clipPath>
</defs>
</svg>
