<svg width="16" height="16" viewBox="0 0 16 16" fill="none" xmlns="http://www.w3.org/2000/svg">
<path fill-rule="evenodd" clip-rule="evenodd" d="M6.43449 3.46012L7.31996 2.03807C7.543 2.01293 7.7699 2 8 2C8.2301 2 8.457 2.01293 8.68004 2.03807L9.56551 3.46012C9.67862 3.64176 9.89478 3.7313 10.1032 3.68283L11.7344 3.30351C12.0902 3.58684 12.4132 3.90976 12.6965 4.26556L12.3172 5.8968C12.2687 6.10522 12.3582 6.32138 12.5399 6.43449L13.9619 7.31996C13.9871 7.543 14 7.7699 14 8C14 8.2301 13.9871 8.457 13.9619 8.68004L12.5399 9.56551C12.3582 9.67862 12.2687 9.89478 12.3172 10.1032L12.6965 11.7344C12.4132 12.0902 12.0902 12.4132 11.7344 12.6965L10.1032 12.3172C9.89478 12.2687 9.67862 12.3582 9.56551 12.5399L8.68004 13.9619C8.457 13.9871 8.2301 14 8 14C7.7699 14 7.543 13.9871 7.31996 13.9619L6.43449 12.5399C6.32138 12.3582 6.10522 12.2687 5.8968 12.3172L4.26556 12.6965C3.90976 12.4132 3.58684 12.0902 3.30351 11.7344L3.68283 10.1032C3.7313 9.89478 3.64176 9.67862 3.46012 9.56551L2.03807 8.68004C2.01293 8.457 2 8.2301 2 8C2 7.7699 2.01293 7.543 2.03807 7.31996L3.46012 6.43449C3.64176 6.32138 3.7313 6.10522 3.68283 5.8968L3.30351 4.26556C3.58684 3.90976 3.90976 3.58684 4.26556 3.30351L5.8968 3.68283C6.10522 3.7313 6.32138 3.64176 6.43449 3.46012ZM8 1C7.6419 1 7.28976 1.02693 6.94559 1.07896C6.80098 1.10082 6.67319 1.1849 6.59588 1.30905L5.77475 2.62777L4.26225 2.27606C4.11989 2.24296 3.97016 2.27381 3.85247 2.36049C3.28321 2.7798 2.7798 3.28321 2.36049 3.85247C2.27381 3.97016 2.24296 4.11989 2.27606 4.26225L2.62777 5.77475L1.30905 6.59588C1.1849 6.67319 1.10082 6.80098 1.07896 6.94559C1.02693 7.28976 1 7.6419 1 8C1 8.3581 1.02693 8.71024 1.07896 9.05441C1.10082 9.19902 1.1849 9.32681 1.30905 9.40412L2.62777 10.2252L2.27606 11.7377C2.24296 11.8801 2.27381 12.0298 2.36049 12.1475C2.7798 12.7168 3.28321 13.2202 3.85247 13.6395C3.97016 13.7262 4.11989 13.757 4.26225 13.7239L5.77475 13.3722L6.59588 14.6909C6.67319 14.8151 6.80098 14.8992 6.94559 14.921C7.28976 14.9731 7.6419 15 8 15C8.3581 15 8.71024 14.9731 9.05441 14.921C9.19902 14.8992 9.32681 14.8151 9.40412 14.6909L10.2253 13.3722L11.7377 13.7239C11.8801 13.757 12.0298 13.7262 12.1475 13.6395C12.7168 13.2202 13.2202 12.7168 13.6395 12.1475C13.7262 12.0298 13.757 11.8801 13.7239 11.7377L13.3722 10.2253L14.6909 9.40412C14.8151 9.32681 14.8992 9.19902 14.921 9.05441C14.9731 8.71024 15 8.3581 15 8C15 7.6419 14.9731 7.28976 14.921 6.94559C14.8992 6.80098 14.8151 6.67319 14.6909 6.59588L13.3722 5.77475L13.7239 4.26225C13.757 4.11989 13.7262 3.97016 13.6395 3.85247C13.2202 3.28321 12.7168 2.7798 12.1475 2.36049C12.0298 2.27381 11.8801 2.24296 11.7377 2.27606L10.2252 2.62777L9.40412 1.30905C9.32681 1.1849 9.19902 1.10082 9.05441 1.07896C8.71024 1.02693 8.3581 1 8 1ZM11 8C11 9.65685 9.65685 11 8 11C6.34315 11 5 9.65685 5 8C5 6.34315 6.34315 5 8 5C9.65685 5 11 6.34315 11 8ZM10 8C10 9.10457 9.10457 10 8 10C6.89543 10 6 9.10457 6 8C6 6.89543 6.89543 6 8 6C9.10457 6 10 6.89543 10 8Z" fill="#C3D2DF"/>
</svg>
