<svg width="56" height="56" viewBox="0 0 56 56" fill="none" xmlns="http://www.w3.org/2000/svg">
<g clip-path="url(#clip0_61_8379)">
<path fill-rule="evenodd" clip-rule="evenodd" d="M32.1954 48.6175H9.66776C7.39773 48.6175 5.95013 46.1939 7.02634 44.1952L26.5037 8.02301C27.6364 5.91941 30.6538 5.91941 31.7865 8.02301L44.0418 30.7829L41.785 31.9113L34.406 31.4988C33.2056 31.4317 32.1954 32.387 32.1954 33.5893V39.8999C31.5949 38.8359 30.4539 38.1175 29.1451 38.1175C27.2121 38.1175 25.6451 39.6845 25.6451 41.6175C25.6451 43.4182 27.0049 44.9013 28.7537 45.0959C28.8669 45.1801 28.9944 45.25 29.1354 45.3015C29.3273 45.4056 29.5425 45.4687 29.7701 45.4847L32.1954 45.6546V48.6175ZM51.586 46.1028C51.639 45.7858 51.6413 45.457 51.586 45.1279V46.1028ZM29.145 17.1176C27.212 17.1176 25.645 18.6846 25.645 20.6176V31.1176C25.645 33.0506 27.212 34.6176 29.145 34.6176C31.078 34.6176 32.645 33.0506 32.645 31.1176V20.6176C32.645 18.6846 31.078 17.1176 29.145 17.1176Z" fill="#F1DE60"/>
<mask id="mask0_61_8379" style="mask-type:alpha" maskUnits="userSpaceOnUse" x="29" y="30" width="26" height="24">
<path fill-rule="evenodd" clip-rule="evenodd" d="M42.0001 32.9219L46.6749 30.5845C47.0396 30.4021 47.4688 30.6674 47.4688 31.0752V39.0469L42.0001 42.0001V32.9219Z" fill="#D45E73"/>
<path fill-rule="evenodd" clip-rule="evenodd" d="M33.1954 41.4015L42.0001 42.0031V50.9719L34.2042 50.3424C33.6344 50.2964 33.1954 49.8205 33.1954 49.2488V41.4015Z" fill="#D45E73"/>
<path fill-rule="evenodd" clip-rule="evenodd" d="M33.1954 41.4015L42.0001 42.0031V50.9719L34.2042 50.3424C33.6344 50.2964 33.1954 49.8205 33.1954 49.2488V41.4015Z" fill="#D45E73"/>
<path fill-rule="evenodd" clip-rule="evenodd" d="M33.2093 41.3985L41.9593 42L36.4906 44.9532L29.6399 44.3965C29.0912 44.352 28.9428 43.6171 29.4313 43.3631L33.2093 41.3985Z" fill="#D45E73"/>
<path fill-rule="evenodd" clip-rule="evenodd" d="M33.2093 41.3985L41.9593 42L36.4906 44.9532L29.6399 44.3965C29.0912 44.352 28.9428 43.6171 29.4313 43.3631L33.2093 41.3985Z" fill="#D45E73"/>
<path fill-rule="evenodd" clip-rule="evenodd" d="M33.25 41.4015L42.0001 42.0031L42 51.0812L34.2583 50.4522C33.6887 50.4059 33.25 49.9302 33.25 49.3587V41.4015Z" fill="#D45E73"/>
<path fill-rule="evenodd" clip-rule="evenodd" d="M33.1954 33.593C33.1954 32.963 33.7247 32.4624 34.3537 32.4976L42.0001 32.925V42.0031L33.1954 41.4015V33.593Z" fill="#D45E73"/>
<path fill-rule="evenodd" clip-rule="evenodd" d="M33.1954 33.593C33.1954 32.963 33.7247 32.4624 34.3537 32.4976L42.0001 32.925V42.0031L33.1954 41.4015V33.593Z" fill="#D45E73"/>
<path fill-rule="evenodd" clip-rule="evenodd" d="M42.0001 42.0031L50.586 42.4953V50.3967C50.586 51.0328 50.0467 51.5356 49.4122 51.4912L42.0001 50.9719V42.0031Z" fill="#D45E73"/>
<path fill-rule="evenodd" clip-rule="evenodd" d="M42.0001 42.0031L50.586 42.4953V50.3967C50.586 51.0328 50.0467 51.5356 49.4122 51.4912L42.0001 50.9719V42.0031Z" fill="#D45E73"/>
<path fill-rule="evenodd" clip-rule="evenodd" d="M42.0323 50.9493L50.455 42.5969L42.0323 42.8304V50.9493Z" fill="#D45E73"/>
<path fill-rule="evenodd" clip-rule="evenodd" d="M36.5313 44.9532L42.0001 42.0001V50.9688L37.8379 53.2996C37.2528 53.6272 36.5313 53.2044 36.5313 52.5338V44.9532Z" fill="#D45E73"/>
<path fill-rule="evenodd" clip-rule="evenodd" d="M36.5313 44.9532L42.0001 42.0001V50.9688L37.8379 53.2996C37.2528 53.6272 36.5313 53.2044 36.5313 52.5338V44.9532Z" fill="#D45E73"/>
<path fill-rule="evenodd" clip-rule="evenodd" d="M42.0001 42.0001L50.586 42.4922L46.6229 44.9582C45.9994 45.3461 45.27 45.5288 44.5373 45.4805L36.5313 44.9532L42.0001 42.0001Z" fill="#D45E73"/>
<path fill-rule="evenodd" clip-rule="evenodd" d="M42.0001 42.0001L50.586 42.4922L46.6229 44.9582C45.9994 45.3461 45.27 45.5288 44.5373 45.4805L36.5313 44.9532L42.0001 42.0001Z" fill="#D45E73"/>
<path fill-rule="evenodd" clip-rule="evenodd" d="M36.5313 44.9532L42.0001 42.0001V51.0782L37.8261 53.3321C37.2413 53.6479 36.5313 53.2244 36.5313 52.5598V44.9532Z" fill="#D45E73"/>
<path fill-rule="evenodd" clip-rule="evenodd" d="M36.5644 44.9561L49.7494 42.5139L42.0001 42.0001L36.5644 44.9561Z" fill="#D45E73"/>
<path fill-rule="evenodd" clip-rule="evenodd" d="M47.4688 39.0469L53.7495 39.346C54.2871 39.3716 54.4702 40.0754 54.0132 40.3597L50.586 42.4922L42.0001 42.0001L47.4688 39.0469Z" fill="#D45E73"/>
<path fill-rule="evenodd" clip-rule="evenodd" d="M42.0001 32.925L49.5516 33.3579C50.1322 33.3911 50.586 33.8717 50.586 34.4532L50.586 42.4953L42.0001 42.0031V32.925Z" fill="#D45E73"/>
<path fill-rule="evenodd" clip-rule="evenodd" d="M42.0001 32.925L49.5516 33.3579C50.1322 33.3911 50.586 33.8717 50.586 34.4532L50.586 42.4953L42.0001 42.0031V32.925Z" fill="#D45E73"/>
<path fill-rule="evenodd" clip-rule="evenodd" d="M42.0323 33.1208L48.2308 43.063L41.1284 42V33.1208H42.0323Z" fill="#D45E73"/>
<path fill-rule="evenodd" clip-rule="evenodd" d="M36.5313 36.7412C36.5313 36.0763 36.907 35.4684 37.5017 35.1711L42.0001 32.9219V42.0001L36.5313 44.9532L36.5313 36.7412Z" fill="#D45E73"/>
<path fill-rule="evenodd" clip-rule="evenodd" d="M33.3734 41.5078L41.9593 42L36.4906 44.9532L29.8462 44.4876C29.2937 44.4489 29.1401 43.7092 29.6314 43.4537L33.3734 41.5078Z" fill="#D45E73"/>
</mask>
<g mask="url(#mask0_61_8379)">
<path fill-rule="evenodd" clip-rule="evenodd" d="M42 32.9218L46.6748 30.5844C47.0396 30.402 47.4688 30.6672 47.4688 31.075V39.0468L42 41.9999V32.9218Z" fill="url(#paint0_linear_61_8379)"/>
<path fill-rule="evenodd" clip-rule="evenodd" d="M33.1953 41.4014L42 42.0029V50.9717L34.2042 50.3422C33.6343 50.2962 33.1953 49.8203 33.1953 49.2486V41.4014Z" fill="url(#paint1_linear_61_8379)"/>
<path fill-rule="evenodd" clip-rule="evenodd" d="M33.1953 41.4014L42 42.0029V50.9717L34.2042 50.3422C33.6343 50.2962 33.1953 49.8203 33.1953 49.2486V41.4014Z" fill="url(#paint2_linear_61_8379)"/>
<mask id="mask1_61_8379" style="mask-type:luminance" maskUnits="userSpaceOnUse" x="33" y="41" width="9" height="10">
<path fill-rule="evenodd" clip-rule="evenodd" d="M33.1953 41.4014L42 42.0029V50.9717L34.2042 50.3422C33.6343 50.2962 33.1953 49.8203 33.1953 49.2486V41.4014Z" fill="white"/>
<path fill-rule="evenodd" clip-rule="evenodd" d="M33.1953 41.4014L42 42.0029V50.9717L34.2042 50.3422C33.6343 50.2962 33.1953 49.8203 33.1953 49.2486V41.4014Z" stroke="white"/>
</mask>
<g mask="url(#mask1_61_8379)">
</g>
<path fill-rule="evenodd" clip-rule="evenodd" d="M33.2093 41.3984L41.9593 42L36.4905 44.9531L29.6399 44.3965C29.0911 44.3519 28.9427 43.617 29.4312 43.363L33.2093 41.3984Z" fill="url(#paint3_linear_61_8379)"/>
<mask id="mask2_61_8379" style="mask-type:luminance" maskUnits="userSpaceOnUse" x="29" y="41" width="13" height="4">
<path fill-rule="evenodd" clip-rule="evenodd" d="M33.2093 41.3984L41.9593 42L36.4905 44.9531L29.6399 44.3965C29.0911 44.3519 28.9427 43.617 29.4312 43.363L33.2093 41.3984Z" fill="white"/>
</mask>
<g mask="url(#mask2_61_8379)">
<path opacity="0.2" fill-rule="evenodd" clip-rule="evenodd" d="M33.25 41.4014L42 42.0029V51.0811L34.2583 50.452C33.6887 50.4058 33.25 49.93 33.25 49.3585V41.4014Z" fill="url(#paint4_linear_61_8379)"/>
</g>
<path fill-rule="evenodd" clip-rule="evenodd" d="M33.1953 33.5928C33.1953 32.9628 33.7247 32.4622 34.3537 32.4974L42 32.9248V42.003L33.1953 41.4014V33.5928Z" fill="url(#paint5_linear_61_8379)"/>
<mask id="mask3_61_8379" style="mask-type:luminance" maskUnits="userSpaceOnUse" x="33" y="32" width="9" height="11">
<path fill-rule="evenodd" clip-rule="evenodd" d="M33.1953 33.5928C33.1953 32.9628 33.7247 32.4622 34.3537 32.4974L42 32.9248V42.0029L33.1953 41.4014V33.5928Z" fill="white"/>
</mask>
<g mask="url(#mask3_61_8379)">
</g>
<path fill-rule="evenodd" clip-rule="evenodd" d="M42 42.0029L50.5859 42.4951V50.3965C50.5859 51.0327 50.0467 51.5355 49.4121 51.491L42 50.9717V42.0029Z" fill="url(#paint6_linear_61_8379)"/>
<mask id="mask4_61_8379" style="mask-type:luminance" maskUnits="userSpaceOnUse" x="42" y="42" width="9" height="10">
<path fill-rule="evenodd" clip-rule="evenodd" d="M42 42.0029L50.5859 42.4951V50.3965C50.5859 51.0327 50.0467 51.5355 49.4121 51.491L42 50.9717V42.0029Z" fill="white"/>
</mask>
<g mask="url(#mask4_61_8379)">
<g opacity="0.49949" filter="url(#filter0_f_61_8379)">
<path fill-rule="evenodd" clip-rule="evenodd" d="M42.0322 50.9491L50.455 42.5967L42.0322 42.8302V50.9491Z" fill="url(#paint7_linear_61_8379)"/>
</g>
</g>
<path fill-rule="evenodd" clip-rule="evenodd" d="M36.5312 44.9531L42 42V50.9687L37.8378 53.2996C37.2527 53.6272 36.5312 53.2043 36.5312 52.5338V44.9531Z" fill="url(#paint8_linear_61_8379)"/>
<mask id="mask5_61_8379" style="mask-type:luminance" maskUnits="userSpaceOnUse" x="36" y="42" width="6" height="12">
<path fill-rule="evenodd" clip-rule="evenodd" d="M36.5312 44.9531L42 42V50.9687L37.8378 53.2996C37.2527 53.6272 36.5312 53.2043 36.5312 52.5338V44.9531Z" fill="white"/>
</mask>
<g mask="url(#mask5_61_8379)">
</g>
<g filter="url(#filter1_i_61_8379)">
<path fill-rule="evenodd" clip-rule="evenodd" d="M42 42L50.5859 42.4922L46.6228 44.9581C45.9994 45.346 45.27 45.5287 44.5373 45.4805L36.5313 44.9531L42 42Z" fill="url(#paint9_linear_61_8379)"/>
</g>
<mask id="mask6_61_8379" style="mask-type:luminance" maskUnits="userSpaceOnUse" x="36" y="42" width="15" height="4">
<path fill-rule="evenodd" clip-rule="evenodd" d="M42 42L50.5859 42.4922L46.6228 44.9581C45.9994 45.346 45.27 45.5287 44.5373 45.4805L36.5313 44.9531L42 42Z" fill="white"/>
</mask>
<g mask="url(#mask6_61_8379)">
<path opacity="0.1" fill-rule="evenodd" clip-rule="evenodd" d="M36.5312 44.9531L42 42V51.0781L37.826 53.3321C37.2412 53.6479 36.5312 53.2244 36.5312 52.5598V44.9531Z" fill="#DCC300"/>
<g opacity="0.438576" filter="url(#filter2_f_61_8379)">
<path fill-rule="evenodd" clip-rule="evenodd" d="M36.5645 44.9561L49.7495 42.5139L42.0001 42L36.5645 44.9561Z" fill="url(#paint10_linear_61_8379)"/>
</g>
</g>
<path fill-rule="evenodd" clip-rule="evenodd" d="M47.4687 39.0469L53.7495 39.346C54.287 39.3716 54.4701 40.0754 54.0132 40.3597L50.5859 42.4922L42 42L47.4687 39.0469Z" fill="url(#paint11_linear_61_8379)"/>
<path fill-rule="evenodd" clip-rule="evenodd" d="M42 32.9248L49.5516 33.3577C50.1322 33.391 50.5859 33.8715 50.5859 34.453V42.4951L42 42.0029V32.9248Z" fill="#FFFB01"/>
<path fill-rule="evenodd" clip-rule="evenodd" d="M42 32.9248L49.5516 33.3577C50.1322 33.391 50.5859 33.8715 50.5859 34.453V42.4951L42 42.0029V32.9248Z" fill="#FFFB01"/>
<g filter="url(#filter3_f_61_8379)">
<path fill-rule="evenodd" clip-rule="evenodd" d="M42.0322 33.1206L48.2307 43.0628L41.1283 41.9998V33.1206H42.0322Z" fill="url(#paint12_linear_61_8379)"/>
</g>
<path fill-rule="evenodd" clip-rule="evenodd" d="M36.5312 36.7412C36.5312 36.0763 36.9069 35.4684 37.5016 35.1711L42 32.9219V42L36.5312 44.9531V36.7412Z" fill="url(#paint13_linear_61_8379)"/>
<path fill-rule="evenodd" clip-rule="evenodd" d="M36.5312 36.7412C36.5312 36.0763 36.9069 35.4684 37.5016 35.1711L42 32.9219V42L36.5312 44.9531V36.7412Z" fill="url(#paint14_linear_61_8379)"/>
<path opacity="0.292108" fill-rule="evenodd" clip-rule="evenodd" d="M33.3735 41.5078L41.9594 42L36.4907 44.9531L29.8462 44.4876C29.2938 44.4489 29.1402 43.7091 29.6315 43.4537L33.3735 41.5078Z" fill="url(#paint15_linear_61_8379)"/>
</g>
</g>
<defs>
<filter id="filter0_f_61_8379" x="41.4358" y="42.0002" width="9.61567" height="9.54548" filterUnits="userSpaceOnUse" color-interpolation-filters="sRGB">
<feFlood flood-opacity="0" result="BackgroundImageFix"/>
<feBlend mode="normal" in="SourceGraphic" in2="BackgroundImageFix" result="shape"/>
<feGaussianBlur stdDeviation="0.298234" result="effect1_foregroundBlur_61_8379"/>
</filter>
<filter id="filter1_i_61_8379" x="36.5312" y="41.619" width="14.0547" height="3.86923" filterUnits="userSpaceOnUse" color-interpolation-filters="sRGB">
<feFlood flood-opacity="0" result="BackgroundImageFix"/>
<feBlend mode="normal" in="SourceGraphic" in2="BackgroundImageFix" result="shape"/>
<feColorMatrix in="SourceAlpha" type="matrix" values="0 0 0 0 0 0 0 0 0 0 0 0 0 0 0 0 0 0 127 0" result="hardAlpha"/>
<feOffset dy="-0.380952"/>
<feGaussianBlur stdDeviation="0.190476"/>
<feComposite in2="hardAlpha" operator="arithmetic" k2="-1" k3="1"/>
<feColorMatrix type="matrix" values="0 0 0 0 1 0 0 0 0 1 0 0 0 0 0.471334 0 0 0 0.304546 0"/>
<feBlend mode="normal" in2="shape" result="effect1_innerShadow_61_8379"/>
</filter>
<filter id="filter2_f_61_8379" x="35.9416" y="41.3772" width="14.4308" height="4.20175" filterUnits="userSpaceOnUse" color-interpolation-filters="sRGB">
<feFlood flood-opacity="0" result="BackgroundImageFix"/>
<feBlend mode="normal" in="SourceGraphic" in2="BackgroundImageFix" result="shape"/>
<feGaussianBlur stdDeviation="0.311424" result="effect1_foregroundBlur_61_8379"/>
</filter>
<filter id="filter3_f_61_8379" x="40.5054" y="32.4978" width="8.34811" height="11.1881" filterUnits="userSpaceOnUse" color-interpolation-filters="sRGB">
<feFlood flood-opacity="0" result="BackgroundImageFix"/>
<feBlend mode="normal" in="SourceGraphic" in2="BackgroundImageFix" result="shape"/>
<feGaussianBlur stdDeviation="0.311424" result="effect1_foregroundBlur_61_8379"/>
</filter>
<linearGradient id="paint0_linear_61_8379" x1="46.4312" y1="25.6215" x2="41.0651" y2="26.5961" gradientUnits="userSpaceOnUse">
<stop stop-color="#D9BE09"/>
<stop offset="1" stop-color="#FAD701"/>
</linearGradient>
<linearGradient id="paint1_linear_61_8379" x1="35.6289" y1="52.5608" x2="40.2425" y2="48.0179" gradientUnits="userSpaceOnUse">
<stop stop-color="#FBF009"/>
<stop offset="1" stop-color="#E3CD09"/>
</linearGradient>
<linearGradient id="paint2_linear_61_8379" x1="32.3616" y1="45.2758" x2="34.1596" y2="46.9382" gradientUnits="userSpaceOnUse">
<stop stop-color="#F8EF0D"/>
<stop offset="1" stop-color="#F8EF0D" stop-opacity="0.01"/>
</linearGradient>
<linearGradient id="paint3_linear_61_8379" x1="29.3577" y1="41.2057" x2="29.2493" y2="44.3544" gradientUnits="userSpaceOnUse">
<stop stop-color="#CCAF01"/>
<stop offset="1" stop-color="#F2CD01"/>
</linearGradient>
<linearGradient id="paint4_linear_61_8379" x1="35.24" y1="53.0893" x2="40.4365" y2="49.4265" gradientUnits="userSpaceOnUse">
<stop stop-color="#FFFF1C"/>
<stop offset="1" stop-color="#E9D90A"/>
</linearGradient>
<linearGradient id="paint5_linear_61_8379" x1="29.7936" y1="37.3381" x2="38.2994" y2="45.2379" gradientUnits="userSpaceOnUse">
<stop stop-color="#FBF909"/>
<stop offset="1" stop-color="#FFFF10"/>
</linearGradient>
<linearGradient id="paint6_linear_61_8379" x1="38.5505" y1="47.6095" x2="47.7951" y2="54.3295" gradientUnits="userSpaceOnUse">
<stop stop-color="#ECD401"/>
<stop offset="1" stop-color="#FAE609"/>
</linearGradient>
<linearGradient id="paint7_linear_61_8379" x1="37.2843" y1="47.6744" x2="45.0278" y2="58.3311" gradientUnits="userSpaceOnUse">
<stop stop-color="#DDC200"/>
<stop offset="1" stop-color="#FBF017" stop-opacity="0.01"/>
</linearGradient>
<linearGradient id="paint8_linear_61_8379" x1="41.8662" y1="44.8531" x2="39.1117" y2="44.9823" gradientUnits="userSpaceOnUse">
<stop stop-color="#C0A800"/>
<stop offset="1" stop-color="#D4BF09"/>
</linearGradient>
<linearGradient id="paint9_linear_61_8379" x1="35.6046" y1="42.115" x2="35.6619" y2="45.6174" gradientUnits="userSpaceOnUse">
<stop stop-color="#E1C900"/>
<stop offset="1" stop-color="#FFF200"/>
</linearGradient>
<linearGradient id="paint10_linear_61_8379" x1="51.6677" y1="44.2183" x2="51.6291" y2="40.1174" gradientUnits="userSpaceOnUse">
<stop stop-color="#FFC000" stop-opacity="0.597996"/>
<stop offset="1" stop-color="#E6C501"/>
</linearGradient>
<linearGradient id="paint11_linear_61_8379" x1="52.0663" y1="38.5405" x2="50.4231" y2="42.2051" gradientUnits="userSpaceOnUse">
<stop stop-color="#D9BE09"/>
<stop offset="1" stop-color="#FAD701"/>
</linearGradient>
<linearGradient id="paint12_linear_61_8379" x1="38.6206" y1="38.4283" x2="43.8907" y2="43.7452" gradientUnits="userSpaceOnUse">
<stop stop-color="#FFEC01"/>
<stop offset="1" stop-color="#FBF017" stop-opacity="0.01"/>
</linearGradient>
<linearGradient id="paint13_linear_61_8379" x1="35.452" y1="41.0436" x2="41.7742" y2="42.6736" gradientUnits="userSpaceOnUse">
<stop stop-color="#FFE001"/>
<stop offset="1" stop-color="#F8D401"/>
</linearGradient>
<linearGradient id="paint14_linear_61_8379" x1="37.8201" y1="30.4507" x2="30.5186" y2="34.756" gradientUnits="userSpaceOnUse">
<stop stop-color="#FFE000" stop-opacity="0.01"/>
<stop offset="1" stop-color="#FFE000"/>
</linearGradient>
<linearGradient id="paint15_linear_61_8379" x1="34.0101" y1="41.5473" x2="33.7867" y2="44.7489" gradientUnits="userSpaceOnUse">
<stop stop-color="#D6C001"/>
<stop offset="1" stop-color="#FFE100"/>
</linearGradient>
<clipPath id="clip0_61_8379">
<rect width="56" height="56" fill="white"/>
</clipPath>
</defs>
</svg>
