<svg width="32" height="20" viewBox="0 0 32 20" fill="none" xmlns="http://www.w3.org/2000/svg">
<rect width="32" height="20" rx="4" fill="#4F5963" fill-opacity="0.6"/>
<path fill-rule="evenodd" clip-rule="evenodd" d="M15.5 2.5C14.8688 2.5 14.3571 3.0166 14.3571 3.65385V4.23077V5.96154V14.0385V15.7692V16.3462C14.3571 16.9834 14.8688 17.5 15.5 17.5C16.1312 17.5 16.6429 16.9834 16.6429 16.3462V15.7692H17.7857C20.4795 15.7692 21.8263 15.7692 22.6632 14.9243C23.5 14.0795 23.5 12.7196 23.5 10C23.5 7.28036 23.5 5.92054 22.6632 5.07565C21.8263 4.23077 20.4795 4.23077 17.7857 4.23077H16.6429V3.65385C16.6429 3.01659 16.1312 2.5 15.5 2.5ZM8.33684 5.07565C9.11228 4.29275 10.3257 4.23532 12.6429 4.2311V5.96154H11.5C10.4225 5.96154 9.88376 5.96154 9.54902 6.29949C9.21429 6.63745 9.21429 7.18137 9.21429 8.26923V11.7308C9.21429 12.8186 9.21429 13.3626 9.54902 13.7005C9.88376 14.0385 10.4225 14.0385 11.5 14.0385H12.6429V15.7689C10.3257 15.7647 9.11228 15.7072 8.33684 14.9243C7.5 14.0795 7.5 12.7196 7.5 10C7.5 7.28036 7.5 5.92054 8.33684 5.07565Z" fill="white"/>
</svg>
