<svg width="122" height="184" viewBox="0 0 122 184" fill="none" xmlns="http://www.w3.org/2000/svg">
<rect width="122" height="184" rx="8" fill="#1D232A"/>
<g opacity="0.9">
<path fill-rule="evenodd" clip-rule="evenodd" d="M13.4142 159L11 161.414L11 166.586L13.4142 169H18.5858L21 166.586V161.414L18.5858 159L13.4142 159ZM10.2929 160.707L12.7071 158.293C12.8946 158.105 13.149 158 13.4142 158H18.5858C18.851 158 19.1054 158.105 19.2929 158.293L21.7071 160.707C21.8946 160.895 22 161.149 22 161.414V166.586C22 166.851 21.8946 167.105 21.7071 167.293L19.2929 169.707C19.1054 169.895 18.851 170 18.5858 170H13.4142C13.149 170 12.8946 169.895 12.7071 169.707L10.2929 167.293C10.1054 167.105 10 166.851 10 166.586V161.414C10 161.149 10.1054 160.895 10.2929 160.707ZM15.1644 161.986C15.0783 161.47 15.4765 161 16 161C16.5235 161 16.9217 161.47 16.8356 161.986L16.5822 163.507C16.5348 163.791 16.2885 164 16 164C15.7115 164 15.4652 163.791 15.4178 163.507L15.1644 161.986ZM16 167C16.5523 167 17 166.552 17 166C17 165.448 16.5523 165 16 165C15.4477 165 15 165.448 15 166C15 166.552 15.4477 167 16 167Z" fill="#EA5563"/>
<path d="M31.4727 168H29.7031V159.545H35.2402V161.004H31.4727V163.271H34.9121V164.672H31.4727V168ZM38.2988 166.863C39.043 166.863 39.6582 166.377 39.6582 165.697V165.24L38.334 165.322C37.6953 165.369 37.332 165.656 37.332 166.102C37.332 166.57 37.7188 166.863 38.2988 166.863ZM37.7363 168.1C36.541 168.1 35.6328 167.326 35.6328 166.195C35.6328 165.053 36.5117 164.391 38.0762 164.297L39.6582 164.203V163.787C39.6582 163.201 39.248 162.861 38.6035 162.861C37.9648 162.861 37.5605 163.178 37.4785 163.641H35.9141C35.9785 162.422 37.0156 161.584 38.6797 161.584C40.291 161.584 41.3398 162.416 41.3398 163.682V168H39.6875V167.039H39.6523C39.3008 167.707 38.5215 168.1 37.7363 168.1ZM42.4766 168V161.719H44.1875V168H42.4766ZM43.3262 160.869C42.8281 160.869 42.4355 160.471 42.4355 159.99C42.4355 159.504 42.8281 159.111 43.3262 159.111C43.8242 159.111 44.2168 159.504 44.2168 159.99C44.2168 160.471 43.8242 160.869 43.3262 160.869ZM45.3711 168V159.545H47.082V168H45.3711ZM51.0547 162.85C50.3047 162.85 49.7656 163.418 49.707 164.203H52.373C52.3379 163.4 51.8164 162.85 51.0547 162.85ZM52.3965 166.078H53.9668C53.7793 167.309 52.6543 168.135 51.1016 168.135C49.168 168.135 48.0078 166.898 48.0078 164.889C48.0078 162.885 49.1797 161.584 51.0371 161.584C52.8652 161.584 54.0195 162.82 54.0195 164.73V165.252H49.6895V165.357C49.6895 166.254 50.2578 166.869 51.1309 166.869C51.7578 166.869 52.2383 166.559 52.3965 166.078ZM57.2363 168.1C55.666 168.1 54.6758 166.857 54.6758 164.848C54.6758 162.855 55.6719 161.619 57.248 161.619C58.1562 161.619 58.8594 162.1 59.1641 162.797H59.1992V159.545H60.9102V168H59.2227V166.922H59.1934C58.8887 167.613 58.1621 168.1 57.2363 168.1ZM57.8164 162.99C56.9551 162.99 56.4277 163.711 56.4277 164.859C56.4277 166.014 56.9551 166.723 57.8164 166.723C58.666 166.723 59.2109 166.008 59.2109 164.859C59.2109 163.717 58.666 162.99 57.8164 162.99Z" fill="white"/>
</g>
</svg>
