<svg width="144" height="216" viewBox="0 0 144 216" fill="none" xmlns="http://www.w3.org/2000/svg">
<rect width="144" height="216" rx="8" fill="#1D232A"/>
<g opacity="0.9">
<path fill-rule="evenodd" clip-rule="evenodd" d="M13.4142 195L11 197.414L11 202.586L13.4142 205H18.5858L21 202.586V197.414L18.5858 195L13.4142 195ZM10.2929 196.707L12.7071 194.293C12.8946 194.105 13.149 194 13.4142 194H18.5858C18.851 194 19.1054 194.105 19.2929 194.293L21.7071 196.707C21.8946 196.895 22 197.149 22 197.414V202.586C22 202.851 21.8946 203.105 21.7071 203.293L19.2929 205.707C19.1054 205.895 18.851 206 18.5858 206H13.4142C13.149 206 12.8946 205.895 12.7071 205.707L10.2929 203.293C10.1054 203.105 10 202.851 10 202.586V197.414C10 197.149 10.1054 196.895 10.2929 196.707ZM15.1644 197.986C15.0783 197.47 15.4765 197 16 197C16.5235 197 16.9217 197.47 16.8356 197.986L16.5822 199.507C16.5348 199.791 16.2885 200 16 200C15.7115 200 15.4652 199.791 15.4178 199.507L15.1644 197.986ZM16 203C16.5523 203 17 202.552 17 202C17 201.448 16.5523 201 16 201C15.4477 201 15 201.448 15 202C15 202.552 15.4477 203 16 203Z" fill="#EA5563"/>
<path d="M31.4727 204H29.7031V195.545H35.2402V197.004H31.4727V199.271H34.9121V200.672H31.4727V204ZM38.2988 202.863C39.043 202.863 39.6582 202.377 39.6582 201.697V201.24L38.334 201.322C37.6953 201.369 37.332 201.656 37.332 202.102C37.332 202.57 37.7188 202.863 38.2988 202.863ZM37.7363 204.1C36.541 204.1 35.6328 203.326 35.6328 202.195C35.6328 201.053 36.5117 200.391 38.0762 200.297L39.6582 200.203V199.787C39.6582 199.201 39.248 198.861 38.6035 198.861C37.9648 198.861 37.5605 199.178 37.4785 199.641H35.9141C35.9785 198.422 37.0156 197.584 38.6797 197.584C40.291 197.584 41.3398 198.416 41.3398 199.682V204H39.6875V203.039H39.6523C39.3008 203.707 38.5215 204.1 37.7363 204.1ZM42.4766 204V197.719H44.1875V204H42.4766ZM43.3262 196.869C42.8281 196.869 42.4355 196.471 42.4355 195.99C42.4355 195.504 42.8281 195.111 43.3262 195.111C43.8242 195.111 44.2168 195.504 44.2168 195.99C44.2168 196.471 43.8242 196.869 43.3262 196.869ZM45.3711 204V195.545H47.082V204H45.3711ZM51.0547 198.85C50.3047 198.85 49.7656 199.418 49.707 200.203H52.373C52.3379 199.4 51.8164 198.85 51.0547 198.85ZM52.3965 202.078H53.9668C53.7793 203.309 52.6543 204.135 51.1016 204.135C49.168 204.135 48.0078 202.898 48.0078 200.889C48.0078 198.885 49.1797 197.584 51.0371 197.584C52.8652 197.584 54.0195 198.82 54.0195 200.73V201.252H49.6895V201.357C49.6895 202.254 50.2578 202.869 51.1309 202.869C51.7578 202.869 52.2383 202.559 52.3965 202.078ZM57.2363 204.1C55.666 204.1 54.6758 202.857 54.6758 200.848C54.6758 198.855 55.6719 197.619 57.248 197.619C58.1562 197.619 58.8594 198.1 59.1641 198.797H59.1992V195.545H60.9102V204H59.2227V202.922H59.1934C58.8887 203.613 58.1621 204.1 57.2363 204.1ZM57.8164 198.99C56.9551 198.99 56.4277 199.711 56.4277 200.859C56.4277 202.014 56.9551 202.723 57.8164 202.723C58.666 202.723 59.2109 202.008 59.2109 200.859C59.2109 199.717 58.666 198.99 57.8164 198.99Z" fill="white"/>
</g>
</svg>
