<svg width="17" height="16" viewBox="0 0 17 16" fill="none" xmlns="http://www.w3.org/2000/svg">
<path fill-rule="evenodd" clip-rule="evenodd" d="M3.02539 9.5C3.02539 8.67157 3.69696 8 4.52539 8H5.02539V7H4.52539C3.14468 7 2.02539 8.11929 2.02539 9.5V11.5C2.02539 12.8807 3.14468 14 4.52539 14H11.5254C12.9061 14 14.0254 12.8807 14.0254 11.5V9.5C14.0254 8.11929 12.9061 7 11.5254 7H11.0254V8H11.5254C12.3538 8 13.0254 8.67157 13.0254 9.5V11.5C13.0254 12.3284 12.3538 13 11.5254 13H4.52539C3.69696 13 3.02539 12.3284 3.02539 11.5V9.5ZM7.02539 11L7.02539 5.17428L6.72179 5.4673C6.41385 5.76451 5.92586 5.76451 5.61791 5.4673C5.29413 5.1548 5.29413 4.63606 5.61791 4.32356L7.33094 2.67025C7.71839 2.2963 8.33239 2.2963 8.71985 2.67025L10.4329 4.32356C10.7567 4.63606 10.7567 5.1548 10.4329 5.4673C10.1249 5.76451 9.63693 5.76451 9.32899 5.4673L9.02539 5.17428L9.02539 11C9.02539 11.5523 8.57768 12 8.02539 12C7.47311 12 7.02539 11.5523 7.02539 11Z" fill="#C3D2DF"/>
</svg>
