<svg width="16" height="16" viewBox="0 0 16 16" fill="none" xmlns="http://www.w3.org/2000/svg">
<path fill-rule="evenodd" clip-rule="evenodd" d="M4 3H12C12.5523 3 13 3.44772 13 4V5.60374C13.3351 5.55985 13.669 5.52851 14 5.5124V4C14 2.89543 13.1046 2 12 2H4C2.89543 2 2 2.89543 2 4V8.48139C2.32127 8.45822 2.65432 8.41401 3 8.35194V4C3 3.44772 3.44772 3 4 3ZM3.07719 12.3859C2.73613 12.4325 2.39621 12.4663 2.0591 12.4846C2.27571 13.355 3.06253 14 4 14H12C13.1046 14 14 13.1046 14 12V9.51861C13.6787 9.54178 13.3457 9.58599 13 9.64806V12C13 12.5523 12.5523 13 12 13H4C3.58451 13 3.22821 12.7466 3.07719 12.3859Z" fill="white"/>
<path fill-rule="evenodd" clip-rule="evenodd" d="M7 6C7 6.55228 6.55228 7 6 7C5.44772 7 5 6.55228 5 6C5 5.44772 5.44772 5 6 5C6.55228 5 7 5.44772 7 6ZM8 6C8 7.10457 7.10457 8 6 8C4.89543 8 4 7.10457 4 6C4 4.89543 4.89543 4 6 4C7.10457 4 8 4.89543 8 6ZM8.10576 9.4918L8.10576 9.49179L8.15811 9.47434C10.4315 8.71654 12.5978 8 14.5 8C14.7761 8 15 7.77614 15 7.5C15 7.22386 14.7761 7 14.5 7C12.4186 7 10.105 7.77123 7.89423 8.50821L7.84189 8.52566C5.56849 9.28346 3.40216 10 1.5 10C1.22386 10 1 10.2239 1 10.5C1 10.7761 1.22386 11 1.5 11C3.5814 11 5.89495 10.2288 8.10576 9.4918Z" fill="url(#paint0_linear_1463_828)"/>
<defs>
<linearGradient id="paint0_linear_1463_828" x1="15" y1="7.29412" x2="1" y2="7.29412" gradientUnits="userSpaceOnUse">
<stop stop-color="#E48DC2"/>
<stop offset="0.333333" stop-color="#FFB36C"/>
<stop offset="0.666667" stop-color="#FCE94E"/>
<stop offset="1" stop-color="#B8F3E0"/>
</linearGradient>
</defs>
</svg>
