<svg width="16" height="16" viewBox="0 0 16 16" fill="none" xmlns="http://www.w3.org/2000/svg">
<path fill-rule="evenodd" clip-rule="evenodd" d="M8.58005 2H7.41995C6.23671 2 5.31214 3.02164 5.42988 4.19901L5.45758 4.47601C6.24566 4.16867 7.10313 4 8 4C8.89687 4 9.75434 4.16867 10.5424 4.47601L10.5701 4.19901C10.6879 3.02164 9.76329 2 8.58005 2ZM3.4398 4.39802L3.5589 5.58895C1.99653 6.87276 1 8.82 1 11C1 11.5628 1.06642 12.1101 1.19184 12.6344C1.57207 14.2241 3.22875 15 4.86326 15H7.83333C7.27521 13.8597 7 12.3818 7 11.5978C7 9.94221 8.34322 8.59775 10 8.59775C10.0592 8.59775 10.118 8.59951 10.1763 8.60296C10.209 8.39062 10.2679 8.19999 10.3401 8.03393C10.4262 7.83569 10.5271 7.68129 10.6123 7.57083C10.6552 7.51536 10.6948 7.47001 10.7278 7.43472C10.7444 7.41704 10.7594 7.40176 10.7726 7.38889L10.7908 7.37133L10.7988 7.36387L10.8025 7.36046L10.8042 7.35884L10.8051 7.35805C10.8055 7.35766 10.806 7.35727 11.4786 8.09724C11.7151 7.1256 11.7156 7.12573 11.7161 7.12586L11.7172 7.12613L11.7195 7.12668L11.7241 7.12785L11.7343 7.13047L11.7579 7.13691C11.7751 7.14176 11.7951 7.14776 11.8176 7.1551C11.8625 7.16974 11.9181 7.18991 11.9814 7.21716C12.1074 7.27136 12.2688 7.35559 12.4396 7.48363C12.7627 7.72587 13.0982 8.1107 13.2886 8.68446C13.5155 8.62807 13.7536 8.59775 14 8.59775C14.2049 8.59775 14.4051 8.61834 14.5985 8.65756C14.1685 7.44655 13.4147 6.38894 12.4411 5.58895L12.5602 4.39802C12.7957 2.04327 10.9465 0 8.58005 0H7.41995C5.05346 0 3.20433 2.04327 3.4398 4.39802ZM11.4786 8.09724L10.806 7.35727L11.199 7L11.7151 7.1256L11.4786 8.09724Z" fill="#D5DFEA"/>
<g clip-path="url(#clip0_3451_533)">
<path fill-rule="evenodd" clip-rule="evenodd" d="M11.1592 8.02257C10.7666 8.13468 10.6046 8.60412 10.8365 8.9402C11.087 9.30313 11.3617 9.71908 11.4688 9.94443C11.5146 10.0408 11.5567 10.1518 11.5945 10.2667C11.0355 10.0848 10.5554 10.0028 10.1467 10.0001C9.52147 9.99594 9.06129 10.1745 8.72761 10.4596C8.13439 10.9666 7.91093 11.8732 8.0316 12.8232C8.15227 13.7732 8.61646 14.7502 9.2986 15.3618C9.71553 15.7357 10.6487 16.3422 11.6395 15.7555C11.8592 15.6254 12.1408 15.6254 12.3605 15.7555C13.3519 16.3425 14.2875 15.7357 14.7045 15.3619C15.3866 14.7502 15.8475 13.7733 15.9681 12.8232C16.0888 11.8732 15.8687 10.9667 15.2755 10.4597C14.7306 9.994 13.8447 9.8123 12.462 10.2508C12.3485 9.82266 12.2084 9.29878 12.1356 9.04374C12.0673 8.80455 11.9273 8.51456 11.8058 8.28651C11.6823 8.05465 11.4119 7.95043 11.1592 8.02257Z" fill="#3BB3F7"/>
</g>
<defs>
<clipPath id="clip0_3451_533">
<rect width="8" height="8" fill="white" transform="translate(8 8)"/>
</clipPath>
</defs>
</svg>
