<svg width="16" height="16" viewBox="0 0 16 16" fill="none" xmlns="http://www.w3.org/2000/svg">
<path fill-rule="evenodd" clip-rule="evenodd" d="M8 2C8.18939 2 8.36252 2.107 8.44722 2.27639L9.80902 5H12.5C12.7294 5 12.9294 5.15615 12.9851 5.37873L13.4851 7.37873L14.2351 10.3787L14.9851 13.3787C15.0224 13.5281 14.9889 13.6863 14.8941 13.8077C14.7994 13.9291 14.654 14 14.5 14H1.5C1.34604 14 1.20066 13.9291 1.1059 13.8077C1.01115 13.6863 0.977591 13.5281 1.01493 13.3787L1.75968 10.3998L2.50442 7.42078L3.01493 5.37873C3.07058 5.15615 3.27057 5 3.5 5H6.19099L7.55279 2.27639C7.63749 2.107 7.81062 2 8 2ZM6.94272 5.73261C6.94596 5.72645 6.94908 5.72022 6.95206 5.71392L8 3.61803L9.04794 5.71391C9.05093 5.72022 9.05405 5.72645 9.0573 5.73262L10.0528 7.72361C10.1375 7.893 10.3106 8 10.5 8H12.6096L13.1096 10H10.809L9.94722 8.27639C9.86252 8.107 9.68939 8 9.5 8H7.5C7.31062 8 7.13749 8.107 7.05279 8.27639L6.19023 10.0015L2.88593 10.0178L3.38151 8.03555L5.50838 7.99993C5.69472 7.99681 5.86387 7.8903 5.94722 7.72361L6.94272 5.73261ZM5.69099 6H3.89039L3.63259 7.03121L5.18841 7.00515L5.69099 6ZM2.63562 11.0191L2.14039 13H13.8596L13.3596 11H10.5C10.3106 11 10.1375 10.893 10.0528 10.7236L9.19099 9H7.80902L6.94722 10.7236C6.86292 10.8922 6.69097 10.9991 6.50247 11L2.63562 11.0191ZM12.3596 7L12.1096 6H10.309L10.809 7H12.3596Z" fill="#4CACF8"/>
</svg>
