<svg width="32" height="32" viewBox="0 0 32 32" fill="none" xmlns="http://www.w3.org/2000/svg">
<rect width="32" height="32" rx="8" fill="#3D434D"/>
<rect width="32" height="32" rx="4" fill="#3D434D"/>
<rect width="32" height="32" rx="4" fill="#EA5563"/>
<path d="M19 9C20.1046 9 21 9.89543 21 11V12H22V13H21V21C21 22.0357 20.2128 22.887 19.2041 22.9893L19 23H13L12.7959 22.9893C11.8543 22.8938 11.1062 22.1457 11.0107 21.2041L11 21V13H10V12H11V11C11 9.89543 11.8954 9 13 9H19ZM12 21C12 21.5523 12.4477 22 13 22H19C19.5523 22 20 21.5523 20 21V13H12V21ZM15 21H14V14H15V21ZM18 21H17V14H18V21ZM13 10C12.4477 10 12 10.4477 12 11V12H20V11C20 10.4477 19.5523 10 19 10H13Z" fill="white"/>
</svg>
