<svg width="16" height="16" viewBox="0 0 16 16" fill="none" xmlns="http://www.w3.org/2000/svg">
<path d="M3.802 13.8069C3.66863 13.9335 3.50192 14.0002 3.32854 14.0002C3.15516 14.0002 2.99511 13.9335 2.86174 13.8002C2.60167 13.5402 2.60167 13.1202 2.86174 12.8602L7.60973 8.11353C7.67641 8.05353 7.67641 7.94687 7.60973 7.8802L2.86174 3.13354C2.60167 2.87354 2.60167 2.45354 2.86174 2.19354C3.12181 1.93354 3.54193 1.93354 3.802 2.19354L9.13682 7.53354C9.39689 7.79354 9.39689 8.21353 9.13682 8.47354L3.802 13.8069Z" fill="#C3D2DF"/>
<path d="M9.13682 13.8069C9.00345 13.9335 8.83673 14.0002 8.66335 14.0002C8.48997 14.0002 8.32993 13.9335 8.19656 13.8002C7.93648 13.5402 7.93648 13.1202 8.19656 12.8602L12.9445 8.11353C13.0112 8.05353 13.0112 7.94687 12.9445 7.8802L8.19656 3.13354C7.93648 2.87354 7.93648 2.45354 8.19656 2.19354C8.45663 1.93354 8.87675 1.93354 9.13682 2.19354L14.4716 7.53354C14.7317 7.79354 14.7317 8.21353 14.4716 8.47354L9.13682 13.8069Z" fill="#C3D2DF"/>
</svg>
