<svg width="12" height="12" viewBox="0 0 12 12" fill="none" xmlns="http://www.w3.org/2000/svg">
<path d="M6 0C6.36667 0 6.66699 0.300326 6.66699 0.666992V5.33301H11.333C11.6997 5.33301 12 5.63333 12 6C12 6.36667 11.6997 6.66699 11.333 6.66699H6.66699V11.333C6.66699 11.6997 6.36667 12 6 12C5.63333 12 5.33301 11.6997 5.33301 11.333V6.66699H0.666992C0.300326 6.66699 0 6.36667 0 6C9.75356e-08 5.63333 0.300326 5.33301 0.666992 5.33301H5.33301V0.666992C5.33301 0.300326 5.63333 9.75349e-08 6 0Z" fill="white"/>
</svg>
