<svg width="16" height="16" viewBox="0 0 16 16" fill="none" xmlns="http://www.w3.org/2000/svg">
<path fill-rule="evenodd" clip-rule="evenodd" d="M12.5815 11.8744C13.4664 10.8291 14 9.47685 14 8C14 4.68629 11.3137 2 8 2C4.68629 2 2 4.68629 2 8C2 9.47685 2.53358 10.8291 3.41847 11.8744L4.23223 11.0607C5.23151 10.0614 6.58681 9.5 8 9.5C9.41319 9.5 10.7685 10.0614 11.7678 11.0607L12.5815 11.8744ZM11.8744 12.5815L11.0607 11.7678C10.2489 10.956 9.14797 10.5 8 10.5C6.85203 10.5 5.75108 10.956 4.93934 11.7678L4.12558 12.5815C5.17092 13.4664 6.52315 14 8 14C9.47685 14 10.8291 13.4664 11.8744 12.5815ZM8 15C11.866 15 15 11.866 15 8C15 4.13401 11.866 1 8 1C4.13401 1 1 4.13401 1 8C1 11.866 4.13401 15 8 15ZM8 8C9.10457 8 10 7.10457 10 6C10 4.89543 9.10457 4 8 4C6.89543 4 6 4.89543 6 6C6 7.10457 6.89543 8 8 8ZM8 9C9.65685 9 11 7.65685 11 6C11 4.34315 9.65685 3 8 3C6.34315 3 5 4.34315 5 6C5 7.65685 6.34315 9 8 9Z" fill="white"/>
</svg>
