<svg width="34" height="30" viewBox="0 0 34 30" fill="none" xmlns="http://www.w3.org/2000/svg">
<path d="M17.0136 18.0058C17.8386 18.0058 18.5136 17.3311 18.5136 16.5065V10.4945C18.5136 9.66993 17.8386 8.99527 17.0136 8.99527C16.1886 8.99527 15.5136 9.66993 15.5136 10.4945V16.5065C15.5136 17.3311 16.1886 18.0058 17.0136 18.0058Z" fill="#9A9B9D"/>
<path d="M32.7489 20.9295C30.5139 16.8666 26.0289 9.38531 23.0589 4.43778L22.1889 2.98351C21.0639 1.12444 19.1439 0 17.0139 0C14.8989 0 12.9639 1.10945 11.8389 2.98351L11.2539 3.95802C8.38891 8.74063 3.57391 16.7316 1.26391 20.9445C0.213911 22.8636 0.243911 25.1274 1.36891 27.0015C2.47891 28.8756 4.44391 30 6.61891 30H27.3939C29.5689 30 31.5339 28.8756 32.6439 27.0015C33.7539 25.1274 33.7989 22.8486 32.7489 20.9445V20.9295ZM30.0789 25.4573C29.5089 26.4168 28.5189 26.9865 27.4089 26.9865H6.63391C5.52391 26.9865 4.53391 26.4168 3.96391 25.4573C3.39391 24.4978 3.37891 23.3433 3.91891 22.3688C6.19891 18.2159 10.9839 10.2549 13.8489 5.48726L14.4339 4.51274C15.0189 3.53823 15.9639 2.98351 17.0289 2.98351C18.0939 2.98351 19.0389 3.53823 19.6239 4.49775L20.4939 5.95202C23.4489 10.8846 27.9189 18.3358 30.1239 22.3388C30.6639 23.3133 30.6489 24.4978 30.0789 25.4573Z" fill="#9A9B9D"/>
<path d="M17.0139 23.2234C18.0494 23.2234 18.8889 22.3843 18.8889 21.3493C18.8889 20.3143 18.0494 19.4753 17.0139 19.4753C15.9784 19.4753 15.1389 20.3143 15.1389 21.3493C15.1389 22.3843 15.9784 23.2234 17.0139 23.2234Z" fill="#9A9B9D"/>
</svg>
