<svg width="16" height="16" viewBox="0 0 16 16" fill="none" xmlns="http://www.w3.org/2000/svg">
<path fill-rule="evenodd" clip-rule="evenodd" d="M2.04389 2.29517C2.12455 2.11556 2.30311 2 2.50001 2H13.5C13.6969 2 13.8755 2.11556 13.9561 2.29517C14.0368 2.47479 14.0045 2.68502 13.8737 2.83218L10 7.1901V10.9648C10 11.4663 9.74936 11.9347 9.33206 12.2129L6.77736 13.916C6.62393 14.0183 6.42666 14.0278 6.26408 13.9408C6.1015 13.8538 6.00001 13.6844 6.00001 13.5V7.1901L2.1263 2.83218C1.99549 2.68502 1.96323 2.47479 2.04389 2.29517ZM3.61343 3L6.87371 6.66782C6.95507 6.75934 7.00001 6.87754 7.00001 7V12.5657L8.77736 11.3808C8.91646 11.2881 9.00001 11.132 9.00001 10.9648V7C9.00001 6.87754 9.04495 6.75934 9.1263 6.66782L12.3866 3H3.61343Z" fill="#C3D2DF"/>
</svg>
