<svg width="64" height="64" viewBox="0 0 16 16" fill="none" xmlns="http://www.w3.org/2000/svg">
<path fill-rule="evenodd" clip-rule="evenodd" d="M12 3H4C3.44772 3 3 3.44772 3 4V10C4.86794 10 6.27045 9.30576 7.77639 8.55279L7.80551 8.53823C9.29122 7.79533 10.8818 7 13 7V4C13 3.44772 12.5523 3 12 3ZM13 8C11.1321 8 9.72955 8.69424 8.22361 9.44721L8.19449 9.46177C6.70878 10.2047 5.11822 11 3 11V12C3 12.5523 3.44772 13 4 13H12C12.5523 13 13 12.5523 13 12V8ZM4 2C2.89543 2 2 2.89543 2 4V12C2 13.1046 2.89543 14 4 14H12C13.1046 14 14 13.1046 14 12V4C14 2.89543 13.1046 2 12 2H4ZM6 7C6.55228 7 7 6.55228 7 6C7 5.44772 6.55228 5 6 5C5.44772 5 5 5.44772 5 6C5 6.55228 5.44772 7 6 7ZM6 8C7.10457 8 8 7.10457 8 6C8 4.89543 7.10457 4 6 4C4.89543 4 4 4.89543 4 6C4 7.10457 4.89543 8 6 8Z" fill="#4CACF8"/>
</svg>
