<svg width="93" height="93" viewBox="0 0 93 93" fill="none" xmlns="http://www.w3.org/2000/svg">
<rect width="93" height="93" rx="4" fill="#171B1F" fill-opacity="0.4"/>
<path fill-rule="evenodd" clip-rule="evenodd" d="M40.75 48.875C40.75 47.8395 41.5895 47 42.625 47H43.25V45.75H42.625C40.8991 45.75 39.5 47.1491 39.5 48.875V51.375C39.5 53.1009 40.8991 54.5 42.625 54.5H51.375C53.1009 54.5 54.5 53.1009 54.5 51.375V48.875C54.5 47.1491 53.1009 45.75 51.375 45.75H50.75V47H51.375C52.4105 47 53.25 47.8395 53.25 48.875V51.375C53.25 52.4105 52.4105 53.25 51.375 53.25H42.625C41.5895 53.25 40.75 52.4105 40.75 51.375V48.875ZM47 50.75C47.6904 50.75 48.25 50.1904 48.25 49.5V43.4679L48.6295 43.8341C49.0144 44.2056 49.6244 44.2056 50.0093 43.8341C50.4141 43.4435 50.4141 42.7951 50.0093 42.4045L47 39.5L43.9907 42.4045C43.5859 42.7951 43.5859 43.4435 43.9907 43.8341C44.3756 44.2056 44.9856 44.2056 45.3705 43.8341L45.75 43.4679V49.5C45.75 50.1904 46.3096 50.75 47 50.75Z" fill="#C3D2DF"/>
</svg>
