<svg width="16" height="16" viewBox="0 0 16 16" fill="none" xmlns="http://www.w3.org/2000/svg">
<path fill-rule="evenodd" clip-rule="evenodd" d="M12 5V3C12 2.44772 11.5523 2 11 2H5C4.447 2 4 2.44733 4 2.9989V13.0035C4 13.5535 4.44542 14 5 14V15C3.89543 15 3 14.1081 3 13.0035V2.9989C3 1.89433 3.89543 1 5 1H11C12.1046 1 13 1.89543 13 3V5H12ZM9 8C8.44772 8 8 8.44772 8 9V13C8 13.5523 8.44772 14 9 14C9.55228 14 10 13.5523 10 13V9C10 8.44772 9.55228 8 9 8ZM7 9C7 7.89543 7.89543 7 9 7C10.1046 7 11 7.89543 11 9V13C11 14.1046 10.1046 15 9 15C7.89543 15 7 14.1046 7 13V9ZM15 7.5C15 7.29777 14.8782 7.11545 14.6913 7.03806C14.5045 6.96067 14.2894 7.00345 14.1464 7.14645L12.1464 9.14645C11.9512 9.34171 11.9512 9.65829 12.1464 9.85355C12.3417 10.0488 12.6583 10.0488 12.8536 9.85355L14 8.70711V14.5C14 14.7761 14.2239 15 14.5 15C14.7761 15 15 14.7761 15 14.5V7.5Z" fill="white"/>
</svg>
