<svg width="16" height="16" viewBox="0 0 16 16" fill="none" xmlns="http://www.w3.org/2000/svg">
<path fill-rule="evenodd" clip-rule="evenodd" d="M13 14C13.5523 14 14 13.5523 14 13V3C14 2.44772 13.5523 2 13 2H3C2.447 2 2 2.44733 2 2.9989V13.0035C2 13.5535 2.44542 14 3 14H13ZM15 3V13C15 14.1046 14.1046 15 13 15H3C1.89543 15 1 14.1081 1 13.0035V2.9989C1 1.89433 1.89543 1 3 1H13C14.1046 1 15 1.89543 15 3ZM8.5 6C8.77614 6 9 6.22386 9 6.5V11C9 12.1046 8.10457 13 7 13C5.89543 13 5 12.1046 5 11V10.5C5 10.2239 5.22386 10 5.5 10C5.77614 10 6 10.2239 6 10.5V11C6 11.5523 6.44772 12 7 12C7.55228 12 8 11.5523 8 11V6.5C8 6.22386 8.22386 6 8.5 6ZM12 6C10.8954 6 10 6.89543 10 8V8.5C10 9.32843 10.6716 10 11.5 10C11.7761 10 12 10.2239 12 10.5V11C12 11.5523 11.5523 12 11 12H10.5C10.2239 12 10 12.2239 10 12.5C10 12.7761 10.2239 13 10.5 13H11C12.1046 13 13 12.1046 13 11V10.5C13 9.67157 12.3284 9 11.5 9C11.2239 9 11 8.77614 11 8.5V8C11 7.44772 11.4477 7 12 7H12.5C12.7761 7 13 6.77614 13 6.5C13 6.22386 12.7761 6 12.5 6H12Z" fill="#FCE94E"/>
</svg>
