<svg width="16" height="16" viewBox="0 0 16 16" fill="none" xmlns="http://www.w3.org/2000/svg">
<path fill-rule="evenodd" clip-rule="evenodd" d="M5 2H11C11.5523 2 12 2.44772 12 3V5H13V3C13 1.89543 12.1046 1 11 1H5C3.89543 1 3 1.89543 3 3V13C3 14.1046 3.89543 15 5 15V14C4.44772 14 4 13.5523 4 13V3C4 2.44772 4.44772 2 5 2ZM6 7.5C6 6.67157 6.67157 6 7.5 6H8.5C8.77614 6 9 6.22386 9 6.5C9 6.77614 8.77614 7 8.5 7H7.5C7.22386 7 7 7.22386 7 7.5V9.5C7 9.63261 6.94732 9.75978 6.85355 9.85355L6.20711 10.5L6.85355 11.1464C6.94732 11.2402 7 11.3674 7 11.5V13.5C7 13.7761 7.22386 14 7.5 14H8.5C8.77614 14 9 14.2239 9 14.5C9 14.7761 8.77614 15 8.5 15H7.5C6.67157 15 6 14.3284 6 13.5V11.7071L5.14645 10.8536C4.95118 10.6583 4.95118 10.3417 5.14645 10.1464L6 9.29289V7.5ZM12.5 6C13.3284 6 14 6.67157 14 7.5V9.29289L14.8536 10.1464C15.0488 10.3417 15.0488 10.6583 14.8536 10.8536L14 11.7071V13.5C14 14.3284 13.3284 15 12.5 15H11.5C11.2239 15 11 14.7761 11 14.5C11 14.2239 11.2239 14 11.5 14H12.5C12.7761 14 13 13.7761 13 13.5V11.5C13 11.3674 13.0527 11.2402 13.1464 11.1464L13.7929 10.5L13.1464 9.85355C13.0527 9.75978 13 9.63261 13 9.5V7.5C13 7.22386 12.7761 7 12.5 7H11.5C11.2239 7 11 6.77614 11 6.5C11 6.22386 11.2239 6 11.5 6H12.5Z" fill="#DEE6ED"/>
</svg>
