<svg width="16" height="16" viewBox="0 0 16 16" fill="none" xmlns="http://www.w3.org/2000/svg">
<path fill-rule="evenodd" clip-rule="evenodd" d="M5 2H11C11.5523 2 12 2.44772 12 3V5H13V3C13 1.89543 12.1046 1 11 1H5C3.89543 1 3 1.89543 3 3V5H4V3C4 2.44772 4.44772 2 5 2ZM4 13H3C3 14.1046 3.89543 15 5 15H11C12.1046 15 13 14.1046 13 13H12C12 13.5523 11.5523 14 11 14H5C4.44772 14 4 13.5523 4 13ZM2.30866 6.03806C2.4955 5.96067 2.71055 6.00345 2.85355 6.14645L4.5 7.79289L6.14645 6.14645C6.28945 6.00345 6.5045 5.96067 6.69134 6.03806C6.87818 6.11545 7 6.29777 7 6.5V11.5C7 11.7761 6.77614 12 6.5 12C6.22386 12 6 11.7761 6 11.5V7.70711L4.85355 8.85355C4.65829 9.04882 4.34171 9.04882 4.14645 8.85355L3 7.70711V11.5C3 11.7761 2.77614 12 2.5 12C2.22386 12 2 11.7761 2 11.5V6.5C2 6.29777 2.12182 6.11545 2.30866 6.03806ZM12 6.5C12 6.22386 11.7761 6 11.5 6C11.2239 6 11 6.22386 11 6.5V10.2929L9.35355 8.64645C9.15829 8.45118 8.84171 8.45118 8.64645 8.64645C8.45118 8.84171 8.45118 9.15829 8.64645 9.35355L11.1464 11.8536C11.3417 12.0488 11.6583 12.0488 11.8536 11.8536L14.3536 9.35355C14.5488 9.15829 14.5488 8.84171 14.3536 8.64645C14.1583 8.45118 13.8417 8.45118 13.6464 8.64645L12 10.2929V6.5Z" fill="white"/>
</svg>
