<svg width="16" height="16" viewBox="0 0 16 16" fill="none" xmlns="http://www.w3.org/2000/svg">
<path fill-rule="evenodd" clip-rule="evenodd" d="M13.8616 6.7128C13.9522 7.12746 14 7.55815 14 8C14 11.3137 11.3137 14 8 14C4.68629 14 2 11.3137 2 8C2 4.68629 4.68629 2 8 2C8.44185 2 8.87254 2.04776 9.2872 2.1384L9.60504 1.18488C9.08963 1.06396 8.55229 1 8 1C4.13401 1 1 4.13401 1 8C1 11.866 4.13401 15 8 15C11.866 15 15 11.866 15 8C15 7.44771 14.936 6.91037 14.8151 6.39496L13.8616 6.7128ZM4.5 7.50001C4.77614 7.50001 5 7.72387 5 8.00001C5 9.72387 6.27614 11 8 11C8.27614 11 8.5 11.2239 8.5 11.5C8.5 11.7762 8.27614 12 8 12C5.72386 12 4 10.2762 4 8.00001C4 7.72387 4.22386 7.50001 4.5 7.50001ZM12.1429 3.85714L11 1L9.85714 3.85714L7 5L9.85714 6.14286L11 9L12.1429 6.14286L15 5L12.1429 3.85714Z" fill="#A26ED3"/>
</svg>
