<svg width="16" height="16" viewBox="0 0 16 16" fill="none" xmlns="http://www.w3.org/2000/svg">
<path fill-rule="evenodd" clip-rule="evenodd" d="M6 9V6H3V9H6ZM6 10H3V12C3 12.5523 3.44772 13 4 13H6V10ZM7 13V10H10V13H7ZM7 14H6.5H6H4C2.89543 14 2 13.1046 2 12V10V9.5V9V6V5.5V5V4C2 2.89543 2.89543 2 4 2H6H6.5H7H10H10.5H11H12C13.1046 2 14 2.89543 14 4V5V5.5V6V9V9.5V10V12C14 13.1046 13.1046 14 12 14H11H10.5H10H7ZM11 13H12C12.5523 13 13 12.5523 13 12V10H11V13ZM11 9H13V6H11V9ZM11 5H13V4C13 3.44772 12.5523 3 12 3H11V5ZM10 3V5H7V3H10ZM6 3H4C3.44772 3 3 3.44772 3 4V5H6V3ZM7 6H10V9H7V6Z" fill="#4CACF8"/>
</svg>
