<svg width="16" height="16" viewBox="0 0 16 16" fill="none" xmlns="http://www.w3.org/2000/svg">
<path fill-rule="evenodd" clip-rule="evenodd" d="M12 3C12 2.44772 11.5523 2 11 2H5C4.447 2 4 2.44733 4 2.9989V13.0035C4 13.5535 4.44542 14 5 14H11C11.5523 14 12 13.5523 12 13V3ZM13 3V13C13 14.1046 12.1046 15 11 15H5C3.89543 15 3 14.1081 3 13.0035V2.9989C3 1.89433 3.89543 1 5 1H11C12.1046 1 13 1.89543 13 3ZM5 8.5C5 8.22386 5.22386 8 5.5 8H10.5C10.7761 8 11 8.22386 11 8.5C11 8.77614 10.7761 9 10.5 9H5.5C5.22386 9 5 8.77614 5 8.5ZM5.5 10C5.22386 10 5 10.2239 5 10.5C5 10.7761 5.22386 11 5.5 11H8.5C8.77614 11 9 10.7761 9 10.5C9 10.2239 8.77614 10 8.5 10H5.5Z" fill="#DEE6ED"/>
</svg>
