<svg width="16" height="16" viewBox="0 0 16 16" fill="none" xmlns="http://www.w3.org/2000/svg">
<path fill-rule="evenodd" clip-rule="evenodd" d="M14 3C14 2.44772 13.5523 2 13 2H3C2.447 2 2 2.44733 2 2.9989V13.0035C2 13.5535 2.44542 14 3 14H13C13.5523 14 14 13.5523 14 13V3ZM15 3V13C15 14.1046 14.1046 15 13 15H3C1.89543 15 1 14.1081 1 13.0035V2.9989C1 1.89433 1.89543 1 3 1H13C14.1046 1 15 1.89543 15 3ZM10 8C10 6.89543 10.8954 6 12 6H12.5C12.7761 6 13 6.22386 13 6.5C13 6.77614 12.7761 7 12.5 7H12C11.4477 7 11 7.44772 11 8V8.5C11 8.77614 11.2239 9 11.5 9C12.3284 9 13 9.67157 13 10.5V11C13 12.1046 12.1046 13 11 13H10.5C10.2239 13 10 12.7761 10 12.5C10 12.2239 10.2239 12 10.5 12H11C11.5523 12 12 11.5523 12 11V10.5C12 10.2239 11.7761 10 11.5 10C10.6716 10 10 9.32843 10 8.5V8ZM5.5 6C5.22386 6 5 6.22386 5 6.5C5 6.77614 5.22386 7 5.5 7H7V12.5C7 12.7761 7.22386 13 7.5 13C7.77614 13 8 12.7761 8 12.5V7H9.5C9.77614 7 10 6.77614 10 6.5C10 6.22386 9.77614 6 9.5 6H7.5H5.5Z" fill="#4CACF8"/>
</svg>
