<svg width="16" height="16" viewBox="0 0 16 16" fill="none" xmlns="http://www.w3.org/2000/svg">
<path d="M8.27734 2.08374L14.9014 6.49976L13 7.76733V11.6179L12.9473 11.7234L12.5 11.4998C12.9147 11.7071 12.9452 11.7229 12.9473 11.7244H12.9463L12.9453 11.7263C12.9449 11.7272 12.9448 11.7291 12.9443 11.7302C12.9431 11.7327 12.9412 11.7357 12.9395 11.739C12.9357 11.7461 12.9308 11.7557 12.9248 11.7664C12.9128 11.7878 12.8955 11.816 12.874 11.8503C12.8308 11.9195 12.7671 12.0135 12.6807 12.1228C12.5075 12.3415 12.241 12.6244 11.8564 12.9041C11.0808 13.4681 9.85231 13.9998 8 13.9998C6.1477 13.9998 4.91916 13.4681 4.14355 12.9041C3.75906 12.6244 3.4925 12.3415 3.31934 12.1228C3.23286 12.0136 3.16918 11.9195 3.12598 11.8503C3.10453 11.816 3.08717 11.7878 3.0752 11.7664C3.06925 11.7557 3.06429 11.7461 3.06055 11.739C3.0588 11.7357 3.05693 11.7327 3.05566 11.7302C3.05521 11.7291 3.05515 11.7272 3.05469 11.7263L3.05371 11.7244H3.05273C3.05461 11.723 3.0836 11.708 3.5 11.4998L3.05273 11.7234L3 11.6179V7.76733L1.09863 6.49976L7.72266 2.08374L8 1.89917L8.27734 2.08374ZM11 9.09937V11.4998C11 11.7759 10.7761 11.9998 10.5 11.9998C10.2239 11.9997 10 11.7759 10 11.4998V9.76636L8.27734 10.9158L8 11.1003L7.72266 10.9158L4 8.43335V11.3572C4.0251 11.3949 4.05772 11.4451 4.10254 11.5017C4.2262 11.6579 4.42886 11.8754 4.73145 12.0955C5.33084 12.5314 6.35237 12.9998 8 12.9998C9.64764 12.9998 10.6692 12.5314 11.2686 12.0955C11.5712 11.8754 11.7738 11.6579 11.8975 11.5017C11.9423 11.445 11.9749 11.3949 12 11.3572V8.43335L11 9.09937ZM2.90137 6.49976L8 9.89819L9.87988 8.64429L7.6875 6.89038C7.47203 6.71784 7.43692 6.40283 7.60938 6.18726C7.78187 5.97186 8.09694 5.93684 8.3125 6.10913L10.7539 8.06226L13.0986 6.49976L8 3.10034L2.90137 6.49976Z" fill="#C3D2DF"/>
</svg>
