<svg width="16" height="16" viewBox="0 0 16 16" fill="none" xmlns="http://www.w3.org/2000/svg">
<path d="M3.5 2.00001C3.22428 2.00012 3.00053 2.22341 3 2.49903C3 2.77502 3.22408 2.99975 3.5 3.00001L4.74609 3.00001C4.42317 3.2431 4.08677 3.5266 3.7666 3.85646C2.83033 4.82115 2.00002 6.18959 2 8.00001C2.00003 11.5807 4.74128 14 8 14C11.2761 14 14 11.2761 14 8.00001C14 6.41831 13.6041 5.04813 12.7656 4.00001C11.9241 2.94815 10.6784 2.27291 9.08203 2.00685C8.80973 1.96156 8.55226 2.14569 8.50684 2.41798C8.46157 2.69028 8.64566 2.94778 8.91797 2.99317C10.3215 3.22713 11.3259 3.80196 11.9844 4.62501C12.6458 5.45185 13 6.58182 13 8.00001C13 10.7238 10.7238 13 8 13C5.25875 13 3.00003 10.9943 3 8.00001C3.00002 6.52309 3.66977 5.39112 4.4834 4.55274C4.98743 4.03342 5.53893 3.63553 6 3.3506L6 5.50001C6.00009 5.77603 6.22398 5.99992 6.5 6.00001C6.77601 5.99992 6.99991 5.77603 7 5.50001L7 2.50001C6.99991 2.224 6.77601 2.0001 6.5 2.00001L3.5 2.00001Z" fill="#C3D2DF"/>
</svg>
