<svg width="16" height="16" viewBox="0 0 16 16" fill="none" xmlns="http://www.w3.org/2000/svg">
<path fill-rule="evenodd" clip-rule="evenodd" d="M3.63896 10.9215C3.73958 7.78291 5.37741 4.89337 8.00535 3.19737C10.6332 4.89345 12.271 7.7831 12.3715 10.9217C9.62329 12.3599 6.38712 12.3598 3.63896 10.9215ZM4.00663 6.02148C3.27359 7.31579 2.81292 8.76557 2.67657 10.2809C1.64228 9.23401 1.79317 7.32786 3.13393 6.53265L3.63296 6.23667L3.81146 6.1308C3.87618 6.09343 3.94125 6.05699 4.00663 6.02148ZM3.12495 5.37527L4.17982 5.72689C4.90061 4.54493 5.85389 3.5036 6.99779 2.67539C5.61317 2.26607 4.12244 3.29235 4.12244 4.83641V5.35831C4.12244 5.47599 4.12495 5.59331 4.12991 5.71022L3.12246 5.3744L3.12244 5.35831V4.83641C3.12244 2.33051 5.83998 0.768519 8.0053 2.0298C10.1823 0.78886 12.888 2.36094 12.888 4.86679V5.35839L12.888 5.37652L12.8881 5.37656L13.3858 5.67514C15.1315 6.72231 15.4606 9.05133 14.3763 10.5827C14.1212 10.9431 13.7879 11.2592 13.3763 11.5041L13.3645 11.5112C13.1711 13.7802 10.6695 15.1502 8.63101 14.0018L8.00522 13.6492L8 13.6462V13.6523L7.37945 14.0019C5.34082 15.1504 2.83912 13.7801 2.64597 11.511L2.63457 11.5042C0.591735 10.3034 0.462624 7.34807 2.25331 5.92742C2.36882 5.83579 2.49231 5.75054 2.62379 5.67255L3.12279 5.3766L3.12282 5.37656L3.12495 5.37527ZM11.8289 5.72398C11.1099 4.54568 10.1597 3.50724 9.01997 2.68054C10.4087 2.29073 11.888 3.3235 11.888 4.86679V5.35839C11.888 5.47484 11.8856 5.59095 11.8809 5.70665L11.8289 5.72398ZM3.81968 12.1175C4.89817 12.5921 6.03301 12.8753 7.17876 12.9672L6.88862 13.1306C5.71421 13.7923 4.31572 13.2351 3.81968 12.1175ZM13.3334 10.2757C14.3555 9.22463 14.2028 7.33133 12.8714 6.53269L12.8714 6.53268L12.3737 6.2341L12.3685 6.23101L12.3685 6.23099C12.2481 6.15779 12.1265 6.08786 12.0037 6.02119C12.736 7.31409 13.1965 8.76213 13.3334 10.2757ZM12.1906 12.1178C11.1123 12.5922 9.97753 12.8753 8.8319 12.9672L9.12184 13.1306C10.2961 13.7921 11.6945 13.2351 12.1906 12.1178ZM9.06066 6.93958L8 5.00024L6.93934 6.93958L5 8.00024L6.93934 9.0609L8 11.0002L9.06066 9.0609L11 8.00024L9.06066 6.93958Z" fill="white"/>
</svg>
