<svg width="16" height="16" viewBox="0 0 16 16" fill="none" xmlns="http://www.w3.org/2000/svg">
<path fill-rule="evenodd" clip-rule="evenodd" d="M13 12H3C2.44772 12 2 11.5523 2 11V5C2 4.44772 2.44772 4 3 4H4.41406L5.41406 3H10.5859L11.5859 4H13C13.5523 4 14 4.44772 14 5V11C14 11.5523 13.5523 12 13 12ZM3 13H13L13.2041 12.9893C14.2128 12.887 15 12.0357 15 11V5C15 3.89543 14.1046 3 13 3H12L11.293 2.29297C11.1289 2.12886 10.9135 2.0276 10.6846 2.00488L10.5859 2H5.41406C5.1489 2.00004 4.89453 2.10547 4.70703 2.29297L4 3H3C1.89543 3 1 3.89543 1 5V11L1.01074 11.2041C1.1062 12.1457 1.85435 12.8938 2.7959 12.9893L3 13ZM11 8C11 9.65685 9.65685 11 8 11C6.34315 11 5 9.65685 5 8C5 6.34315 6.34315 5 8 5C9.65685 5 11 6.34315 11 8ZM10 8C10 9.10457 9.10457 10 8 10C6.89543 10 6 9.10457 6 8C6 6.89543 6.89543 6 8 6C9.10457 6 10 6.89543 10 8Z" fill="#C3D2DF"/>
</svg>
