<svg xmlns="http://www.w3.org/2000/svg" width="268" height="146" viewBox="0 0 268 146" fill="none">
<circle cx="134" cy="70" r="44.875" stroke="#4F5963" stroke-width="4"/>
<path opacity="0.5" d="M53.8903 27.8929C55.0659 32.7241 57.6021 37.1169 61.1982 40.5506L61.4631 40.8035L61.1073 40.8902C56.276 42.0657 51.8832 44.6019 48.4496 48.1981L48.1966 48.4629L48.11 48.1071C46.9344 43.2759 44.3983 38.8831 40.8021 35.4494L40.5363 35.1962L40.8931 35.1098C45.7243 33.9343 50.1171 31.3981 53.5507 27.8019L53.8039 27.5361L53.8903 27.8929Z" stroke="#4F5963" stroke-width="4"/>
<path opacity="0.5" d="M214.449 91.8019C217.883 95.3981 222.276 97.9343 227.107 99.1098L227.463 99.1965L227.198 99.4494C223.602 102.883 221.066 107.276 219.89 112.107L219.804 112.463L219.551 112.198C216.117 108.602 211.724 106.066 206.893 104.89L206.536 104.804L206.802 104.551C210.398 101.117 212.934 96.7241 214.11 91.8929L214.196 91.5361L214.449 91.8019Z" stroke="#4F5963" stroke-width="4"/>
<circle opacity="0.25" cx="22" cy="107" r="6" stroke="#4F5963" stroke-width="4"/>
<circle opacity="0.25" cx="246" cy="33" r="6" stroke="#4F5963" stroke-width="4"/>
<path d="M67.0002 96.3924L48.9997 85.9999L67 75.6077L67.0002 96.3924Z" stroke="#4F5963" stroke-width="4"/>
<path d="M219.723 50.5909L210.409 66.723L194.277 57.4091L203.591 41.2769L219.723 50.5909Z" stroke="#4F5963" stroke-width="4"/>
<path opacity="0.5" d="M114.066 9.90166L109.352 18.0658L101.189 13.352L105.902 5.18902L114.066 9.90166Z" stroke="#4F5963" stroke-width="4"/>
<path opacity="0.3" fill-rule="evenodd" clip-rule="evenodd" d="M182.5 9C182.5 7.89543 181.605 7 180.5 7C179.395 7 178.5 7.89543 178.5 9V15.5H174C172.895 15.5 172 16.3954 172 17.5C172 18.6046 172.895 19.5 174 19.5H178.5V26C178.5 27.1046 179.395 28 180.5 28C181.605 28 182.5 27.1046 182.5 26V19.5H187C188.105 19.5 189 18.6046 189 17.5C189 16.3954 188.105 15.5 187 15.5H182.5V9Z" fill="#4F5963"/>
<path opacity="0.3" fill-rule="evenodd" clip-rule="evenodd" d="M83.5 114C83.5 112.895 82.6046 112 81.5 112C80.3954 112 79.5 112.895 79.5 114V120.5H75C73.8954 120.5 73 121.395 73 122.5C73 123.605 73.8954 124.5 75 124.5H79.5V131C79.5 132.105 80.3954 133 81.5 133C82.6046 133 83.5 132.105 83.5 131V124.5H88C89.1046 124.5 90 123.605 90 122.5C90 121.395 89.1046 120.5 88 120.5H83.5V114Z" fill="#4F5963"/>
<g opacity="0.2">
<mask id="path-11-inside-1_4574_38334" fill="white">
<rect y="54" width="16" height="16" rx="1"/>
</mask>
<rect y="54" width="16" height="16" rx="1" stroke="#4F5963" stroke-width="8" mask="url(#path-11-inside-1_4574_38334)"/>
</g>
<g opacity="0.2">
<mask id="path-12-inside-2_4574_38334" fill="white">
<rect x="252" y="70" width="16" height="16" rx="1"/>
</mask>
<rect x="252" y="70" width="16" height="16" rx="1" stroke="#4F5963" stroke-width="8" mask="url(#path-12-inside-2_4574_38334)"/>
</g>
<path opacity="0.5" d="M189.295 130.027L179.893 135.455L179.892 124.598L189.295 130.027Z" stroke="#4F5963" stroke-width="4"/>
</svg>