<svg width="16" height="16" viewBox="0 0 16 16" fill="none" xmlns="http://www.w3.org/2000/svg">
<path fill-rule="evenodd" clip-rule="evenodd" d="M3 9.5C3 8.67157 3.67157 8 4.5 8H5V7H4.5C3.11929 7 2 8.11929 2 9.5V11.5C2 12.8807 3.11929 14 4.5 14H11.5C12.8807 14 14 12.8807 14 11.5V9.5C14 8.11929 12.8807 7 11.5 7H11V8H11.5C12.3284 8 13 8.67157 13 9.5V11.5C13 12.3284 12.3284 13 11.5 13H4.5C3.67157 13 3 12.3284 3 11.5V9.5ZM5.59251 9.67644C5.26872 9.36394 5.26872 8.8452 5.59251 8.5327C5.90045 8.23549 6.38844 8.23549 6.69638 8.5327L7 8.82573V3C7 2.44771 7.44772 2 8 2C8.55228 2 9 2.44771 9 3V8.8257L9.30359 8.5327C9.61153 8.23549 10.0995 8.23549 10.4075 8.5327C10.7312 8.8452 10.7312 9.36394 10.4075 9.67644L8.69444 11.3298C8.30698 11.7037 7.69299 11.7037 7.30553 11.3298L5.59251 9.67644Z" fill="#C3D2DF"/>
</svg>
