<svg width="155" height="14" viewBox="0 0 155 14" fill="none" xmlns="http://www.w3.org/2000/svg">
<path d="M6.26172 9.67383V11H0.136719V1.13574H1.66797V9.67383H6.26172ZM10.2266 4.86816C9.19434 4.86816 8.46973 5.6543 8.39453 6.74121H11.9902C11.9561 5.64062 11.2588 4.86816 10.2266 4.86816ZM11.9834 8.8877H13.3848C13.1797 10.2002 11.9355 11.1367 10.2881 11.1367C8.17578 11.1367 6.89746 9.70801 6.89746 7.43848C6.89746 5.18262 8.19629 3.67871 10.2266 3.67871C12.2227 3.67871 13.4668 5.08691 13.4668 7.26758V7.77344H8.3877V7.8623C8.3877 9.11328 9.13965 9.94043 10.3223 9.94043C11.1631 9.94043 11.7852 9.5166 11.9834 8.8877ZM15.0459 2.10645H16.5293V3.80859H17.8965V4.97754H16.5293V8.94238C16.5293 9.56445 16.8027 9.84473 17.4043 9.84473C17.5547 9.84473 17.7939 9.83105 17.8896 9.81055V10.9795C17.7256 11.0205 17.3975 11.0479 17.0693 11.0479C15.6133 11.0479 15.0459 10.4941 15.0459 9.10645V4.97754H14V3.80859H15.0459V2.10645ZM20.2207 4.74512H19.0518L19.6807 1.13574H21.1709L20.2207 4.74512ZM21.6221 5.8457C21.6221 4.56055 22.7432 3.67871 24.3975 3.67871C26.0723 3.67871 27.1592 4.6084 27.207 5.93457H25.8193C25.7373 5.2373 25.2246 4.7998 24.3975 4.7998C23.5977 4.7998 23.0645 5.18945 23.0645 5.76367C23.0645 6.21484 23.3926 6.52246 24.1719 6.7002L25.3408 6.9668C26.8105 7.30859 27.3711 7.88281 27.3711 8.92188C27.3711 10.2344 26.1475 11.1367 24.4521 11.1367C22.6543 11.1367 21.5742 10.2549 21.4375 8.8877H22.9004C23.0371 9.63965 23.5498 10.0088 24.4521 10.0088C25.3408 10.0088 25.8877 9.63965 25.8877 9.05176C25.8877 8.58691 25.6211 8.31348 24.835 8.13574L23.666 7.8623C22.2988 7.54785 21.6221 6.8916 21.6221 5.8457ZM34.4258 9.80371C35.5811 9.80371 36.3398 8.86719 36.3398 7.38379C36.3398 5.90723 35.5811 4.93652 34.4258 4.93652C33.291 4.93652 32.5527 5.88672 32.5527 7.38379C32.5527 8.8877 33.291 9.80371 34.4258 9.80371ZM34.4395 13.707C32.7441 13.707 31.4863 12.8047 31.3018 11.5605H32.7852C32.9971 12.1621 33.6533 12.5586 34.4941 12.5586C35.6494 12.5586 36.333 11.9023 36.333 10.918V9.73535H36.3057C35.9023 10.5146 35.0547 11.0273 34.0293 11.0273C32.2246 11.0273 31.042 9.61914 31.042 7.37695C31.042 5.11426 32.2178 3.69238 34.0635 3.69238C35.082 3.69238 35.916 4.20508 36.3535 5.03906H36.3809V3.80859H37.8164V10.8701C37.8164 12.5859 36.4902 13.707 34.4395 13.707ZM42.2871 4.86816C41.2549 4.86816 40.5303 5.6543 40.4551 6.74121H44.0508C44.0166 5.64062 43.3193 4.86816 42.2871 4.86816ZM44.0439 8.8877H45.4453C45.2402 10.2002 43.9961 11.1367 42.3486 11.1367C40.2363 11.1367 38.958 9.70801 38.958 7.43848C38.958 5.18262 40.2568 3.67871 42.2871 3.67871C44.2832 3.67871 45.5273 5.08691 45.5273 7.26758V7.77344H40.4482V7.8623C40.4482 9.11328 41.2002 9.94043 42.3828 9.94043C43.2236 9.94043 43.8457 9.5166 44.0439 8.8877ZM46.6758 11V3.80859H48.084V5.01172H48.1182C48.5078 4.19141 49.2734 3.68555 50.3809 3.68555C51.9668 3.68555 52.876 4.69727 52.876 6.34473V11H51.3926V6.63184C51.3926 5.55176 50.8867 4.95703 49.8613 4.95703C48.8223 4.95703 48.1523 5.69531 48.1523 6.80957V11H46.6758ZM57.3125 4.86816C56.2803 4.86816 55.5557 5.6543 55.4805 6.74121H59.0762C59.042 5.64062 58.3447 4.86816 57.3125 4.86816ZM59.0693 8.8877H60.4707C60.2656 10.2002 59.0215 11.1367 57.374 11.1367C55.2617 11.1367 53.9834 9.70801 53.9834 7.43848C53.9834 5.18262 55.2822 3.67871 57.3125 3.67871C59.3086 3.67871 60.5527 5.08691 60.5527 7.26758V7.77344H55.4736V7.8623C55.4736 9.11328 56.2256 9.94043 57.4082 9.94043C58.249 9.94043 58.8711 9.5166 59.0693 8.8877ZM61.7012 11V3.80859H63.1094V5.03223H63.1436C63.3828 4.19141 64.0254 3.69238 64.873 3.69238C65.085 3.69238 65.2695 3.72656 65.3789 3.74707V5.12109C65.2627 5.07324 65.0029 5.03906 64.7158 5.03906C63.7656 5.03906 63.1777 5.6748 63.1777 6.69336V11H61.7012ZM68.6602 9.9541C69.6924 9.9541 70.499 9.24316 70.499 8.30664V7.73926L68.7285 7.84863C67.8467 7.91016 67.3477 8.2998 67.3477 8.91504C67.3477 9.54395 67.8672 9.9541 68.6602 9.9541ZM68.25 11.123C66.8418 11.123 65.8574 10.248 65.8574 8.95605C65.8574 7.69824 66.8213 6.92578 68.5303 6.83008L70.499 6.71387V6.16016C70.499 5.36035 69.959 4.88184 69.0566 4.88184C68.2021 4.88184 67.6689 5.29199 67.5391 5.93457H66.1445C66.2266 4.63574 67.334 3.67871 69.1113 3.67871C70.8545 3.67871 71.9688 4.60156 71.9688 6.04395V11H70.5537V9.81738H70.5195C70.1025 10.6172 69.1934 11.123 68.25 11.123ZM73.835 2.10645H75.3184V3.80859H76.6855V4.97754H75.3184V8.94238C75.3184 9.56445 75.5918 9.84473 76.1934 9.84473C76.3438 9.84473 76.583 9.83105 76.6787 9.81055V10.9795C76.5146 11.0205 76.1865 11.0479 75.8584 11.0479C74.4023 11.0479 73.835 10.4941 73.835 9.10645V4.97754H72.7891V3.80859H73.835V2.10645ZM80.7324 4.86816C79.7002 4.86816 78.9756 5.6543 78.9004 6.74121H82.4961C82.4619 5.64062 81.7646 4.86816 80.7324 4.86816ZM82.4893 8.8877H83.8906C83.6855 10.2002 82.4414 11.1367 80.7939 11.1367C78.6816 11.1367 77.4033 9.70801 77.4033 7.43848C77.4033 5.18262 78.7021 3.67871 80.7324 3.67871C82.7285 3.67871 83.9727 5.08691 83.9727 7.26758V7.77344H78.8936V7.8623C78.8936 9.11328 79.6455 9.94043 80.8281 9.94043C81.6689 9.94043 82.291 9.5166 82.4893 8.8877ZM90.4805 9.9541C91.5127 9.9541 92.3193 9.24316 92.3193 8.30664V7.73926L90.5488 7.84863C89.667 7.91016 89.168 8.2998 89.168 8.91504C89.168 9.54395 89.6875 9.9541 90.4805 9.9541ZM90.0703 11.123C88.6621 11.123 87.6777 10.248 87.6777 8.95605C87.6777 7.69824 88.6416 6.92578 90.3506 6.83008L92.3193 6.71387V6.16016C92.3193 5.36035 91.7793 4.88184 90.877 4.88184C90.0225 4.88184 89.4893 5.29199 89.3594 5.93457H87.9648C88.0469 4.63574 89.1543 3.67871 90.9316 3.67871C92.6748 3.67871 93.7891 4.60156 93.7891 6.04395V11H92.374V9.81738H92.3398C91.9229 10.6172 91.0137 11.123 90.0703 11.123ZM104.371 9.67383V11H98.2461V1.13574H99.7773V9.67383H104.371ZM108.336 4.86816C107.304 4.86816 106.579 5.6543 106.504 6.74121H110.1C110.065 5.64062 109.368 4.86816 108.336 4.86816ZM110.093 8.8877H111.494C111.289 10.2002 110.045 11.1367 108.397 11.1367C106.285 11.1367 105.007 9.70801 105.007 7.43848C105.007 5.18262 106.306 3.67871 108.336 3.67871C110.332 3.67871 111.576 5.08691 111.576 7.26758V7.77344H106.497V7.8623C106.497 9.11328 107.249 9.94043 108.432 9.94043C109.272 9.94043 109.895 9.5166 110.093 8.8877ZM112.725 11V3.80859H114.133V5.01172H114.167C114.557 4.19141 115.322 3.68555 116.43 3.68555C118.016 3.68555 118.925 4.69727 118.925 6.34473V11H117.441V6.63184C117.441 5.55176 116.936 4.95703 115.91 4.95703C114.871 4.95703 114.201 5.69531 114.201 6.80957V11H112.725ZM120.224 5.8457C120.224 4.56055 121.345 3.67871 122.999 3.67871C124.674 3.67871 125.761 4.6084 125.809 5.93457H124.421C124.339 5.2373 123.826 4.7998 122.999 4.7998C122.199 4.7998 121.666 5.18945 121.666 5.76367C121.666 6.21484 121.994 6.52246 122.773 6.7002L123.942 6.9668C125.412 7.30859 125.973 7.88281 125.973 8.92188C125.973 10.2344 124.749 11.1367 123.054 11.1367C121.256 11.1367 120.176 10.2549 120.039 8.8877H121.502C121.639 9.63965 122.151 10.0088 123.054 10.0088C123.942 10.0088 124.489 9.63965 124.489 9.05176C124.489 8.58691 124.223 8.31348 123.437 8.13574L122.268 7.8623C120.9 7.54785 120.224 6.8916 120.224 5.8457ZM130.013 11V3.80859H131.489V11H130.013ZM130.751 2.64648C130.279 2.64648 129.896 2.26367 129.896 1.79883C129.896 1.32715 130.279 0.951172 130.751 0.951172C131.223 0.951172 131.599 1.32715 131.599 1.79883C131.599 2.26367 131.223 2.64648 130.751 2.64648ZM139.173 6.2832H137.765C137.614 5.51758 137.04 4.90918 136.076 4.90918C134.935 4.90918 134.183 5.85938 134.183 7.4043C134.183 8.9834 134.941 9.89941 136.09 9.89941C136.999 9.89941 137.594 9.40039 137.765 8.56641H139.187C139.029 10.0977 137.806 11.1367 136.076 11.1367C134.019 11.1367 132.679 9.72852 132.679 7.4043C132.679 5.12109 134.019 3.67871 136.062 3.67871C137.915 3.67871 139.043 4.86816 139.173 6.2832ZM143.322 11.1367C141.265 11.1367 139.911 9.72168 139.911 7.4043C139.911 5.09375 141.271 3.67871 143.322 3.67871C145.373 3.67871 146.733 5.09375 146.733 7.4043C146.733 9.72168 145.38 11.1367 143.322 11.1367ZM143.322 9.91992C144.484 9.91992 145.229 9.00391 145.229 7.4043C145.229 5.81152 144.478 4.89551 143.322 4.89551C142.167 4.89551 141.415 5.81152 141.415 7.4043C141.415 9.00391 142.167 9.91992 143.322 9.91992ZM147.875 11V3.80859H149.283V5.01172H149.317C149.707 4.19141 150.473 3.68555 151.58 3.68555C153.166 3.68555 154.075 4.69727 154.075 6.34473V11H152.592V6.63184C152.592 5.55176 152.086 4.95703 151.061 4.95703C150.021 4.95703 149.352 5.69531 149.352 6.80957V11H147.875Z" fill="url(#paint0_linear_997_53196)"/>
<defs>
<linearGradient id="paint0_linear_997_53196" x1="155" y1="6.00001" x2="-0.999999" y2="6.00002" gradientUnits="userSpaceOnUse">
<stop stop-color="#E48DC2"/>
<stop offset="0.333333" stop-color="#FFB36C"/>
<stop offset="0.666667" stop-color="#FCE94E"/>
<stop offset="1" stop-color="#B8F3E0"/>
</linearGradient>
</defs>
</svg>
