<svg width="16" height="16" viewBox="0 0 16 16" fill="none" xmlns="http://www.w3.org/2000/svg">
<path fill-rule="evenodd" clip-rule="evenodd" d="M11 2H5C4.44772 2 4 2.44772 4 3V5H3V3C3 1.89543 3.89543 1 5 1H11C12.1046 1 13 1.89543 13 3V5H12V3C12 2.44772 11.5523 2 11 2ZM3 13H4C4 13.5523 4.44772 14 5 14H11C11.5523 14 12 13.5523 12 13H13C13 14.1046 12.1046 15 11 15H5C3.89543 15 3 14.1046 3 13ZM3 6.5C3 6.22386 2.77614 6 2.5 6C2.22386 6 2 6.22386 2 6.5V8.5V11.5C2 11.7761 2.22386 12 2.5 12C2.77614 12 3 11.7761 3 11.5V9H4V11.5C4 11.7761 4.22386 12 4.5 12C4.77614 12 5 11.7761 5 11.5V8.5V6.5C5 6.22386 4.77614 6 4.5 6C4.22386 6 4 6.22386 4 6.5V8H3V6.5ZM11.5 6C11.2239 6 11 6.22386 11 6.5V8.5V11.5C11 11.7761 11.2239 12 11.5 12C11.7761 12 12 11.7761 12 11.5V9H12.691L13 9.61803V11.5C13 11.7761 13.2239 12 13.5 12C13.7761 12 14 11.7761 14 11.5V9.5C14 9.42238 13.9819 9.34582 13.9472 9.27639L13.559 8.5L13.9472 7.72361C13.9819 7.65418 14 7.57762 14 7.5V6.5C14 6.22386 13.7761 6 13.5 6H11.5ZM12.691 8H12V7H13V7.38197L12.691 8ZM6 6.5C6 6.22386 6.22386 6 6.5 6H7.5C8.88071 6 10 7.11929 10 8.5V9.5C10 10.8807 8.88071 12 7.5 12H6.5C6.22386 12 6 11.7761 6 11.5V6.5ZM7 11H7.5C8.32843 11 9 10.3284 9 9.5V8.5C9 7.67157 8.32843 7 7.5 7H7V11Z" fill="#A2B9CD"/>
</svg>
