<svg width="36" height="28" viewBox="0 0 36 28" fill="none" xmlns="http://www.w3.org/2000/svg">
<path d="M0 6C0 2.68629 2.68629 0 6 0H30C33.3137 0 36 2.68629 36 6V22C36 25.3137 33.3137 28 30 28H6C2.68629 28 0 25.3137 0 22V6Z" fill="white"/>
<path d="M17.1556 9.37761C17.1556 8.98488 17.4739 8.6665 17.8667 8.6665C18.2594 8.6665 18.5778 8.98488 18.5778 9.37761V9.88556H19.5429C21.2776 9.88556 22.145 9.88556 22.7557 10.3228C22.9642 10.4721 23.1468 10.6547 23.296 10.8632C23.7333 11.4739 23.7333 12.3413 23.7333 14.076C23.7333 15.8108 23.7333 16.6781 23.296 17.2889C23.1468 17.4974 22.9642 17.6799 22.7557 17.8292C22.145 18.2665 21.2776 18.2665 19.5429 18.2665H18.5778V18.6221C18.5778 19.0148 18.2594 19.3332 17.8667 19.3332C17.4739 19.3332 17.1556 19.0148 17.1556 18.6221V9.37761Z" fill="black"/>
<path d="M15.7333 9.8859C14.2984 9.88926 13.5322 9.92578 12.9776 10.3228C12.7691 10.4721 12.5866 10.6547 12.4373 10.8632C12 11.4739 12 12.3413 12 14.076C12 15.8108 12 16.6781 12.4373 17.2889C12.5866 17.4974 12.7691 17.6799 12.9776 17.8292C13.5322 18.2263 14.2984 18.2628 15.7333 18.2662V16.8439C15.0929 16.8422 14.6551 16.8343 14.3141 16.7977C13.9236 16.7559 13.8298 16.6902 13.8055 16.6728C13.7238 16.6143 13.6522 16.5427 13.5937 16.461C13.5763 16.4367 13.5106 16.343 13.4688 15.9524C13.4241 15.5357 13.4222 14.9747 13.4222 14.076C13.4222 13.1774 13.4241 12.6163 13.4688 12.1997C13.5106 11.8091 13.5763 11.7153 13.5937 11.6911C13.6522 11.6093 13.7238 11.5378 13.8055 11.4792C13.8298 11.4619 13.9236 11.3962 14.3141 11.3543C14.6551 11.3178 15.0929 11.3099 15.7333 11.3082V9.8859Z" fill="black"/>
</svg>
