<svg width="144" height="144" viewBox="0 0 144 144" fill="none" xmlns="http://www.w3.org/2000/svg">
<rect width="144" height="144" rx="8" fill="#1D232A"/>
<g opacity="0.9">
<path fill-rule="evenodd" clip-rule="evenodd" d="M13.4142 123L11 125.414L11 130.586L13.4142 133H18.5858L21 130.586V125.414L18.5858 123L13.4142 123ZM10.2929 124.707L12.7071 122.293C12.8946 122.105 13.149 122 13.4142 122H18.5858C18.851 122 19.1054 122.105 19.2929 122.293L21.7071 124.707C21.8946 124.895 22 125.149 22 125.414V130.586C22 130.851 21.8946 131.105 21.7071 131.293L19.2929 133.707C19.1054 133.895 18.851 134 18.5858 134H13.4142C13.149 134 12.8946 133.895 12.7071 133.707L10.2929 131.293C10.1054 131.105 10 130.851 10 130.586V125.414C10 125.149 10.1054 124.895 10.2929 124.707ZM15.1644 125.986C15.0783 125.47 15.4765 125 16 125C16.5235 125 16.9217 125.47 16.8356 125.986L16.5822 127.507C16.5348 127.791 16.2885 128 16 128C15.7115 128 15.4652 127.791 15.4178 127.507L15.1644 125.986ZM16 131C16.5523 131 17 130.552 17 130C17 129.448 16.5523 129 16 129C15.4477 129 15 129.448 15 130C15 130.552 15.4477 131 16 131Z" fill="#EA5563"/>
<path d="M31.4727 132H29.7031V123.545H35.2402V125.004H31.4727V127.271H34.9121V128.672H31.4727V132ZM38.2988 130.863C39.043 130.863 39.6582 130.377 39.6582 129.697V129.24L38.334 129.322C37.6953 129.369 37.332 129.656 37.332 130.102C37.332 130.57 37.7188 130.863 38.2988 130.863ZM37.7363 132.1C36.541 132.1 35.6328 131.326 35.6328 130.195C35.6328 129.053 36.5117 128.391 38.0762 128.297L39.6582 128.203V127.787C39.6582 127.201 39.248 126.861 38.6035 126.861C37.9648 126.861 37.5605 127.178 37.4785 127.641H35.9141C35.9785 126.422 37.0156 125.584 38.6797 125.584C40.291 125.584 41.3398 126.416 41.3398 127.682V132H39.6875V131.039H39.6523C39.3008 131.707 38.5215 132.1 37.7363 132.1ZM42.4766 132V125.719H44.1875V132H42.4766ZM43.3262 124.869C42.8281 124.869 42.4355 124.471 42.4355 123.99C42.4355 123.504 42.8281 123.111 43.3262 123.111C43.8242 123.111 44.2168 123.504 44.2168 123.99C44.2168 124.471 43.8242 124.869 43.3262 124.869ZM45.3711 132V123.545H47.082V132H45.3711ZM51.0547 126.85C50.3047 126.85 49.7656 127.418 49.707 128.203H52.373C52.3379 127.4 51.8164 126.85 51.0547 126.85ZM52.3965 130.078H53.9668C53.7793 131.309 52.6543 132.135 51.1016 132.135C49.168 132.135 48.0078 130.898 48.0078 128.889C48.0078 126.885 49.1797 125.584 51.0371 125.584C52.8652 125.584 54.0195 126.82 54.0195 128.73V129.252H49.6895V129.357C49.6895 130.254 50.2578 130.869 51.1309 130.869C51.7578 130.869 52.2383 130.559 52.3965 130.078ZM57.2363 132.1C55.666 132.1 54.6758 130.857 54.6758 128.848C54.6758 126.855 55.6719 125.619 57.248 125.619C58.1562 125.619 58.8594 126.1 59.1641 126.797H59.1992V123.545H60.9102V132H59.2227V130.922H59.1934C58.8887 131.613 58.1621 132.1 57.2363 132.1ZM57.8164 126.99C56.9551 126.99 56.4277 127.711 56.4277 128.859C56.4277 130.014 56.9551 130.723 57.8164 130.723C58.666 130.723 59.2109 130.008 59.2109 128.859C59.2109 127.717 58.666 126.99 57.8164 126.99Z" fill="white"/>
</g>
</svg>
