<svg width="24" height="20" viewBox="0 0 24 20" fill="none" xmlns="http://www.w3.org/2000/svg">
<rect width="24" height="20" rx="4" fill="#3D434D"/>
<path fill-rule="evenodd" clip-rule="evenodd" d="M7.54386 6.13286C6.4944 7.06799 5.99687 8.95422 7.20583 10.891L7.22044 10.9144L7.23238 10.9393C7.58596 11.6754 8.35134 12.5348 9.24654 13.3621C10.1298 14.1784 11.0926 14.9216 11.7888 15.4276C11.8589 15.4785 11.9318 15.5001 12 15.5001C12.0677 15.5001 12.1402 15.4786 12.2098 15.4286C12.8952 14.9204 13.8575 14.1774 14.7437 13.3615C15.6434 12.5332 16.4145 11.6743 16.7676 10.9393L16.7794 10.9146L16.7939 10.8914C18.0011 8.95338 17.5076 7.06681 16.4619 6.1324C15.938 5.66428 15.2773 5.43115 14.5909 5.51802C13.906 5.60472 13.1285 6.01936 12.3971 6.97539L11.9986 7.49636L11.6019 6.97405C10.8763 6.01884 10.1016 5.60464 9.41763 5.51802C8.73189 5.43116 8.06976 5.66426 7.54386 6.13286ZM12.0012 5.89531C11.2441 5.07893 10.3963 4.63399 9.54328 4.52594C8.53949 4.3988 7.59552 4.74744 6.87859 5.38626C5.44718 6.66173 4.91093 9.0812 6.34315 11.3974C6.78744 12.3065 7.66573 13.2628 8.56781 14.0965C9.49017 14.949 10.4869 15.7176 11.2008 16.2365C11.4334 16.4052 11.7108 16.5001 12 16.5001C12.2893 16.5001 12.5662 16.4054 12.7987 16.2368L12.803 16.2337C13.4997 15.7171 14.4958 14.9491 15.421 14.0972C16.3256 13.2644 17.212 12.3074 17.6569 11.3972C19.0856 9.08218 18.5564 6.66294 17.1282 5.38672C16.4127 4.74742 15.4697 4.39881 14.4654 4.52594C13.6118 4.63397 12.7622 5.0789 12.0012 5.89531Z" fill="#C3D2DF"/>
</svg>
