<svg width="16" height="16" viewBox="0 0 16 16" fill="none" xmlns="http://www.w3.org/2000/svg">
<path fill-rule="evenodd" clip-rule="evenodd" d="M12 5V3.4C12 3.3289 11.9928 3.28665 11.9875 3.26632L11.9873 3.26551C11.7335 2.94984 10.7672 2 8 2C5.23284 2 4.26648 2.94984 4.01274 3.26551L4.01253 3.26632C4.00716 3.28665 4 3.3289 4 3.4V5.08535V6.49943L2.66675 6.02819C2.61591 6.01022 2.56023 6 2.5 6C2.22386 6 2 6.22386 2 6.5V8C2 8.55228 2.44772 9 3 9H4V10V10.7889C4 11.4026 4.17546 11.9061 4.49375 12.2373C4.64606 12.3958 4.81536 12.5588 5 12.7187V13.9831C4.50718 13.6423 4.09355 13.2641 3.7727 12.9302C3.22553 12.3608 3 11.5786 3 10.7889V10C1.89543 10 1 9.10457 1 8V6.5C1 5.84689 1.4174 5.29127 2 5.08535C2.15639 5.03008 2.32468 5 2.5 5C2.67532 5 2.84361 5.03008 3 5.08535V4.05021V3.4C3 3.13595 3.05066 2.87189 3.21348 2.66401C3.65968 2.09431 4.91791 1 8 1C11.0821 1 12.3403 2.09432 12.7865 2.66401C12.9493 2.87189 13 3.13595 13 3.4V4.05021V5H12Z" fill="white"/>
<circle cx="10.5" cy="10.5" r="4" stroke="url(#paint0_linear_1463_832)"/>
<path fill-rule="evenodd" clip-rule="evenodd" d="M12.7071 9.70711C13.0976 9.31658 13.0976 8.68342 12.7071 8.29289C12.3166 7.90237 11.6834 7.90237 11.2929 8.29289L8.29289 11.2929C7.90237 11.6834 7.90237 12.3166 8.29289 12.7071C8.68342 13.0976 9.31658 13.0976 9.70711 12.7071L12.7071 9.70711ZM12.3536 9.35355C12.5488 9.15829 12.5488 8.84171 12.3536 8.64645C12.1583 8.45118 11.8417 8.45118 11.6464 8.64645L10.6464 9.64645C10.4512 9.84171 10.4512 10.1583 10.6464 10.3536C10.8417 10.5488 11.1583 10.5488 11.3536 10.3536L12.3536 9.35355Z" fill="white"/>
<defs>
<linearGradient id="paint0_linear_1463_832" x1="15" y1="10.2353" x2="6" y2="10.2353" gradientUnits="userSpaceOnUse">
<stop stop-color="#E48DC2"/>
<stop offset="0.333333" stop-color="#FFB36C"/>
<stop offset="0.666667" stop-color="#FCE94E"/>
<stop offset="1" stop-color="#B8F3E0"/>
</linearGradient>
</defs>
</svg>
