<svg width="16" height="16" viewBox="0 0 16 16" fill="none" xmlns="http://www.w3.org/2000/svg">
<path d="M8.66669 10.6667C8.30002 10.6667 8.00002 10.9667 8.00002 11.3333V13.3333C8.00002 13.7 7.70002 14 7.33335 14H2.66669C2.30002 14 2.00002 13.7 2.00002 13.3333V8.66666C2.00002 8.29999 2.30002 7.99999 2.66669 7.99999H4.66669C5.03335 7.99999 5.33335 7.69999 5.33335 7.33332C5.33335 6.96666 5.03335 6.66666 4.66669 6.66666H2.66669C1.56669 6.66666 0.666687 7.56666 0.666687 8.66666V13.3333C0.666687 14.4333 1.56669 15.3333 2.66669 15.3333H7.33335C8.43335 15.3333 9.33335 14.4333 9.33335 13.3333V11.3333C9.33335 10.9667 9.03335 10.6667 8.66669 10.6667Z" fill="#C3D2DF"/>
<path d="M13.3334 0.666656H8.66669C7.56669 0.666656 6.66669 1.56666 6.66669 2.66666V7.33332C6.66669 8.43332 7.56669 9.33332 8.66669 9.33332H13.3334C14.4334 9.33332 15.3334 8.43332 15.3334 7.33332V2.66666C15.3334 1.56666 14.4334 0.666656 13.3334 0.666656ZM14 7.33332C14 7.69999 13.7 7.99999 13.3334 7.99999H8.66669C8.30002 7.99999 8.00002 7.69999 8.00002 7.33332V2.66666C8.00002 2.29999 8.30002 1.99999 8.66669 1.99999H13.3334C13.7 1.99999 14 2.29999 14 2.66666V7.33332Z" fill="#C3D2DF"/>
<path d="M11 5.99999C11.5523 5.99999 12 5.55227 12 4.99999C12 4.4477 11.5523 3.99999 11 3.99999C10.4477 3.99999 10 4.4477 10 4.99999C10 5.55227 10.4477 5.99999 11 5.99999Z" fill="#C3D2DF"/>
<path d="M4.00002 11C4.5523 11 5.00002 10.5523 5.00002 9.99999C5.00002 9.4477 4.5523 8.99999 4.00002 8.99999C3.44774 8.99999 3.00002 9.4477 3.00002 9.99999C3.00002 10.5523 3.44774 11 4.00002 11Z" fill="#C3D2DF"/>
<path d="M6.00002 13C6.5523 13 7.00002 12.5523 7.00002 12C7.00002 11.4477 6.5523 11 6.00002 11C5.44774 11 5.00002 11.4477 5.00002 12C5.00002 12.5523 5.44774 13 6.00002 13Z" fill="#C3D2DF"/>
</svg>
