<svg width="16" height="16" viewBox="0 0 16 16" fill="none" xmlns="http://www.w3.org/2000/svg">
<path fill-rule="evenodd" clip-rule="evenodd" d="M14.7236 1.05277C14.9706 1.17627 15.0707 1.4766 14.9472 1.72359L13.9999 4C13.9641 4.11127 13.8993 4.27476 13.8239 4.46518L13.8239 4.46521C13.5927 5.04836 13.2615 5.88408 13.3581 6.24616C13.4206 6.48047 13.5277 6.65686 13.6825 6.77761C13.8361 6.89745 14.0848 6.99999 14.5 6.99999C14.7761 6.99999 15 7.22385 15 7.49999C15 7.77613 14.7761 7.99999 14.5 7.99999C13.9152 7.99999 13.4346 7.85252 13.0674 7.56611C12.74 7.31068 12.5411 6.97471 12.4282 6.62698C11.7723 7.41812 10.8344 7.99999 9.49998 7.99999C7.61767 7.99999 6.40536 6.28369 6.99987 4.5C7.52161 2.93477 8.66748 0.999987 10.9997 0.999987C12.1338 0.999987 12.9527 1.43586 13.3744 2.19462C13.4146 2.26704 13.4506 2.34125 13.4824 2.41701L14.0527 1.27638C14.1762 1.02939 14.4766 0.929279 14.7236 1.05277ZM12.5008 5.00068C11.8104 6.19641 10.4999 7.5 9.00078 7.00068C7.25618 6.41957 7.80951 4.69573 8.49987 3.5C9.19022 2.30427 10.6441 1.71504 11.5009 2.00066C13.0007 2.50068 13.1911 3.80495 12.5008 5.00068ZM5 1.00001H6V2.00001H5C4.44772 2.00001 4 2.44772 4 3.00001V13C4 13.5523 4.44772 14 5 14H11C11.5523 14 12 13.5523 12 13V10H13V13C13 14.1046 12.1046 15 11 15H5C3.89543 15 3 14.1046 3 13V3.00001C3 1.89544 3.89543 1.00001 5 1.00001ZM8 11C7.44772 11 7 11.4477 7 12C7 12.5523 7.44772 13 8 13C8.55228 13 9 12.5523 9 12C9 11.4477 8.55228 11 8 11Z" fill="#F08F35"/>
</svg>
