<svg width="16" height="16" viewBox="0 0 16 16" fill="none" xmlns="http://www.w3.org/2000/svg">
<path fill-rule="evenodd" clip-rule="evenodd" d="M11 2C11.5523 2 12 2.44772 12 3V13C12 13.5523 11.5523 14 11 14H5C4.44542 14 4 13.5535 4 13.0035V2.9989C4 2.44733 4.447 2 5 2H11ZM13 13V3C13 1.89543 12.1046 1 11 1H5C3.89543 1 3 1.89433 3 2.9989V13.0035C3 14.1081 3.89543 15 5 15H11C12.1046 15 13 14.1046 13 13ZM7.39239 12.1312C7.74909 12.6587 8 13 8 13C8 13 8.25091 12.6587 8.60761 12.1312C9.4843 10.8347 11 8.41323 11 7.16915C11 5.41887 9.65685 4 8 4C6.34315 4 5 5.41887 5 7.16915C5 8.41323 6.5157 10.8347 7.39239 12.1312ZM8 11.2405C8.20158 10.935 8.42336 10.5884 8.64454 10.2231C9.00884 9.62126 9.36074 8.98627 9.61843 8.41025C9.89167 7.79947 10 7.38129 10 7.16915C10 5.91877 9.0536 5 8 5C6.9464 5 6 5.91877 6 7.16915C6 7.38129 6.10833 7.79947 6.38157 8.41025C6.63926 8.98627 6.99116 9.62126 7.35546 10.2231C7.57664 10.5884 7.79842 10.935 8 11.2405ZM8 8C8.55228 8 9 7.55228 9 7C9 6.44772 8.55228 6 8 6C7.44772 6 7 6.44772 7 7C7 7.55228 7.44772 8 8 8Z" fill="#EA5563"/>
</svg>
