<svg width="41" height="40" viewBox="0 0 41 40" fill="none" xmlns="http://www.w3.org/2000/svg">
<rect x="14.75" y="14.5" width="1" height="2" rx="0.5" fill="white" stroke="white"/>
<rect x="23.75" y="14.5" width="1" height="2" rx="0.5" fill="white" stroke="white"/>
<path d="M19.75 17C18.2596 17 17.473 17.9091 17.266 18.3636C17.1625 18.9091 17.5144 20 19.75 20C21.9856 20 22.3375 18.9091 22.234 18.3636C22.027 17.9091 21.2404 17 19.75 17Z" fill="white" stroke="white" stroke-linecap="round"/>
<path fill-rule="evenodd" clip-rule="evenodd" d="M13.4674 12.9903C13.4448 13.0721 13.4135 13.1528 13.3731 13.2313C13.2946 13.3835 13.1958 13.517 13.0928 13.6319C12.8649 14.1465 12.6984 14.8494 12.6984 15.8259C12.6984 19.1933 13.8268 20.6355 14.9366 21.3797C16.2387 22.253 18.0708 22.5396 20 22.5396C21.9291 22.5396 23.7612 22.253 25.0634 21.3797C26.1731 20.6355 27.3015 19.1934 27.3015 15.8259C27.3015 14.8495 27.135 14.1465 26.9072 13.6319C26.8041 13.517 26.7053 13.3835 26.6269 13.2313C26.5865 13.1528 26.5551 13.0721 26.5326 12.9902C26.2253 12.5825 25.8161 12.2487 25.291 11.9723C23.9258 11.2534 21.9958 11.0317 20 11.0317C18.0042 11.0318 16.0741 11.2535 14.7089 11.9723C14.1839 12.2488 13.7747 12.5826 13.4674 12.9903ZM29.8015 15.8259C29.8015 15.6518 29.7974 15.4817 29.7893 15.3156C29.8472 15.3409 29.905 15.3659 29.9626 15.3907C30.6176 15.6729 31.2841 15.94 31.8302 16.1588C32.4051 16.3892 32.7924 16.5453 32.9634 16.6283C33.0357 16.6633 33.125 16.7051 33.2038 16.742L33.2039 16.7421C33.2477 16.7626 33.2882 16.7815 33.3208 16.797C33.431 16.8493 33.5215 16.8943 33.5999 16.9381C33.617 16.9477 33.6326 16.9567 33.6469 16.9652C33.6 17.0534 33.525 17.1721 33.4078 17.3237C33.3798 17.3599 33.2757 17.46 32.9613 17.5314C32.6502 17.6021 32.238 17.6187 31.7636 17.5755C30.9547 17.5019 30.181 17.2777 29.7511 17.0982C29.7843 16.6945 29.8015 16.2708 29.8015 15.8259ZM25.5705 23.9657C27.1855 23.1726 28.5643 21.8283 29.2787 19.5886C29.9419 19.812 30.7484 19.9935 31.5371 20.0652C32.1678 20.1226 32.8625 20.1176 33.5152 19.9693C34.1646 19.8218 34.8812 19.5055 35.3859 18.8525C35.7819 18.3401 36.0813 17.7989 36.1776 17.2248C36.2838 16.5916 36.1249 16.0226 35.7919 15.5703C35.4955 15.1676 35.1032 14.9143 34.8192 14.7557C34.6167 14.6425 34.3713 14.5278 34.1981 14.4467C34.1411 14.4201 34.092 14.3971 34.0547 14.379C33.7931 14.2521 33.3226 14.0636 32.8253 13.8643L32.7602 13.8383C32.2104 13.6179 31.5728 13.3622 30.9515 13.0947C30.3251 12.8249 29.7462 12.556 29.309 12.3133C29.1442 12.2218 29.015 12.1424 28.9186 12.0765C27.1667 9.01864 23.1487 8.53169 20 8.53174C16.8513 8.53178 12.8332 9.0187 11.0814 12.0765C10.985 12.1424 10.8558 12.2218 10.691 12.3133C10.2537 12.556 9.67484 12.8249 9.0484 13.0947C8.42714 13.3622 7.78955 13.6179 7.23976 13.8383L7.17466 13.8643C6.67733 14.0636 6.2068 14.2521 5.94528 14.379C5.90798 14.3971 5.85882 14.4201 5.80188 14.4467C5.6286 14.5278 5.38322 14.6425 5.18071 14.7557C4.89678 14.9143 4.50444 15.1676 4.208 15.5703C3.87504 16.0226 3.71614 16.5916 3.82237 17.2248C3.91869 17.7989 4.218 18.3401 4.61408 18.8525C5.11877 19.5055 5.83533 19.8218 6.48479 19.9693C7.13745 20.1176 7.83218 20.1226 8.46283 20.0652C9.2515 19.9935 10.058 19.812 10.7212 19.5886C11.4357 21.8284 12.8146 23.1727 14.4296 23.9657L14.2348 24.7325C13.743 26.6678 13.1726 29.6013 13.0866 32.0904C13.0443 33.3159 13.113 34.5619 13.4452 35.5474C13.6137 36.0476 13.8782 36.5667 14.3108 36.9706C14.7716 37.401 15.3601 37.6396 16.0231 37.6396C17.7427 37.6396 18.9732 37.0034 19.7517 36.0704C19.8416 35.9626 19.9243 35.8523 20.0001 35.7405C20.0758 35.8523 20.1585 35.9626 20.2485 36.0704C21.0269 37.0034 22.2574 37.6396 23.977 37.6396C24.64 37.6396 25.2285 37.401 25.6893 36.9706C26.1219 36.5667 26.3864 36.0476 26.555 35.5474C26.8871 34.5619 26.9558 33.3159 26.9135 32.0904C26.8275 29.6013 26.2572 26.6678 25.7654 24.7325L25.5705 23.9657ZM23.1909 24.7523C22.1068 24.9715 21.0088 25.0396 20 25.0396C18.9912 25.0396 17.8933 24.9715 16.8092 24.7523L16.6577 25.3482C16.1882 27.196 15.6625 29.9371 15.5851 32.1768C15.5458 33.3158 15.6284 34.1978 15.8142 34.749C15.9002 35.0043 15.9824 35.1086 16.0128 35.1393L16.0231 35.1396C17.0722 35.1396 17.5723 34.7802 17.8321 34.4687C18.1333 34.1078 18.2342 33.6594 18.2342 33.4029L18.2343 32.1529L19.9923 32.153L21.7659 32.1529L21.7659 33.4029C21.7659 33.6594 21.8668 34.1078 22.168 34.4687C22.4279 34.7802 22.9279 35.1396 23.977 35.1396L23.9873 35.1393C24.0177 35.1086 24.0999 35.0043 24.1859 34.749C24.3717 34.1978 24.4544 33.3158 24.415 32.1768C24.3376 29.9371 23.8119 27.196 23.3424 25.3482L23.1909 24.7523ZM10.2488 17.0982C10.2156 16.6945 10.1984 16.2708 10.1984 15.8259C10.1984 15.6518 10.2025 15.4817 10.2106 15.3156C10.1528 15.3409 10.095 15.3659 10.0373 15.3907C9.38231 15.6729 8.71588 15.94 8.16974 16.1588C7.59487 16.3892 7.20754 16.5453 7.03654 16.6283C6.96436 16.6633 6.87516 16.705 6.79643 16.7419L6.7962 16.742L6.79603 16.7421C6.75224 16.7626 6.7117 16.7815 6.67914 16.797C6.56891 16.8493 6.47841 16.8943 6.40002 16.9381C6.38295 16.9477 6.36733 16.9567 6.35305 16.9652C6.39998 17.0534 6.47497 17.1721 6.5921 17.3237C6.6201 17.3599 6.72427 17.46 7.03863 17.5314C7.34979 17.6021 7.76197 17.6187 8.23639 17.5755C9.04525 17.5019 9.81895 17.2777 10.2488 17.0982Z" fill="url(#paint0_linear_1891_51721)"/>
<path fill-rule="evenodd" clip-rule="evenodd" d="M10.3082 22.3318C9.53187 22.9421 8.6786 24.0784 8.12831 25.3431C7.53325 26.7106 7.16355 28.5323 7.94297 30.2196C8.26774 30.9227 8.73188 31.5991 9.45634 31.8765C10.2676 32.1872 10.9768 31.8523 11.4193 31.5174C11.4565 31.4892 11.4932 31.4601 11.5295 31.4301C11.6122 30.0728 11.8115 28.6404 12.0514 27.32C11.7921 27.3906 11.5553 27.5543 11.3925 27.8009C11.3157 27.9173 11.2419 28.031 11.1695 28.1425L11.1694 28.1427C10.996 28.4097 10.8309 28.664 10.6528 28.9121C10.4647 29.1741 10.307 29.3632 10.1795 29.4882C10.1366 29.4179 10.0848 29.3228 10.026 29.1955C9.66291 28.4094 9.76925 27.3847 10.2334 26.318C10.7005 25.2445 11.4001 24.4345 11.7699 24.1784C11.8001 24.1575 11.829 24.1353 11.8567 24.1121C11.2803 23.6142 10.757 23.0249 10.3082 22.3318Z" fill="white"/>
<path fill-rule="evenodd" clip-rule="evenodd" d="M14.6961 4.68955L15.4347 1.53345L12.7682 3.3764C10.0742 5.23837 8.86296 7.16101 8.95296 9.04833C8.99068 9.83914 9.25281 10.5194 9.61977 11.0843C9.72887 11.0291 9.82945 10.976 9.92054 10.9255C9.95134 10.9084 9.97939 10.8924 10.0048 10.8777C10.435 10.2352 10.944 9.69861 11.5031 9.25086C11.4735 9.14567 11.4553 9.03817 11.4501 8.92925C11.4337 8.58547 11.5401 8.04495 12.0741 7.33764C12.0935 7.49573 12.118 7.65365 12.1482 7.81045C12.2007 8.08361 12.2737 8.36554 12.3722 8.64566C13.0836 8.21581 13.8446 7.8981 14.6076 7.66408C14.6297 7.65728 14.6519 7.65054 14.6741 7.64387C14.6477 7.54858 14.624 7.44687 14.6032 7.33844C14.4302 6.43856 14.5344 5.38034 14.6961 4.68955Z" fill="white"/>
<path fill-rule="evenodd" clip-rule="evenodd" d="M28.3593 30.6861C28.5652 30.8967 28.7844 31.0874 29.0138 31.2426C29.4754 31.5548 30.1968 31.8651 30.9929 31.5705C31.7659 31.2846 32.2195 30.5681 32.4956 29.8209C33.0912 28.2092 32.8159 26.4664 32.3463 25.1174C31.8828 23.786 31.133 22.5629 30.4455 21.9676C30.2812 21.8253 30.0898 21.7384 29.8925 21.7048C29.5439 22.3556 29.1322 22.9225 28.6726 23.4142C28.741 23.5547 28.8377 23.6835 28.9619 23.791C29.2266 24.0202 29.7906 24.8192 30.1746 25.9221C30.5524 27.0074 30.6579 28.1111 30.3394 28.9729C30.2999 29.0798 30.2639 29.1599 30.2334 29.2192C30.0658 29.0942 29.855 28.8775 29.6269 28.5766C29.3862 28.2592 29.1679 27.9033 29.0029 27.5908C28.7729 27.1552 28.3175 26.9269 27.8674 26.9762C28.0854 28.1645 28.27 29.4518 28.3593 30.6861ZM30.3904 29.3135C30.3903 29.3133 30.3873 29.3121 30.3816 29.3107C30.3876 29.3131 30.3905 29.3138 30.3904 29.3135ZM30.1335 29.3729L30.1349 29.3716C30.1343 29.3722 30.1339 29.3726 30.1337 29.3728C30.1336 29.3729 30.1335 29.3729 30.1335 29.3729Z" fill="white"/>
<path fill-rule="evenodd" clip-rule="evenodd" d="M25.3039 4.68955L24.5653 1.53345L27.2318 3.3764C29.9257 5.23837 31.137 7.16101 31.047 9.04833C31.0093 9.83884 30.7474 10.5189 30.3806 11.0837C30.2716 11.0285 30.1711 10.9755 30.0801 10.925C30.0493 10.9079 30.0213 10.892 29.9958 10.8773C29.5656 10.2345 29.0564 9.69782 28.4972 9.24998C28.5266 9.14507 28.5447 9.03786 28.5499 8.92925C28.5663 8.58547 28.4599 8.04495 27.9259 7.33764C27.9065 7.49573 27.882 7.65365 27.8518 7.81045C27.7994 8.08335 27.7264 8.36501 27.6281 8.64487C26.9168 8.21514 26.1559 7.8975 25.3931 7.66353C25.3708 7.65667 25.3484 7.64989 25.326 7.64317C25.3524 7.54808 25.376 7.4466 25.3968 7.33844C25.5698 6.43856 25.4656 5.38034 25.3039 4.68955Z" fill="white"/>
<defs>
<linearGradient id="paint0_linear_1891_51721" x1="36.2103" y1="22.2295" x2="3.78967" y2="22.2295" gradientUnits="userSpaceOnUse">
<stop stop-color="#E48DC2"/>
<stop offset="0.333333" stop-color="#FFB36C"/>
<stop offset="0.666667" stop-color="#FCE94E"/>
<stop offset="1" stop-color="#B8F3E0"/>
</linearGradient>
</defs>
</svg>
