<svg width="16" height="16" viewBox="0 0 16 16" fill="none" xmlns="http://www.w3.org/2000/svg">
<path d="M8 1C11.866 1 15 4.13401 15 8C15 11.866 11.866 15 8 15C4.13401 15 1 11.866 1 8C1 4.13401 4.13401 1 8 1ZM8 2C4.68629 2 2 4.68629 2 8C2 11.3137 4.68629 14 8 14C11.3137 14 14 11.3137 14 8C14 4.68629 11.3137 2 8 2ZM11.3536 5.64645C11.5488 5.84171 11.5488 6.15829 11.3536 6.35355L7.35355 10.3536C7.15829 10.5488 6.84171 10.5488 6.64645 10.3536L4.64645 8.35355C4.45118 8.15829 4.45118 7.84171 4.64645 7.64645C4.84171 7.45118 5.15829 7.45118 5.35355 7.64645L7 9.29289L10.6464 5.64645C10.8417 5.45118 11.1583 5.45118 11.3536 5.64645Z" fill="white"/>
</svg>
