<svg width="36" height="28" viewBox="0 0 36 28" fill="none" xmlns="http://www.w3.org/2000/svg">
<path d="M0 6C0 2.68629 2.68629 0 6 0H30C33.3137 0 36 2.68629 36 6V22C36 25.3137 33.3137 28 30 28H6C2.68629 28 0 25.3137 0 22V6Z" fill="white"/>
<path d="M17.1556 9.37774C17.1556 8.985 17.4739 8.66663 17.8667 8.66663C18.2594 8.66663 18.5778 8.985 18.5778 9.37774V9.88568H19.5429C21.2776 9.88568 22.145 9.88568 22.7557 10.323C22.9642 10.4722 23.1468 10.6548 23.296 10.8633C23.7333 11.4741 23.7333 12.3414 23.7333 14.0762C23.7333 15.8109 23.7333 16.6783 23.296 17.289C23.1468 17.4975 22.9642 17.6801 22.7557 17.8293C22.145 18.2666 21.2776 18.2666 19.5429 18.2666H18.5778V18.6222C18.5778 19.0149 18.2594 19.3333 17.8667 19.3333C17.4739 19.3333 17.1556 19.0149 17.1556 18.6222V9.37774Z" fill="black"/>
<path d="M15.7333 9.88602C14.2984 9.88938 13.5322 9.9259 12.9776 10.323C12.7691 10.4722 12.5866 10.6548 12.4373 10.8633C12 11.4741 12 12.3414 12 14.0762C12 15.8109 12 16.6783 12.4373 17.289C12.5866 17.4975 12.7691 17.6801 12.9776 17.8293C13.5322 18.2264 14.2984 18.2629 15.7333 18.2663V16.844C15.0929 16.8423 14.6551 16.8344 14.3141 16.7978C13.9236 16.756 13.8298 16.6903 13.8055 16.6729C13.7238 16.6144 13.6522 16.5428 13.5937 16.4611C13.5763 16.4369 13.5106 16.3431 13.4688 15.9525C13.4241 15.5359 13.4222 14.9748 13.4222 14.0762C13.4222 13.1775 13.4241 12.6164 13.4688 12.1998C13.5106 11.8092 13.5763 11.7155 13.5937 11.6912C13.6522 11.6095 13.7238 11.5379 13.8055 11.4794C13.8298 11.462 13.9236 11.3963 14.3141 11.3545C14.6551 11.3179 15.0929 11.31 15.7333 11.3083V9.88602Z" fill="black"/>
</svg>
