<svg width="18" height="18" viewBox="0 0 18 18" fill="none" xmlns="http://www.w3.org/2000/svg">
<path d="M12.8789 0C13.2766 6.0098e-05 13.6582 0.158202 13.9395 0.439453L17.5605 4.06055C17.8418 4.3418 17.9999 4.72335 18 5.12109V12.8789L17.9922 13.0273C17.958 13.3706 17.8066 13.6934 17.5605 13.9395L13.9395 17.5605L13.8291 17.6602C13.5623 17.8788 13.2269 17.9999 12.8789 18H5.12109C4.72335 17.9999 4.3418 17.8418 4.06055 17.5605L0.439453 13.9395C0.193419 13.6934 0.0419952 13.3706 0.0078125 13.0273L0 12.8789V5.12109C5.25806e-05 4.7731 0.121219 4.43775 0.339844 4.1709L0.439453 4.06055L4.06055 0.439453C4.3418 0.158202 4.72335 5.99716e-05 5.12109 0H12.8789ZM1.5 5.12109V12.8789L5.12109 16.5H12.8789L16.5 12.8789V5.12109L12.8789 1.5H5.12109L1.5 5.12109ZM9 10.5C9.82843 10.5 10.5 11.1716 10.5 12C10.5 12.8284 9.82843 13.5 9 13.5C8.17157 13.5 7.5 12.8284 7.5 12C7.5 11.1716 8.17157 10.5 9 10.5ZM9 4.5C9.7852 4.5 10.382 5.20497 10.2529 5.97949L9.87305 8.25977C9.8019 8.68667 9.43279 9 9 9C8.56721 9 8.1981 8.68667 8.12695 8.25977L7.74707 5.97949C7.618 5.20497 8.2148 4.5 9 4.5Z" fill="#EA5563"/>
</svg>
