<svg width="16" height="16" viewBox="0 0 16 16" fill="none" xmlns="http://www.w3.org/2000/svg">
<g opacity="0.25">
<path d="M8.00002 4.67154C11.1754 0.520507 15.8719 4.89575 13.2183 9.15569C12.4244 10.8084 9.88745 12.8071 8.50515 13.832C8.35382 13.9418 8.17876 14 8.00002 14C7.82128 14 7.64615 13.9418 7.49482 13.832C6.08476 12.8071 3.57553 10.8084 2.78168 9.15569C0.122556 4.89575 4.84682 0.520507 8.00002 4.67154Z" fill="#1A1D21"/>
<path fill-rule="evenodd" clip-rule="evenodd" d="M3.54386 4.1328C2.4944 5.06793 1.99687 6.95416 3.20583 8.89093L3.22044 8.91433L3.23238 8.9392C3.58596 9.67532 4.35134 10.5347 5.24654 11.3621C6.12976 12.1784 7.09264 12.9215 7.7888 13.4276C7.85893 13.4784 7.93175 13.5 8.00002 13.5C8.06766 13.5 8.14019 13.4785 8.20981 13.4285C8.89516 12.9203 9.85754 12.1773 10.7437 11.3614C11.6434 10.5331 12.4145 9.67422 12.7676 8.9392L12.7794 8.91454L12.7939 8.89132C14.0011 6.95332 13.5076 5.06675 12.4619 4.13234C11.938 3.66422 11.2773 3.43109 10.5909 3.51796C9.906 3.60465 9.12848 4.0193 8.39715 4.97533L7.99862 5.4963L7.60186 4.97399C6.87627 4.01878 6.10156 3.60458 5.41763 3.51796C4.73189 3.4311 4.06976 3.6642 3.54386 4.1328ZM8.00117 3.89525C7.2441 3.07886 6.39633 2.63393 5.54328 2.52588C4.53949 2.39874 3.59552 2.74738 2.87859 3.3862C1.44718 4.66167 0.910931 7.08114 2.34315 9.3973C2.78744 10.3064 3.66573 11.2628 4.56781 12.0965C5.49017 12.9489 6.48694 13.7175 7.20084 14.2365C7.43337 14.4051 7.7108 14.5 8.00002 14.5C8.28927 14.5 8.56622 14.4054 8.79871 14.2368L8.80295 14.2336C9.49974 13.717 10.4958 12.949 11.421 12.0971C12.3256 11.2643 13.212 10.3074 13.6569 9.39711C15.0856 7.08212 14.5564 4.66288 13.1282 3.38666C12.4127 2.74736 11.4697 2.39875 10.4654 2.52588C9.61181 2.63391 8.76221 3.07884 8.00117 3.89525Z" fill="#1A1D21"/>
</g>
<path fill-rule="evenodd" clip-rule="evenodd" d="M3.54386 4.1328C2.4944 5.06793 1.99687 6.95416 3.20583 8.89093L3.22044 8.91433L3.23238 8.9392C3.58596 9.67532 4.35134 10.5347 5.24654 11.3621C6.12976 12.1784 7.09264 12.9215 7.7888 13.4276C7.85893 13.4784 7.93175 13.5 8.00002 13.5C8.06766 13.5 8.14019 13.4785 8.20981 13.4285C8.89516 12.9203 9.85754 12.1773 10.7437 11.3614C11.6434 10.5331 12.4145 9.67422 12.7676 8.9392L12.7794 8.91454L12.7939 8.89132C14.0011 6.95332 13.5076 5.06675 12.4619 4.13234C11.938 3.66422 11.2773 3.43109 10.5909 3.51796C9.906 3.60465 9.12848 4.0193 8.39715 4.97533L7.99862 5.4963L7.60186 4.97399C6.87627 4.01878 6.10156 3.60458 5.41763 3.51796C4.73189 3.4311 4.06976 3.6642 3.54386 4.1328ZM8.00117 3.89525C7.2441 3.07886 6.39633 2.63393 5.54328 2.52588C4.53949 2.39874 3.59552 2.74738 2.87859 3.3862C1.44718 4.66167 0.910931 7.08114 2.34315 9.3973C2.78744 10.3064 3.66573 11.2628 4.56781 12.0965C5.49017 12.9489 6.48694 13.7175 7.20084 14.2365C7.43337 14.4051 7.7108 14.5 8.00002 14.5C8.28927 14.5 8.56622 14.4054 8.79871 14.2368L8.80295 14.2336C9.49974 13.717 10.4958 12.949 11.421 12.0971C12.3256 11.2643 13.212 10.3074 13.6569 9.39711C15.0856 7.08212 14.5564 4.66288 13.1282 3.38666C12.4127 2.74736 11.4697 2.39875 10.4654 2.52588C9.61181 2.63391 8.76221 3.07884 8.00117 3.89525Z" fill="white"/>
<path d="M10.4026 2.03021C11.566 1.88296 12.6501 2.28894 13.4612 3.01361C15.079 4.4592 15.6262 7.14068 14.092 9.64252C13.6 10.6331 12.6635 11.6329 11.76 12.4648C10.8157 13.3342 9.80326 14.1148 9.10083 14.6357L9.09888 14.6367L9.09399 14.6396L9.09204 14.6415C8.77853 14.8689 8.39993 14.9999 8.00024 14.9999C7.60042 14.9999 7.22093 14.8688 6.90747 14.6415L6.90649 14.6406C6.18382 14.1153 5.17046 13.3341 4.22876 12.4638C3.32288 11.6266 2.3898 10.6234 1.90063 9.6308C0.371328 7.13006 0.928115 4.45438 2.54614 3.01263C3.35834 2.28902 4.44297 1.88305 5.60571 2.03021C6.45043 2.13721 7.26751 2.52767 8.00122 3.1933C8.73796 2.52725 9.55705 2.13724 10.4026 2.03021ZM10.6536 4.01361C10.1288 4.08006 9.4628 4.4052 8.79419 5.27924L8.39575 5.79974L7.99731 6.32123L7.60083 5.79877L7.20337 5.27631C6.54072 4.40406 5.87801 4.07989 5.35474 4.01361C4.82783 3.94691 4.30638 4.1225 3.87622 4.5058C3.01979 5.26893 2.54212 6.88282 3.63013 8.62592L3.65942 8.67279L3.67114 8.69818L3.68286 8.7226C3.99306 9.3684 4.69845 10.1746 5.58618 10.9951C6.41504 11.7611 7.32023 12.4639 7.99927 12.9609C8.67121 12.46 9.5751 11.7576 10.4055 10.9931C11.2986 10.1708 12.0076 9.36608 12.3167 8.7226L12.3401 8.67377L12.3694 8.62689C13.4567 6.88134 12.9816 5.26659 12.1292 4.50482C11.7012 4.12246 11.1812 3.94683 10.6536 4.01361Z" stroke="black" stroke-opacity="0.15" stroke-miterlimit="10"/>
</svg>
