<svg width="32" height="32" viewBox="0 0 32 32" fill="none" xmlns="http://www.w3.org/2000/svg">
<path d="M10 17C10 14.1716 10 12.7574 10.8787 11.8787C11.7574 11 13.1716 11 16 11C18.8284 11 20.2426 11 21.1213 11.8787C22 12.7574 22 14.1716 22 17C22 19.8284 22 21.2426 21.1213 22.1213C20.2426 23 18.8284 23 16 23C13.1716 23 11.7574 23 10.8787 22.1213C10 21.2426 10 19.8284 10 17Z" fill="url(#paint0_linear_752_96)"/>
<path d="M18.026 16.2002C17.6029 15.908 17.1131 15.6047 16.5994 15.3184C16.0185 14.9946 15.4405 14.7112 14.9314 14.499C14.9235 14.4957 14.9038 14.4878 14.8724 14.4752C14.5407 14.3433 14.1631 14.5009 14.029 14.8272C14.0077 14.8789 13.9935 14.9332 13.9866 14.9886C13.9146 15.5668 13.8756 16.259 13.8756 16.9723C13.8756 17.6515 13.9109 18.3114 13.9765 18.8722C14.0208 19.2511 14.3689 19.523 14.7541 19.4795C14.8095 19.4732 14.864 19.4604 14.9164 19.4415C15.0287 19.4008 15.0894 19.3785 15.0986 19.3744C15.5654 19.1717 16.0812 18.915 16.5994 18.6262C17.1663 18.3102 17.7042 17.9736 18.1553 17.654C18.5278 17.3901 18.6123 16.879 18.3441 16.5125C18.3154 16.4732 18.2831 16.4365 18.2478 16.4029C18.122 16.283 18.0481 16.2154 18.026 16.2002Z" fill="#3C414B"/>
<path d="M5 26V6C5 3.79086 6.79086 2 9 2H15C15.5523 2 16 2.44772 16 3C16 3.55228 15.5523 4 15 4H9C7.89543 4 7 4.89543 7 6V26C7 27.1046 7.89543 28 9 28H23C24.1046 28 25 27.1046 25 26V15C25 14.4477 25.4477 14 26 14C26.5523 14 27 14.4477 27 15V26C27 28.2091 25.2091 30 23 30H9C6.79086 30 5 28.2091 5 26Z" fill="#DEE6ED"/>
<path d="M25.5947 4.26563C25.7435 3.91155 26.2574 3.91149 26.4062 4.26563L27.333 6.66797L29.7343 7.59375C30.0889 7.74243 30.0889 8.25757 29.7343 8.40625L27.333 9.33203L26.4062 11.7344C26.2575 12.0886 25.7435 12.0885 25.5947 11.7344L24.6679 9.33203L22.2666 8.40625C21.912 8.25758 21.9121 7.74244 22.2666 7.59375L24.6679 6.66797L25.5947 4.26563Z" fill="url(#paint1_linear_752_96)"/>
<path d="M20.2461 1.16602C20.339 0.94462 20.6608 0.944701 20.7539 1.16602L21.333 2.667L22.834 3.2461C23.0556 3.33902 23.0556 3.66098 22.834 3.75391L21.333 4.33301L20.7539 5.83399C20.6609 6.05555 20.339 6.05557 20.2461 5.83399L19.667 4.33301L18.166 3.75391C17.9447 3.66087 17.9446 3.33905 18.166 3.2461L19.667 2.667L20.2461 1.16602Z" fill="url(#paint2_linear_752_96)"/>
<defs>
<linearGradient id="paint0_linear_752_96" x1="22.566" y1="16.6112" x2="9.43396" y2="16.6112" gradientUnits="userSpaceOnUse">
<stop stop-color="#E48DC2"/>
<stop offset="0.333333" stop-color="#FFB36C"/>
<stop offset="0.666667" stop-color="#FCE94E"/>
<stop offset="1" stop-color="#B8F3E0"/>
</linearGradient>
<linearGradient id="paint1_linear_752_96" x1="28" y1="7.5" x2="18" y2="3.5" gradientUnits="userSpaceOnUse">
<stop stop-color="#E48DC2"/>
<stop offset="0.333333" stop-color="#FFB36C"/>
<stop offset="0.666667" stop-color="#FCE94E"/>
<stop offset="1" stop-color="#B8F3E0"/>
</linearGradient>
<linearGradient id="paint2_linear_752_96" x1="28" y1="7.5" x2="18" y2="3.5" gradientUnits="userSpaceOnUse">
<stop stop-color="#E48DC2"/>
<stop offset="0.333333" stop-color="#FFB36C"/>
<stop offset="0.666667" stop-color="#FCE94E"/>
<stop offset="1" stop-color="#B8F3E0"/>
</linearGradient>
</defs>
</svg>
