<svg width="118" height="206" viewBox="0 0 118 206" fill="none" xmlns="http://www.w3.org/2000/svg">
    <rect width="118" height="206" rx="5" fill="#3D434D"/>
    <path d="M59 91C59.8284 91 60.5 91.6716 60.5 92.5V104.5H72.5C73.3284 104.5 74 105.172 74 106C74 106.828 73.3284 107.5 72.5 107.5H60.5V119.5C60.5 120.328 59.8284 121 59 121C58.1716 121 57.5 120.328 57.5 119.5V107.5H45.5C44.6716 107.5 44 106.828 44 106C44 105.172 44.6716 104.5 45.5 104.5H57.5V92.5C57.5 91.6716 58.1716 91 59 91Z" fill="#C3D2DF"/>
</svg>
