<svg width="16" height="16" viewBox="0 0 16 16" fill="none" xmlns="http://www.w3.org/2000/svg">
<path d="M3.5 2C3.22428 2.00011 3.00053 2.2234 3 2.49902C3 2.775 3.22408 2.99974 3.5 3L4.74609 3C4.42318 3.24309 4.08676 3.52659 3.7666 3.85644C2.83034 4.82114 2.00002 6.18958 2 8C2.00004 11.5807 4.74129 14 8 14C11.2761 14 14 11.2761 14 8C14 6.4183 13.6041 5.04812 12.7656 4C11.9241 2.94814 10.6784 2.2729 9.08203 2.00684C8.80973 1.96155 8.55226 2.14568 8.50684 2.41797C8.46158 2.69026 8.64567 2.94777 8.91797 2.99316C10.3215 3.22711 11.3259 3.80195 11.9844 4.625C12.6458 5.45184 13 6.58182 13 8C13 10.7238 10.7238 13 8 13C5.25876 13 3.00004 10.9942 3 8C3.00002 6.52308 3.66977 5.39111 4.4834 4.55273C4.98743 4.03341 5.53893 3.63552 6 3.35059L6 5.5C6.00009 5.77601 6.22398 5.99991 6.5 6C6.77601 5.99991 6.99991 5.77601 7 5.5L7 2.5C6.99991 2.22398 6.77601 2.00009 6.5 2L3.5 2Z" fill="#C3D2DF"/>
</svg>
