<svg width="114" height="114" viewBox="20 0 124 124" fill="none" xmlns="http://www.w3.org/2000/svg">
<g opacity="0.2">
<path d="M126.342 92.487C127.735 93.8378 128.85 95.2896 129.053 97.5248C129.287 100.019 127.943 102.416 125.313 104.093C124.362 104.74 123.209 105.208 121.841 105.544C118.727 106.314 116.241 106.424 114.308 106.433C113.956 106.439 113.238 106.497 112.889 106.679C112.391 106.933 112.098 107.339 111.735 107.843C111.462 108.222 111.149 108.655 110.681 109.121C109.653 110.149 108.581 110.689 107.748 110.992C105.112 111.94 102.608 111.369 99.9404 110.755L99.8549 110.735C97.4429 110.188 94.7525 109.578 91.429 109.778C90.1665 109.839 88.743 110.254 87.0907 110.736L86.7597 110.833L86.7011 110.85C82.3797 112.121 76.4569 113.862 68.0289 111.604C59.609 109.348 55.3908 104.92 52.285 101.66L52.2337 101.606C50.9705 100.24 49.8567 99.0645 48.6832 98.2989C45.8847 96.4602 43.2522 95.6432 40.9142 94.9176L40.8235 94.8894L40.6204 94.8253C38.0848 94.0253 35.7049 93.2744 33.9437 91.191C33.4421 90.6305 32.8692 89.7751 32.4947 88.6471C32.1854 87.7634 32.1194 87.0683 32.0639 86.4851C32.0048 85.8634 31.9578 85.369 31.6413 84.9091C31.3891 84.5408 30.7268 84.1126 30.4478 83.9376C28.802 82.9702 26.7277 81.6373 24.4563 79.4495C23.5029 78.5173 22.7959 77.6009 22.2777 76.6349C20.7043 73.8069 20.8277 71.0075 22.3197 68.9006C24.0046 66.5267 26.373 66.0357 28.8755 65.5169C29.3036 65.4282 29.736 65.3385 30.1692 65.2386C35.7652 63.9055 40.4906 61.6122 44.2033 58.421C45.4429 57.3494 46.394 56.3258 47.1016 55.4626C47.5234 54.8237 47.6237 54.4495 47.5602 54.0314C47.5014 53.6898 47.1448 53.2433 47.0295 53.1121C46.3613 52.3315 45.6464 51.5384 45.162 51.0075C44.2742 50.0176 43.5826 49.2307 43.1216 48.7061C41.4521 46.7047 40.4094 44.796 39.961 42.8209C39.3498 40.0502 39.9318 37.2233 41.6097 34.8905C43.9546 31.6585 47.9707 30.3283 52.1103 31.4375C52.9756 31.6693 53.8159 31.9948 54.6311 32.4137C54.7334 32.4769 54.8385 32.5295 54.9413 32.5809C55.1028 32.6617 55.311 32.5752 55.3553 32.4001C55.9516 30.0396 56.6922 27.5687 57.5485 25.1742C60.7329 16.3769 65.1623 12.4752 69.4689 9.59347C71.2686 8.39625 74.2745 6.7201 78.4276 5.62707C84.2204 4.12114 90.2453 4.18138 96.4195 5.83576C98.08 6.28069 99.0793 7.97723 98.6281 9.66112C98.1769 11.345 96.4632 12.3146 94.8027 11.8697C82.7583 8.64239 74.6874 13.5987 72.9407 14.785C69.282 17.2137 65.9719 20.2121 63.3915 27.3163C61.7134 31.976 60.6525 37.1478 60.0106 40.2773C60.0019 40.3197 59.9928 40.3638 59.9843 40.4055C59.9244 40.6973 59.8683 40.9704 59.8157 41.2226C59.6181 42.1473 59.2309 42.4696 58.4358 42.2566C58.2487 42.2064 58.0912 42.1392 57.8933 42.036C57.3082 41.7224 56.5817 41.1878 55.7515 40.5767C54.5913 39.7229 53.2283 38.7199 51.7656 37.9627C51.3697 37.7563 50.9379 37.5905 50.4935 37.4714C49.0903 37.0954 47.5897 37.2699 46.6695 38.5524C45.34 40.427 45.9412 42.3929 47.9223 44.7285C48.2659 45.1282 48.8686 45.7954 49.5754 46.5777C51.345 48.5367 53.7675 51.2182 54.4093 52.232C55.3178 53.6399 54.9648 54.4985 54.5469 55.5147L54.505 55.6166C54.1374 56.5207 48.1608 68.2546 29.3768 71.8443C28.2691 72.0489 26.3392 72.6096 28.8302 75.0066C30.9573 77.0504 32.8567 78.1417 34.4603 79.0629C35.8023 79.8339 36.9371 80.4859 37.8248 81.4775C38.724 82.4787 38.5727 83.669 38.4325 84.7713C38.3138 85.7043 38.2032 86.5744 38.7443 87.2134C39.3703 87.9565 40.7923 88.3958 42.7127 88.9889C45.2263 89.7653 48.5938 90.8054 52.1472 93.1359C53.9079 94.2922 55.3159 95.7757 56.7997 97.3391C59.7169 100.413 62.9271 103.795 69.6861 105.606C76.4591 107.421 80.9685 106.086 85.0387 104.88C87.0963 104.271 89.0417 103.695 91.1104 103.576C95.3409 103.331 98.7722 104.113 101.339 104.698C103.299 105.144 104.755 105.476 105.679 105.148C106.484 104.857 106.824 104.042 107.186 103.172C107.612 102.152 108.068 101.057 109.343 100.641C110.596 100.239 111.896 100.24 113.431 100.241C115.287 100.243 117.488 100.245 120.368 99.5341C123.73 98.6804 122.333 97.2532 121.453 96.516C107.003 84.0214 107.671 70.865 107.805 69.8982L107.816 69.8196C107.97 68.697 108.091 67.8164 109.58 67.0149C110.555 66.5038 113.538 65.539 115.963 64.7547C117.236 64.3429 118.355 63.9808 118.95 63.7602C121.833 62.7281 123.36 61.3324 123.123 59.0379C122.967 57.4671 121.778 56.572 120.351 56.1898C119.907 56.0707 119.474 56.0047 119.004 55.9792C117.666 55.9214 115.966 56.0925 114.724 56.2361C112.918 56.4289 111.338 55.028 111.321 53.2187C111.308 51.5858 112.576 50.221 114.206 50.0311C115.424 49.8813 117.436 49.6685 119.297 49.7409C120.212 49.7857 121.103 49.924 121.968 50.1559C126.131 51.2713 128.921 54.4251 129.336 58.3965C129.616 61.2791 128.713 63.9949 126.798 66.0888C125.446 67.5814 123.588 68.713 121.118 69.6053C120.548 69.8109 119.676 70.0959 118.595 70.4492L118.201 70.5781C117.66 70.7666 116.888 71.0159 116.091 71.2732L115.425 71.4888C115.224 71.5852 114.821 71.7781 114.612 71.9978C114.36 72.2814 114.237 72.6493 114.289 73.3902C114.47 74.4915 114.793 75.9065 115.347 77.484C117.012 82.2164 120.033 86.6604 124.37 90.6801C124.581 90.8742 124.793 91.0625 125.005 91.2508C125.218 91.4394 125.432 91.6289 125.643 91.8233C125.845 92.0028 126.089 92.2186 126.342 92.487Z" fill="white"/>
<path d="M126.342 92.487C127.735 93.8378 128.85 95.2896 129.053 97.5248C129.287 100.019 127.943 102.416 125.313 104.093C124.362 104.74 123.209 105.208 121.841 105.544C118.727 106.314 116.241 106.424 114.308 106.433C113.956 106.439 113.238 106.497 112.889 106.679C112.391 106.933 112.098 107.339 111.735 107.843C111.462 108.222 111.149 108.655 110.681 109.121C109.653 110.149 108.581 110.689 107.748 110.992C105.112 111.94 102.608 111.369 99.9404 110.755L99.8549 110.735C97.4429 110.188 94.7525 109.578 91.429 109.778C90.1665 109.839 88.743 110.254 87.0907 110.736L86.7597 110.833L86.7011 110.85C82.3797 112.121 76.4569 113.862 68.0289 111.604C59.609 109.348 55.3908 104.92 52.285 101.66L52.2337 101.606C50.9705 100.24 49.8567 99.0645 48.6832 98.2989C45.8847 96.4602 43.2522 95.6432 40.9142 94.9176L40.8235 94.8894L40.6204 94.8253C38.0848 94.0253 35.7049 93.2744 33.9437 91.191C33.4421 90.6305 32.8692 89.7751 32.4947 88.6471C32.1854 87.7634 32.1194 87.0683 32.0639 86.4851C32.0048 85.8634 31.9578 85.369 31.6413 84.9091C31.3891 84.5408 30.7268 84.1126 30.4478 83.9376C28.802 82.9702 26.7277 81.6373 24.4563 79.4495C23.5029 78.5173 22.7959 77.6009 22.2777 76.6349C20.7043 73.8069 20.8277 71.0075 22.3197 68.9006C24.0046 66.5267 26.373 66.0357 28.8755 65.5169C29.3036 65.4282 29.736 65.3385 30.1692 65.2386C35.7652 63.9055 40.4906 61.6122 44.2033 58.421C45.4429 57.3494 46.394 56.3258 47.1016 55.4626C47.5234 54.8237 47.6237 54.4495 47.5602 54.0314C47.5014 53.6898 47.1448 53.2433 47.0295 53.1121C46.3613 52.3315 45.6464 51.5384 45.162 51.0075C44.2742 50.0176 43.5826 49.2307 43.1216 48.7061C41.4521 46.7047 40.4094 44.796 39.961 42.8209C39.3498 40.0502 39.9318 37.2233 41.6097 34.8905C43.9546 31.6585 47.9707 30.3283 52.1103 31.4375C52.9756 31.6693 53.8159 31.9948 54.6311 32.4137C54.7334 32.4769 54.8385 32.5295 54.9413 32.5809C55.1028 32.6617 55.311 32.5752 55.3553 32.4001C55.9516 30.0396 56.6922 27.5687 57.5485 25.1742C60.7329 16.3769 65.1623 12.4752 69.4689 9.59347C71.2686 8.39625 74.2745 6.7201 78.4276 5.62707C84.2204 4.12114 90.2453 4.18138 96.4195 5.83576C98.08 6.28069 99.0793 7.97723 98.6281 9.66112C98.1769 11.345 96.4632 12.3146 94.8027 11.8697C82.7583 8.64239 74.6874 13.5987 72.9407 14.785C69.282 17.2137 65.9719 20.2121 63.3915 27.3163C61.7134 31.976 60.6525 37.1478 60.0106 40.2773C60.0019 40.3197 59.9928 40.3638 59.9843 40.4055C59.9244 40.6973 59.8683 40.9704 59.8157 41.2226C59.6181 42.1473 59.2309 42.4696 58.4358 42.2566C58.2487 42.2064 58.0912 42.1392 57.8933 42.036C57.3082 41.7224 56.5817 41.1878 55.7515 40.5767C54.5913 39.7229 53.2283 38.7199 51.7656 37.9627C51.3697 37.7563 50.9379 37.5905 50.4935 37.4714C49.0903 37.0954 47.5897 37.2699 46.6695 38.5524C45.34 40.427 45.9412 42.3929 47.9223 44.7285C48.2659 45.1282 48.8686 45.7954 49.5754 46.5777C51.345 48.5367 53.7675 51.2182 54.4093 52.232C55.3178 53.6399 54.9648 54.4985 54.5469 55.5147L54.505 55.6166C54.1374 56.5207 48.1608 68.2546 29.3768 71.8443C28.2691 72.0489 26.3392 72.6096 28.8302 75.0066C30.9573 77.0504 32.8567 78.1417 34.4603 79.0629C35.8023 79.8339 36.9371 80.4859 37.8248 81.4775C38.724 82.4787 38.5727 83.669 38.4325 84.7713C38.3138 85.7043 38.2032 86.5744 38.7443 87.2134C39.3703 87.9565 40.7923 88.3958 42.7127 88.9889C45.2263 89.7653 48.5938 90.8054 52.1472 93.1359C53.9079 94.2922 55.3159 95.7757 56.7997 97.3391C59.7169 100.413 62.9271 103.795 69.6861 105.606C76.4591 107.421 80.9685 106.086 85.0387 104.88C87.0963 104.271 89.0417 103.695 91.1104 103.576C95.3409 103.331 98.7722 104.113 101.339 104.698C103.299 105.144 104.755 105.476 105.679 105.148C106.484 104.857 106.824 104.042 107.186 103.172C107.612 102.152 108.068 101.057 109.343 100.641C110.596 100.239 111.896 100.24 113.431 100.241C115.287 100.243 117.488 100.245 120.368 99.5341C123.73 98.6804 122.333 97.2532 121.453 96.516C107.003 84.0214 107.671 70.865 107.805 69.8982L107.816 69.8196C107.97 68.697 108.091 67.8164 109.58 67.0149C110.555 66.5038 113.538 65.539 115.963 64.7547C117.236 64.3429 118.355 63.9808 118.95 63.7602C121.833 62.7281 123.36 61.3324 123.123 59.0379C122.967 57.4671 121.778 56.572 120.351 56.1898C119.907 56.0707 119.474 56.0047 119.004 55.9792C117.666 55.9214 115.966 56.0925 114.724 56.2361C112.918 56.4289 111.338 55.028 111.321 53.2187C111.308 51.5858 112.576 50.221 114.206 50.0311C115.424 49.8813 117.436 49.6685 119.297 49.7409C120.212 49.7857 121.103 49.924 121.968 50.1559C126.131 51.2713 128.921 54.4251 129.336 58.3965C129.616 61.2791 128.713 63.9949 126.798 66.0888C125.446 67.5814 123.588 68.713 121.118 69.6053C120.548 69.8109 119.676 70.0959 118.595 70.4492L118.201 70.5781C117.66 70.7666 116.888 71.0159 116.091 71.2732L115.425 71.4888C115.224 71.5852 114.821 71.7781 114.612 71.9978C114.36 72.2814 114.237 72.6493 114.289 73.3902C114.47 74.4915 114.793 75.9065 115.347 77.484C117.012 82.2164 120.033 86.6604 124.37 90.6801C124.581 90.8742 124.793 91.0625 125.005 91.2508C125.218 91.4394 125.432 91.6289 125.643 91.8233C125.845 92.0028 126.089 92.2186 126.342 92.487Z" fill="url(#paint0_linear_3121_2636)"/>
<path d="M117.999 40.7075C116.339 40.2626 115.346 38.5426 115.791 36.8821L118.868 25.399L107.408 22.3283C105.771 21.8897 104.778 20.1697 105.223 18.5092C105.668 16.8487 107.364 15.8495 109.025 16.2944L120.484 19.365L123.543 7.95204C123.981 6.31493 125.701 5.32192 127.362 5.76685C129.022 6.21178 130.021 7.90832 129.577 9.56882L126.512 21.0052L137.972 24.0759C139.609 24.5145 140.596 26.2578 140.157 27.8949C139.718 29.5321 138.022 30.5313 136.361 30.0864L124.902 27.0158L121.825 38.4989C121.38 40.1594 119.66 41.1524 117.999 40.7075Z" fill="white"/>
<path d="M117.999 40.7075C116.339 40.2626 115.346 38.5426 115.791 36.8821L118.868 25.399L107.408 22.3283C105.771 21.8897 104.778 20.1697 105.223 18.5092C105.668 16.8487 107.364 15.8495 109.025 16.2944L120.484 19.365L123.543 7.95204C123.981 6.31493 125.701 5.32192 127.362 5.76685C129.022 6.21178 130.021 7.90832 129.577 9.56882L126.512 21.0052L137.972 24.0759C139.609 24.5145 140.596 26.2578 140.157 27.8949C139.718 29.5321 138.022 30.5313 136.361 30.0864L124.902 27.0158L121.825 38.4989C121.38 40.1594 119.66 41.1524 117.999 40.7075Z" fill="url(#paint1_linear_3121_2636)"/>
</g>
<defs>
<linearGradient id="paint0_linear_3121_2636" x1="32.6398" y1="-11.254" x2="169.599" y2="42.2925" gradientUnits="userSpaceOnUse">
<stop stop-color="#FF9877"/>
<stop offset="0.495" stop-color="#FF6984"/>
<stop offset="1" stop-color="#FF449E"/>
</linearGradient>
<linearGradient id="paint1_linear_3121_2636" x1="106.632" y1="0.212348" x2="151.194" y2="17.5453" gradientUnits="userSpaceOnUse">
<stop stop-color="#FF9877"/>
<stop offset="0.495" stop-color="#FF6984"/>
<stop offset="1" stop-color="#FF449E"/>
</linearGradient>
</defs>
</svg>
