<svg width="16" height="16" viewBox="0 0 16 16" fill="none" xmlns="http://www.w3.org/2000/svg">
<path d="M8 1C11.866 1 15 4.13401 15 8C15 11.866 11.866 15 8 15C4.13401 15 1 11.866 1 8C1 4.13401 4.13401 1 8 1ZM8 2C4.68629 2 2 4.68629 2 8C2 11.3137 4.68629 14 8 14C11.3137 14 14 11.3137 14 8C14 4.68629 11.3137 2 8 2ZM8 10C8.55228 10 9 10.4477 9 11C9 11.5523 8.55228 12 8 12C7.44772 12 7 11.5523 7 11C7 10.4477 7.44772 10 8 10ZM8 4C8.53541 4 8.95367 4.46236 8.90039 4.99512L8.5498 8.50293C8.52136 8.78515 8.2837 9 8 9C7.7163 9 7.47864 8.78515 7.4502 8.50293L7.09961 4.99512C7.04633 4.46236 7.46459 4 8 4Z" fill="white"/>
</svg>
