<svg width="195" height="20" viewBox="0 0 195 20" fill="none" xmlns="http://www.w3.org/2000/svg">
<path d="M0 4C0 1.79086 1.79086 0 4 0H194.5V20H4C1.79086 20 0 18.2091 0 16V4Z" fill="#7F8C99"/>
<path d="M83.6621 14H80.2695V5.54492H83.6445C85.1445 5.54492 86.1289 6.37695 86.1289 7.6543C86.1289 8.55078 85.4668 9.35352 84.623 9.49414V9.54102C85.7715 9.66992 86.5449 10.4844 86.5449 11.6094C86.5449 13.0977 85.4609 14 83.6621 14ZM81.582 6.61719V9.14258H83.0527C84.1895 9.14258 84.8164 8.67383 84.8164 7.83594C84.8164 7.05078 84.2773 6.61719 83.3281 6.61719H81.582ZM81.582 12.9277H83.3926C84.5762 12.9277 85.2031 12.4414 85.2031 11.5273C85.2031 10.6133 84.5586 10.1445 83.3164 10.1445H81.582V12.9277ZM87.5645 14V7.83594H88.8301V14H87.5645ZM88.1973 6.83984C87.793 6.83984 87.4648 6.51172 87.4648 6.11328C87.4648 5.70898 87.793 5.38672 88.1973 5.38672C88.6016 5.38672 88.9238 5.70898 88.9238 6.11328C88.9238 6.51172 88.6016 6.83984 88.1973 6.83984ZM90.4941 6.37695H91.7656V7.83594H92.9375V8.83789H91.7656V12.2363C91.7656 12.7695 92 13.0098 92.5156 13.0098C92.6445 13.0098 92.8496 12.998 92.9316 12.9805V13.9824C92.791 14.0176 92.5098 14.041 92.2285 14.041C90.9805 14.041 90.4941 13.5664 90.4941 12.377V8.83789H89.5977V7.83594H90.4941V6.37695ZM93.9805 14V7.83594H95.1875V8.87305H95.2168C95.4922 8.1875 96.1367 7.73047 96.9688 7.73047C97.8242 7.73047 98.4453 8.16992 98.6914 8.9375H98.7207C99.0371 8.1875 99.7637 7.73047 100.643 7.73047C101.861 7.73047 102.658 8.53906 102.658 9.76367V14H101.387V10.0684C101.387 9.27148 100.959 8.81445 100.209 8.81445C99.459 8.81445 98.9375 9.37109 98.9375 10.1504V14H97.6953V9.97461C97.6953 9.26562 97.2441 8.81445 96.5293 8.81445C95.7793 8.81445 95.2461 9.40039 95.2461 10.1914V14H93.9805ZM106.531 14.1172C104.768 14.1172 103.607 12.9043 103.607 10.918C103.607 8.9375 104.773 7.72461 106.531 7.72461C108.289 7.72461 109.455 8.9375 109.455 10.918C109.455 12.9043 108.295 14.1172 106.531 14.1172ZM106.531 13.0742C107.527 13.0742 108.166 12.2891 108.166 10.918C108.166 9.55273 107.521 8.76758 106.531 8.76758C105.541 8.76758 104.896 9.55273 104.896 10.918C104.896 12.2891 105.541 13.0742 106.531 13.0742ZM111.74 7.83594V14.293C111.74 15.5469 111.09 16.1445 109.725 16.1445C109.666 16.1445 109.467 16.1445 109.432 16.1328V15.1367C109.455 15.1367 109.59 15.1426 109.613 15.1426C110.24 15.1426 110.475 14.9082 110.475 14.2871V7.83594H111.74ZM111.102 6.83984C110.697 6.83984 110.369 6.51172 110.369 6.11328C110.369 5.70898 110.697 5.38672 111.102 5.38672C111.506 5.38672 111.828 5.70898 111.828 6.11328C111.828 6.51172 111.506 6.83984 111.102 6.83984ZM113.076 14V7.83594H114.342V14H113.076ZM113.709 6.83984C113.305 6.83984 112.977 6.51172 112.977 6.11328C112.977 5.70898 113.305 5.38672 113.709 5.38672C114.113 5.38672 114.436 5.70898 114.436 6.11328C114.436 6.51172 114.113 6.83984 113.709 6.83984Z" fill="white"/>
</svg>
