<svg width="195" height="20" viewBox="0 0 195 20" fill="none" xmlns="http://www.w3.org/2000/svg">
<path d="M0.5 0H191C193.209 0 195 1.79086 195 4V16C195 18.2091 193.209 20 191 20H0.5V0Z" fill="#4F5963"/>
<path d="M69.9902 14H66.5977V5.54492H69.9727C71.4727 5.54492 72.457 6.37695 72.457 7.6543C72.457 8.55078 71.7949 9.35352 70.9512 9.49414V9.54102C72.0996 9.66992 72.873 10.4844 72.873 11.6094C72.873 13.0977 71.7891 14 69.9902 14ZM67.9102 6.61719V9.14258H69.3809C70.5176 9.14258 71.1445 8.67383 71.1445 7.83594C71.1445 7.05078 70.6055 6.61719 69.6562 6.61719H67.9102ZM67.9102 12.9277H69.7207C70.9043 12.9277 71.5312 12.4414 71.5312 11.5273C71.5312 10.6133 70.8867 10.1445 69.6445 10.1445H67.9102V12.9277ZM76.5 14.1172C74.7363 14.1172 73.5762 12.9043 73.5762 10.918C73.5762 8.9375 74.7422 7.72461 76.5 7.72461C78.2578 7.72461 79.4238 8.9375 79.4238 10.918C79.4238 12.9043 78.2637 14.1172 76.5 14.1172ZM76.5 13.0742C77.4961 13.0742 78.1348 12.2891 78.1348 10.918C78.1348 9.55273 77.4902 8.76758 76.5 8.76758C75.5098 8.76758 74.8652 9.55273 74.8652 10.918C74.8652 12.2891 75.5098 13.0742 76.5 13.0742ZM82.7168 14.1055C81.1582 14.1055 80.127 12.8633 80.127 10.918C80.127 8.97266 81.1582 7.73633 82.7051 7.73633C83.5898 7.73633 84.293 8.18164 84.6387 8.86133H84.6621V5.54492H85.9336V14H84.7031V12.9512H84.6797C84.3164 13.6543 83.6133 14.1055 82.7168 14.1055ZM83.0508 8.80273C82.0488 8.80273 81.4219 9.62305 81.4219 10.918C81.4219 12.2188 82.0488 13.0332 83.0508 13.0332C84.0234 13.0332 84.6738 12.207 84.6738 10.918C84.6738 9.64062 84.0234 8.80273 83.0508 8.80273ZM87.8496 16.2969C87.7441 16.2969 87.4277 16.2852 87.334 16.2676V15.2422C87.4277 15.2656 87.6387 15.2656 87.7441 15.2656C88.3301 15.2656 88.6465 15.0195 88.8398 14.3867C88.8398 14.375 88.9512 14.0117 88.9512 14.0059L86.7246 7.83594H88.0957L89.6543 12.8516H89.6777L91.2363 7.83594H92.5723L90.2637 14.3223C89.7363 15.8164 89.127 16.2969 87.8496 16.2969ZM104.461 14H103.26V7.77734H103.219L100.67 14H99.6973L97.1426 7.77734H97.1016V14H95.9062V5.54492H97.4238L100.16 12.2832H100.207L102.938 5.54492H104.461V14ZM108.516 14.1172C106.752 14.1172 105.592 12.9043 105.592 10.918C105.592 8.9375 106.758 7.72461 108.516 7.72461C110.273 7.72461 111.439 8.9375 111.439 10.918C111.439 12.9043 110.279 14.1172 108.516 14.1172ZM108.516 13.0742C109.512 13.0742 110.15 12.2891 110.15 10.918C110.15 9.55273 109.506 8.76758 108.516 8.76758C107.525 8.76758 106.881 9.55273 106.881 10.918C106.881 12.2891 107.525 13.0742 108.516 13.0742ZM112.418 14V7.83594H113.625V8.88477H113.654C113.859 8.16406 114.41 7.73633 115.137 7.73633C115.318 7.73633 115.477 7.76562 115.57 7.7832V8.96094C115.471 8.91992 115.248 8.89062 115.002 8.89062C114.188 8.89062 113.684 9.43555 113.684 10.3086V14H112.418ZM119.566 7.73633C121.131 7.73633 122.162 8.9668 122.162 10.918C122.162 12.8691 121.137 14.1055 119.59 14.1055C118.705 14.1055 118.002 13.6719 117.65 12.9863H117.621V16.0391H116.355V7.83594H117.58V8.89648H117.604C117.967 8.1875 118.676 7.73633 119.566 7.73633ZM119.232 13.0332C120.234 13.0332 120.861 12.2129 120.861 10.918C120.861 9.62891 120.234 8.80273 119.232 8.80273C118.266 8.80273 117.615 9.64648 117.615 10.918C117.615 12.2012 118.26 13.0332 119.232 13.0332ZM123.188 14V5.54492H124.441V8.86719H124.471C124.811 8.14648 125.484 7.73047 126.422 7.73047C127.775 7.73047 128.584 8.63281 128.584 10.0273V14H127.312V10.2734C127.312 9.36523 126.855 8.82031 125.965 8.82031C125.027 8.82031 124.453 9.46484 124.453 10.4375V14H123.188Z" fill="#C3D2DF"/>
</svg>
