<svg width="135" height="135" viewBox="0 0 135 135" fill="none" xmlns="http://www.w3.org/2000/svg">
<rect width="135" height="135" rx="6" fill="#667380"/>
<path fill-rule="evenodd" clip-rule="evenodd" d="M57.1877 68.5728C57.414 61.511 61.0992 55.0095 67.012 51.1935C72.9247 55.0097 76.6097 61.5114 76.8359 68.5733C70.6524 71.8092 63.371 71.809 57.1877 68.5728ZM58.0149 57.5478C56.3656 60.46 55.3291 63.722 55.0223 67.1315C52.6951 64.776 53.0346 60.4871 56.0513 58.6979L57.1742 58.032L57.5758 57.7937C57.7214 57.7097 57.8678 57.6277 58.0149 57.5478ZM56.0311 56.0938L58.4046 56.885C60.0264 54.2255 62.1713 51.8826 64.745 50.0191C61.6296 49.0981 58.2755 51.4072 58.2755 54.8814V56.0557C58.2755 56.3204 58.2811 56.5844 58.2923 56.8474L56.0255 56.0918L56.0255 56.0557V54.8814C56.0255 49.2431 62.14 45.7286 67.0119 48.5665C71.9101 45.7744 77.998 49.3116 77.998 54.9497V56.0558L77.998 56.0966L77.9981 56.0967L79.1181 56.7685C83.046 59.1247 83.7863 64.3649 81.3467 67.8106C80.7727 68.6213 80.0227 69.3327 79.0967 69.8838L79.07 69.8998C78.635 75.0049 73.0065 78.0875 68.4198 75.5035L67.0118 74.7102L67 74.7035V74.7171L65.6038 75.5037C61.0169 78.0878 55.388 75.0048 54.9534 69.8992L54.9278 69.8838C50.3314 67.1821 50.0409 60.5326 54.07 57.3362C54.3298 57.13 54.6077 56.9382 54.9035 56.7627L56.0263 56.0968L56.0263 56.0967L56.0311 56.0938ZM75.6151 56.8784C73.9972 54.2272 71.8594 51.8907 69.2949 50.0307C72.4196 49.1536 75.748 51.4773 75.748 54.9497V56.0558C75.748 56.3178 75.7427 56.5791 75.732 56.8394L75.6151 56.8784ZM57.5943 71.2639C60.0209 72.3316 62.5743 72.9689 65.1522 73.1756L64.4994 73.5434C61.857 75.032 58.7104 73.7784 57.5943 71.2639ZM79.0002 67.1197C81.2998 64.7549 80.9563 60.4949 77.9607 58.698L77.9606 58.698L76.8407 58.0262L76.8291 58.0192L76.8291 58.0192C76.5583 57.8545 76.2846 57.6971 76.0084 57.5471C77.656 60.4562 78.6921 63.7142 79.0002 67.1197ZM76.4289 71.2644C74.0026 72.3319 71.4494 72.969 68.8718 73.1757L69.5241 73.5432C72.1663 75.0317 75.3126 73.7785 76.4289 71.2644ZM69.3865 59.6135L67 55.25L64.6135 59.6135L60.25 62L64.6135 64.3865L67 68.75L69.3865 64.3865L73.75 62L69.3865 59.6135Z" fill="#C3D2DF"/>
<path d="M41.2754 93.5H39.9629V86.1758H37.373V85.0449H43.8594V86.1758H41.2754V93.5ZM45.8457 88.2441C44.9609 88.2441 44.3398 88.918 44.2754 89.8496H47.3574C47.3281 88.9062 46.7305 88.2441 45.8457 88.2441ZM47.3516 91.6895H48.5527C48.377 92.8145 47.3105 93.6172 45.8984 93.6172C44.0879 93.6172 42.9922 92.3926 42.9922 90.4473C42.9922 88.5137 44.1055 87.2246 45.8457 87.2246C47.5566 87.2246 48.623 88.4316 48.623 90.3008V90.7344H44.2695V90.8105C44.2695 91.8828 44.9141 92.5918 45.9277 92.5918C46.6484 92.5918 47.1816 92.2285 47.3516 91.6895ZM51.8105 91.2324H51.7812L50.416 93.5H49.0449L51.0781 90.4238L49.0742 87.3359H50.4922L51.8398 89.5684H51.8633L53.1934 87.3359H54.5879L52.5664 90.3828L54.5645 93.5H53.1699L51.8105 91.2324ZM55.7539 85.877H57.0254V87.3359H58.1973V88.3379H57.0254V91.7363C57.0254 92.2695 57.2598 92.5098 57.7754 92.5098C57.9043 92.5098 58.1094 92.498 58.1914 92.4805V93.4824C58.0508 93.5176 57.7695 93.541 57.4883 93.541C56.2402 93.541 55.7539 93.0664 55.7539 91.877V88.3379H54.8574V87.3359H55.7539V85.877ZM61.8301 85.0449H65C66.6406 85.0449 67.7832 86.1758 67.7832 87.8223C67.7832 89.4746 66.6172 90.6113 64.959 90.6113H63.1426V93.5H61.8301V85.0449ZM63.1426 86.1523V89.5098H64.6484C65.791 89.5098 66.4414 88.8945 66.4414 87.8281C66.4414 86.7617 65.791 86.1523 64.6543 86.1523H63.1426ZM68.7793 93.5V87.3359H69.9863V88.3848H70.0156C70.2207 87.6641 70.7715 87.2363 71.498 87.2363C71.6797 87.2363 71.8379 87.2656 71.9316 87.2832V88.4609C71.832 88.4199 71.6094 88.3906 71.3633 88.3906C70.5488 88.3906 70.0449 88.9355 70.0449 89.8086V93.5H68.7793ZM75.0957 93.6172C73.332 93.6172 72.1719 92.4043 72.1719 90.418C72.1719 88.4375 73.3379 87.2246 75.0957 87.2246C76.8535 87.2246 78.0195 88.4375 78.0195 90.418C78.0195 92.4043 76.8594 93.6172 75.0957 93.6172ZM75.0957 92.5742C76.0918 92.5742 76.7305 91.7891 76.7305 90.418C76.7305 89.0527 76.0859 88.2676 75.0957 88.2676C74.1055 88.2676 73.4609 89.0527 73.4609 90.418C73.4609 91.7891 74.1055 92.5742 75.0957 92.5742ZM78.998 93.5V87.3359H80.2051V88.373H80.2344C80.5098 87.6875 81.1543 87.2305 81.9863 87.2305C82.8418 87.2305 83.4629 87.6699 83.709 88.4375H83.7383C84.0547 87.6875 84.7812 87.2305 85.6602 87.2305C86.8789 87.2305 87.6758 88.0391 87.6758 89.2637V93.5H86.4043V89.5684C86.4043 88.7715 85.9766 88.3145 85.2266 88.3145C84.4766 88.3145 83.9551 88.8711 83.9551 89.6504V93.5H82.7129V89.4746C82.7129 88.7656 82.2617 88.3145 81.5469 88.3145C80.7969 88.3145 80.2637 88.9004 80.2637 89.6914V93.5H78.998ZM92.1113 87.2363C93.6758 87.2363 94.707 88.4668 94.707 90.418C94.707 92.3691 93.6816 93.6055 92.1348 93.6055C91.25 93.6055 90.5469 93.1719 90.1953 92.4863H90.166V95.5391H88.9004V87.3359H90.125V88.3965H90.1484C90.5117 87.6875 91.2207 87.2363 92.1113 87.2363ZM91.7773 92.5332C92.7793 92.5332 93.4062 91.7129 93.4062 90.418C93.4062 89.1289 92.7793 88.3027 91.7773 88.3027C90.8105 88.3027 90.1602 89.1465 90.1602 90.418C90.1602 91.7012 90.8047 92.5332 91.7773 92.5332ZM96.0547 85.877H97.3262V87.3359H98.498V88.3379H97.3262V91.7363C97.3262 92.2695 97.5605 92.5098 98.0762 92.5098C98.2051 92.5098 98.4102 92.498 98.4922 92.4805V93.4824C98.3516 93.5176 98.0703 93.541 97.7891 93.541C96.541 93.541 96.0547 93.0664 96.0547 91.877V88.3379H95.1582V87.3359H96.0547V85.877Z" fill="#C3D2DF"/>
</svg>
