<svg width="16" height="16" viewBox="0 0 16 16" fill="none" xmlns="http://www.w3.org/2000/svg">
<path fill-rule="evenodd" clip-rule="evenodd" d="M9 2.5C9 2.22386 9.22386 2 9.5 2C12.8368 2 15 4.78866 15 8C15 11.2113 12.8368 14 9.5 14C9.22386 14 9 13.7761 9 13.5C9 13.2239 9.22386 13 9.5 13C12.1632 13 14 10.7887 14 8C14 5.21134 12.1632 3 9.5 3C9.22386 3 9 2.77614 9 2.5ZM6.29289 2.99999C6.92286 2.37002 8 2.81619 8 3.70709V12.2929C8 13.1838 6.92286 13.63 6.29289 13L4.43934 11.1464C4.34557 11.0527 4.21839 11 4.08579 11H2.5C1.67157 11 1 10.3284 1 9.49999V6.49999C1 5.67156 1.67157 4.99999 2.5 4.99999H4.08579C4.21839 4.99999 4.34557 4.94731 4.43934 4.85354L6.29289 2.99999ZM7 3.70709L5.14645 5.56065C4.86514 5.84195 4.48361 5.99999 4.08579 5.99999H2.5C2.22386 5.99999 2 6.22384 2 6.49999V9.49999C2 9.77613 2.22386 9.99999 2.5 9.99999H4.08579C4.48361 9.99999 4.86514 10.158 5.14645 10.4393L7 12.2929L7 3.70709ZM9.5 5C9.22386 5 9 5.22386 9 5.5C9 5.77614 9.22386 6 9.5 6C10.1543 6 11 6.70106 11 8C11 9.29894 10.1543 10 9.5 10C9.22386 10 9 10.2239 9 10.5C9 10.7761 9.22386 11 9.5 11C10.8457 11 12 9.70106 12 8C12 6.29894 10.8457 5 9.5 5Z" fill="#5ECDA7"/>
</svg>
