<svg width="16" height="16" viewBox="0 0 16 16" fill="none" xmlns="http://www.w3.org/2000/svg">
<path fill-rule="evenodd" clip-rule="evenodd" d="M3 5.5C3 3.567 4.567 2 6.5 2H10C11.6569 2 13 3.34315 13 5H12C12 3.89543 11.1046 3 10 3H6.5C5.11929 3 4 4.11929 4 5.5V9.00205C4.55805 9.03646 5 9.49995 5 10.0667L5 12.9333C5 13.5224 4.52244 14 3.93333 14H3.5C2.11929 14 1 12.8807 1 11.5C1 10.2905 1.85888 9.28164 3 9.05001V5.5ZM3.93333 10H3.5C2.67157 10 2 10.6716 2 11.5C2 12.3284 2.67157 13 3.5 13H3.93333C3.97015 13 4 12.9702 4 12.9333L4 10.0667C4 10.0298 3.97015 10 3.93333 10ZM15 7.06752C15 6.21969 14.0111 5.75653 13.3598 6.2993L11.458 7.88411C11.3682 7.95899 11.2549 8 11.1379 8H9.5C8.67157 8 8 8.67157 8 9.5V11.5C8 12.3284 8.67157 13 9.5 13H11.1379C11.2549 13 11.3682 13.041 11.458 13.1159L13.3598 14.7007C14.0111 15.2435 15 14.7803 15 13.9325V7.06752ZM12.0982 8.65233L14 7.06752V13.9325L12.0982 12.3477C11.8287 12.123 11.4889 12 11.1379 12H9.5C9.22386 12 9 11.7761 9 11.5V9.5C9 9.22386 9.22386 9 9.5 9H11.1379C11.4889 9 11.8287 8.87698 12.0982 8.65233Z" fill="#5ECDA7"/>
</svg>
