<svg width="16" height="16" viewBox="0 0 16 16" fill="none" xmlns="http://www.w3.org/2000/svg">
<path fill-rule="evenodd" clip-rule="evenodd" d="M11 2.90508L3 2.10508L3 13.8951L11 13.0951V13.0001H12V13.0951C12 13.6089 11.6107 14.039 11.0995 14.0901L3.09951 14.8901C2.51082 14.949 2 14.4867 2 13.8951V2.10508C2 1.51346 2.51082 1.05117 3.0995 1.11004L11.0995 1.91004C11.6107 1.96116 12 2.39133 12 2.90508V3.00009H11V2.90508ZM7 5.00009H13V7.02395C11.8442 7.13311 10.7985 7.59797 9.83805 8.02491L9.79693 8.04319C8.82584 8.47478 7.93691 8.86426 7 8.9712V5.00009ZM10.2031 8.957C11.1742 8.5254 12.0631 8.13592 13 8.02899V11.0001H7V9.97623C8.15579 9.86707 9.20152 9.40222 10.1619 8.97528L10.1619 8.97528L10.2031 8.957ZM6 5.00009V9.50009V11.0001C6 11.5524 6.44772 12.0001 7 12.0001H13C13.5523 12.0001 14 11.5524 14 11.0001V7.50009V5.00009C14 4.44781 13.5523 4.00009 13 4.00009H7C6.44772 4.00009 6 4.44781 6 5.00009ZM9 8.00009C9.55228 8.00009 10 7.55238 10 7.00009C10 6.44781 9.55228 6.00009 9 6.00009C8.44772 6.00009 8 6.44781 8 7.00009C8 7.55238 8.44772 8.00009 9 8.00009Z" fill="#F08F35"/>
</svg>
