<svg fill="none" height="16" viewBox="0 0 16 16" width="16" xmlns="http://www.w3.org/2000/svg"><path clip-rule="evenodd" d="m8 10c2.2091 0 4-1.79086 4-4s-1.7909-4-4-4c-2.20914 0-4 1.79086-4 4s1.79086 4 4 4zm5-4c0 1.63582-.7856 3.08816-2 4.0004v1.9996c0 1.6569-1.34315 3-3 3s-3-1.3431-3-3v-1.9996l.00084.0006c-1.21492-.91217-2.00084-2.3648-2.00084-4.001 0-2.76142 2.23858-5 5-5 2.7614 0 5 2.23858 5 5zm-5 5c.6726 0 1.31418-.1328 1.89995-.3736-.26285.7977-1.01415 1.3736-1.89995 1.3736s-1.6371-.5759-1.89995-1.3736c.58577.2408 1.22735.3736 1.89995.3736zm0 3c1.01996 0 1.86159-.7635 1.98455-1.7502-.52888.4669-1.22363.7502-1.98455.7502s-1.45567-.2833-1.98455-.7502c.12296.9867.96459 1.7502 1.98455 1.7502zm0-10.5c-.27614 0-.5.22386-.5.5s.22386.5.5.5c.82843 0 1.5.67157 1.5 1.5 0 .27614.22386.5.5.5.2761 0 .5-.22386.5-.5 0-1.38071-1.11929-2.5-2.5-2.5z" fill="#fce94e" fill-rule="evenodd"/></svg>
