<svg width="16" height="16" viewBox="0 0 16 16" fill="none" xmlns="http://www.w3.org/2000/svg">
<path fill-rule="evenodd" clip-rule="evenodd" d="M11 2H5V3H6C6.35217 3 6.66183 3.18205 6.83999 3.45718L3.96875 11.6607C3.68799 12.4629 2.93093 13 2.08104 13H2V14H7V13H6.38743C5.70487 13 5.2229 12.3313 5.43874 11.6838L6.33333 9H9.66667L10.5613 11.6838C10.7771 12.3313 10.2951 13 9.61257 13H9V14H14V13H13.919C13.0691 13 12.312 12.4629 12.0312 11.6607L9.16001 3.45718C9.33817 3.18205 9.64783 3 10 3H11V2ZM9.33333 8L8 4L6.66667 8H9.33333Z" fill="#DEE6ED"/>
</svg>
