<svg width="49" height="49" viewBox="0 0 49 49" fill="none" xmlns="http://www.w3.org/2000/svg">
<path d="M24.8281 3.0625C36.4261 3.0625 45.8281 12.4645 45.8281 24.0625C45.8281 35.6605 36.4261 45.0625 24.8281 45.0625C13.2301 45.0625 3.82812 35.6605 3.82812 24.0625C3.82813 12.4645 13.2301 3.0625 24.8281 3.0625Z" fill="#C3D2DF"/>
<path d="M26.7031 16.5625C30.8741 16.5625 33.5781 20.0483 33.5781 24.0625C33.5781 28.0767 30.8741 31.5625 26.7031 31.5625C26.3579 31.5625 26.0781 31.2827 26.0781 30.9375C26.0781 30.5923 26.3579 30.3125 26.7031 30.3125C30.0322 30.3125 32.3281 27.5483 32.3281 24.0625C32.3281 20.5767 30.0322 17.8125 26.7031 17.8125C26.3579 17.8125 26.0781 17.5327 26.0781 17.1875C26.0781 16.8423 26.3579 16.5625 26.7031 16.5625ZM22.6943 17.8125C23.4818 17.0251 24.828 17.5827 24.8281 18.6963V29.4287C24.828 30.5422 23.4818 31.0998 22.6943 30.3125L20.377 27.9951C20.2598 27.8782 20.1011 27.8125 19.9355 27.8125H17.9531C16.9176 27.8125 16.0781 26.973 16.0781 25.9375V22.1875C16.0781 21.152 16.9176 20.3125 17.9531 20.3125H19.9355C20.101 20.3125 20.2598 20.2468 20.377 20.1299L22.6943 17.8125ZM21.2607 21.0137C20.9092 21.365 20.4326 21.5624 19.9355 21.5625H17.9531C17.6079 21.5625 17.3281 21.8423 17.3281 22.1875V25.9375C17.3281 26.2827 17.608 26.5625 17.9531 26.5625H19.9355C20.4326 26.5625 20.9092 26.76 21.2607 27.1113L23.5781 29.4287V18.6963L21.2607 21.0137ZM26.7031 20.3125C28.3852 20.3125 29.8281 21.9362 29.8281 24.0625C29.8281 26.1888 28.3852 27.8125 26.7031 27.8125C26.3579 27.8125 26.0781 27.5327 26.0781 27.1875C26.0781 26.8423 26.3579 26.5625 26.7031 26.5625C27.521 26.5625 28.5781 25.6862 28.5781 24.0625C28.5781 22.4388 27.521 21.5625 26.7031 21.5625C26.3579 21.5625 26.0781 21.2827 26.0781 20.9375C26.0781 20.5923 26.3579 20.3125 26.7031 20.3125Z" fill="#1E1E1E"/>
</svg>
