<svg width="29" height="21" viewBox="0 0 29 21" fill="none" xmlns="http://www.w3.org/2000/svg">
<path d="M0.537109 2.68848C0.537109 1.58391 1.43254 0.688477 2.53711 0.688477H26.5371C27.6417 0.688477 28.5371 1.58391 28.5371 2.68848V18.6885C28.5371 19.793 27.6417 20.6885 26.5371 20.6885H2.53711C1.43254 20.6885 0.537109 19.793 0.537109 18.6885V2.68848Z" fill="#515962"/>
<path d="M13.6927 6.06609C13.6927 5.67336 14.011 5.35498 14.4038 5.35498C14.7965 5.35498 15.1149 5.67336 15.1149 6.06609V6.57403H16.08C17.8147 6.57403 18.6821 6.57403 19.2928 7.01133C19.5013 7.1606 19.6839 7.34314 19.8331 7.55163C20.2704 8.16241 20.2704 9.02978 20.2704 10.7645C20.2704 12.4992 20.2704 13.3666 19.8331 13.9774C19.6839 14.1859 19.5013 14.3684 19.2928 14.5177C18.6821 14.955 17.8147 14.955 16.08 14.955H15.1149V15.3105C15.1149 15.7033 14.7965 16.0216 14.4038 16.0216C14.011 16.0216 13.6927 15.7033 13.6927 15.3105V6.06609Z" fill="#C3D2DF"/>
<path d="M12.2704 6.57437C10.8355 6.57773 10.0693 6.61426 9.51471 7.01133C9.30622 7.1606 9.12368 7.34314 8.9744 7.55163C8.53711 8.16241 8.53711 9.02978 8.53711 10.7645C8.53711 12.4992 8.53711 13.3666 8.9744 13.9774C9.12368 14.1859 9.30622 14.3684 9.51471 14.5177C10.0693 14.9148 10.8355 14.9513 12.2704 14.9546V13.5323C11.63 13.5307 11.1922 13.5227 10.8512 13.4862C10.4607 13.4443 10.3669 13.3787 10.3426 13.3613C10.2609 13.3028 10.1893 13.2312 10.1308 13.1494C10.1134 13.1252 10.0478 13.0314 10.0059 12.6409C9.96124 12.2242 9.95933 11.6632 9.95933 10.7645C9.95933 9.86583 9.96124 9.30479 10.0059 8.88814C10.0478 8.49759 10.1134 8.40381 10.1308 8.37957C10.1893 8.29782 10.2609 8.22625 10.3426 8.16772C10.3669 8.15036 10.4607 8.08468 10.8512 8.04282C11.1922 8.00627 11.63 7.99836 12.2704 7.99669V6.57437Z" fill="#C3D2DF"/>
</svg>
