<svg width="15" height="14" viewBox="0 0 15 14" fill="none" xmlns="http://www.w3.org/2000/svg">
<path d="M7.33984 0C8.28637 0.000126874 9.13971 0.500023 9.63965 1.32617L10.0264 1.97266C11.3463 4.17151 13.3397 7.49606 14.333 9.30176V9.30859C14.7997 10.1548 14.7795 11.1681 14.2861 12.001C13.7928 12.8337 12.9196 13.3329 11.9531 13.333H2.71973C1.75308 13.333 0.879081 12.8339 0.385742 12.001C-0.114258 11.1681 -0.126823 10.1615 0.339844 9.30859C1.36656 7.43614 3.50601 3.88431 4.7793 1.75879L5.03906 1.32617C5.53906 0.493255 6.39984 0 7.33984 0ZM7.3457 1.32617C6.87255 1.32633 6.4523 1.57288 6.19238 2.00586L5.93262 2.43848C4.65934 4.55732 2.53292 8.0956 1.51953 9.94141C1.27955 10.3745 1.28579 10.888 1.53906 11.3145C1.7924 11.7409 2.23323 11.9941 2.72656 11.9941H11.96C12.4531 11.994 12.8932 11.7408 13.1465 11.3145C13.3997 10.8881 13.4059 10.3618 13.166 9.92871C12.186 8.1496 10.1991 4.83774 8.88574 2.64551L8.49902 1.99902C8.23901 1.57269 7.81897 1.32617 7.3457 1.32617ZM7.33984 8.65527C7.79981 8.65547 8.17269 9.02853 8.17285 9.48828C8.17285 9.94817 7.79992 10.3211 7.33984 10.3213C6.87961 10.3213 6.50586 9.94829 6.50586 9.48828C6.50603 9.02841 6.87971 8.65527 7.33984 8.65527ZM7.33887 3.99805C7.70548 3.99805 8.00577 4.29766 8.00586 4.66406V7.33594C8.00586 7.70242 7.70553 8.00293 7.33887 8.00293C6.97242 8.00267 6.67285 7.70226 6.67285 7.33594V4.66406C6.67294 4.29782 6.97248 3.99831 7.33887 3.99805Z" fill="#EA5563"/>
</svg>
