<svg width="16" height="16" viewBox="0 0 16 16" fill="none" xmlns="http://www.w3.org/2000/svg">
<path fill-rule="evenodd" clip-rule="evenodd" d="M3.63896 10.9213C3.73958 7.78267 5.37741 4.89312 8.00535 3.19713C10.6332 4.89321 12.271 7.78286 12.3715 10.9215C9.62329 12.3596 6.38712 12.3596 3.63896 10.9213ZM4.00663 6.02124C3.27359 7.31555 2.81292 8.76533 2.67657 10.2807C1.64228 9.23377 1.79317 7.32762 3.13393 6.5324L3.63296 6.23642L3.81146 6.13055C3.87618 6.09319 3.94125 6.05675 4.00663 6.02124ZM3.12495 5.37502L4.17982 5.72665C4.90061 4.54469 5.85389 3.50336 6.99779 2.67515C5.61317 2.26582 4.12244 3.2921 4.12244 4.83617V5.35807C4.12244 5.47575 4.12495 5.59307 4.12991 5.70997L3.12246 5.37415L3.12244 5.35807V4.83617C3.12244 2.33027 5.83998 0.768275 8.0053 2.02956C10.1823 0.788616 12.888 2.36069 12.888 4.86655V5.35815L12.888 5.37628L12.8881 5.37632L13.3858 5.6749C15.1315 6.72207 15.4606 9.05109 14.3763 10.5825C14.1212 10.9428 13.7879 11.259 13.3763 11.5039L13.3645 11.511C13.1711 13.78 10.6695 15.15 8.63101 14.0016L8.00522 13.649L8 13.646V13.6521L7.37945 14.0016C5.34082 15.1501 2.83912 13.7799 2.64597 11.5107L2.63457 11.5039C0.591735 10.3031 0.462624 7.34783 2.25331 5.92718C2.36882 5.83554 2.49231 5.75029 2.62379 5.67231L3.12279 5.37635L3.12282 5.37632L3.12495 5.37502ZM11.8289 5.72373C11.1099 4.54543 10.1597 3.507 9.01997 2.68029C10.4087 2.29049 11.888 3.32326 11.888 4.86655V5.35815C11.888 5.4746 11.8856 5.5907 11.8809 5.70641L11.8289 5.72373ZM3.81968 12.1173C4.89817 12.5918 6.03301 12.8751 7.17876 12.9669L6.88862 13.1304C5.71421 13.792 4.31572 13.2349 3.81968 12.1173ZM13.3334 10.2754C14.3555 9.22438 14.2028 7.33108 12.8714 6.53245L12.8714 6.53244L12.3737 6.23386L12.3685 6.23076L12.3685 6.23075C12.2481 6.15755 12.1265 6.08762 12.0037 6.02095C12.736 7.31385 13.1965 8.76188 13.3334 10.2754ZM12.1906 12.1175C11.1123 12.592 9.97753 12.8751 8.8319 12.967L9.12184 13.1303C10.2961 13.7919 11.6945 13.2349 12.1906 12.1175ZM9.06066 6.93934L8 5L6.93934 6.93934L5 8L6.93934 9.06066L8 11L9.06066 9.06066L11 8L9.06066 6.93934Z" fill="white"/>
</svg>
