<svg width="254" height="260" viewBox="0 0 254 260" fill="none" xmlns="http://www.w3.org/2000/svg">
<path d="M108 181H64.0469C60.6658 181 59.5388 195.695 76.4439 198.71C89.9679 201.121 103.116 187.908 108 181Z" fill="white"/>
<path d="M84.6261 57.6768C82.9658 61.5214 81.8327 65.6561 81.3126 69.999C79.4286 70.2137 77.5339 70.5118 75.632 70.8965C39.8398 78.1361 20.6734 112.38 28.6613 151.872C32.8516 172.589 41.3717 190.75 53.7873 202.376C55.8483 204.306 59.4715 206.415 64.7189 208.367C69.8203 210.265 75.7108 211.742 81.6076 212.818C87.4775 213.89 93.1069 214.52 97.5822 214.803C102.583 215.118 104.855 214.911 104.765 214.93C104.824 214.903 107.063 214.164 111.527 211.967C113.413 211.038 115.5 209.943 117.707 208.713C120.516 211.393 123.395 213.913 126.307 216.246C126.639 216.512 126.974 216.775 127.309 217.038C118.117 222.477 109.939 226.126 107.144 226.691C100.592 228.016 61.0451 225.074 45.9367 211.458L45.5851 211.135C38.1724 204.193 32.127 195.532 27.3732 185.832C27.0253 185.964 26.6369 186.076 26.2042 186.163C17.2873 187.967 3.80054 175.109 0.880027 160.67C-2.04035 146.231 3.48174 136.332 12.3986 134.528C13.3435 134.337 14.1688 134.296 14.8927 134.388C14.9487 97.9338 36.1137 66.6468 73.2531 59.1348C77.0829 58.3601 80.8798 57.8794 84.6261 57.6768Z" fill="white"/>
<path d="M181.212 180.31C180.544 184.926 175.04 187.949 168.917 187.063C162.795 186.177 158.374 181.717 159.042 177.101C159.595 173.281 164.904 174.851 168.308 177.187C169.455 177.975 170.979 178.195 172.302 177.765C176.229 176.491 181.765 176.49 181.212 180.31Z" fill="#FCE153"/>
<path d="M163.753 4.99733C164.859 3.35952 167.338 3.59201 168.12 5.40688L169.834 9.3822C170 9.76669 170.272 10.0956 170.62 10.3298L174.207 12.7527C175.845 13.8588 175.612 16.3379 173.798 17.1202L169.822 18.834C169.438 18.9995 169.109 19.272 168.874 19.6189L166.451 23.2064C165.345 24.8442 162.866 24.6117 162.084 22.7968L160.37 18.8215C160.204 18.437 159.931 18.1081 159.584 17.8739L155.997 15.451C154.359 14.345 154.591 11.8658 156.406 11.0835L160.381 9.36975C160.766 9.20424 161.095 8.93169 161.33 8.5848L163.753 4.99733Z" fill="white"/>
<path d="M59.3066 126.011C60.2549 124.277 62.7451 124.277 63.6934 126.011L68.2606 134.362C68.5793 134.943 69.0576 135.421 69.6397 135.739L77.9902 140.307C79.7239 141.255 79.7239 143.745 77.9902 144.693L69.6397 149.261C69.0576 149.579 68.5793 150.057 68.2606 150.638L63.6934 158.989C62.7451 160.723 60.2549 160.723 59.3066 158.989L54.7394 150.638C54.4207 150.057 53.9424 149.579 53.3603 149.261L45.0098 144.693C43.2761 143.745 43.2761 141.255 45.0098 140.307L53.3603 135.739C53.9424 135.421 54.4207 134.943 54.7394 134.362L59.3066 126.011Z" fill="url(#paint0_linear_558_493)"/>
<path d="M195.368 15.8127C196.506 13.732 199.494 13.732 200.632 15.8127L204.925 23.6631C205.252 24.2588 205.742 24.7486 206.338 25.0741L214.188 29.3679C216.269 30.5059 216.269 33.4939 214.188 34.6319L206.338 38.9257C205.742 39.2512 205.252 39.7411 204.925 40.3367L200.632 48.1872C199.494 50.2678 196.506 50.2678 195.368 48.1872L191.075 40.3367C190.748 39.7411 190.258 39.2512 189.662 38.9257L181.812 34.6319C179.731 33.4939 179.731 30.5059 181.812 29.3679L189.662 25.0741C190.258 24.7486 190.748 24.2588 191.075 23.6631L195.368 15.8127Z" fill="white"/>
<path d="M217.486 189.5C218.766 189.5 219.946 190.198 220.565 191.32L229.859 208.197L246.776 217.429C247.9 218.043 248.603 219.22 248.608 220.5C248.613 221.779 247.92 222.957 246.8 223.571L229.956 232.801L220.794 249.679C220.184 250.802 219.009 251.5 217.73 251.5C216.45 251.499 215.271 250.802 214.652 249.679L205.356 232.801L188.44 223.571C187.316 222.957 186.613 221.779 186.608 220.5C186.603 219.221 187.296 218.043 188.416 217.429L205.26 208.197L214.423 191.32L214.543 191.115C215.179 190.114 216.287 189.5 217.486 189.5ZM211.201 211.949L211.199 211.952C210.7 212.869 209.949 213.624 209.031 214.127L209.03 214.126L197.402 220.5L209.082 226.874C210.003 227.376 210.76 228.131 211.267 229.048L211.269 229.051L217.687 240.705L224.015 229.051L224.017 229.048C224.516 228.131 225.268 227.376 226.185 226.874L237.814 220.5L226.136 214.126C225.214 213.623 224.456 212.869 223.949 211.952L223.948 211.949L217.529 200.295L211.201 211.949Z" fill="#FFBC67"/>
<path d="M175.244 38.0176C176.062 39.103 177.131 40.0506 178.452 40.7735L185.418 44.5831L189.227 51.546C193.02 58.4815 202.98 58.4815 206.773 51.546L210.581 44.5831L215.656 41.8067C218.143 42.2501 220.65 42.7366 223.174 43.2696C236.959 46.1805 247.328 57.4047 248.667 71.4298C251.509 101.195 249.639 141.591 238.109 166.096C234.564 173.631 230.693 180.867 226.434 187.521C224.52 184.411 221.124 182.5 217.459 182.5C213.861 182.5 210.538 184.34 208.629 187.347L208.502 187.556L208.382 187.761L208.269 187.962L200.081 203.038L185.032 211.288C181.778 213.072 179.724 216.443 179.612 220.141L179.608 220.5C179.612 221.473 179.75 222.426 180.01 223.337C177.308 223.772 174.519 224 171.64 224C150.402 224 115.374 197.652 101.517 166.096C91.1182 142.416 90.5684 101.191 93.1192 72.4444C94.4104 57.8939 105.112 46.2646 119.43 43.3702C134.649 40.2937 153.674 37.7633 175.244 38.0176ZM206.171 165.607C202.64 161.007 196.049 160.14 191.449 163.671C177.918 174.056 164.558 168.16 159.624 163.984C155.197 160.239 148.572 160.791 144.826 165.218C141.081 169.645 141.633 176.27 146.06 180.016C155.394 187.915 180.01 198.921 204.234 180.329C208.835 176.798 209.702 170.208 206.171 165.607ZM146.842 89.0001C136.348 89.0001 127.842 101.609 127.842 117.163C127.842 132.717 136.348 135 146.842 135C157.335 135 165.842 132.717 165.842 117.163C165.842 101.609 157.335 89.0001 146.842 89.0001ZM204.842 102C197.662 102 191.842 111.052 191.842 122.217C191.842 133.382 197.662 132.998 204.842 132.998C212.021 132.998 217.842 133.382 217.842 122.217C217.842 111.052 212.021 102 204.842 102Z" fill="url(#paint1_linear_558_493)"/>
<defs>
<linearGradient id="paint0_linear_558_493" x1="77.5" y1="112" x2="55.0109" y2="148.507" gradientUnits="userSpaceOnUse">
<stop stop-color="#E48DC2"/>
<stop offset="0.333333" stop-color="#FFB36C"/>
<stop offset="0.666667" stop-color="#FCE94E"/>
<stop offset="1" stop-color="#B8F3E0"/>
</linearGradient>
<linearGradient id="paint1_linear_558_493" x1="227" y1="69" x2="149.463" y2="242.755" gradientUnits="userSpaceOnUse">
<stop stop-color="#E48DC2"/>
<stop offset="0.333333" stop-color="#FFB36C"/>
<stop offset="0.666667" stop-color="#FCE94E"/>
<stop offset="1" stop-color="#B8F3E0"/>
</linearGradient>
</defs>
</svg>
