<svg width="56" height="20" viewBox="0 0 56 20" fill="none" xmlns="http://www.w3.org/2000/svg">
<rect width="56" height="20" rx="4" fill="#4F5963" fill-opacity="0.6"/>
<path d="M0 2C0 0.895431 0.895431 0 2 0H28V20H2C0.895431 20 0 19.1046 0 18V2Z" fill="#515962"/>
<path d="M12.293 4.99995C12.9229 4.37006 13.9999 4.81614 14 5.70698V14.2929C13.9999 15.1837 12.9229 15.6298 12.293 14.9999L10.4395 13.1464C10.3457 13.0527 10.2185 13 10.0859 12.9999H8.5C7.67159 12.9999 7.00003 12.3284 7 11.4999V8.49995C7 7.67152 7.67157 6.99995 8.5 6.99995H10.0859C10.2185 6.99991 10.3457 6.94718 10.4395 6.85346L12.293 4.99995ZM11.1465 7.56049C10.8652 7.84175 10.4837 7.99991 10.0859 7.99995H8.5C8.22386 7.99995 8 8.2238 8 8.49995V11.4999C8.00003 11.7761 8.22388 11.9999 8.5 11.9999H10.0859C10.4837 12 10.8652 12.1581 11.1465 12.4394L13 14.2929V5.70698L11.1465 7.56049ZM19.709 7.20991C20.0013 6.91664 20.4733 6.91664 20.7656 7.20991C21.0578 7.50313 21.0578 7.97621 20.7656 8.26948L19.1826 9.85835C19.1093 9.93193 19.1091 10.0516 19.1826 10.1249L20.7812 11.7138C21.0733 12.007 21.0733 12.4811 20.7812 12.7744C20.6315 12.9171 20.4437 12.992 20.249 12.9921C20.0542 12.9921 19.8667 12.9246 19.7168 12.7744L18.1328 11.1855C18.0596 11.1121 17.9404 11.1121 17.8672 11.1855L16.2832 12.7744C16.1333 12.9171 15.9458 12.9921 15.751 12.9921C15.5563 12.992 15.3685 12.9246 15.2188 12.7744C14.9267 12.4811 14.9267 12.007 15.2188 11.7138L16.8027 10.1249C16.8759 10.0515 16.8759 9.93274 16.8027 9.85932L15.2188 8.26948C14.927 7.9763 14.927 7.50305 15.2188 7.20991C15.5111 6.91664 15.984 6.91664 16.2764 7.20991L17.8604 8.79878C17.9335 8.872 18.0519 8.87211 18.125 8.79878L19.709 7.20991Z" fill="#BFD3E0"/>
<rect x="38" y="9" width="2" height="2" rx="1" fill="#BFD3E0"/>
<rect x="41" y="9" width="2" height="2" rx="1" fill="#BFD3E0"/>
<rect x="44" y="9" width="2" height="2" rx="1" fill="#BFD3E0"/>
</svg>
