<svg width="57" height="21" viewBox="0 0 57 21" fill="none" xmlns="http://www.w3.org/2000/svg">
<rect x="0.0351562" y="0.500977" width="56" height="20" rx="4" fill="#4F5963" fill-opacity="0.6"/>
<path d="M0.0351562 2.50098C0.0351562 1.39641 0.930587 0.500977 2.03516 0.500977H28.0352V20.501H2.03516C0.930587 20.501 0.0351562 19.6055 0.0351562 18.501V2.50098Z" fill="#515962"/>
<path d="M15.5352 4.50098C18.8719 4.50098 21.0352 7.28964 21.0352 10.501C21.0352 13.7123 18.8719 16.501 15.5352 16.501C15.259 16.501 15.0352 16.2771 15.0352 16.001C15.0352 15.7248 15.259 15.501 15.5352 15.501C18.1984 15.501 20.0352 13.2896 20.0352 10.501C20.0352 7.71232 18.1984 5.50098 15.5352 5.50098C15.259 5.50098 15.0352 5.27712 15.0352 5.00098C15.0352 4.72483 15.259 4.50098 15.5352 4.50098ZM12.3281 5.50098C12.9581 4.87109 14.0351 5.31717 14.0352 6.20801V14.7939C14.0351 15.6848 12.9581 16.1309 12.3281 15.501L10.4746 13.6475C10.3809 13.5537 10.2536 13.501 10.1211 13.501H8.53516C7.70673 13.501 7.03516 12.8294 7.03516 12.001V9.00098C7.03516 8.17255 7.70673 7.50098 8.53516 7.50098H10.1211C10.2536 7.50094 10.3809 7.44822 10.4746 7.35449L12.3281 5.50098ZM11.1816 8.06152C10.9004 8.34279 10.5189 8.50094 10.1211 8.50098H8.53516C8.25901 8.50098 8.03516 8.72483 8.03516 9.00098V12.001C8.03516 12.2771 8.25901 12.501 8.53516 12.501H10.1211C10.5189 12.501 10.9004 12.6592 11.1816 12.9404L13.0352 14.7939V6.20801L11.1816 8.06152ZM15.5352 7.50098C16.8808 7.50098 18.0352 8.79992 18.0352 10.501C18.0352 12.202 16.8808 13.501 15.5352 13.501C15.259 13.501 15.0352 13.2771 15.0352 13.001C15.0352 12.7248 15.259 12.501 15.5352 12.501C16.1895 12.501 17.0352 11.7999 17.0352 10.501C17.0352 9.20203 16.1895 8.50098 15.5352 8.50098C15.259 8.50098 15.0352 8.27712 15.0352 8.00098C15.0352 7.72483 15.259 7.50098 15.5352 7.50098Z" fill="#5ECDA7"/>
<rect x="38.0352" y="6.46973" width="2" height="8.0625" rx="1" fill="#BFD3E0"/>
<rect x="41.0352" y="7.62598" width="2" height="6" rx="1" fill="#BFD3E0"/>
<rect x="44.0352" y="8.34473" width="2" height="4.875" rx="1" fill="#BFD3E0"/>
</svg>
