<svg width="260" height="260" viewBox="0 0 260 260" xmlns="http://www.w3.org/2000/svg">
  <rect width="260" height="260" fill="#2D3239"/>
  <g transform="translate(18.000,90.000)">
<path d="M112.014 21.0058C112.839 21.0058 113.514 20.3311 113.514 19.5065V13.4945C113.514 12.6699 112.839 11.9953 112.014 11.9953C111.189 11.9953 110.514 12.6699 110.514 13.4945V19.5065C110.514 20.3311 111.189 21.0058 112.014 21.0058Z" fill="#FCE94E"/>
<path d="M127.749 23.9295C125.514 19.8666 121.029 12.3853 118.059 7.43778L117.189 5.98351C116.064 4.12444 114.144 3 112.014 3C109.899 3 107.964 4.10945 106.839 5.98351L106.254 6.95802C103.389 11.7406 98.5739 19.7316 96.2639 23.9445C95.2139 25.8636 95.2439 28.1274 96.3689 30.0015C97.4789 31.8756 99.4439 33 101.619 33H122.394C124.569 33 126.534 31.8756 127.644 30.0015C128.754 28.1274 128.799 25.8486 127.749 23.9445V23.9295ZM125.079 28.4573C124.509 29.4168 123.519 29.9865 122.409 29.9865H101.634C100.524 29.9865 99.5339 29.4168 98.9639 28.4573C98.3939 27.4978 98.3789 26.3433 98.9189 25.3688C101.199 21.2159 105.984 13.2549 108.849 8.48726L109.434 7.51274C110.019 6.53823 110.964 5.98351 112.029 5.98351C113.094 5.98351 114.039 6.53823 114.624 7.49775L115.494 8.95202C118.449 13.8846 122.919 21.3358 125.124 25.3388C125.664 26.3133 125.649 27.4978 125.079 28.4573Z" fill="#FCE94E"/>
<path d="M112.014 26.2234C113.049 26.2234 113.889 25.3843 113.889 24.3493C113.889 23.3143 113.049 22.4753 112.014 22.4753C110.978 22.4753 110.139 23.3143 110.139 24.3493C110.139 25.3843 110.978 26.2234 112.014 26.2234Z" fill="#FCE94E"/>
<path d="M46.6444 56.208H46.6864L49.6684 48.088H51.1664L47.2744 58H45.9864L42.1224 48.088H43.6624L46.6444 56.208ZM53.3507 58H52.0347V51.364H53.3507V58ZM53.5747 48.97C53.5747 49.2127 53.4861 49.4133 53.3087 49.572C53.1407 49.7307 52.9354 49.81 52.6927 49.81C52.4501 49.81 52.2447 49.7307 52.0767 49.572C51.9087 49.404 51.8247 49.2033 51.8247 48.97C51.8247 48.7273 51.9087 48.5267 52.0767 48.368C52.2447 48.2 52.4501 48.116 52.6927 48.116C52.9354 48.116 53.1407 48.2 53.3087 48.368C53.4861 48.5267 53.5747 48.7273 53.5747 48.97ZM60.9358 56.95C60.6838 57.3513 60.3384 57.6593 59.8998 57.874C59.4704 58.0793 59.0178 58.182 58.5418 58.182C58.0284 58.182 57.5664 58.0933 57.1558 57.916C56.7451 57.7293 56.3951 57.4773 56.1058 57.16C55.8164 56.8427 55.5924 56.4693 55.4338 56.04C55.2751 55.6107 55.1958 55.1533 55.1958 54.668C55.1958 54.1827 55.2751 53.73 55.4338 53.31C55.5924 52.8807 55.8164 52.5073 56.1058 52.19C56.4044 51.8727 56.7591 51.6253 57.1698 51.448C57.5804 51.2707 58.0331 51.182 58.5278 51.182C59.0691 51.182 59.5404 51.2987 59.9418 51.532C60.3431 51.756 60.6604 52.0313 60.8938 52.358H60.9218V47.416H62.2378V58H60.9638V56.95H60.9358ZM56.5678 54.668C56.5678 54.976 56.6144 55.2747 56.7078 55.564C56.8011 55.8533 56.9411 56.11 57.1278 56.334C57.3144 56.558 57.5431 56.74 57.8138 56.88C58.0844 57.0107 58.4018 57.076 58.7658 57.076C59.1018 57.076 59.4051 57.0107 59.6758 56.88C59.9558 56.7493 60.1938 56.5767 60.3898 56.362C60.5858 56.138 60.7351 55.8813 60.8378 55.592C60.9498 55.3027 61.0058 54.9993 61.0058 54.682C61.0058 54.3647 60.9498 54.0613 60.8378 53.772C60.7351 53.4827 60.5858 53.226 60.3898 53.002C60.1938 52.778 59.9558 52.6007 59.6758 52.47C59.4051 52.3393 59.1018 52.274 58.7658 52.274C58.4018 52.274 58.0844 52.3393 57.8138 52.47C57.5431 52.6007 57.3144 52.778 57.1278 53.002C56.9411 53.226 56.8011 53.4827 56.7078 53.772C56.6144 54.0613 56.5678 54.36 56.5678 54.668ZM69.3885 54.094C69.3792 53.8327 69.3325 53.59 69.2485 53.366C69.1738 53.1327 69.0572 52.932 68.8985 52.764C68.7492 52.596 68.5578 52.4653 68.3245 52.372C68.1005 52.2693 67.8345 52.218 67.5265 52.218C67.2465 52.218 66.9805 52.2693 66.7285 52.372C66.4858 52.4653 66.2712 52.596 66.0845 52.764C65.9072 52.932 65.7578 53.1327 65.6365 53.366C65.5245 53.59 65.4592 53.8327 65.4405 54.094H69.3885ZM70.7185 54.626C70.7185 54.7007 70.7185 54.7753 70.7185 54.85C70.7185 54.9247 70.7138 54.9993 70.7045 55.074H65.4405C65.4498 55.354 65.5105 55.62 65.6225 55.872C65.7438 56.1147 65.9025 56.3293 66.0985 56.516C66.2945 56.6933 66.5185 56.8333 66.7705 56.936C67.0318 57.0387 67.3072 57.09 67.5965 57.09C68.0445 57.09 68.4318 56.992 68.7585 56.796C69.0852 56.6 69.3418 56.362 69.5285 56.082L70.4525 56.824C70.0978 57.2907 69.6778 57.636 69.1925 57.86C68.7165 58.0747 68.1845 58.182 67.5965 58.182C67.0925 58.182 66.6258 58.098 66.1965 57.93C65.7672 57.762 65.3985 57.5287 65.0905 57.23C64.7825 56.922 64.5398 56.5533 64.3625 56.124C64.1852 55.6947 64.0965 55.2187 64.0965 54.696C64.0965 54.1827 64.1805 53.7113 64.3485 53.282C64.5258 52.8433 64.7685 52.47 65.0765 52.162C65.3845 51.854 65.7485 51.616 66.1685 51.448C66.5885 51.2707 67.0412 51.182 67.5265 51.182C68.0118 51.182 68.4505 51.2613 68.8425 51.42C69.2438 51.5787 69.5798 51.8073 69.8505 52.106C70.1305 52.4047 70.3452 52.7687 70.4945 53.198C70.6438 53.618 70.7185 54.094 70.7185 54.626ZM79.2759 54.668C79.2759 55.1813 79.1825 55.6527 78.9959 56.082C78.8185 56.5113 78.5665 56.8847 78.2399 57.202C77.9225 57.51 77.5445 57.7527 77.1059 57.93C76.6672 58.098 76.1959 58.182 75.6919 58.182C75.1879 58.182 74.7165 58.098 74.2779 57.93C73.8392 57.7527 73.4612 57.51 73.1439 57.202C72.8265 56.8847 72.5745 56.5113 72.3879 56.082C72.2105 55.6527 72.1219 55.1813 72.1219 54.668C72.1219 54.1547 72.2105 53.688 72.3879 53.268C72.5745 52.8387 72.8265 52.47 73.1439 52.162C73.4612 51.854 73.8392 51.616 74.2779 51.448C74.7165 51.2707 75.1879 51.182 75.6919 51.182C76.1959 51.182 76.6672 51.2707 77.1059 51.448C77.5445 51.616 77.9225 51.854 78.2399 52.162C78.5665 52.47 78.8185 52.8387 78.9959 53.268C79.1825 53.688 79.2759 54.1547 79.2759 54.668ZM77.9039 54.668C77.9039 54.3507 77.8525 54.0473 77.7499 53.758C77.6565 53.4687 77.5165 53.2167 77.3299 53.002C77.1432 52.778 76.9099 52.6007 76.6299 52.47C76.3592 52.3393 76.0465 52.274 75.6919 52.274C75.3372 52.274 75.0199 52.3393 74.7399 52.47C74.4692 52.6007 74.2405 52.778 74.0539 53.002C73.8672 53.2167 73.7225 53.4687 73.6199 53.758C73.5265 54.0473 73.4799 54.3507 73.4799 54.668C73.4799 54.9853 73.5265 55.2887 73.6199 55.578C73.7225 55.8673 73.8672 56.124 74.0539 56.348C74.2405 56.572 74.4692 56.7493 74.7399 56.88C75.0199 57.0107 75.3372 57.076 75.6919 57.076C76.0465 57.076 76.3592 57.0107 76.6299 56.88C76.9099 56.7493 77.1432 56.572 77.3299 56.348C77.5165 56.124 77.6565 55.8673 77.7499 55.578C77.8525 55.2887 77.9039 54.9853 77.9039 54.668ZM85.9168 61.36H84.6008V51.364H85.8888V52.4H85.9308C86.1455 52.0453 86.4581 51.756 86.8688 51.532C87.2888 51.2987 87.7741 51.182 88.3248 51.182C88.8195 51.182 89.2675 51.2707 89.6688 51.448C90.0795 51.6253 90.4295 51.8727 90.7188 52.19C91.0175 52.5073 91.2461 52.8807 91.4048 53.31C91.5635 53.73 91.6428 54.1827 91.6428 54.668C91.6428 55.1533 91.5635 55.6107 91.4048 56.04C91.2461 56.4693 91.0221 56.8427 90.7328 57.16C90.4435 57.4773 90.0935 57.7293 89.6828 57.916C89.2721 58.0933 88.8101 58.182 88.2968 58.182C87.8208 58.182 87.3728 58.0793 86.9528 57.874C86.5328 57.6687 86.2015 57.3793 85.9588 57.006H85.9168V61.36ZM90.2848 54.668C90.2848 54.36 90.2381 54.0613 90.1448 53.772C90.0515 53.4827 89.9115 53.226 89.7248 53.002C89.5381 52.778 89.3048 52.6007 89.0248 52.47C88.7541 52.3393 88.4368 52.274 88.0728 52.274C87.7368 52.274 87.4288 52.3393 87.1488 52.47C86.8781 52.6007 86.6448 52.778 86.4488 53.002C86.2528 53.226 86.0988 53.4827 85.9868 53.772C85.8841 54.0613 85.8328 54.3647 85.8328 54.682C85.8328 54.9993 85.8841 55.3027 85.9868 55.592C86.0988 55.8813 86.2528 56.138 86.4488 56.362C86.6448 56.5767 86.8781 56.7493 87.1488 56.88C87.4288 57.0107 87.7368 57.076 88.0728 57.076C88.4368 57.076 88.7541 57.0107 89.0248 56.88C89.3048 56.74 89.5381 56.558 89.7248 56.334C89.9115 56.11 90.0515 55.8533 90.1448 55.564C90.2381 55.2747 90.2848 54.976 90.2848 54.668ZM93.4738 52.792C93.4738 52.6147 93.4692 52.386 93.4598 52.106C93.4505 51.826 93.4365 51.5787 93.4178 51.364H94.6638C94.6825 51.532 94.6965 51.728 94.7058 51.952C94.7152 52.1667 94.7198 52.344 94.7198 52.484H94.7618C94.9485 52.092 95.2192 51.7793 95.5738 51.546C95.9378 51.3033 96.3438 51.182 96.7918 51.182C96.9972 51.182 97.1698 51.2007 97.3098 51.238L97.2538 52.456C97.0672 52.4093 96.8665 52.386 96.6518 52.386C96.3345 52.386 96.0592 52.4467 95.8258 52.568C95.5925 52.68 95.3965 52.834 95.2378 53.03C95.0885 53.226 94.9765 53.4547 94.9018 53.716C94.8272 53.968 94.7898 54.234 94.7898 54.514V58H93.4738V52.792ZM105.02 54.668C105.02 55.1813 104.927 55.6527 104.74 56.082C104.563 56.5113 104.311 56.8847 103.984 57.202C103.667 57.51 103.289 57.7527 102.85 57.93C102.411 58.098 101.94 58.182 101.436 58.182C100.932 58.182 100.461 58.098 100.022 57.93C99.5833 57.7527 99.2053 57.51 98.888 57.202C98.5707 56.8847 98.3187 56.5113 98.132 56.082C97.9547 55.6527 97.866 55.1813 97.866 54.668C97.866 54.1547 97.9547 53.688 98.132 53.268C98.3187 52.8387 98.5707 52.47 98.888 52.162C99.2053 51.854 99.5833 51.616 100.022 51.448C100.461 51.2707 100.932 51.182 101.436 51.182C101.94 51.182 102.411 51.2707 102.85 51.448C103.289 51.616 103.667 51.854 103.984 52.162C104.311 52.47 104.563 52.8387 104.74 53.268C104.927 53.688 105.02 54.1547 105.02 54.668ZM103.648 54.668C103.648 54.3507 103.597 54.0473 103.494 53.758C103.401 53.4687 103.261 53.2167 103.074 53.002C102.887 52.778 102.654 52.6007 102.374 52.47C102.103 52.3393 101.791 52.274 101.436 52.274C101.081 52.274 100.764 52.3393 100.484 52.47C100.213 52.6007 99.9847 52.778 99.798 53.002C99.6113 53.2167 99.4667 53.4687 99.364 53.758C99.2707 54.0473 99.224 54.3507 99.224 54.668C99.224 54.9853 99.2707 55.2887 99.364 55.578C99.4667 55.8673 99.6113 56.124 99.798 56.348C99.9847 56.572 100.213 56.7493 100.484 56.88C100.764 57.0107 101.081 57.076 101.436 57.076C101.791 57.076 102.103 57.0107 102.374 56.88C102.654 56.7493 102.887 56.572 103.074 56.348C103.261 56.124 103.401 55.8673 103.494 55.578C103.597 55.2887 103.648 54.9853 103.648 54.668ZM111.493 53.044C111.353 52.8293 111.143 52.652 110.863 52.512C110.583 52.3627 110.284 52.288 109.967 52.288C109.622 52.288 109.314 52.3533 109.043 52.484C108.782 52.6147 108.558 52.792 108.371 53.016C108.184 53.2307 108.04 53.4827 107.937 53.772C107.844 54.0613 107.797 54.3647 107.797 54.682C107.797 54.9993 107.844 55.3027 107.937 55.592C108.04 55.8813 108.184 56.138 108.371 56.362C108.558 56.5767 108.786 56.7493 109.057 56.88C109.328 57.0107 109.636 57.076 109.981 57.076C110.317 57.076 110.62 57.0107 110.891 56.88C111.171 56.7493 111.4 56.572 111.577 56.348L112.459 57.146C112.179 57.4727 111.829 57.7293 111.409 57.916C110.989 58.0933 110.513 58.182 109.981 58.182C109.468 58.182 108.992 58.098 108.553 57.93C108.124 57.762 107.75 57.5287 107.433 57.23C107.116 56.922 106.864 56.5533 106.677 56.124C106.5 55.6947 106.411 55.214 106.411 54.682C106.411 54.1593 106.5 53.6833 106.677 53.254C106.854 52.8247 107.102 52.456 107.419 52.148C107.736 51.84 108.11 51.602 108.539 51.434C108.978 51.266 109.449 51.182 109.953 51.182C110.42 51.182 110.882 51.2753 111.339 51.462C111.806 51.6487 112.174 51.9193 112.445 52.274L111.493 53.044ZM118.621 54.094C118.612 53.8327 118.565 53.59 118.481 53.366C118.406 53.1327 118.29 52.932 118.131 52.764C117.982 52.596 117.79 52.4653 117.557 52.372C117.333 52.2693 117.067 52.218 116.759 52.218C116.479 52.218 116.213 52.2693 115.961 52.372C115.718 52.4653 115.504 52.596 115.317 52.764C115.14 52.932 114.99 53.1327 114.869 53.366C114.757 53.59 114.692 53.8327 114.673 54.094H118.621ZM119.951 54.626C119.951 54.7007 119.951 54.7753 119.951 54.85C119.951 54.9247 119.946 54.9993 119.937 55.074H114.673C114.682 55.354 114.743 55.62 114.855 55.872C114.976 56.1147 115.135 56.3293 115.331 56.516C115.527 56.6933 115.751 56.8333 116.003 56.936C116.264 57.0387 116.54 57.09 116.829 57.09C117.277 57.09 117.664 56.992 117.991 56.796C118.318 56.6 118.574 56.362 118.761 56.082L119.685 56.824C119.33 57.2907 118.91 57.636 118.425 57.86C117.949 58.0747 117.417 58.182 116.829 58.182C116.325 58.182 115.858 58.098 115.429 57.93C115 57.762 114.631 57.5287 114.323 57.23C114.015 56.922 113.772 56.5533 113.595 56.124C113.418 55.6947 113.329 55.2187 113.329 54.696C113.329 54.1827 113.413 53.7113 113.581 53.282C113.758 52.8433 114.001 52.47 114.309 52.162C114.617 51.854 114.981 51.616 115.401 51.448C115.821 51.2707 116.274 51.182 116.759 51.182C117.244 51.182 117.683 51.2613 118.075 51.42C118.476 51.5787 118.812 51.8073 119.083 52.106C119.363 52.4047 119.578 52.7687 119.727 53.198C119.876 53.618 119.951 54.094 119.951 54.626ZM125.372 53.044C125.223 52.8013 125.013 52.6053 124.742 52.456C124.472 52.2973 124.168 52.218 123.832 52.218C123.683 52.218 123.534 52.2367 123.384 52.274C123.235 52.302 123.1 52.3533 122.978 52.428C122.866 52.4933 122.773 52.582 122.698 52.694C122.633 52.7967 122.6 52.9273 122.6 53.086C122.6 53.366 122.726 53.576 122.978 53.716C123.23 53.8467 123.608 53.968 124.112 54.08C124.43 54.1547 124.724 54.2433 124.994 54.346C125.265 54.4487 125.498 54.5793 125.694 54.738C125.9 54.8873 126.058 55.0693 126.17 55.284C126.282 55.4987 126.338 55.7507 126.338 56.04C126.338 56.432 126.264 56.7633 126.114 57.034C125.965 57.3047 125.764 57.5287 125.512 57.706C125.27 57.874 124.99 57.9953 124.672 58.07C124.355 58.1447 124.028 58.182 123.692 58.182C123.188 58.182 122.694 58.084 122.208 57.888C121.732 57.692 121.336 57.3933 121.018 56.992L121.956 56.194C122.134 56.4553 122.376 56.6747 122.684 56.852C123.002 57.0293 123.347 57.118 123.72 57.118C123.888 57.118 124.047 57.104 124.196 57.076C124.355 57.0387 124.495 56.9827 124.616 56.908C124.747 56.8333 124.85 56.7353 124.924 56.614C124.999 56.4927 125.036 56.3387 125.036 56.152C125.036 55.844 124.887 55.6153 124.588 55.466C124.299 55.3167 123.87 55.1767 123.3 55.046C123.076 54.99 122.848 54.9247 122.614 54.85C122.39 54.766 122.185 54.654 121.998 54.514C121.812 54.374 121.658 54.2013 121.536 53.996C121.424 53.7813 121.368 53.52 121.368 53.212C121.368 52.8573 121.438 52.554 121.578 52.302C121.728 52.0407 121.919 51.8307 122.152 51.672C122.386 51.504 122.652 51.3827 122.95 51.308C123.249 51.224 123.557 51.182 123.874 51.182C124.35 51.182 124.808 51.2753 125.246 51.462C125.694 51.6487 126.04 51.9193 126.282 52.274L125.372 53.044ZM131.593 53.044C131.444 52.8013 131.234 52.6053 130.963 52.456C130.692 52.2973 130.389 52.218 130.053 52.218C129.904 52.218 129.754 52.2367 129.605 52.274C129.456 52.302 129.32 52.3533 129.199 52.428C129.087 52.4933 128.994 52.582 128.919 52.694C128.854 52.7967 128.821 52.9273 128.821 53.086C128.821 53.366 128.947 53.576 129.199 53.716C129.451 53.8467 129.829 53.968 130.333 54.08C130.65 54.1547 130.944 54.2433 131.215 54.346C131.486 54.4487 131.719 54.5793 131.915 54.738C132.12 54.8873 132.279 55.0693 132.391 55.284C132.503 55.4987 132.559 55.7507 132.559 56.04C132.559 56.432 132.484 56.7633 132.335 57.034C132.186 57.3047 131.985 57.5287 131.733 57.706C131.49 57.874 131.21 57.9953 130.893 58.07C130.576 58.1447 130.249 58.182 129.913 58.182C129.409 58.182 128.914 58.084 128.429 57.888C127.953 57.692 127.556 57.3933 127.239 56.992L128.177 56.194C128.354 56.4553 128.597 56.6747 128.905 56.852C129.222 57.0293 129.568 57.118 129.941 57.118C130.109 57.118 130.268 57.104 130.417 57.076C130.576 57.0387 130.716 56.9827 130.837 56.908C130.968 56.8333 131.07 56.7353 131.145 56.614C131.22 56.4927 131.257 56.3387 131.257 56.152C131.257 55.844 131.108 55.6153 130.809 55.466C130.52 55.3167 130.09 55.1767 129.521 55.046C129.297 54.99 129.068 54.9247 128.835 54.85C128.611 54.766 128.406 54.654 128.219 54.514C128.032 54.374 127.878 54.2013 127.757 53.996C127.645 53.7813 127.589 53.52 127.589 53.212C127.589 52.8573 127.659 52.554 127.799 52.302C127.948 52.0407 128.14 51.8307 128.373 51.672C128.606 51.504 128.872 51.3827 129.171 51.308C129.47 51.224 129.778 51.182 130.095 51.182C130.571 51.182 131.028 51.2753 131.467 51.462C131.915 51.6487 132.26 51.9193 132.503 52.274L131.593 53.044ZM135.56 58H134.244V51.364H135.56V58ZM135.784 48.97C135.784 49.2127 135.695 49.4133 135.518 49.572C135.35 49.7307 135.144 49.81 134.902 49.81C134.659 49.81 134.454 49.7307 134.286 49.572C134.118 49.404 134.034 49.2033 134.034 48.97C134.034 48.7273 134.118 48.5267 134.286 48.368C134.454 48.2 134.659 48.116 134.902 48.116C135.144 48.116 135.35 48.2 135.518 48.368C135.695 48.5267 135.784 48.7273 135.784 48.97ZM139.043 51.364C139.061 51.532 139.075 51.7233 139.085 51.938C139.094 52.1433 139.099 52.316 139.099 52.456H139.141C139.225 52.2787 139.337 52.1153 139.477 51.966C139.626 51.8073 139.794 51.672 139.981 51.56C140.167 51.4387 140.373 51.3453 140.597 51.28C140.821 51.2147 141.054 51.182 141.297 51.182C141.726 51.182 142.095 51.2567 142.403 51.406C142.711 51.546 142.967 51.7373 143.173 51.98C143.378 52.2227 143.527 52.5073 143.621 52.834C143.723 53.1607 143.775 53.5107 143.775 53.884V58H142.459V54.318C142.459 54.0473 142.435 53.7907 142.389 53.548C142.351 53.3053 142.277 53.0907 142.165 52.904C142.053 52.7173 141.899 52.568 141.703 52.456C141.507 52.344 141.255 52.288 140.947 52.288C140.424 52.288 139.995 52.4887 139.659 52.89C139.332 53.282 139.169 53.8093 139.169 54.472V58H137.853V52.792C137.853 52.6147 137.848 52.386 137.839 52.106C137.829 51.826 137.815 51.5787 137.797 51.364H139.043ZM146.519 59.134C146.809 59.4607 147.168 59.722 147.597 59.918C148.036 60.114 148.484 60.212 148.941 60.212C149.38 60.212 149.749 60.1467 150.047 60.016C150.346 59.8947 150.584 59.722 150.761 59.498C150.948 59.2833 151.079 59.0267 151.153 58.728C151.237 58.4293 151.279 58.1073 151.279 57.762V56.908H151.251C151.009 57.2813 150.677 57.566 150.257 57.762C149.837 57.958 149.389 58.056 148.913 58.056C148.409 58.056 147.947 57.9673 147.527 57.79C147.117 57.6127 146.767 57.37 146.477 57.062C146.188 56.754 145.964 56.3947 145.805 55.984C145.647 55.564 145.567 55.116 145.567 54.64C145.567 54.164 145.647 53.716 145.805 53.296C145.964 52.876 146.188 52.512 146.477 52.204C146.767 51.8867 147.117 51.6393 147.527 51.462C147.938 51.2753 148.395 51.182 148.899 51.182C149.375 51.182 149.828 51.2847 150.257 51.49C150.696 51.6953 151.041 52.008 151.293 52.428H151.321V51.364H152.595V57.664C152.595 58.1493 152.535 58.6113 152.413 59.05C152.292 59.498 152.087 59.89 151.797 60.226C151.508 60.5713 151.13 60.8467 150.663 61.052C150.197 61.2573 149.618 61.36 148.927 61.36C148.349 61.36 147.765 61.2527 147.177 61.038C146.599 60.8327 146.099 60.5387 145.679 60.156L146.519 59.134ZM146.925 54.612C146.925 54.92 146.972 55.214 147.065 55.494C147.168 55.774 147.313 56.0213 147.499 56.236C147.695 56.4507 147.929 56.6233 148.199 56.754C148.47 56.8847 148.778 56.95 149.123 56.95C149.459 56.95 149.767 56.8893 150.047 56.768C150.327 56.6467 150.565 56.4833 150.761 56.278C150.957 56.0633 151.107 55.816 151.209 55.536C151.321 55.2467 151.377 54.9387 151.377 54.612C151.377 54.2947 151.321 53.996 151.209 53.716C151.107 53.436 150.953 53.1887 150.747 52.974C150.551 52.7593 150.313 52.5913 150.033 52.47C149.763 52.3393 149.459 52.274 149.123 52.274C148.778 52.274 148.47 52.3393 148.199 52.47C147.929 52.5913 147.695 52.7593 147.499 52.974C147.313 53.1793 147.168 53.4267 147.065 53.716C146.972 53.996 146.925 54.2947 146.925 54.612ZM158.837 51.364L160.335 56.432H160.363L161.945 51.364H163.331L164.941 56.432H164.969L166.467 51.364H167.853L165.655 58H164.283L162.645 53.016H162.617L160.993 58H159.621L157.409 51.364H158.837ZM173.305 53.702C173.305 53.2073 173.156 52.8433 172.857 52.61C172.558 52.3673 172.162 52.246 171.667 52.246C171.294 52.246 170.939 52.3207 170.603 52.47C170.276 52.61 170.001 52.792 169.777 53.016L169.077 52.176C169.404 51.868 169.8 51.6253 170.267 51.448C170.743 51.2707 171.252 51.182 171.793 51.182C172.269 51.182 172.68 51.252 173.025 51.392C173.38 51.5227 173.669 51.7047 173.893 51.938C174.117 52.1713 174.285 52.4467 174.397 52.764C174.509 53.0813 174.565 53.422 174.565 53.786V56.684C174.565 56.908 174.57 57.146 174.579 57.398C174.598 57.6407 174.626 57.8413 174.663 58H173.473C173.398 57.6827 173.361 57.3653 173.361 57.048H173.319C173.076 57.4027 172.768 57.678 172.395 57.874C172.031 58.07 171.597 58.168 171.093 58.168C170.832 58.168 170.556 58.1307 170.267 58.056C169.987 57.9907 169.73 57.8787 169.497 57.72C169.264 57.5613 169.068 57.3513 168.909 57.09C168.76 56.8287 168.685 56.5067 168.685 56.124C168.685 55.62 168.82 55.2233 169.091 54.934C169.362 54.6353 169.716 54.4113 170.155 54.262C170.594 54.1033 171.088 54.0007 171.639 53.954C172.19 53.9073 172.745 53.884 173.305 53.884V53.702ZM172.983 54.836C172.656 54.836 172.316 54.85 171.961 54.878C171.616 54.906 171.298 54.962 171.009 55.046C170.729 55.13 170.496 55.256 170.309 55.424C170.122 55.592 170.029 55.816 170.029 56.096C170.029 56.292 170.066 56.4553 170.141 56.586C170.225 56.7167 170.332 56.824 170.463 56.908C170.594 56.992 170.738 57.0527 170.897 57.09C171.056 57.118 171.219 57.132 171.387 57.132C172.003 57.132 172.474 56.95 172.801 56.586C173.137 56.2127 173.305 55.746 173.305 55.186V54.836H172.983ZM180.347 53.044C180.198 52.8013 179.988 52.6053 179.717 52.456C179.446 52.2973 179.143 52.218 178.807 52.218C178.658 52.218 178.508 52.2367 178.359 52.274C178.21 52.302 178.074 52.3533 177.953 52.428C177.841 52.4933 177.748 52.582 177.673 52.694C177.608 52.7967 177.575 52.9273 177.575 53.086C177.575 53.366 177.701 53.576 177.953 53.716C178.205 53.8467 178.583 53.968 179.087 54.08C179.404 54.1547 179.698 54.2433 179.969 54.346C180.24 54.4487 180.473 54.5793 180.669 54.738C180.874 54.8873 181.033 55.0693 181.145 55.284C181.257 55.4987 181.313 55.7507 181.313 56.04C181.313 56.432 181.238 56.7633 181.089 57.034C180.94 57.3047 180.739 57.5287 180.487 57.706C180.244 57.874 179.964 57.9953 179.647 58.07C179.33 58.1447 179.003 58.182 178.667 58.182C178.163 58.182 177.668 58.084 177.183 57.888C176.707 57.692 176.31 57.3933 175.993 56.992L176.931 56.194C177.108 56.4553 177.351 56.6747 177.659 56.852C177.976 57.0293 178.322 57.118 178.695 57.118C178.863 57.118 179.022 57.104 179.171 57.076C179.33 57.0387 179.47 56.9827 179.591 56.908C179.722 56.8333 179.824 56.7353 179.899 56.614C179.974 56.4927 180.011 56.3387 180.011 56.152C180.011 55.844 179.862 55.6153 179.563 55.466C179.274 55.3167 178.844 55.1767 178.275 55.046C178.051 54.99 177.822 54.9247 177.589 54.85C177.365 54.766 177.16 54.654 176.973 54.514C176.786 54.374 176.632 54.2013 176.511 53.996C176.399 53.7813 176.343 53.52 176.343 53.212C176.343 52.8573 176.413 52.554 176.553 52.302C176.702 52.0407 176.894 51.8307 177.127 51.672C177.36 51.504 177.626 51.3827 177.925 51.308C178.224 51.224 178.532 51.182 178.849 51.182C179.325 51.182 179.782 51.2753 180.221 51.462C180.669 51.6487 181.014 51.9193 181.257 52.274L180.347 53.044ZM75.6596 78C75.6409 77.832 75.6269 77.6453 75.6176 77.44C75.6083 77.2253 75.6036 77.048 75.6036 76.908H75.5756C75.4076 77.2627 75.1229 77.566 74.7216 77.818C74.3296 78.0607 73.8909 78.182 73.4056 78.182C72.9763 78.182 72.6029 78.112 72.2856 77.972C71.9776 77.832 71.7209 77.6407 71.5156 77.398C71.3196 77.146 71.1703 76.8567 71.0676 76.53C70.9743 76.2033 70.9276 75.8533 70.9276 75.48V71.364H72.2436V75.032C72.2436 75.3027 72.2623 75.564 72.2996 75.816C72.3463 76.0587 72.4256 76.2733 72.5376 76.46C72.6496 76.6467 72.8036 76.796 72.9996 76.908C73.1956 77.02 73.4476 77.076 73.7556 77.076C74.2876 77.076 74.7169 76.88 75.0436 76.488C75.3703 76.0867 75.5336 75.5547 75.5336 74.892V71.364H76.8496V76.572C76.8496 76.7493 76.8543 76.978 76.8636 77.258C76.8729 77.538 76.8869 77.7853 76.9056 78H75.6596ZM80.322 71.364C80.3407 71.532 80.3547 71.7233 80.364 71.938C80.3734 72.1433 80.378 72.316 80.378 72.456H80.42C80.504 72.2787 80.616 72.1153 80.756 71.966C80.9054 71.8073 81.0734 71.672 81.26 71.56C81.4467 71.4387 81.652 71.3453 81.876 71.28C82.1 71.2147 82.3334 71.182 82.576 71.182C83.0054 71.182 83.374 71.2567 83.682 71.406C83.99 71.546 84.2467 71.7373 84.452 71.98C84.6574 72.2227 84.8067 72.5073 84.9 72.834C85.0027 73.1607 85.054 73.5107 85.054 73.884V78H83.738V74.318C83.738 74.0473 83.7147 73.7907 83.668 73.548C83.6307 73.3053 83.556 73.0907 83.444 72.904C83.332 72.7173 83.178 72.568 82.982 72.456C82.786 72.344 82.534 72.288 82.226 72.288C81.7034 72.288 81.274 72.4887 80.938 72.89C80.6114 73.282 80.448 73.8093 80.448 74.472V78H79.132V72.792C79.132 72.6147 79.1274 72.386 79.118 72.106C79.1087 71.826 79.0947 71.5787 79.076 71.364H80.322ZM90.8645 73.044C90.7152 72.8013 90.5052 72.6053 90.2345 72.456C89.9638 72.2973 89.6605 72.218 89.3245 72.218C89.1752 72.218 89.0258 72.2367 88.8765 72.274C88.7272 72.302 88.5918 72.3533 88.4705 72.428C88.3585 72.4933 88.2652 72.582 88.1905 72.694C88.1252 72.7967 88.0925 72.9273 88.0925 73.086C88.0925 73.366 88.2185 73.576 88.4705 73.716C88.7225 73.8467 89.1005 73.968 89.6045 74.08C89.9218 74.1547 90.2158 74.2433 90.4865 74.346C90.7572 74.4487 90.9905 74.5793 91.1865 74.738C91.3918 74.8873 91.5505 75.0693 91.6625 75.284C91.7745 75.4987 91.8305 75.7507 91.8305 76.04C91.8305 76.432 91.7558 76.7633 91.6065 77.034C91.4572 77.3047 91.2565 77.5287 91.0045 77.706C90.7618 77.874 90.4818 77.9953 90.1645 78.07C89.8472 78.1447 89.5205 78.182 89.1845 78.182C88.6805 78.182 88.1858 78.084 87.7005 77.888C87.2245 77.692 86.8278 77.3933 86.5105 76.992L87.4485 76.194C87.6258 76.4553 87.8685 76.6747 88.1765 76.852C88.4938 77.0293 88.8392 77.118 89.2125 77.118C89.3805 77.118 89.5392 77.104 89.6885 77.076C89.8472 77.0387 89.9872 76.9827 90.1085 76.908C90.2392 76.8333 90.3418 76.7353 90.4165 76.614C90.4912 76.4927 90.5285 76.3387 90.5285 76.152C90.5285 75.844 90.3792 75.6153 90.0805 75.466C89.7912 75.3167 89.3618 75.1767 88.7925 75.046C88.5685 74.99 88.3398 74.9247 88.1065 74.85C87.8825 74.766 87.6772 74.654 87.4905 74.514C87.3038 74.374 87.1498 74.2013 87.0285 73.996C86.9165 73.7813 86.8605 73.52 86.8605 73.212C86.8605 72.8573 86.9305 72.554 87.0705 72.302C87.2198 72.0407 87.4112 71.8307 87.6445 71.672C87.8778 71.504 88.1438 71.3827 88.4425 71.308C88.7412 71.224 89.0492 71.182 89.3665 71.182C89.8425 71.182 90.2998 71.2753 90.7385 71.462C91.1865 71.6487 91.5318 71.9193 91.7745 72.274L90.8645 73.044ZM98.1772 78C98.1585 77.832 98.1445 77.6453 98.1352 77.44C98.1259 77.2253 98.1212 77.048 98.1212 76.908H98.0932C97.9252 77.2627 97.6405 77.566 97.2392 77.818C96.8472 78.0607 96.4085 78.182 95.9232 78.182C95.4939 78.182 95.1205 78.112 94.8032 77.972C94.4952 77.832 94.2385 77.6407 94.0332 77.398C93.8372 77.146 93.6879 76.8567 93.5852 76.53C93.4919 76.2033 93.4452 75.8533 93.4452 75.48V71.364H94.7612V75.032C94.7612 75.3027 94.7799 75.564 94.8172 75.816C94.8639 76.0587 94.9432 76.2733 95.0552 76.46C95.1672 76.6467 95.3212 76.796 95.5172 76.908C95.7132 77.02 95.9652 77.076 96.2732 77.076C96.8052 77.076 97.2345 76.88 97.5612 76.488C97.8879 76.0867 98.0512 75.5547 98.0512 74.892V71.364H99.3672V76.572C99.3672 76.7493 99.3719 76.978 99.3812 77.258C99.3905 77.538 99.4045 77.7853 99.4232 78H98.1772ZM106.298 73.044C106.158 72.8293 105.948 72.652 105.668 72.512C105.388 72.3627 105.089 72.288 104.772 72.288C104.426 72.288 104.118 72.3533 103.848 72.484C103.586 72.6147 103.362 72.792 103.176 73.016C102.989 73.2307 102.844 73.4827 102.742 73.772C102.648 74.0613 102.602 74.3647 102.602 74.682C102.602 74.9993 102.648 75.3027 102.742 75.592C102.844 75.8813 102.989 76.138 103.176 76.362C103.362 76.5767 103.591 76.7493 103.862 76.88C104.132 77.0107 104.44 77.076 104.786 77.076C105.122 77.076 105.425 77.0107 105.696 76.88C105.976 76.7493 106.204 76.572 106.382 76.348L107.264 77.146C106.984 77.4727 106.634 77.7293 106.214 77.916C105.794 78.0933 105.318 78.182 104.786 78.182C104.272 78.182 103.796 78.098 103.358 77.93C102.928 77.762 102.555 77.5287 102.238 77.23C101.92 76.922 101.668 76.5533 101.482 76.124C101.304 75.6947 101.216 75.214 101.216 74.682C101.216 74.1593 101.304 73.6833 101.482 73.254C101.659 72.8247 101.906 72.456 102.224 72.148C102.541 71.84 102.914 71.602 103.344 71.434C103.782 71.266 104.254 71.182 104.758 71.182C105.224 71.182 105.686 71.2753 106.144 71.462C106.61 71.6487 106.979 71.9193 107.25 72.274L106.298 73.044ZM113.216 73.044C113.076 72.8293 112.866 72.652 112.586 72.512C112.306 72.3627 112.007 72.288 111.69 72.288C111.344 72.288 111.036 72.3533 110.766 72.484C110.504 72.6147 110.28 72.792 110.094 73.016C109.907 73.2307 109.762 73.4827 109.66 73.772C109.566 74.0613 109.52 74.3647 109.52 74.682C109.52 74.9993 109.566 75.3027 109.66 75.592C109.762 75.8813 109.907 76.138 110.094 76.362C110.28 76.5767 110.509 76.7493 110.78 76.88C111.05 77.0107 111.358 77.076 111.704 77.076C112.04 77.076 112.343 77.0107 112.614 76.88C112.894 76.7493 113.122 76.572 113.3 76.348L114.182 77.146C113.902 77.4727 113.552 77.7293 113.132 77.916C112.712 78.0933 112.236 78.182 111.704 78.182C111.19 78.182 110.714 78.098 110.276 77.93C109.846 77.762 109.473 77.5287 109.156 77.23C108.838 76.922 108.586 76.5533 108.4 76.124C108.222 75.6947 108.134 75.214 108.134 74.682C108.134 74.1593 108.222 73.6833 108.4 73.254C108.577 72.8247 108.824 72.456 109.142 72.148C109.459 71.84 109.832 71.602 110.262 71.434C110.7 71.266 111.172 71.182 111.676 71.182C112.142 71.182 112.604 71.2753 113.062 71.462C113.528 71.6487 113.897 71.9193 114.168 72.274L113.216 73.044ZM120.344 74.094C120.334 73.8327 120.288 73.59 120.204 73.366C120.129 73.1327 120.012 72.932 119.854 72.764C119.704 72.596 119.513 72.4653 119.28 72.372C119.056 72.2693 118.79 72.218 118.482 72.218C118.202 72.218 117.936 72.2693 117.684 72.372C117.441 72.4653 117.226 72.596 117.04 72.764C116.862 72.932 116.713 73.1327 116.592 73.366C116.48 73.59 116.414 73.8327 116.396 74.094H120.344ZM121.674 74.626C121.674 74.7007 121.674 74.7753 121.674 74.85C121.674 74.9247 121.669 74.9993 121.66 75.074H116.396C116.405 75.354 116.466 75.62 116.578 75.872C116.699 76.1147 116.858 76.3293 117.054 76.516C117.25 76.6933 117.474 76.8333 117.726 76.936C117.987 77.0387 118.262 77.09 118.552 77.09C119 77.09 119.387 76.992 119.714 76.796C120.04 76.6 120.297 76.362 120.484 76.082L121.408 76.824C121.053 77.2907 120.633 77.636 120.148 77.86C119.672 78.0747 119.14 78.182 118.552 78.182C118.048 78.182 117.581 78.098 117.152 77.93C116.722 77.762 116.354 77.5287 116.046 77.23C115.738 76.922 115.495 76.5533 115.318 76.124C115.14 75.6947 115.052 75.2187 115.052 74.696C115.052 74.1827 115.136 73.7113 115.304 73.282C115.481 72.8433 115.724 72.47 116.032 72.162C116.34 71.854 116.704 71.616 117.124 71.448C117.544 71.2707 117.996 71.182 118.482 71.182C118.967 71.182 119.406 71.2613 119.798 71.42C120.199 71.5787 120.535 71.8073 120.806 72.106C121.086 72.4047 121.3 72.7687 121.45 73.198C121.599 73.618 121.674 74.094 121.674 74.626ZM127.095 73.044C126.946 72.8013 126.736 72.6053 126.465 72.456C126.194 72.2973 125.891 72.218 125.555 72.218C125.406 72.218 125.256 72.2367 125.107 72.274C124.958 72.302 124.822 72.3533 124.701 72.428C124.589 72.4933 124.496 72.582 124.421 72.694C124.356 72.7967 124.323 72.9273 124.323 73.086C124.323 73.366 124.449 73.576 124.701 73.716C124.953 73.8467 125.331 73.968 125.835 74.08C126.152 74.1547 126.446 74.2433 126.717 74.346C126.988 74.4487 127.221 74.5793 127.417 74.738C127.622 74.8873 127.781 75.0693 127.893 75.284C128.005 75.4987 128.061 75.7507 128.061 76.04C128.061 76.432 127.986 76.7633 127.837 77.034C127.688 77.3047 127.487 77.5287 127.235 77.706C126.992 77.874 126.712 77.9953 126.395 78.07C126.078 78.1447 125.751 78.182 125.415 78.182C124.911 78.182 124.416 78.084 123.931 77.888C123.455 77.692 123.058 77.3933 122.741 76.992L123.679 76.194C123.856 76.4553 124.099 76.6747 124.407 76.852C124.724 77.0293 125.07 77.118 125.443 77.118C125.611 77.118 125.77 77.104 125.919 77.076C126.078 77.0387 126.218 76.9827 126.339 76.908C126.47 76.8333 126.572 76.7353 126.647 76.614C126.722 76.4927 126.759 76.3387 126.759 76.152C126.759 75.844 126.61 75.6153 126.311 75.466C126.022 75.3167 125.592 75.1767 125.023 75.046C124.799 74.99 124.57 74.9247 124.337 74.85C124.113 74.766 123.908 74.654 123.721 74.514C123.534 74.374 123.38 74.2013 123.259 73.996C123.147 73.7813 123.091 73.52 123.091 73.212C123.091 72.8573 123.161 72.554 123.301 72.302C123.45 72.0407 123.642 71.8307 123.875 71.672C124.108 71.504 124.374 71.3827 124.673 71.308C124.972 71.224 125.28 71.182 125.597 71.182C126.073 71.182 126.53 71.2753 126.969 71.462C127.417 71.6487 127.762 71.9193 128.005 72.274L127.095 73.044ZM133.316 73.044C133.166 72.8013 132.956 72.6053 132.686 72.456C132.415 72.2973 132.112 72.218 131.776 72.218C131.626 72.218 131.477 72.2367 131.328 72.274C131.178 72.302 131.043 72.3533 130.922 72.428C130.81 72.4933 130.716 72.582 130.642 72.694C130.576 72.7967 130.544 72.9273 130.544 73.086C130.544 73.366 130.67 73.576 130.922 73.716C131.174 73.8467 131.552 73.968 132.056 74.08C132.373 74.1547 132.667 74.2433 132.938 74.346C133.208 74.4487 133.442 74.5793 133.638 74.738C133.843 74.8873 134.002 75.0693 134.114 75.284C134.226 75.4987 134.282 75.7507 134.282 76.04C134.282 76.432 134.207 76.7633 134.058 77.034C133.908 77.3047 133.708 77.5287 133.456 77.706C133.213 77.874 132.933 77.9953 132.616 78.07C132.298 78.1447 131.972 78.182 131.636 78.182C131.132 78.182 130.637 78.084 130.152 77.888C129.676 77.692 129.279 77.3933 128.962 76.992L129.9 76.194C130.077 76.4553 130.32 76.6747 130.628 76.852C130.945 77.0293 131.29 77.118 131.664 77.118C131.832 77.118 131.99 77.104 132.14 77.076C132.298 77.0387 132.438 76.9827 132.56 76.908C132.69 76.8333 132.793 76.7353 132.868 76.614C132.942 76.4927 132.98 76.3387 132.98 76.152C132.98 75.844 132.83 75.6153 132.532 75.466C132.242 75.3167 131.813 75.1767 131.244 75.046C131.02 74.99 130.791 74.9247 130.558 74.85C130.334 74.766 130.128 74.654 129.942 74.514C129.755 74.374 129.601 74.2013 129.48 73.996C129.368 73.7813 129.312 73.52 129.312 73.212C129.312 72.8573 129.382 72.554 129.522 72.302C129.671 72.0407 129.862 71.8307 130.096 71.672C130.329 71.504 130.595 71.3827 130.894 71.308C131.192 71.224 131.5 71.182 131.818 71.182C132.294 71.182 132.751 71.2753 133.19 71.462C133.638 71.6487 133.983 71.9193 134.226 72.274L133.316 73.044ZM139.074 72.442H137.534V78H136.218V72.442H134.902V71.364H136.218V69.978C136.218 69.586 136.26 69.2267 136.344 68.9C136.438 68.564 136.582 68.2747 136.778 68.032C136.984 67.7893 137.24 67.598 137.548 67.458C137.866 67.318 138.248 67.248 138.696 67.248C139.014 67.248 139.289 67.2807 139.522 67.346L139.368 68.48C139.266 68.452 139.163 68.4287 139.06 68.41C138.958 68.3913 138.841 68.382 138.71 68.382C138.458 68.382 138.253 68.4287 138.094 68.522C137.945 68.606 137.828 68.7227 137.744 68.872C137.66 69.0213 137.604 69.194 137.576 69.39C137.548 69.5767 137.534 69.7727 137.534 69.978V71.364H139.074V72.442ZM144.962 78C144.944 77.832 144.93 77.6453 144.92 77.44C144.911 77.2253 144.906 77.048 144.906 76.908H144.878C144.71 77.2627 144.426 77.566 144.024 77.818C143.632 78.0607 143.194 78.182 142.708 78.182C142.279 78.182 141.906 78.112 141.588 77.972C141.28 77.832 141.024 77.6407 140.818 77.398C140.622 77.146 140.473 76.8567 140.37 76.53C140.277 76.2033 140.23 75.8533 140.23 75.48V71.364H141.546V75.032C141.546 75.3027 141.565 75.564 141.602 75.816C141.649 76.0587 141.728 76.2733 141.84 76.46C141.952 76.6467 142.106 76.796 142.302 76.908C142.498 77.02 142.75 77.076 143.058 77.076C143.59 77.076 144.02 76.88 144.346 76.488C144.673 76.0867 144.836 75.5547 144.836 74.892V71.364H146.152V76.572C146.152 76.7493 146.157 76.978 146.166 77.258C146.176 77.538 146.19 77.7853 146.208 78H144.962ZM149.779 78H148.463V67.416H149.779V78ZM153.696 77.16C153.696 77.4027 153.607 77.6173 153.43 77.804C153.252 77.9907 153.028 78.084 152.758 78.084C152.496 78.084 152.272 77.9953 152.086 77.818C151.908 77.6313 151.82 77.4167 151.82 77.174C151.82 76.922 151.908 76.7073 152.086 76.53C152.263 76.3433 152.487 76.25 152.758 76.25C153.028 76.25 153.252 76.3387 153.43 76.516C153.607 76.6933 153.696 76.908 153.696 77.16Z" fill="#9A9B9D"/>
  </g>
</svg>
