<svg width="36" height="36" viewBox="0 0 36 36" fill="none" xmlns="http://www.w3.org/2000/svg">
<path fill-rule="evenodd" clip-rule="evenodd" d="M6.75 21.375C6.75 19.511 8.26104 18 10.125 18H11.25V15.75H10.125C7.0184 15.75 4.5 18.2684 4.5 21.375V25.875C4.5 28.9816 7.0184 31.5 10.125 31.5H25.875C28.9816 31.5 31.5 28.9816 31.5 25.875V21.375C31.5 18.2684 28.9816 15.75 25.875 15.75H24.75V18H25.875C27.739 18 29.25 19.511 29.25 21.375V25.875C29.25 27.739 27.739 29.25 25.875 29.25H10.125C8.26104 29.25 6.75 27.739 6.75 25.875V21.375ZM15.75 24.75L15.75 11.6421L15.0669 12.3014C14.374 12.9701 13.2761 12.9701 12.5832 12.3014C11.8547 11.5983 11.8547 10.4311 12.5832 9.72801L16.4375 6.00806C17.3093 5.16667 18.6907 5.16667 19.5625 6.00806L23.4168 9.72801C24.1453 10.4311 24.1453 11.5983 23.4168 12.3014C22.7239 12.9701 21.626 12.9701 20.9331 12.3014L20.25 11.6421L20.25 24.75C20.25 25.9926 19.2426 27 18 27C16.7574 27 15.75 25.9926 15.75 24.75Z" fill="#C3D2DF"/>
</svg>
