<svg width="16" height="16" viewBox="0 0 16 16" fill="none" xmlns="http://www.w3.org/2000/svg">
<path fill-rule="evenodd" clip-rule="evenodd" d="M12 3V6H13V3C13 1.89543 12.1046 1 11 1H5C3.89543 1 3 1.89433 3 2.9989V13.0035C3 14.1081 3.89543 15 5 15H7V14H5C4.44542 14 4 13.5535 4 13.0035V2.9989C4 2.44733 4.447 2 5 2H11C11.5523 2 12 2.44772 12 3ZM10 8.5C10 8.22386 9.77614 8 9.5 8C9.22386 8 9 8.22386 9 8.5V11.5V14.5C9 14.7761 9.22386 15 9.5 15C9.77614 15 10 14.7761 10 14.5V12H13V14.5C13 14.7761 13.2239 15 13.5 15C13.7761 15 14 14.7761 14 14.5V11.5V8.5C14 8.22386 13.7761 8 13.5 8C13.2239 8 13 8.22386 13 8.5V11H10V8.5Z" fill="white"/>
</svg>
