<svg width="16" height="16" viewBox="0 0 16 16" fill="none" xmlns="http://www.w3.org/2000/svg">
<path fill-rule="evenodd" clip-rule="evenodd" d="M12 5V3.4C12 3.3289 11.9928 3.28665 11.9875 3.26632L11.9873 3.26551C11.7335 2.94984 10.7672 2 8 2C5.23284 2 4.26648 2.94984 4.01274 3.26551L4.01253 3.26632C4.00716 3.28665 4 3.3289 4 3.4V5.08535V6.49943L2.66675 6.02819C2.61591 6.01022 2.56023 6 2.5 6C2.22386 6 2 6.22386 2 6.5V8C2 8.55228 2.44772 9 3 9H4V10V10.7889C4 11.4026 4.17546 11.9061 4.49375 12.2373C4.64606 12.3958 4.81536 12.5588 5 12.7187V13.9831C4.50718 13.6423 4.09355 13.2641 3.7727 12.9302C3.22553 12.3608 3 11.5786 3 10.7889V10C1.89543 10 1 9.10457 1 8V6.5C1 5.84689 1.4174 5.29127 2 5.08535C2.15639 5.03008 2.32468 5 2.5 5C2.67532 5 2.84361 5.03008 3 5.08535V4.05021V3.4C3 3.13595 3.05066 2.87189 3.21348 2.66401C3.65968 2.09431 4.91791 1 8 1C11.0821 1 12.3403 2.09432 12.7865 2.66401C12.9493 2.87189 13 3.13595 13 3.4V4.05021V5H12Z" fill="white"/>
<path fill-rule="evenodd" clip-rule="evenodd" d="M10.5 6C8 6 6 7 6 7V11C6 13.2091 7.79086 15 10 15H11C13.2091 15 15 13.2091 15 11V7C15 7 13 6 10.5 6ZM14 7.66277V11C14 12.6569 12.6569 14 11 14H10C8.34315 14 7 12.6569 7 11V7.66277C7.16959 7.59887 7.37366 7.52745 7.60659 7.45578C8.35563 7.2253 9.37825 7 10.5 7C11.6217 7 12.6444 7.2253 13.3934 7.45578C13.6263 7.52745 13.8304 7.59887 14 7.66277ZM8.5 9C8.22386 9 8 9.22386 8 9.5C8 9.77614 8.22386 10 8.5 10H9.5C9.77614 10 10 9.77614 10 9.5C10 9.22386 9.77614 9 9.5 9H8.5ZM12 11V11.5C12 12.3284 11.3284 13 10.5 13C9.67157 13 9 12.3284 9 11.5V11H12ZM11.5 9C11.2239 9 11 9.22386 11 9.5C11 9.77614 11.2239 10 11.5 10H12.5C12.7761 10 13 9.77614 13 9.5C13 9.22386 12.7761 9 12.5 9H11.5Z" fill="url(#paint0_linear_1463_827)"/>
<defs>
<linearGradient id="paint0_linear_1463_827" x1="15" y1="10.2353" x2="6" y2="10.2353" gradientUnits="userSpaceOnUse">
<stop stop-color="#E48DC2"/>
<stop offset="0.333333" stop-color="#FFB36C"/>
<stop offset="0.666667" stop-color="#FCE94E"/>
<stop offset="1" stop-color="#B8F3E0"/>
</linearGradient>
</defs>
</svg>
