<svg width="16" height="16" viewBox="0 0 16 16" fill="none" xmlns="http://www.w3.org/2000/svg">
<path fill-rule="evenodd" clip-rule="evenodd" d="M12 3.4V5H13V4.05021V3.4C13 3.13595 12.9493 2.87189 12.7865 2.66401C12.3403 2.09432 11.0821 1 8 1C4.91791 1 3.65968 2.09431 3.21348 2.66401C3.05066 2.87189 3 3.13595 3 3.4V4.05021V5.08535C2.84361 5.03008 2.67532 5 2.5 5C2.32468 5 2.15639 5.03008 2 5.08535C1.4174 5.29127 1 5.84689 1 6.5V8C1 9.10457 1.89543 10 3 10V10.7889C3 11.5786 3.22553 12.3608 3.7727 12.9302C4.09355 13.2641 4.50718 13.6423 5 13.9831V12.7187C4.81536 12.5588 4.64606 12.3958 4.49375 12.2373C4.17546 11.9061 4 11.4026 4 10.7889V10V9H3C2.44772 9 2 8.55228 2 8V6.5C2 6.22386 2.22386 6 2.5 6C2.56023 6 2.61591 6.01022 2.66675 6.02819L4 6.49943V5.08535V3.4C4 3.3289 4.00716 3.28665 4.01253 3.26632L4.01274 3.26551C4.26648 2.94984 5.23284 2 8 2C10.7672 2 11.7335 2.94984 11.9873 3.26551L11.9875 3.26632C11.9928 3.28665 12 3.3289 12 3.4ZM7 7H14V10.0134C12.4209 10.0991 11.3336 10.5824 10.3081 11.0381L10.2969 11.0431C9.2984 11.4869 8.3589 11.9023 7 11.9851V7ZM10.7031 11.9569C11.7016 11.5131 12.6411 11.0977 14 11.0149V14H7V12.9866C8.57906 12.9009 9.66644 12.4176 10.6919 11.9619L10.7031 11.9569ZM6 7V12.5V14C6 14.5523 6.44772 15 7 15H14C14.5523 15 15 14.5523 15 14V10.5V7C15 6.44772 14.5523 6 14 6H7C6.44772 6 6 6.44772 6 7ZM9 10C9.55228 10 10 9.55228 10 9C10 8.44772 9.55228 8 9 8C8.44772 8 8 8.44772 8 9C8 9.55228 8.44772 10 9 10Z" fill="#E48DC2"/>
</svg>
