<svg width="20" height="20" viewBox="0 0 20 20" fill="none" xmlns="http://www.w3.org/2000/svg">
<g clip-path="url(#clip0_395_43368)">
<path fill-rule="evenodd" clip-rule="evenodd" d="M8.46 8.9278C7.92665 9.0712 7.37805 8.75508 7.23466 8.22173L6.70229 6.24159C5.65737 7.15905 5 8.50289 5 10.0001C5 12.7615 7.23858 15.0001 10 15.0001C12.7614 15.0001 15 12.7615 15 10.0001C15 7.82462 13.6101 5.97122 11.6668 5.28434C11.146 5.1003 10.8731 4.52897 11.0572 4.00826C11.2412 3.48754 11.8125 3.21462 12.3332 3.39866C15.0507 4.35914 17 6.95069 17 10.0001C17 13.8661 13.866 17.0001 10 17.0001C6.13401 17.0001 3 13.8661 3 10.0001C3 8.3212 3.59149 6.78058 4.57588 5.57517L3.25751 5.92615C2.72382 6.06823 2.17599 5.75077 2.03391 5.21708C1.89182 4.68338 2.20929 4.13555 2.74298 3.99347L6.84249 2.90207C7.37526 2.76023 7.92232 3.07635 8.06546 3.60877L9.16607 7.70246C9.30946 8.23581 8.99334 8.78441 8.46 8.9278Z" fill="#C3D2DF"/>
</g>
<defs>
<clipPath id="clip0_395_43368">
<rect width="16" height="16" fill="white" transform="translate(2 2)"/>
</clipPath>
</defs>
</svg>
