<svg width="16" height="16" viewBox="0 0 16 16" fill="none" xmlns="http://www.w3.org/2000/svg">
<path fill-rule="evenodd" clip-rule="evenodd" d="M1 1H5V2H2V5H1V1ZM1 15H5V14H2V11H1V15ZM14 5H15V1H11V2L14 2V5ZM11 15H15V11H14V14H11V15ZM12 4.5V11.5C12 12.497 11.2177 13.1305 10.5685 13.4551C9.85952 13.8096 8.95001 14 8 14C7.04999 14 6.14048 13.8096 5.43147 13.4551C4.78227 13.1305 4 12.497 4 11.5V4.5C4 3.50296 4.78227 2.86951 5.43147 2.54491C6.14048 2.19041 7.04999 2 8 2C8.95001 2 9.85952 2.19041 10.5685 2.54491C11.2177 2.86951 12 3.50296 12 4.5ZM5 11.5V6.2022C5.67502 6.68027 6.68347 7 8 7C9.31653 7 10.325 6.68027 11 6.2022V11.5C11 12.3284 9.65685 13 8 13C6.34315 13 5 12.3284 5 11.5ZM8 3C9.65685 3 11 3.67157 11 4.5C11 4.90524 10.3985 6 8 6C5.60145 6 5 4.90524 5 4.5C5 3.67157 6.34315 3 8 3Z" fill="#EA5563"/>
</svg>
