<svg width="15" height="14" viewBox="0 0 15 14" fill="none" xmlns="http://www.w3.org/2000/svg">
<g clip-path="url(#clip0_535_69970)">
<path d="M6.48603 9.07533C6.48476 8.52859 6.07469 7.86155 5.5694 7.58639L1.41029 5.31845C0.906266 5.04329 0.498733 5.26485 0.500003 5.81158L0.513968 10.3248C0.515238 10.8728 0.926579 11.5386 1.4306 11.8138L5.58971 14.0817C6.09373 14.3569 6.50127 14.1365 6.5 13.5886L6.48603 9.07533Z" fill="#C3D2DF"/>
<path d="M12.9283 2.58788L8.5339 0.215734C8.00153 -0.0719114 7.1339 -0.0719114 6.59751 0.215734L2.17356 2.58788C1.63716 2.87552 1.63448 3.34123 2.16685 3.62888L6.5613 5.99978C7.09367 6.28742 7.9613 6.28742 8.4977 5.99978L12.9216 3.62888C13.458 3.34123 13.4607 2.87552 12.9283 2.58788Z" fill="#C3D2DF"/>
<path d="M14.4859 5.81181C14.4846 5.26507 14.0738 5.04322 13.5693 5.31841L9.41014 7.58658C8.90565 7.86177 8.49872 8.52853 8.5 9.07527L8.51412 13.5886C8.51541 14.1353 8.92619 14.3572 9.43068 14.082L13.5899 11.8138C14.0943 11.5386 14.5013 10.8719 14.5 10.3251L14.4872 5.81181H14.4859Z" fill="#C3D2DF"/>
</g>
<defs>
<clipPath id="clip0_535_69970">
<rect width="14" height="14" fill="white" transform="translate(0.5)"/>
</clipPath>
</defs>
</svg>
