<svg width="46" height="46" viewBox="0 0 46 46" fill="none" xmlns="http://www.w3.org/2000/svg">
<rect x="0.5" y="0.5" width="45" height="45" rx="3.5" fill="#282C32" stroke="#515962"/>
<path fill-rule="evenodd" clip-rule="evenodd" d="M21.75 24.25V29.25C21.75 29.9404 22.3096 30.5 23 30.5V30.5C23.6904 30.5 24.25 29.9404 24.25 29.25V24.25H29.25C29.9404 24.25 30.5 23.6904 30.5 23V23C30.5 22.3096 29.9404 21.75 29.25 21.75H24.25V16.75C24.25 16.0596 23.6904 15.5 23 15.5V15.5C22.3096 15.5 21.75 16.0596 21.75 16.75V21.75H16.75C16.0596 21.75 15.5 22.3096 15.5 23V23C15.5 23.6904 16.0596 24.25 16.75 24.25H21.75Z" fill="#C3D2DF"/>
</svg>
