<svg width="17" height="16" viewBox="0 0 17 16" fill="none" xmlns="http://www.w3.org/2000/svg">
<path d="M5.30701 6.66699C5.67342 6.66717 5.97285 6.9666 5.97302 7.33301C5.97302 7.69957 5.67353 7.99982 5.30701 8H3.30701C2.94034 8 2.64001 8.30033 2.64001 8.66699V13.333C2.64001 13.6997 2.94034 14 3.30701 14H7.97302C8.33969 14 8.64001 13.6997 8.64001 13.333V11.333C8.64019 10.9665 8.94045 10.667 9.30701 10.667C9.67342 10.6672 9.97285 10.9666 9.97302 11.333V13.333C9.97302 14.433 9.07302 15.333 7.97302 15.333H3.30701C2.20701 15.333 1.30701 14.433 1.30701 13.333V8.66699C1.30701 7.56699 2.20701 6.66699 3.30701 6.66699H5.30701ZM6.64001 11C7.1923 11 7.64001 11.4477 7.64001 12C7.64001 12.5523 7.1923 13 6.64001 13C6.08773 13 5.64002 12.5523 5.64001 12C5.64001 11.4477 6.08773 11 6.64001 11ZM4.64001 9C5.1923 9 5.64001 9.44772 5.64001 10C5.64001 10.5523 5.1923 11 4.64001 11C4.08773 11 3.64001 10.5523 3.64001 10C3.64001 9.44772 4.08773 9 4.64001 9ZM13.973 0.666992C15.073 0.666992 15.973 1.56699 15.973 2.66699V7.33301C15.973 8.43301 15.073 9.33301 13.973 9.33301H9.30701C8.20701 9.33301 7.30701 8.43301 7.30701 7.33301V2.66699C7.30701 1.56699 8.20701 0.666992 9.30701 0.666992H13.973ZM9.30701 2C8.94034 2 8.64001 2.30033 8.64001 2.66699V7.33301C8.64001 7.69967 8.94034 8 9.30701 8H13.973C14.3397 8 14.64 7.69967 14.64 7.33301V2.66699C14.64 2.30033 14.3397 2 13.973 2H9.30701ZM11.64 4C12.1923 4 12.64 4.44772 12.64 5C12.64 5.55228 12.1923 6 11.64 6C11.0877 6 10.64 5.55228 10.64 5C10.64 4.44772 11.0877 4 11.64 4Z" fill="#C3D2DF"/>
</svg>
