<svg width="16" height="16" viewBox="0 0 16 16" fill="none" xmlns="http://www.w3.org/2000/svg">
<path fill-rule="evenodd" clip-rule="evenodd" d="M5 1H1V5H2V2H5V1ZM1 15V11H2V14H5V15H1ZM15 5H14V2L11 2V1H15V5ZM11 15V14H14V11H15V15H11ZM11 4H5C4.44772 4 4 4.44772 4 5V11C4 11.5523 4.44772 12 5 12H11C11.5523 12 12 11.5523 12 11V5C12 4.44772 11.5523 4 11 4ZM5 3C3.89543 3 3 3.89543 3 5V11C3 12.1046 3.89543 13 5 13H11C12.1046 13 13 12.1046 13 11V5C13 3.89543 12.1046 3 11 3H5ZM7 5H5V7H7V5ZM5 9H7V11H5V9ZM11 5H9V7H11V5ZM8 8H9V9H8V8ZM9 10H8V11H9V10ZM10 8H11V9H10V8ZM11 10H10V11H11V10Z" fill="#EA5563"/>
</svg>
